P2
10 12
255
255 255 255 255 255 255 255 255 255 255 254 255 241 172 98 110 255 254 255 255 
253 255 198 127 89 56 255 253 255 255 255 255 251 255 153 53 255 253 255 255 
255 255 250 255 148 51 255 253 255 255 255 255 250 255 148 50 255 250 255 255 
255 255 251 255 152 55 255 253 255 255 253 255 205 124 73 25 122 156 255 254 
253 255 221 152 168 175 153 184 255 254 255 255 255 255 255 255 255 255 255 
255 255 255 254 252 252 252 252 253 255 255 255 255 255 255 255 255 255 255 
255 255 
