P2
10 12
255
255 255 255 255 248 253 255 255 255 255 254 255 240 82 70 55 185 255 253 255 
255 255 244 203 255 143 33 255 255 255 255 255 255 253 255 138 82 255 253 255 
255 252 255 172 40 13 201 255 253 255 255 255 255 241 238 133 30 246 255 254 
255 255 255 253 255 223 9 216 255 253 254 255 228 116 160 56 67 255 254 255 
254 255 243 140 115 150 244 255 254 255 255 255 255 255 255 255 254 254 255 
255 255 255 255 251 251 251 254 255 255 255 255 255 255 255 255 255 255 255 
255 255 
