P2
10 12
255
255 255 255 255 253 255 255 255 255 255 255 255 255 254 254 97 174 255 252 255 
255 255 251 255 131 0 149 255 251 255 255 252 255 173 65 78 129 255 251 255 
254 255 236 51 234 93 126 255 251 255 251 255 86 55 183 46 69 223 255 253 254 
255 173 133 139 46 58 212 255 253 255 255 255 251 255 84 128 255 251 255 255 
255 252 250 255 201 214 255 254 255 255 255 255 255 255 255 255 255 255 255 
255 255 255 255 255 253 254 255 255 255 255 255 255 255 255 255 255 255 255 
255 
