P2
10 12
255
255 255 255 255 251 250 255 255 255 255 255 253 255 152 61 54 127 255 254 255 
253 255 218 22 227 224 19 215 255 253 254 255 231 29 176 197 60 245 255 254 
255 252 255 118 0 1 177 255 252 255 252 255 190 46 225 115 13 218 255 253 251 
255 115 83 255 255 43 150 255 251 252 255 195 14 132 121 34 225 255 253 255 
254 255 203 119 129 222 255 254 255 255 255 254 255 255 255 254 254 255 255 
255 255 255 253 251 251 254 255 255 255 255 255 255 255 255 255 255 255 255 
255 
