P2
10 12
255
255 255 254 255 250 253 255 254 255 255 255 254 255 137 63 59 181 255 253 255 
252 255 177 39 244 168 20 236 255 254 251 255 113 98 255 252 28 171 255 252 
251 255 164 26 230 183 0 154 255 251 255 255 255 122 46 112 34 159 255 251 255 
255 254 254 255 235 28 214 255 253 254 255 227 116 159 44 116 255 253 255 254 
255 245 146 114 176 255 254 255 255 255 255 255 255 255 255 253 255 255 255 
255 255 255 251 251 252 255 255 255 255 255 255 255 255 255 255 255 255 255 
255 
