P2
10 12
255
255 255 255 254 255 254 254 255 255 255 255 255 255 255 105 151 255 252 255 
255 255 253 255 216 0 45 253 255 254 255 255 251 255 118 97 43 183 255 252 255 
254 255 252 51 229 111 87 255 252 255 252 255 189 15 141 84 20 243 255 254 251 
255 99 93 163 161 28 164 255 251 255 236 38 223 255 255 115 58 255 253 255 235 
191 255 250 255 231 181 253 255 255 255 255 254 255 255 254 255 255 255 255 
254 253 255 255 255 254 252 255 255 255 255 255 255 255 255 255 255 255 255 
