P2
10 12
255
255 255 255 255 255 255 255 255 255 255 252 255 192 73 90 68 164 255 254 255 
251 255 151 36 223 148 4 217 255 253 251 255 150 53 255 217 26 226 255 253 251 
255 157 14 104 11 154 255 252 255 251 255 151 40 228 150 42 218 255 253 251 
255 150 55 255 255 44 140 255 251 251 255 156 15 132 84 25 217 255 253 254 255 
228 168 159 162 227 255 254 255 255 255 255 255 255 255 254 254 255 255 255 
255 254 252 252 252 254 255 255 255 255 255 255 255 255 255 255 255 255 255 
