P2
10 12
255
255 255 255 255 255 255 255 255 255 255 252 255 149 143 255 255 103 203 255 
253 251 255 98 90 255 254 32 177 255 252 251 255 101 92 255 255 35 180 255 252 
251 255 112 16 90 81 3 185 255 252 251 255 102 77 244 224 27 180 255 252 251 
255 101 92 255 255 35 180 255 252 251 255 98 90 255 254 32 178 255 252 254 255 
207 205 255 255 187 232 255 254 255 255 255 255 255 255 255 255 255 255 255 
255 253 253 255 255 252 254 255 255 255 255 255 255 255 255 255 255 255 255 
