P2
10 12
255
255 255 255 255 255 255 255 255 255 255 253 255 209 101 254 255 255 255 255 
255 252 255 187 28 253 255 254 255 255 255 252 255 189 32 253 255 254 255 255 
255 252 255 188 29 253 255 254 255 255 255 252 255 188 28 249 252 250 253 255 
255 252 255 188 33 254 255 254 255 255 255 252 255 192 10 123 126 114 203 255 
253 254 255 238 172 160 160 153 217 255 253 255 255 255 255 255 255 255 255 
255 255 255 255 254 252 252 252 252 254 255 255 255 255 255 255 255 255 255 
255 255 255 
