P2
10 12
255
255 255 255 254 255 254 255 255 255 255 254 255 109 133 255 253 93 149 255 252 
254 255 53 18 255 208 0 109 255 251 255 255 92 39 186 141 48 114 255 251 255 
254 93 125 71 99 120 98 255 251 255 255 79 210 9 113 161 90 255 251 255 255 
76 231 170 227 155 93 255 251 255 255 74 225 255 255 144 93 255 251 255 255 
200 246 253 255 222 205 255 254 255 255 255 255 255 255 255 255 255 255 255 
255 253 255 255 255 254 253 255 255 255 255 255 255 255 255 255 255 255 255 
