P2
10 12
255
255 255 255 255 254 255 255 255 255 255 252 255 152 121 255 255 135 193 255 
253 251 255 116 0 202 255 75 164 255 251 251 255 122 18 77 255 79 165 255 251 
251 255 103 133 56 183 94 161 255 251 251 255 98 151 181 56 78 165 255 251 251 
255 102 136 255 72 0 183 255 251 251 255 99 133 255 197 0 180 255 251 254 255 
208 219 255 254 188 229 255 254 255 255 255 255 255 254 255 255 255 255 255 
255 253 254 255 255 252 254 255 255 255 255 255 255 255 255 255 255 255 255 
