P2
10 12
255
255 255 253 255 250 252 255 254 255 255 255 255 253 116 63 61 165 255 253 255 
251 255 124 52 245 203 20 197 255 252 255 255 33 175 255 255 94 95 255 251 255 
238 17 206 255 255 129 58 255 252 255 244 21 199 255 255 121 68 255 252 253 
255 55 140 255 255 64 128 255 251 252 255 188 24 147 104 42 240 255 254 255 
253 255 206 118 135 234 255 254 255 255 255 254 255 255 255 254 254 255 255 
255 255 255 253 251 251 254 255 255 255 255 255 255 255 255 255 255 255 255 
255 
