P2
10 12
255
255 255 255 255 255 255 255 255 255 255 252 255 192 73 89 76 185 255 253 255 
251 255 151 36 224 136 16 235 255 254 251 255 150 54 255 208 17 231 255 254 
251 255 156 18 130 43 142 255 253 255 251 255 153 32 122 25 237 255 254 255 
251 255 150 52 255 89 71 255 253 255 251 255 149 48 255 243 29 136 255 252 254 
255 223 193 255 255 214 181 255 255 255 255 255 255 255 254 254 255 255 255 
255 255 254 253 255 255 253 252 255 255 255 255 255 255 255 255 255 255 255 
255 
