P2
10 12
255
255 255 255 255 255 255 255 255 255 255 255 223 85 90 83 87 83 116 255 255 255 
246 208 225 47 114 227 215 255 255 255 255 252 255 59 142 255 251 255 255 255 
255 250 255 57 139 255 249 255 255 255 255 252 255 57 140 255 251 255 255 255 
255 252 255 59 141 255 251 255 255 255 255 252 255 57 138 255 251 255 255 255 
255 254 255 194 220 255 254 255 255 255 255 255 255 255 255 255 255 255 255 
255 255 255 255 253 254 255 255 255 255 255 255 255 255 255 255 255 255 255 
255 
