P2
10 12
255
255 255 255 254 255 255 254 255 255 255 255 228 87 233 255 255 218 110 255 255 
255 255 35 147 255 255 123 92 255 251 251 255 132 52 255 255 53 194 255 252 
253 255 221 14 227 200 52 255 255 255 255 253 255 58 140 122 121 255 251 255 
255 252 255 159 29 51 214 255 253 255 255 254 255 242 11 71 255 253 255 255 
255 255 254 255 193 214 255 254 255 255 255 255 255 254 255 254 255 255 255 
255 255 255 255 255 253 253 255 255 255 255 255 255 255 255 255 255 255 255 
255 255 
