P2
10 12
255
255 255 255 255 254 255 255 255 255 255 255 212 121 255 253 255 242 119 247 
255 255 218 48 251 254 255 212 64 255 255 255 245 49 242 94 144 197 85 255 251 
254 255 63 196 33 83 156 115 255 251 251 255 97 113 86 87 91 158 255 251 251 
255 136 21 159 106 18 205 255 252 251 255 169 0 219 142 0 239 255 254 254 255 
234 176 252 229 183 254 255 255 255 255 255 255 255 255 255 255 255 255 255 
255 254 252 255 254 252 255 255 255 255 255 255 255 255 255 255 255 255 255 
