P2
10 12
255
255 255 255 254 254 254 254 254 255 255 255 255 98 163 255 255 152 133 255 253 
252 255 164 8 233 212 22 214 255 253 255 252 255 94 65 60 159 255 252 255 255 
254 255 246 16 76 255 251 255 255 255 252 255 172 29 30 210 255 253 255 253 
255 224 24 217 117 48 255 255 254 255 255 52 138 255 249 38 114 255 252 255 
237 178 252 253 255 219 177 255 255 255 255 255 253 255 254 254 255 255 255 
255 254 252 255 255 255 253 252 255 255 255 255 255 255 255 255 255 255 255 
255 
