P2
#Created with GIMP
10 12
255
253 255 213 73 9 14 94 228 255 254 255 222 18 21 122 108 4 43 242 255 255 99 
0 226 255 255 196 0 141 255 251 22 79 255 248 250 255 43 55 255 227 0 123 255 
251 252 255 84 19 250 214 0 143 255 251 251 255 102 5 241 216 0 142 255 251 
251 255 101 6 242 231 0 121 255 251 252 255 81 22 253 255 30 73 255 249 252 
255 37 62 255 255 115 0 205 255 255 175 0 150 255 255 232 35 2 81 72 0 65 249 
255 254 255 231 113 43 47 132 243 255 254 
