P2
#Created with GIMP
10 12
255
255 255 254 249 255 193 65 241 255 254 255 255 253 255 215 26 12 239 255 254 
254 255 251 142 8 2 19 238 255 254 251 255 111 0 157 105 0 241 255 254 254 255 
195 218 255 104 0 242 255 254 255 255 255 251 255 104 0 242 255 254 255 255 
253 249 255 105 0 242 255 254 255 255 255 251 255 105 0 242 255 254 255 255 
255 251 255 105 0 242 255 254 255 255 255 251 255 106 1 242 255 254 255 255 
255 251 255 105 0 242 255 254 255 255 255 252 255 138 55 245 255 254 
