P2
#Created with GIMP
10 12
255
255 255 255 255 251 255 127 78 255 255 255 255 255 251 255 170 0 42 255 255 
255 255 252 255 195 11 0 45 255 255 255 253 255 223 17 53 50 31 255 255 253 
255 242 47 9 231 72 25 255 255 255 255 77 0 184 255 60 27 255 254 255 115 0 173 
255 255 65 28 255 254 185 0 14 81 71 78 19 11 65 171 189 49 54 37 38 41 10 8 28 
155 254 255 255 255 252 255 67 31 255 254 255 254 254 254 251 255 64 27 255 
255 255 255 255 255 253 255 133 109 255 255 
