P2
#Created with GIMP
10 12
255
252 255 127 40 43 41 44 25 164 255 255 255 43 9 64 57 62 45 172 255 255 230 
0 115 255 251 255 255 255 255 255 185 0 179 255 236 253 255 253 255 255 129 
0 90 25 0 31 161 255 254 255 77 0 76 155 158 66 0 146 255 255 209 196 254 255 
254 255 64 20 245 255 255 255 251 251 247 255 140 0 215 250 125 154 255 250 
248 255 121 0 230 255 58 9 225 255 255 227 12 73 255 255 209 19 11 83 80 7 33 
224 255 253 255 222 106 43 46 120 235 255 254 
