P2
#Created with GIMP
10 12
255
254 255 231 114 44 45 119 234 255 254 255 233 37 4 81 79 2 43 236 255 255 134 
0 197 255 255 192 0 137 255 255 119 0 231 255 255 232 0 118 255 255 215 19 76 
195 196 77 17 213 255 252 255 156 0 1 1 0 159 255 252 255 153 0 113 213 211 
107 0 163 255 254 30 60 255 253 254 255 56 34 255 241 9 100 255 245 244 255 
101 9 242 255 55 24 244 255 255 244 25 54 255 255 193 3 29 117 121 32 2 192 
255 253 255 203 70 10 10 69 204 255 253 
