P2
10 12
255
255 255 254 253 255 254 252 255 255 255 255 255 255 251 217 237 255 253 255 
255 254 255 234 102 145 76 160 255 253 255 252 255 84 126 255 204 10 210 255 
253 255 250 18 174 255 255 35 120 255 251 255 255 24 118 255 255 38 100 255 
251 252 255 158 10 134 150 0 148 255 251 255 254 255 208 191 142 10 232 255 
253 255 255 254 255 239 34 158 255 252 255 255 255 234 188 77 167 255 252 255 
255 255 255 206 183 235 255 252 255 255 255 255 255 255 255 254 252 255 255 
255 255 
