P2
#Created with ANN
10 12
255
255 255 255 255 255 255 255 255 255 255 255 0 0 0 0 0 0 0 0 0
255 255 255 255 255 255 255 255 0 0 255 255 255 255 255 255 255 249 0 0
255 255 255 255 255 255 255 0 0 255 255 255 255 255 255 255 246 0 55 255
255 255 255 255 255 255 0 0 255 255 255 255 255 255 255 0 0 255 255 255
255 255 255 255 255 0 0 255 255 255 255 255 255 255 255 0 0 255 255 255
255 255 255 255 87 0 255 255 255 255 255 255 255 255 24 0 255 255 255 255
