P2
#Created with ANN
10 12
255
255 255 255 255 255 255 255 255 255 255 255 255 255 0 0 255 255 255 255 255
255 255 0 0 116 255 255 255 255 255 255 255 0 0 255 255 255 255 255 255
255 168 0 255 255 255 255 255 255 255 255 6 0 255 255 255 255 255 255 255
255 3 0 0 0 0 0 255 255 255 255 13 0 255 255 0 0 0 255 255
255 0 0 255 255 255 255 0 0 255 255 0 0 255 255 255 255 0 0 255
255 169 0 0 0 0 0 0 0 255 255 255 255 0 0 0 0 1 255 255
