P2
#Created with ANN
10 12
255
255 255 255 255 255 255 255 255 255 255 255 0 0 0 0 0 0 0 0 0
255 91 1 0 0 1 11 11 0 0 255 255 255 255 255 255 255 255 0 255
255 255 255 255 255 255 255 0 0 255 255 255 255 255 255 255 255 0 0 255
255 255 255 255 255 255 249 0 255 255 255 255 255 255 255 255 0 0 255 255
255 255 255 255 255 255 0 62 255 255 255 255 255 255 255 0 0 255 255 255
255 255 255 255 255 0 0 255 255 255 255 255 255 255 255 0 255 255 255 255
