P2
#Created with ANN
10 12
255
255 255 255 255 255 255 255 255 255 255 255 255 255 0 0 0 0 0 0 255
255 255 0 0 0 0 255 0 0 4 255 255 0 255 255 255 255 0 0 32
255 255 0 0 255 255 255 0 0 13 255 255 255 0 0 0 0 0 0 9
255 255 255 255 255 0 0 0 0 6 255 255 255 255 255 255 255 255 0 9
255 255 255 255 255 255 255 255 0 167 255 255 255 255 255 255 255 255 0 0
255 255 255 255 255 255 255 255 0 0 255 255 255 255 255 255 255 255 0 250
