P2
#Created with ANN
10 12
255
255 255 255 255 255 255 255 255 255 255 255 255 255 255 255 255 5 0 0 255
255 255 255 255 255 255 0 0 0 255 255 255 255 255 255 0 0 0 0 255
255 255 255 0 0 0 255 0 0 255 255 249 0 0 0 255 255 0 91 255
255 0 0 255 255 255 255 0 250 255 255 255 255 255 255 255 255 0 13 255
255 255 255 255 255 255 255 0 25 255 255 255 255 255 255 255 255 0 2 255
255 255 255 255 255 255 255 0 0 255 255 255 255 255 255 255 255 0 0 255
