P2
#Created with ANN
10 12
255
255 255 255 255 0 0 0 249 255 255 255 255 255 0 0 0 0 0 0 255
255 255 0 0 255 255 255 175 0 0 255 255 0 255 255 255 255 255 0 0
255 255 11 255 255 255 255 255 0 255 255 255 255 255 255 255 255 0 0 255
255 255 255 255 255 255 0 0 118 255 255 255 255 255 255 0 0 255 255 255
255 255 255 255 0 0 255 255 255 255 255 255 255 0 0 255 255 255 255 255
255 255 0 0 0 0 0 0 3 0 255 169 0 0 0 0 0 0 0 0
