P2
#Created with ANN
10 12
255
255 255 255 255 255 255 255 255 255 255 255 255 255 255 0 0 0 0 16 255
255 255 255 0 0 0 0 0 0 255 255 255 255 0 0 255 255 1 0 255
255 255 255 0 0 255 255 0 0 255 255 255 255 0 0 0 0 0 255 255
255 255 252 0 0 0 0 168 255 255 255 0 0 0 178 255 0 0 0 255
255 0 0 255 255 255 255 0 0 0 255 0 0 89 255 255 255 255 0 0
255 255 0 0 0 0 0 0 0 119 255 255 255 255 0 0 0 0 0 255
