P2
#Created with ANN
10 12
255
255 255 255 255 255 255 255 255 255 255 255 255 255 0 0 0 0 0 170 255
255 255 9 0 255 255 255 0 0 255 255 255 37 0 255 255 255 0 0 255
255 255 255 0 0 0 0 0 0 255 255 255 255 255 91 0 0 0 0 255
255 255 255 255 255 255 255 0 0 255 255 255 255 255 255 255 255 0 0 255
255 255 255 2 255 255 255 0 0 255 255 255 255 0 0 255 255 0 0 255
255 255 255 0 0 0 0 0 116 255 255 255 255 255 255 255 255 255 255 255
