P2
#Created with ANN
10 12
255
255 255 255 255 255 255 255 255 255 255 255 255 255 255 0 0 0 0 250 255
255 255 255 0 0 0 0 0 255 255 255 255 0 0 255 255 255 255 255 255
255 255 0 0 255 255 255 255 255 255 255 0 0 0 0 255 255 255 255 255
255 0 0 0 0 0 0 0 255 255 255 0 0 249 255 255 0 0 0 255
255 0 0 255 255 255 255 0 0 255 255 0 0 255 255 255 255 0 0 255
255 116 0 0 0 0 0 0 255 255 255 255 255 255 0 0 0 0 255 255
