P2
#Created with ANN
10 12
255
255 255 255 255 255 255 255 255 255 255 255 0 0 0 0 0 0 0 0 0
255 255 255 255 255 255 255 0 0 255 255 255 255 255 255 255 0 0 255 255
255 255 255 255 255 255 0 0 255 255 255 255 255 255 255 255 0 250 255 255
255 255 255 255 255 17 0 255 255 255 255 255 255 255 255 0 0 255 255 255
255 255 255 255 255 0 91 255 255 255 255 255 255 255 0 0 255 255 255 255
255 255 255 255 0 0 255 255 255 255 255 255 255 255 0 0 255 255 255 255
