P2
#Created with ANN
10 12
255
255 255 255 255 255 255 255 255 255 255 255 0 0 0 0 0 0 0 0 0
255 255 27 255 170 11 11 0 0 0 255 255 255 255 255 255 255 0 0 255
255 255 255 255 255 255 255 0 0 255 255 255 255 255 255 255 0 0 255 255
255 255 255 255 255 255 0 0 255 255 255 255 255 255 255 255 0 171 255 255
255 255 255 255 255 0 0 255 255 255 255 255 255 255 255 0 0 255 255 255
255 255 255 255 249 0 250 255 255 255 255 255 255 255 0 0 255 255 255 255
