P2
#Created with ANN
10 12
255
255 255 255 255 255 255 255 255 255 255 255 255 0 0 0 0 0 0 252 255
255 255 0 166 255 255 255 0 0 255 255 255 255 255 255 255 255 255 0 255
255 255 255 255 255 255 255 255 0 255 255 255 255 255 255 255 23 0 0 255
255 255 255 255 0 0 0 0 0 255 255 255 255 255 255 255 255 255 0 0
255 255 255 255 255 255 255 255 0 0 255 255 255 255 255 255 255 255 0 0
255 0 0 255 255 255 255 0 0 0 255 0 0 0 0 0 0 0 174 255
