P2
#Created with ANN
10 12
255
255 255 255 255 255 255 255 255 255 255 255 255 255 255 255 255 0 0 2 255
255 255 255 255 255 255 0 0 37 255 255 255 255 255 0 0 0 0 14 255
255 255 255 255 0 0 255 0 37 255 255 255 255 0 0 255 255 0 61 255
255 255 0 0 0 255 255 0 1 255 255 0 0 0 255 255 255 0 1 255
255 0 0 0 0 0 0 0 0 0 255 0 0 0 0 0 0 0 0 0
255 255 255 255 255 255 255 0 0 255 255 255 255 255 255 255 255 0 0 255
