P2
#Created with ANN
10 12
255
255 255 255 255 255 255 0 0 255 255 255 255 255 0 0 0 0 0 0 255
255 255 0 0 255 255 255 255 0 0 255 255 0 0 255 255 255 255 59 0
255 0 0 255 255 255 255 255 255 0 255 0 36 255 255 255 255 255 255 0
2 0 255 255 255 255 255 255 255 0 0 0 255 255 255 255 255 255 255 0
0 0 255 255 255 255 255 255 255 0 173 0 255 255 255 255 255 255 0 0
255 0 0 0 0 11 165 0 0 0 255 255 0 0 0 0 0 0 0 255
