P2
#Created with ANN
10 12
255
255 255 255 255 255 255 255 255 255 255 255 255 255 255 255 0 0 255 255 255
255 255 255 255 0 0 0 255 255 255 255 255 255 52 0 0 0 255 255 255
255 255 76 0 0 0 0 255 255 255 255 0 0 0 255 0 0 255 255 255
0 0 0 255 255 0 0 255 255 255 255 255 255 255 255 0 0 255 255 255
255 255 255 255 255 0 0 255 255 255 255 255 255 255 255 0 0 255 255 255
255 255 255 255 255 0 0 255 255 255 255 255 255 255 255 0 0 255 255 255
