P2
#Created with ANN
10 12
255
255 255 169 39 165 11 20 0 1 255 255 37 0 0 0 0 0 0 0 0
255 169 0 255 255 255 255 255 255 255 255 255 0 0 255 255 255 255 255 255
255 255 0 0 255 255 255 255 255 255 255 255 0 0 0 0 0 255 255 255
255 255 0 0 0 0 0 0 116 255 255 255 255 255 255 255 255 0 0 252
255 255 255 255 255 255 255 255 0 0 255 255 88 255 255 255 255 255 0 0
255 255 0 0 0 0 0 0 0 0 255 255 252 0 0 0 0 255 255 255
