P2
#Created with ANN
10 12
255
255 255 255 255 255 255 255 255 255 255 255 255 255 0 0 0 0 0 255 255
255 255 255 0 0 255 255 0 0 255 255 255 255 0 255 255 255 0 0 255
255 255 255 0 255 255 255 0 0 255 255 255 255 0 0 255 255 0 255 255
255 255 255 35 0 0 0 0 255 255 255 255 255 0 0 0 0 0 0 255
255 255 0 0 0 255 255 255 0 35 255 255 0 0 255 255 255 255 0 0
255 255 0 0 255 255 255 255 0 0 255 255 0 0 0 0 0 0 0 0
