P2
35 45
255
255 255 255 255 255 255 255 255 255 255 255 255 255 255 255 255 255 255 255 
255 255 255 255 255 255 255 255 255 255 255 255 255 255 255 255 255 255 255 
255 255 255 255 255 255 255 255 255 255 255 255 255 255 255 255 255 255 255 
255 255 255 255 255 255 255 255 255 255 255 255 255 255 255 255 255 255 255 
255 255 255 255 255 255 255 255 255 255 255 255 255 255 255 255 255 255 255 
255 255 255 255 255 255 255 255 255 255 255 255 255 255 255 255 255 255 255 
255 255 255 255 255 255 255 255 255 255 255 255 255 255 255 255 255 255 255 
255 255 255 255 255 255 255 255 255 255 255 255 255 255 255 255 255 255 255 
255 255 254 251 250 250 251 254 255 255 255 255 255 255 255 255 255 255 255 
255 255 255 255 255 255 255 255 255 255 255 255 255 255 255 255 255 252 254 
255 255 255 255 255 252 254 255 255 255 255 255 255 255 255 255 255 255 255 
255 255 255 255 255 255 255 255 255 255 255 255 255 253 255 247 176 124 120 
153 233 255 253 254 255 255 255 255 255 255 255 255 255 255 255 255 255 255 
255 255 255 255 255 255 255 255 255 252 255 191 43 0 2 5 0 15 151 255 252 255 
255 255 255 255 255 255 255 255 255 255 255 255 255 255 255 255 255 255 255 
255 255 253 255 168 5 0 102 236 255 163 11 0 119 255 252 255 255 255 255 255 
255 255 255 255 255 255 255 255 255 255 255 255 255 255 255 253 255 201 16 0 76 
255 254 252 255 139 0 0 160 255 252 255 255 255 255 255 255 255 255 255 255 
255 255 255 255 255 255 255 255 254 255 255 61 0 3 194 255 251 253 255 240 32 
0 25 223 255 253 255 255 255 255 255 255 255 255 255 255 255 255 255 255 255 
255 255 252 255 171 0 0 45 249 255 254 255 252 255 107 0 0 113 255 252 255 255 
255 255 255 255 255 255 255 255 255 255 255 255 255 255 255 254 255 75 0 0 108 
255 252 255 255 252 255 164 0 0 25 238 255 254 255 255 255 255 255 255 255 255 
255 255 255 255 255 255 255 253 255 224 12 1 0 144 255 251 255 255 253 255 207 
4 0 0 176 255 252 255 255 255 255 255 255 255 255 255 255 255 255 255 255 255 
251 255 164 0 3 0 178 255 252 255 255 254 255 241 15 0 0 117 255 251 254 255 
255 255 255 255 255 255 255 255 255 255 255 255 255 251 255 121 0 4 2 204 255 
253 255 255 254 255 249 40 0 0 78 255 254 254 255 255 255 255 255 255 255 255 
255 255 255 255 255 255 253 255 90 0 1 9 225 255 254 255 255 254 255 251 44 0 
0 50 252 255 254 255 255 255 255 255 255 255 255 255 255 255 255 255 255 255 
255 71 0 0 14 241 255 254 255 255 255 255 255 69 0 0 40 249 255 254 255 255 
255 255 255 255 255 255 255 255 255 255 255 255 255 255 71 0 0 14 241 255 254 
255 255 255 254 255 74 0 0 14 241 255 254 255 255 255 255 255 255 255 255 255 
255 255 255 255 255 255 255 71 0 0 14 241 255 254 255 255 254 255 254 56 0 0 25 
244 255 254 255 255 255 255 255 255 255 255 255 255 255 255 255 255 255 255 
70 0 0 14 241 255 254 255 255 254 255 249 40 0 0 42 250 255 254 255 255 255 
255 255 255 255 255 255 255 255 255 255 255 253 255 87 0 0 14 241 255 254 255 
255 254 255 250 42 0 0 54 253 255 254 255 255 255 255 255 255 255 255 255 255 
255 255 255 255 251 255 118 0 2 10 228 255 254 255 255 254 255 243 19 0 0 87 
255 253 255 255 255 255 255 255 255 255 255 255 255 255 255 255 255 251 255 
157 0 2 2 202 255 253 255 255 254 255 229 10 1 0 128 255 251 255 255 255 255 
255 255 255 255 255 255 255 255 255 255 255 253 255 217 8 0 0 169 255 252 255 
255 253 255 197 1 0 0 185 255 252 255 255 255 255 255 255 255 255 255 255 255 
255 255 255 255 255 254 255 68 0 0 121 255 251 255 255 251 255 157 0 0 34 244 
255 254 255 255 255 255 255 255 255 255 255 255 255 255 255 255 255 255 251 
255 161 0 0 61 254 255 255 255 251 255 108 0 0 129 255 252 255 255 255 255 255 
255 255 255 255 255 255 255 255 255 255 255 255 254 255 251 51 0 8 211 255 252 
253 255 246 36 0 28 231 255 254 255 255 255 255 255 255 255 255 255 255 255 
255 255 255 255 255 255 255 252 255 189 5 0 109 255 252 252 255 145 0 0 160 
255 252 255 255 255 255 255 255 255 255 255 255 255 255 255 255 255 255 255 
255 255 255 253 255 145 0 2 155 255 255 151 5 0 122 255 253 255 255 255 255 
255 255 255 255 255 255 255 255 255 255 255 255 255 255 255 255 255 255 252 
255 162 20 0 17 13 0 30 169 255 253 255 255 255 255 255 255 255 255 255 255 
255 255 255 255 255 255 255 255 255 255 255 255 255 255 252 255 233 156 119 
119 171 243 255 253 255 255 255 255 255 255 255 255 255 255 255 255 255 255 
255 255 255 255 255 255 255 255 255 255 255 255 253 255 255 255 255 255 255 
252 255 255 255 255 255 255 255 255 255 255 255 255 255 255 255 255 255 255 
255 255 255 255 255 255 255 255 255 255 254 251 250 250 252 254 255 255 255 
255 255 255 255 255 255 255 255 255 255 255 255 255 255 255 255 255 255 255 
255 255 255 255 255 255 255 255 255 255 255 255 255 255 255 255 255 255 255 
255 255 255 255 255 255 255 255 255 255 255 255 255 255 255 255 255 255 255 
255 255 255 255 255 255 255 255 255 255 255 255 255 255 255 255 255 255 255 
255 255 255 255 255 255 255 255 255 255 255 255 255 255 255 255 255 255 255 
255 255 255 255 255 255 255 255 255 255 255 255 255 255 255 255 255 255 255 
255 255 255 255 255 255 255 255 255 255 255 255 255 255 255 255 255 255 255 
255 255 255 255 255 255 255 255 255 255 255 255 255 255 255 255 255 255 255 
255 255 255 255 255 255 255 255 255 255 255 255 255 255 255 255 255 255 255 
255 255 255 255 255 255 255 255 255 255 255 255 255 255 255 255 255 255 255 
255 255 255 255 255 255 255 255 255 255 255 255 255 255 255 255 255 255 255 
255 255 255 255 255 255 255 255 255 255 255 255 255 255 255 255 255 255 255 
255 255 255 255 255 255 255 255 255 255 255 255 255 255 255 255 255 255 255 
255 255 255 255 255 255 255 255 255 255 255 255 255 255 255 255 255 255 255 
255 255 255 255 255 255 255 255 255 255 255 255 255 255 255 255 255 255 255 
255 255 255 255 255 255 255 255 255 255 255 255 255 255 255 255 255 255 255 
255 255 255 255 255 255 255 255 255 255 255 255 255 255 255 255 255 255 255 
255 255 255 255 255 255 255 255 255 255 255 255 255 255 255 255 255 255 255 
255 255 255 255 255 255 255 255 255 255 255 255 255 255 255 255 255 255 255 
255 255 255 255 255 255 255 255 255 255 255 255 255 255 255 255 255 255 255 
255 255 255 255 255 255 255 255 255 255 255 255 255 255 255 255 255 
