P2
35 45
255
255 255 255 255 255 255 255 255 255 255 255 255 255 255 255 255 255 255 255 
255 255 255 255 255 255 255 255 255 255 255 255 255 255 255 255 255 255 255 
255 255 255 255 255 255 255 255 255 255 255 255 255 255 255 255 255 255 255 
255 255 255 255 255 255 255 255 255 255 255 255 255 255 255 255 255 255 255 
255 255 255 255 255 255 255 255 255 255 255 255 255 255 255 255 255 255 255 
255 255 255 255 255 255 255 255 255 255 255 255 255 255 255 255 255 255 255 
255 255 255 255 255 255 255 255 255 255 255 255 255 255 255 255 255 255 255 
255 255 255 255 255 255 255 255 255 255 255 255 255 255 255 255 255 255 255 
255 253 251 250 250 250 252 255 255 255 255 255 255 255 255 255 255 255 255 
255 255 255 255 255 255 255 255 255 255 255 255 255 255 255 254 252 255 255 
255 255 255 255 255 252 254 255 255 255 255 255 255 255 255 255 255 255 255 
255 255 255 255 255 255 255 255 255 255 255 254 253 255 218 150 127 127 134 
184 246 255 253 255 255 255 255 255 255 255 255 255 255 255 255 255 255 255 
255 255 255 255 255 255 255 254 255 241 107 8 0 0 0 1 0 41 177 255 253 255 255 
255 255 255 255 255 255 255 255 255 255 255 255 255 255 255 255 255 255 254 
255 242 67 0 2 0 0 0 3 3 0 0 140 255 253 255 255 255 255 255 255 255 255 255 
255 255 255 255 255 255 255 255 255 255 253 255 100 0 2 43 99 108 73 8 0 4 2 0 
175 255 252 255 255 255 255 255 255 255 255 255 255 255 255 255 255 255 255 
255 253 255 203 0 15 163 254 255 254 255 210 43 0 5 0 50 253 255 254 255 255 
255 255 255 255 255 255 255 255 255 255 255 255 255 255 251 255 125 0 190 255 
253 252 251 252 255 222 26 0 1 4 206 255 253 255 255 255 255 255 255 255 255 
255 255 255 255 255 255 255 254 255 255 41 106 255 249 254 255 255 255 249 255 
138 0 5 0 167 255 252 255 255 255 255 255 255 255 255 255 255 255 255 255 255 
255 255 255 252 147 222 255 254 255 255 255 255 253 255 207 4 0 0 169 255 252 
255 255 255 255 255 255 255 255 255 255 255 255 255 255 255 255 255 255 255 
254 255 255 255 255 255 255 254 255 236 13 0 3 203 255 253 255 255 255 255 255 
255 255 255 255 255 255 255 255 255 255 255 255 255 251 253 255 255 255 255 
255 255 253 255 212 7 0 36 248 255 254 255 255 255 255 255 255 255 255 255 255 
255 255 255 255 255 255 255 255 255 255 255 255 255 255 255 255 252 255 165 
0 0 121 255 251 255 255 255 255 255 255 255 255 255 255 255 255 255 255 255 
255 255 255 255 255 255 255 255 255 255 255 255 253 255 92 0 26 222 255 253 
255 255 255 255 255 255 255 255 255 255 255 255 255 255 255 255 255 255 255 
255 255 255 255 255 255 255 253 255 217 13 0 140 255 252 255 255 255 255 255 
255 255 255 255 255 255 255 255 255 255 255 255 255 255 255 255 255 255 255 
255 255 255 252 255 96 0 67 254 254 255 255 255 255 255 255 255 255 255 255 
255 255 255 255 255 255 255 255 255 255 255 255 255 255 255 255 255 251 255 
186 0 25 217 255 253 255 255 255 255 255 255 255 255 255 255 255 255 255 255 
255 255 255 255 255 255 255 255 255 255 255 255 253 255 230 36 0 184 255 252 
255 255 255 255 255 255 255 255 255 255 255 255 255 255 255 255 255 255 255 
255 255 255 255 255 255 255 254 254 252 72 0 160 255 252 255 255 255 255 255 
255 255 255 255 255 255 255 255 255 255 255 255 255 255 255 255 255 255 255 
255 255 254 253 255 104 0 143 255 252 255 255 255 254 254 255 255 255 255 255 
255 255 255 255 255 255 255 255 255 255 255 255 255 255 255 255 255 252 255 
118 0 140 255 252 255 255 255 254 254 255 255 255 255 255 255 255 255 255 255 
255 255 255 255 255 255 255 255 255 255 254 254 251 255 139 0 117 255 251 254 
254 254 253 252 255 250 254 255 255 255 255 255 255 255 255 255 255 255 255 
255 255 255 255 255 255 254 251 255 142 0 120 255 253 255 255 255 255 253 255 
122 117 255 252 255 255 255 255 255 255 255 255 255 255 255 255 255 255 255 
255 254 253 255 129 0 111 255 249 249 250 250 243 241 219 117 0 167 255 251 
255 255 255 255 255 255 255 255 255 255 255 255 255 255 255 255 254 255 116 
0 5 48 45 42 43 43 43 22 13 8 0 32 246 255 254 255 255 255 255 255 255 255 255 
255 255 255 255 255 255 254 255 249 98 0 2 0 0 0 0 0 0 0 0 0 4 0 106 255 252 
255 255 255 255 255 255 255 255 255 255 255 255 255 255 255 251 255 164 0 9 6 
5 6 7 7 7 7 7 6 6 6 3 189 255 252 255 255 255 255 255 255 255 255 255 255 255 
255 255 255 255 254 255 237 213 213 213 213 213 213 213 213 212 212 213 213 
212 215 252 255 255 255 255 255 255 255 255 255 255 255 255 255 255 255 255 
255 255 255 255 255 255 255 255 255 255 255 255 255 255 255 255 255 255 255 
255 255 255 255 255 255 255 255 255 255 255 255 255 255 255 255 255 255 255 
254 253 253 253 253 253 253 253 253 253 253 253 253 253 253 255 255 255 255 
255 255 255 255 255 255 255 255 255 255 255 255 255 255 255 255 255 255 255 
255 255 255 255 255 255 255 255 255 255 255 255 255 255 255 255 255 255 255 
255 255 255 255 255 255 255 255 255 255 255 255 255 255 255 255 255 255 255 
255 255 255 255 255 255 255 255 255 255 255 255 255 255 255 255 255 255 255 
255 255 255 255 255 255 255 255 255 255 255 255 255 255 255 255 255 255 255 
255 255 255 255 255 255 255 255 255 255 255 255 255 255 255 255 255 255 255 
255 255 255 255 255 255 255 255 255 255 255 255 255 255 255 255 255 255 255 
255 255 255 255 255 255 255 255 255 255 255 255 255 255 255 255 255 255 255 
255 255 255 255 255 255 255 255 255 255 255 255 255 255 255 255 255 255 255 
255 255 255 255 255 255 255 255 255 255 255 255 255 255 255 255 255 255 255 
255 255 255 255 255 255 255 255 255 255 255 255 255 255 255 255 255 255 255 
255 255 255 255 255 255 255 255 255 255 255 255 255 255 255 255 255 255 255 
255 255 255 255 255 255 255 255 255 255 255 255 255 255 255 255 255 255 255 
255 255 255 255 255 255 255 255 255 255 255 255 255 255 255 255 255 255 255 
255 255 255 255 255 255 255 255 255 255 255 255 255 255 255 255 255 255 255 
255 255 255 255 255 255 255 255 255 255 255 255 255 255 255 255 255 255 255 
255 255 255 255 255 255 255 255 255 255 255 255 255 255 255 255 255 255 255 
255 255 255 255 255 255 255 255 255 255 255 255 255 255 255 255 255 255 255 
255 255 255 255 255 255 255 255 255 255 255 255 255 255 255 255 255 255 255 
255 255 255 255 255 255 255 255 255 255 255 255 255 255 255 255 255 255 255 
255 255 255 255 255 255 255 255 255 255 255 255 255 
