P2
35 45
255
255 255 255 255 255 255 255 255 255 255 255 255 255 255 255 255 255 255 255 
255 255 255 255 255 255 255 255 255 255 255 255 255 255 255 255 255 255 255 
255 255 255 255 255 255 255 255 255 255 255 255 255 255 255 255 255 255 255 
255 255 255 255 255 255 255 255 255 255 255 255 255 255 255 255 255 255 255 
255 255 255 255 255 255 255 255 255 255 255 255 255 255 255 255 255 255 255 
255 255 255 255 255 255 255 255 255 255 255 255 255 255 255 255 255 255 255 
255 255 255 255 255 255 255 255 255 255 255 255 255 255 255 255 255 255 255 
255 255 255 255 255 255 255 255 255 255 255 255 255 255 255 255 255 255 255 
255 255 254 252 250 250 250 250 251 252 254 255 255 254 251 255 255 255 255 
255 255 255 255 255 255 255 255 255 255 255 255 255 255 255 255 253 252 255 
255 255 255 255 255 255 255 254 251 253 254 255 255 255 255 255 255 255 255 
255 255 255 255 255 255 255 255 255 255 255 254 252 254 255 244 195 146 126 
125 126 155 210 252 255 255 234 152 251 255 255 255 255 255 255 255 255 255 
255 255 255 255 255 255 255 254 252 255 225 118 30 0 1 0 0 0 1 0 45 150 247 
117 27 251 255 254 255 255 255 255 255 255 255 255 255 255 255 255 255 254 253 
255 149 18 0 0 64 162 209 231 221 185 113 17 0 14 0 31 245 255 254 255 255 255 
255 255 255 255 255 255 255 255 255 254 255 251 96 0 0 17 171 255 254 255 255 
255 254 255 233 79 0 0 14 241 255 254 255 255 255 255 255 255 255 255 255 255 
255 255 253 255 98 0 3 13 188 255 252 251 253 253 253 252 252 255 254 81 0 13 
227 255 254 255 255 255 255 255 255 255 255 255 255 255 252 255 148 0 6 0 145 
255 249 254 255 255 255 255 255 255 252 255 227 26 0 214 255 253 255 255 255 
255 255 255 255 255 255 255 253 255 223 23 0 0 43 248 255 254 255 255 255 255 
255 255 255 255 251 255 141 0 206 255 253 255 255 255 255 255 255 255 255 255 
255 252 255 113 0 8 0 132 255 251 255 255 255 255 255 255 255 255 255 254 255 
235 17 177 255 252 255 255 255 255 255 255 255 255 255 254 255 239 26 0 0 3 206 
255 253 255 255 255 255 255 255 255 255 255 255 254 255 113 180 255 253 255 
255 255 255 255 255 255 255 255 252 255 177 0 3 0 32 246 255 254 255 255 255 
255 255 255 255 255 255 255 255 255 252 252 255 255 255 255 255 255 255 255 
255 255 255 251 255 125 0 7 0 68 255 255 254 255 255 255 255 255 255 255 255 
255 255 255 255 255 255 255 255 255 255 255 255 255 255 255 255 255 253 255 
85 0 7 0 95 255 253 255 255 255 255 255 255 255 255 255 255 255 255 255 255 
255 255 255 255 255 255 255 255 255 255 255 255 254 255 69 0 7 0 100 255 252 
255 255 255 255 255 255 255 255 255 255 255 255 255 255 255 255 255 255 255 
255 255 255 255 255 255 255 255 255 72 0 7 0 98 255 252 255 255 255 255 255 
255 255 255 255 255 255 255 255 255 255 255 255 255 255 255 255 255 255 255 
255 255 255 255 69 0 7 0 101 255 252 255 255 255 255 255 255 255 255 255 255 
255 255 255 255 255 255 255 255 255 255 255 255 255 255 255 255 253 255 89 0 7 
0 87 255 253 255 255 255 255 255 255 255 255 255 255 255 255 255 255 255 255 
255 255 255 255 255 255 255 255 255 255 251 255 130 0 6 0 49 252 255 254 255 
255 255 255 255 255 255 255 255 255 255 255 255 254 255 255 255 255 255 255 
255 255 255 255 255 252 255 189 0 1 0 9 224 255 254 255 255 255 255 255 255 
255 255 255 255 255 255 254 255 255 255 255 255 255 255 255 255 255 255 255 
254 255 249 40 0 5 0 150 255 251 255 255 255 255 255 255 255 255 255 255 255 
254 250 223 255 255 255 255 255 255 255 255 255 255 255 255 252 255 143 0 6 0 
56 253 254 254 255 255 255 255 255 255 255 255 255 250 255 137 58 255 255 254 
255 255 255 255 255 255 255 255 255 254 255 246 49 0 6 0 140 255 250 253 255 
255 255 255 255 255 254 250 255 189 0 182 255 252 255 255 255 255 255 255 255 
255 255 255 255 252 255 197 8 0 4 3 165 255 253 252 251 252 252 252 251 253 
255 203 7 114 255 253 255 255 255 255 255 255 255 255 255 255 255 255 255 252 
255 166 3 1 3 4 115 236 255 254 255 255 255 254 255 161 0 87 255 254 255 255 
255 255 255 255 255 255 255 255 255 255 255 255 255 252 255 188 31 0 2 0 27 107 
164 192 202 180 133 42 0 106 252 254 254 255 255 255 255 255 255 255 255 255 
255 255 255 255 255 255 255 252 255 235 120 24 0 0 0 0 0 0 1 0 43 183 255 252 
254 255 255 255 255 255 255 255 255 255 255 255 255 255 255 255 255 255 255 
253 254 255 240 180 132 104 102 99 104 142 207 253 255 253 254 255 255 255 255 
255 255 255 255 255 255 255 255 255 255 255 255 255 255 255 255 254 252 255 
255 255 255 255 255 255 255 255 254 252 255 255 255 255 255 255 255 255 255 
255 255 255 255 255 255 255 255 255 255 255 255 255 255 255 254 252 250 252 
252 252 251 250 253 255 255 255 255 255 255 255 255 255 255 255 255 255 255 
255 255 255 255 255 255 255 255 255 255 255 255 255 255 255 255 255 255 255 
255 255 255 255 255 255 255 255 255 255 255 255 255 255 255 255 255 255 255 
255 255 255 255 255 255 255 255 255 255 255 255 255 255 255 255 255 255 255 
255 255 255 255 255 255 255 255 255 255 255 255 255 255 255 255 255 255 255 
255 255 255 255 255 255 255 255 255 255 255 255 255 255 255 255 255 255 255 
255 255 255 255 255 255 255 255 255 255 255 255 255 255 255 255 255 255 255 
255 255 255 255 255 255 255 255 255 255 255 255 255 255 255 255 255 255 255 
255 255 255 255 255 255 255 255 255 255 255 255 255 255 255 255 255 255 255 
255 255 255 255 255 255 255 255 255 255 255 255 255 255 255 255 255 255 255 
255 255 255 255 255 255 255 255 255 255 255 255 255 255 255 255 255 255 255 
255 255 255 255 255 255 255 255 255 255 255 255 255 255 255 255 255 255 255 
255 255 255 255 255 255 255 255 255 255 255 255 255 255 255 255 255 255 255 
255 255 255 255 255 255 255 255 255 255 255 255 255 255 255 255 255 255 255 
255 255 255 255 255 255 255 255 255 255 255 255 255 255 255 255 255 255 255 
255 255 255 255 255 255 255 255 255 255 255 255 255 255 255 255 255 255 255 
255 255 255 255 255 255 255 255 255 255 255 255 255 255 255 255 255 255 255 
255 255 255 255 255 255 255 255 255 255 255 255 255 255 255 255 255 255 255 
255 255 255 255 255 255 255 255 255 255 255 255 255 255 255 255 255 255 255 
255 255 255 255 255 255 255 255 255 255 255 255 255 255 255 255 255 255 255 
255 255 255 255 255 255 255 255 255 255 255 255 255 255 255 255 255 255 255 
255 255 255 255 
