P2
35 45
255
255 255 255 255 255 255 255 255 255 255 255 255 255 255 255 255 255 255 255 
255 255 255 255 255 255 255 255 255 255 255 255 255 255 255 255 255 255 255 
255 255 255 255 255 255 255 255 255 255 255 255 255 255 255 255 255 255 255 
255 255 255 255 255 255 255 255 255 255 255 255 255 255 255 255 255 255 255 
255 255 255 255 255 255 255 255 255 255 255 255 255 255 255 255 255 255 255 
255 255 255 255 255 255 255 255 255 255 255 255 255 255 255 255 255 255 255 
255 255 255 255 255 255 255 255 255 255 255 255 255 255 255 255 255 255 255 
255 255 255 255 255 255 255 255 255 255 255 254 254 254 254 254 254 254 254 
254 254 254 255 255 255 254 254 254 254 254 254 254 254 254 254 254 254 255 
255 255 255 255 255 255 255 255 255 255 255 255 255 255 255 255 255 255 255 
255 255 255 255 255 255 255 255 255 255 255 255 255 255 255 255 255 255 255 
255 255 255 255 255 242 229 238 243 241 241 241 242 241 232 230 254 255 255 
253 230 233 242 242 241 241 241 243 238 227 241 255 254 255 255 255 255 255 
252 255 172 58 30 6 15 14 15 10 14 55 94 246 255 255 246 93 48 10 11 15 14 14 
5 36 62 171 255 252 255 255 255 255 255 255 255 255 252 232 73 0 3 0 9 185 253 
253 255 255 255 255 253 251 165 3 0 3 0 90 242 251 255 255 255 255 255 255 255 
255 255 255 255 252 255 174 0 6 0 88 255 253 255 255 255 255 255 254 255 255 
61 0 3 3 202 255 253 255 255 255 255 255 255 255 255 255 255 254 252 255 199 
2 3 0 101 255 251 254 255 255 255 255 255 252 255 86 0 1 6 213 255 253 255 255 
255 255 255 255 255 255 255 255 255 253 255 215 6 2 0 98 255 252 255 255 255 
255 255 255 252 255 101 0 2 5 212 255 253 255 255 255 255 255 255 255 255 255 
255 255 253 255 212 5 2 0 99 255 252 255 255 255 255 255 255 252 255 98 0 2 5 
213 255 253 255 255 255 255 255 255 255 255 255 255 255 253 255 213 5 2 0 99 
255 252 255 255 255 255 255 255 252 255 99 0 2 5 213 255 253 255 255 255 255 
255 255 255 255 255 255 255 253 255 213 5 2 0 99 255 252 255 255 255 255 255 
255 252 255 99 0 2 5 213 255 253 255 255 255 255 255 255 255 255 255 255 255 
253 255 213 5 2 0 98 255 251 254 254 254 254 254 254 251 255 98 0 2 5 213 255 
253 255 255 255 255 255 255 255 255 255 255 255 253 255 213 5 2 0 99 255 252 
255 255 255 255 255 255 252 255 99 0 2 5 213 255 253 255 255 255 255 255 255 
255 255 255 255 255 253 255 213 5 2 0 98 255 251 254 254 254 254 254 254 251 
255 98 0 2 5 213 255 253 255 255 255 255 255 255 255 255 255 255 255 253 255 
213 5 0 0 10 27 26 26 26 26 26 26 26 26 28 10 0 0 5 213 255 253 255 255 255 
255 255 255 255 255 255 255 255 253 255 213 5 0 0 35 95 90 91 91 91 91 91 91 
90 95 35 0 0 5 213 255 253 255 255 255 255 255 255 255 255 255 255 255 253 255 
213 5 2 0 104 255 252 255 255 255 255 255 255 252 255 103 0 2 5 213 255 253 
255 255 255 255 255 255 255 255 255 255 255 253 255 213 5 2 0 98 255 249 252 
252 252 252 252 252 249 255 98 0 2 5 213 255 253 255 255 255 255 255 255 255 
255 255 255 255 253 255 213 5 2 0 99 255 252 255 255 255 255 255 255 252 255 
99 0 2 5 213 255 253 255 255 255 255 255 255 255 255 255 255 255 253 255 213 
5 2 0 99 255 252 255 255 255 255 255 255 252 255 99 0 2 5 213 255 253 255 255 
255 255 255 255 255 255 255 255 255 253 255 213 5 2 0 99 255 252 255 255 255 
255 255 255 252 255 99 0 2 5 213 255 253 255 255 255 255 255 255 255 255 255 
255 255 253 255 212 5 2 0 99 255 252 255 255 255 255 255 255 252 255 98 0 2 5 
213 255 253 255 255 255 255 255 255 255 255 255 255 255 253 255 214 5 2 0 98 
255 252 255 255 255 255 255 255 252 255 101 0 2 5 212 255 253 255 255 255 255 
255 255 255 255 255 255 255 253 255 202 2 3 0 100 255 252 255 255 255 255 255 
255 253 255 86 0 2 5 212 255 253 255 255 255 255 255 255 255 255 255 255 254 
251 255 176 0 6 0 94 255 253 253 255 255 255 255 253 255 255 61 0 2 4 207 255 
251 253 255 255 255 255 255 255 255 255 255 254 255 255 93 0 4 0 22 209 255 
253 255 255 255 254 253 255 193 6 0 3 0 112 255 254 254 255 255 255 255 255 
255 255 252 255 181 84 50 0 5 5 7 0 18 75 112 247 255 255 247 112 75 17 1 6 5 
5 0 51 84 181 255 252 255 255 255 255 255 254 255 225 192 206 214 213 213 213 
214 210 199 200 252 255 255 252 199 199 211 214 212 213 213 214 205 193 225 
255 254 255 255 255 255 255 255 255 255 255 255 255 255 255 255 255 255 255 
255 255 255 255 255 255 255 255 255 255 255 255 255 255 255 255 255 255 255 
255 255 255 255 255 255 254 253 253 253 253 253 253 253 253 253 253 255 255 
255 255 253 253 253 253 253 253 253 253 253 253 254 255 255 255 255 255 255 
255 255 255 255 255 255 255 255 255 255 255 255 255 255 255 255 255 255 255 
255 255 255 255 255 255 255 255 255 255 255 255 255 255 255 255 255 255 255 
255 255 255 255 255 255 255 255 255 255 255 255 255 255 255 255 255 255 255 
255 255 255 255 255 255 255 255 255 255 255 255 255 255 255 255 255 255 255 
255 255 255 255 255 255 255 255 255 255 255 255 255 255 255 255 255 255 255 
255 255 255 255 255 255 255 255 255 255 255 255 255 255 255 255 255 255 255 
255 255 255 255 255 255 255 255 255 255 255 255 255 255 255 255 255 255 255 
255 255 255 255 255 255 255 255 255 255 255 255 255 255 255 255 255 255 255 
255 255 255 255 255 255 255 255 255 255 255 255 255 255 255 255 255 255 255 
255 255 255 255 255 255 255 255 255 255 255 255 255 255 255 255 255 255 255 
255 255 255 255 255 255 255 255 255 255 255 255 255 255 255 255 255 255 255 
255 255 255 255 255 255 255 255 255 255 255 255 255 255 255 255 255 255 255 
255 255 255 255 255 255 255 255 255 255 255 255 255 255 255 255 255 255 255 
255 255 255 255 255 255 255 255 255 255 255 255 255 255 255 255 255 255 255 
255 255 255 255 255 255 255 255 255 255 255 255 255 255 255 255 255 255 255 
255 255 255 255 255 255 255 255 255 255 255 255 255 255 255 255 255 255 255 
255 255 255 255 255 255 255 255 255 255 255 255 255 255 255 255 255 255 255 
255 255 255 255 255 255 255 255 255 255 255 255 255 255 255 255 255 255 255 
255 255 255 255 255 255 255 255 255 255 255 255 255 255 255 255 255 255 255 
255 255 255 255 255 255 255 255 255 255 255 255 255 255 255 255 255 255 255 
255 255 255 255 
