P2
35 45
255
255 255 255 255 255 255 255 255 255 255 255 255 255 255 255 255 255 255 255 
255 255 255 255 255 255 255 255 255 255 255 255 255 255 255 255 255 255 255 
255 255 255 255 255 255 255 255 255 255 255 255 255 255 255 255 255 255 255 
255 255 255 255 255 255 255 255 255 255 255 255 255 255 255 255 255 255 255 
255 255 255 255 255 255 255 255 255 255 255 255 255 255 255 255 255 255 255 
255 255 255 255 255 255 255 255 255 255 255 255 255 255 255 255 255 255 255 
255 255 255 255 255 255 255 255 255 255 255 255 255 255 255 255 255 255 255 
255 255 255 255 255 255 255 255 255 255 255 255 255 255 254 254 254 254 254 
254 254 254 254 254 254 254 255 255 255 255 255 255 255 255 255 255 255 255 
255 255 255 255 255 255 255 255 255 255 255 255 255 255 255 255 255 255 255 
255 255 255 255 255 255 255 255 255 255 255 255 255 255 255 255 255 255 255 
255 255 255 255 255 255 255 255 236 229 239 243 241 241 241 242 242 235 230 
245 255 255 255 255 255 255 255 255 255 255 255 255 255 255 255 255 255 255 
255 255 255 255 255 132 61 27 6 15 14 15 8 9 46 57 188 255 252 255 255 255 255 
255 255 255 255 255 255 255 255 255 255 255 255 255 255 255 255 255 254 254 
213 34 0 3 0 21 179 247 248 255 255 255 255 255 255 255 255 255 255 255 255 
255 255 255 255 255 255 255 255 255 255 255 255 255 251 255 125 0 10 0 122 255 
251 255 255 255 255 255 255 255 255 255 255 255 255 255 255 255 255 255 255 
255 255 255 255 255 255 255 255 250 255 154 0 5 0 154 255 250 254 255 255 255 
255 255 255 255 255 255 255 255 255 255 255 255 255 255 255 255 255 255 255 
255 255 255 251 255 156 0 5 0 156 255 251 255 255 255 255 255 255 255 255 255 
255 255 255 255 255 255 255 255 255 255 255 255 255 255 255 255 255 251 255 
156 0 5 0 156 255 251 255 255 255 255 255 255 255 255 255 255 255 255 255 255 
255 255 255 255 255 255 255 255 255 255 255 255 251 255 156 0 5 0 156 255 251 
255 255 255 255 255 255 255 255 255 255 255 255 255 255 255 255 255 255 255 
255 255 255 255 255 255 255 251 255 156 0 5 0 156 255 251 255 255 255 255 255 
255 255 255 255 255 255 255 255 255 255 255 255 255 255 255 255 255 255 255 
255 255 251 255 156 0 5 0 156 255 251 255 255 255 255 255 255 255 255 255 255 
255 255 255 255 255 255 255 255 255 255 255 255 255 255 255 255 251 255 156 
0 5 0 156 255 251 255 255 255 255 255 255 255 255 255 255 255 255 255 255 255 
255 255 255 255 255 255 255 255 255 255 255 251 255 156 0 5 0 156 255 251 255 
255 255 255 255 255 255 255 255 255 255 255 255 255 255 255 255 255 255 255 
255 255 255 255 255 255 251 255 156 0 5 0 156 255 251 255 255 255 255 255 255 
255 255 255 255 255 255 255 255 255 255 255 255 255 255 255 255 255 255 255 
255 251 255 156 0 5 0 156 255 251 255 255 255 255 255 255 255 255 255 255 255 
255 255 255 255 255 255 255 255 255 255 255 255 255 255 255 251 255 156 0 5 0 
156 255 251 255 255 255 255 255 255 255 255 255 255 255 255 255 255 255 255 
255 255 255 255 255 255 255 255 255 255 251 255 156 0 5 0 156 255 251 255 255 
255 255 255 255 255 255 255 255 255 255 255 255 255 255 255 255 255 255 255 
255 255 255 255 255 251 255 156 0 5 0 156 255 251 255 255 255 255 255 255 255 
255 255 254 255 255 255 255 255 255 255 255 255 255 255 255 255 255 255 255 
251 255 156 0 5 0 156 255 251 255 255 255 255 255 255 255 255 255 254 255 255 
255 255 255 255 255 255 255 255 255 255 255 255 255 255 251 255 156 0 5 0 156 
255 251 255 255 255 255 255 255 255 254 255 216 87 248 255 254 255 255 255 255 
255 255 255 255 255 255 255 255 251 255 156 0 5 0 156 255 251 255 255 255 255 
255 255 255 251 255 98 58 255 254 255 255 255 255 255 255 255 255 255 255 255 
255 255 251 255 156 0 5 0 156 255 251 255 255 255 255 255 254 251 255 219 0 149 
255 251 255 255 255 255 255 255 255 255 255 255 255 255 255 251 255 156 0 6 0 
151 255 251 253 252 252 255 255 254 255 242 60 0 220 255 253 255 255 255 255 
255 255 255 255 255 255 255 255 254 250 255 136 0 9 0 100 255 253 255 255 255 
255 254 252 203 58 0 64 255 255 254 255 255 255 255 255 255 255 255 255 255 
255 255 254 255 235 49 0 2 0 1 56 71 89 99 95 71 68 34 3 4 0 130 255 251 255 
255 255 255 255 255 255 255 255 255 254 255 255 147 82 33 0 6 5 5 5 0 0 0 0 0 
0 0 0 5 7 7 203 255 253 255 255 255 255 255 255 255 255 255 255 255 254 255 
212 195 208 215 212 212 213 213 215 216 217 217 217 216 215 215 213 212 215 
252 255 255 255 255 255 255 255 255 255 255 255 255 255 255 255 255 255 255 
255 255 255 255 255 255 255 255 255 255 255 255 255 255 255 255 255 255 255 
255 255 255 255 255 255 255 255 255 255 255 255 255 254 253 253 253 253 253 
253 253 253 253 253 253 253 253 253 253 253 253 253 255 255 255 255 255 255 
255 255 255 255 255 255 255 255 255 255 255 255 255 255 255 255 255 255 255 
255 255 255 255 255 255 255 255 255 255 255 255 255 255 255 255 255 255 255 
255 255 255 255 255 255 255 255 255 255 255 255 255 255 255 255 255 255 255 
255 255 255 255 255 255 255 255 255 255 255 255 255 255 255 255 255 255 255 
255 255 255 255 255 255 255 255 255 255 255 255 255 255 255 255 255 255 255 
255 255 255 255 255 255 255 255 255 255 255 255 255 255 255 255 255 255 255 
255 255 255 255 255 255 255 255 255 255 255 255 255 255 255 255 255 255 255 
255 255 255 255 255 255 255 255 255 255 255 255 255 255 255 255 255 255 255 
255 255 255 255 255 255 255 255 255 255 255 255 255 255 255 255 255 255 255 
255 255 255 255 255 255 255 255 255 255 255 255 255 255 255 255 255 255 255 
255 255 255 255 255 255 255 255 255 255 255 255 255 255 255 255 255 255 255 
255 255 255 255 255 255 255 255 255 255 255 255 255 255 255 255 255 255 255 
255 255 255 255 255 255 255 255 255 255 255 255 255 255 255 255 255 255 255 
255 255 255 255 255 255 255 255 255 255 255 255 255 255 255 255 255 255 255 
255 255 255 255 255 255 255 255 255 255 255 255 255 255 255 255 255 255 255 
255 255 255 255 255 255 255 255 255 255 255 255 255 255 255 255 255 255 255 
255 255 255 255 255 255 255 255 255 255 255 255 255 255 255 255 255 255 255 
255 255 255 255 255 255 255 255 255 255 255 255 255 255 255 255 255 255 255 
255 255 255 255 255 255 255 255 255 255 255 255 255 255 255 255 255 255 255 
255 255 255 255 255 255 255 255 255 255 255 255 255 255 255 255 255 255 255 
255 255 255 255 255 255 255 255 
