P2
35 45
255
255 255 255 255 255 255 255 255 255 255 255 255 255 255 255 255 255 255 255 
255 255 255 255 255 255 255 255 255 255 255 255 255 255 255 255 255 255 255 
255 255 255 255 255 255 255 255 255 255 255 255 255 255 255 255 255 255 255 
255 255 255 255 255 255 255 255 255 255 255 255 255 255 255 255 255 255 255 
255 255 255 255 255 255 255 255 255 255 255 255 255 255 255 255 255 255 255 
255 255 255 255 255 255 255 255 255 255 255 255 255 255 255 255 255 255 255 
255 255 255 255 255 255 255 255 255 255 255 255 255 255 255 255 255 255 255 
255 255 255 255 255 255 255 255 255 254 254 254 254 254 254 254 255 255 255 
255 255 255 255 255 255 255 255 255 255 255 255 255 254 254 254 254 254 254 
254 254 255 255 255 255 255 255 255 255 255 255 254 254 255 254 255 255 255 
255 255 255 255 255 255 255 255 255 255 255 255 255 255 255 255 255 255 255 
255 255 240 232 241 243 241 241 240 248 255 255 255 255 255 255 255 255 255 
255 255 255 255 255 255 255 248 240 241 241 243 237 228 242 255 254 255 145 
41 16 8 15 16 3 77 255 255 255 255 255 255 255 255 255 255 255 255 255 255 255 
254 68 4 16 15 6 40 63 170 255 252 255 251 250 190 24 0 2 0 0 197 255 253 255 
255 255 255 255 255 255 255 255 255 252 255 184 0 0 3 0 87 243 251 255 255 255 
255 255 251 255 129 0 5 5 0 88 255 253 255 255 255 255 255 255 255 255 255 255 
253 255 84 0 5 0 1 198 255 253 255 255 255 255 254 250 255 161 0 3 2 0 6 208 
255 253 255 255 255 255 255 255 255 255 253 255 200 3 0 1 0 6 214 255 252 255 
255 255 255 255 252 255 184 0 0 0 4 0 107 255 252 255 255 255 255 255 255 255 
255 253 255 95 0 7 0 0 5 212 255 253 255 255 255 255 255 252 255 187 0 56 20 
0 0 15 225 255 254 255 255 255 255 255 255 253 255 220 2 32 74 0 1 5 213 255 
253 255 255 255 255 255 252 255 188 0 114 108 0 7 0 128 255 251 255 255 255 
255 255 255 252 255 116 0 132 116 0 2 5 213 255 253 255 255 255 255 255 252 
255 189 0 109 210 0 1 0 30 240 255 254 255 255 255 255 254 255 231 19 5 233 
106 0 2 5 213 255 253 255 255 255 255 255 252 255 188 0 98 255 72 0 6 0 145 
255 251 255 255 255 255 251 255 139 0 98 255 97 0 2 5 213 255 253 255 255 255 
255 255 252 255 188 0 97 255 178 0 3 0 46 248 255 254 255 255 254 255 242 35 
0 200 255 97 0 2 5 213 255 253 255 255 255 255 255 252 255 188 0 99 255 252 
58 0 5 0 164 255 251 255 255 251 255 157 0 87 255 255 99 0 2 5 213 255 253 255 
255 255 255 255 252 255 188 0 99 255 255 164 0 5 0 58 254 255 254 254 255 252 
52 0 186 255 255 99 0 2 5 213 255 253 255 255 255 255 255 252 255 188 0 99 255 
254 248 46 0 3 0 181 255 252 252 255 174 0 66 255 252 255 99 0 2 5 213 255 253 
255 255 255 255 255 252 255 188 0 99 255 249 255 146 0 6 0 74 255 254 254 255 
69 0 174 255 249 255 99 0 2 5 213 255 253 255 255 255 255 255 252 255 188 0 99 
255 251 255 240 30 0 1 1 197 255 255 189 0 48 251 255 251 255 99 0 2 5 213 255 
253 255 255 255 255 255 252 255 188 0 99 255 252 251 255 127 0 7 0 93 255 255 
86 0 158 255 251 252 255 99 0 2 5 213 255 253 255 255 255 255 255 252 255 188 
0 99 255 252 253 255 222 14 0 0 5 221 214 0 33 242 255 254 252 255 99 0 2 5 213 
255 253 255 255 255 255 255 252 255 188 0 99 255 252 255 252 255 107 0 7 0 121 
114 0 136 255 251 255 252 255 99 0 2 5 213 255 253 255 255 255 255 255 252 255 
188 0 99 255 252 255 253 255 208 6 0 0 10 3 18 229 255 254 255 252 255 98 0 2 
5 213 255 253 255 255 255 255 255 252 255 189 0 99 255 252 255 255 253 255 88 
0 3 4 0 112 255 252 255 255 252 255 100 0 2 5 212 255 253 255 255 255 255 255 
252 255 171 0 102 255 252 255 255 253 255 197 1 1 0 8 215 255 253 255 255 253 
255 83 0 1 6 213 255 253 255 255 255 255 253 250 255 150 0 94 255 253 253 255 
255 254 255 71 0 0 95 255 252 255 255 253 255 255 61 0 3 3 203 255 251 254 255 
255 255 254 255 244 64 0 26 216 255 254 255 255 252 255 179 0 1 198 255 253 
255 255 253 255 193 6 0 3 0 111 255 254 255 255 255 255 166 83 41 1 7 0 23 83 
112 246 255 254 255 255 47 73 255 254 254 255 246 112 75 17 2 6 5 5 1 59 87 180 
255 252 255 219 193 207 214 213 214 210 198 199 252 255 255 254 255 230 230 
255 254 255 255 252 199 199 211 214 213 213 213 214 204 192 225 255 254 255 
255 255 255 255 255 255 255 255 255 255 255 255 255 255 255 254 255 255 255 
255 255 255 255 255 255 255 255 255 255 255 255 255 255 255 255 254 253 253 
253 253 253 253 253 253 255 255 255 255 255 254 254 255 255 255 255 255 253 
253 253 253 253 253 253 253 253 253 254 255 255 255 255 255 255 255 255 255 
255 255 255 255 255 255 255 255 255 255 255 255 255 255 255 255 255 255 255 
255 255 255 255 255 255 255 255 255 255 255 255 255 255 255 255 255 255 255 
255 255 255 255 255 255 255 255 255 255 255 255 255 255 255 255 255 255 255 
255 255 255 255 255 255 255 255 255 255 255 255 255 255 255 255 255 255 255 
255 255 255 255 255 255 255 255 255 255 255 255 255 255 255 255 255 255 255 
255 255 255 255 255 255 255 255 255 255 255 255 255 255 255 255 255 255 255 
255 255 255 255 255 255 255 255 255 255 255 255 255 255 255 255 255 255 255 
255 255 255 255 255 255 255 255 255 255 255 255 255 255 255 255 255 255 255 
255 255 255 255 255 255 255 255 255 255 255 255 255 255 255 255 255 255 255 
255 255 255 255 255 255 255 255 255 255 255 255 255 255 255 255 255 255 255 
255 255 255 255 255 255 255 255 255 255 255 255 255 255 255 255 255 255 255 
255 255 255 255 255 255 255 255 255 255 255 255 255 255 255 255 255 255 255 
255 255 255 255 255 255 255 255 255 255 255 255 255 255 255 255 255 255 255 
255 255 255 255 255 255 255 255 255 255 255 255 255 255 255 255 255 255 255 
255 255 255 255 255 255 255 255 255 255 255 255 255 255 255 255 255 255 255 
255 255 255 255 255 255 255 255 255 255 255 255 255 255 255 255 255 255 255 
255 255 255 255 255 255 255 255 255 255 255 255 255 255 255 255 255 255 255 
255 255 255 255 255 255 255 255 255 255 255 255 255 255 255 255 255 255 255 
255 255 255 255 255 255 255 255 255 255 255 255 255 255 255 255 255 255 255 
255 255 255 255 255 255 255 255 255 255 255 255 255 255 255 255 255 
