P2
35 45
255
255 255 255 255 255 255 255 255 255 255 255 255 255 255 255 255 255 255 255 
255 255 255 255 255 255 255 255 255 255 255 255 255 255 255 255 255 255 255 
255 255 255 255 255 255 255 255 255 255 255 255 255 255 255 255 255 255 255 
255 255 255 255 255 255 255 255 255 255 255 255 255 255 255 255 255 255 255 
255 255 255 255 255 255 255 255 255 255 255 255 255 255 255 255 255 255 255 
255 255 255 255 255 255 255 255 255 255 255 255 255 255 255 255 255 255 255 
255 255 255 255 255 255 255 255 255 255 255 255 255 255 255 255 255 255 255 
255 255 255 255 255 255 255 255 255 255 254 254 254 254 254 254 253 255 255 
255 255 255 255 255 255 255 255 255 254 254 254 254 254 254 254 254 254 255 
255 255 255 255 255 255 255 255 255 255 255 255 255 255 254 254 255 255 255 
255 255 255 255 255 255 255 255 255 255 255 255 255 255 255 255 255 255 255 
255 255 255 255 245 239 244 244 241 241 241 251 254 255 255 255 255 255 255 
255 255 254 233 231 241 242 240 243 238 230 236 255 255 255 255 255 255 253 
255 114 5 7 5 17 16 3 106 255 252 255 255 255 255 255 255 255 251 113 58 17 9 
16 7 27 61 133 255 255 255 255 255 255 254 255 239 209 161 46 0 2 2 0 145 255 
251 255 255 255 255 255 255 255 254 254 193 18 0 44 218 253 254 255 255 255 
255 255 255 255 255 255 254 255 248 87 0 4 1 4 185 255 251 255 255 255 255 255 
255 255 253 255 92 0 143 255 251 255 255 255 255 255 255 255 255 255 254 253 
250 255 234 28 0 5 0 25 217 255 252 255 255 255 255 255 254 251 255 114 0 161 
255 250 255 255 255 255 255 255 255 255 255 255 255 255 255 249 44 0 4 4 0 53 
241 255 254 255 255 255 255 255 250 255 130 0 160 255 251 255 255 255 255 255 
255 255 255 255 255 255 254 255 250 41 0 14 0 4 0 90 255 252 255 255 255 255 
255 250 255 130 0 161 255 251 255 255 255 255 255 255 255 255 255 255 255 254 
255 251 36 16 147 0 2 4 0 131 255 252 255 255 255 255 250 255 130 0 161 255 
251 255 255 255 255 255 255 255 255 255 255 255 254 255 251 38 4 252 127 0 4 3 
0 172 255 251 255 255 255 250 255 130 0 161 255 251 255 255 255 255 255 255 
255 255 255 255 255 254 255 251 38 5 242 255 78 0 5 0 17 208 255 252 255 255 
250 255 130 0 161 255 251 255 255 255 255 255 255 255 255 255 255 255 254 255 
251 38 6 242 255 237 47 0 6 0 43 234 255 253 255 250 255 130 0 161 255 251 255 
255 255 255 255 255 255 255 255 255 255 254 255 251 38 5 243 255 255 209 20 0 
5 0 78 255 254 254 250 255 130 0 161 255 251 255 255 255 255 255 255 255 255 
255 255 255 254 255 251 38 6 243 255 251 255 177 1 1 4 0 121 255 251 250 255 
130 0 161 255 251 255 255 255 255 255 255 255 255 255 255 255 254 255 251 38 
6 243 255 254 252 255 138 0 4 3 0 159 255 247 255 130 0 161 255 251 255 255 
255 255 255 255 255 255 255 255 255 254 255 251 38 6 243 255 254 255 252 255 
100 0 4 0 12 198 255 255 130 0 161 255 251 255 255 255 255 255 255 255 255 255 
255 255 254 255 251 38 6 243 255 254 255 254 255 247 61 0 6 0 35 221 255 128 
0 161 255 251 255 255 255 255 255 255 255 255 255 255 255 254 255 251 38 6 243 
255 254 255 255 253 255 224 31 0 6 0 61 255 130 0 161 255 251 255 255 255 255 
255 255 255 255 255 255 255 254 255 251 38 6 243 255 254 255 255 255 251 255 
194 8 0 5 0 125 137 0 161 255 251 255 255 255 255 255 255 255 255 255 255 255 
254 255 251 38 6 243 255 254 255 255 255 255 251 255 155 0 3 0 12 40 0 157 255 
251 255 255 255 255 255 255 255 255 255 255 255 254 255 251 38 6 243 255 254 
255 255 255 255 254 251 255 117 0 4 2 3 0 156 255 251 255 255 255 255 255 255 
255 255 255 255 255 254 255 251 40 6 243 255 254 255 255 255 255 255 254 254 
254 78 0 4 4 0 156 255 251 255 255 255 255 255 255 255 255 255 255 255 254 255 
247 27 7 242 255 254 255 255 255 255 255 255 253 255 235 46 0 6 0 156 255 251 
255 255 255 255 255 255 255 255 255 255 254 252 255 237 9 9 235 255 252 254 
255 255 255 255 255 255 252 255 208 17 1 0 156 255 251 255 255 255 255 255 255 
255 255 255 255 255 253 255 140 0 0 141 255 253 255 255 255 255 255 255 255 
255 251 255 176 2 0 158 255 251 255 255 255 255 255 255 255 255 253 255 214 
99 64 6 5 4 6 66 94 197 255 253 255 255 255 255 255 255 252 255 135 0 152 255 
251 255 255 255 255 255 255 255 255 254 255 238 195 202 213 213 213 213 202 
194 232 255 254 255 255 255 255 255 255 255 254 255 126 192 255 253 255 255 
255 255 255 255 255 255 255 255 255 255 255 255 255 255 255 255 255 255 255 
255 255 255 255 255 255 255 255 255 254 255 255 255 255 255 255 255 255 255 
255 255 255 255 255 254 253 253 253 253 253 253 253 253 254 255 255 255 255 
255 255 255 255 255 255 254 252 254 255 255 255 255 255 255 255 255 255 255 
255 255 255 255 255 255 255 255 255 255 255 255 255 255 255 255 255 255 255 
255 255 255 255 255 255 255 255 255 255 255 255 255 255 255 255 255 255 255 
255 255 255 255 255 255 255 255 255 255 255 255 255 255 255 255 255 255 255 
255 255 255 255 255 255 255 255 255 255 255 255 255 255 255 255 255 255 255 
255 255 255 255 255 255 255 255 255 255 255 255 255 255 255 255 255 255 255 
255 255 255 255 255 255 255 255 255 255 255 255 255 255 255 255 255 255 255 
255 255 255 255 255 255 255 255 255 255 255 255 255 255 255 255 255 255 255 
255 255 255 255 255 255 255 255 255 255 255 255 255 255 255 255 255 255 255 
255 255 255 255 255 255 255 255 255 255 255 255 255 255 255 255 255 255 255 
255 255 255 255 255 255 255 255 255 255 255 255 255 255 255 255 255 255 255 
255 255 255 255 255 255 255 255 255 255 255 255 255 255 255 255 255 255 255 
255 255 255 255 255 255 255 255 255 255 255 255 255 255 255 255 255 255 255 
255 255 255 255 255 255 255 255 255 255 255 255 255 255 255 255 255 255 255 
255 255 255 255 255 255 255 255 255 255 255 255 255 255 255 255 255 255 255 
255 255 255 255 255 255 255 255 255 255 255 255 255 255 255 255 255 255 255 
255 255 255 255 255 255 255 255 255 255 255 255 255 255 255 255 255 255 255 
255 255 255 255 255 255 255 255 255 255 255 255 255 255 255 255 255 255 255 
255 255 255 255 255 255 255 255 255 255 255 255 255 255 255 255 255 255 255 
255 255 255 255 255 255 255 255 255 255 255 255 255 255 255 255 255 255 255 
255 255 255 255 255 255 255 255 255 255 255 255 255 255 255 255 255 255 255 
255 255 255 
