P2
35 45
255
255 255 255 255 255 255 255 255 255 255 255 255 255 255 255 255 255 255 255 
255 255 255 255 255 255 255 255 255 255 255 255 255 255 255 255 255 255 255 
255 255 255 255 255 255 255 255 255 255 255 255 255 255 255 255 255 255 255 
255 255 255 255 255 255 255 255 255 255 255 255 255 255 255 255 255 255 255 
255 255 255 255 255 255 255 255 255 255 255 255 255 255 255 255 255 255 255 
255 255 255 255 255 255 255 255 255 255 255 255 255 255 255 255 255 255 255 
255 255 255 255 255 255 255 255 255 255 255 255 255 255 255 255 255 255 255 
255 255 255 255 255 255 255 255 255 255 255 255 255 255 255 255 255 254 255 
255 254 252 250 250 250 250 251 253 255 255 255 255 255 255 255 255 255 255 
255 255 255 255 255 255 255 255 255 255 255 255 255 255 255 253 253 255 255 
255 255 255 255 255 255 253 252 255 255 255 255 255 255 255 255 255 255 255 
255 255 255 255 255 255 255 255 255 255 254 253 255 255 235 181 137 124 125 
131 169 222 255 255 253 254 255 255 255 255 255 255 255 255 255 255 255 255 
255 255 255 255 255 255 254 252 255 204 91 13 0 1 0 0 0 0 6 76 191 255 253 254 
255 255 255 255 255 255 255 255 255 255 255 255 255 255 255 255 254 254 249 
118 6 0 20 124 198 226 223 192 113 12 0 0 102 242 255 253 255 255 255 255 255 
255 255 255 255 255 255 255 255 255 254 255 240 71 0 0 68 232 255 254 255 255 
254 255 218 46 0 0 66 241 255 254 255 255 255 255 255 255 255 255 255 255 255 
255 254 255 251 72 0 0 54 240 255 251 252 253 253 251 250 255 225 38 0 0 67 243 
255 254 255 255 255 255 255 255 255 255 255 255 255 252 255 115 0 4 0 194 255 
251 255 255 255 255 255 255 250 255 178 0 6 0 103 255 253 255 255 255 255 255 
255 255 255 255 255 253 255 197 2 4 0 84 255 252 255 255 255 255 255 255 255 
255 254 255 60 0 5 0 187 255 252 255 255 255 255 255 255 255 255 255 253 255 
85 0 5 0 168 255 252 255 255 255 255 255 255 255 255 251 255 150 0 6 0 74 255 
254 254 255 255 255 255 255 255 255 253 255 218 8 0 0 12 232 255 254 255 255 
255 255 255 255 255 255 253 255 215 6 0 0 8 217 255 253 255 255 255 255 255 
255 255 251 255 154 0 5 0 48 251 255 254 255 255 255 255 255 255 255 255 254 
255 247 35 0 5 0 147 255 251 255 255 255 255 255 255 255 252 255 106 0 7 0 80 
255 253 254 255 255 255 255 255 255 255 255 255 254 255 76 0 7 0 102 255 252 
255 255 255 255 255 255 255 254 255 74 0 7 0 99 255 252 255 255 255 255 255 
255 255 255 255 255 253 255 97 0 7 0 74 255 254 255 255 255 255 255 255 255 
255 255 71 0 7 0 98 255 252 255 255 255 255 255 255 255 255 255 255 252 255 
110 0 6 0 52 253 255 254 255 255 255 255 255 255 255 255 71 0 7 0 98 255 252 
255 255 255 255 255 255 255 255 255 255 250 255 127 0 7 0 48 252 255 254 255 
255 255 255 255 255 255 255 72 0 7 0 100 255 252 255 255 255 255 255 255 255 
255 255 255 251 255 113 0 7 0 72 255 255 255 255 255 255 255 255 255 252 255 
102 0 7 0 83 255 254 255 255 255 255 255 255 255 255 255 255 253 255 96 0 7 0 
99 255 252 255 255 255 255 255 255 255 251 255 139 0 6 0 50 252 255 254 255 
255 255 255 255 255 255 255 255 254 255 76 0 7 0 141 255 250 255 255 255 255 
255 255 255 253 255 201 3 0 0 11 232 255 254 255 255 255 255 255 255 255 255 
254 255 246 32 0 0 5 210 255 253 255 255 255 255 255 255 255 254 255 253 54 0 
4 0 168 255 252 255 255 255 255 255 255 255 255 253 255 206 3 2 0 71 255 255 
255 255 255 255 255 255 255 255 255 252 255 163 0 6 0 91 255 252 255 255 255 
255 255 255 255 255 251 255 128 0 6 0 184 255 252 255 255 255 255 255 255 255 
255 255 255 255 255 70 0 3 7 209 255 252 255 255 255 255 255 255 253 255 236 
32 0 0 90 255 254 255 255 255 255 255 255 255 255 255 255 255 253 255 220 30 
0 0 76 255 253 252 255 255 254 254 252 251 255 112 0 0 48 238 255 254 255 255 
255 255 255 255 255 255 255 255 255 255 253 255 211 28 0 0 116 255 254 255 254 
254 255 253 255 142 0 0 45 228 255 253 255 255 255 255 255 255 255 255 255 255 
255 255 255 255 252 255 221 61 0 0 81 211 253 255 255 253 210 88 0 0 72 229 
255 252 255 255 255 255 255 255 255 255 255 255 255 255 255 255 255 255 253 
255 251 161 44 0 6 50 80 78 48 5 0 43 164 254 254 253 255 255 255 255 255 255 
255 255 255 255 255 255 255 255 255 255 255 255 253 253 255 250 167 18 0 1 0 3 
0 122 255 253 253 253 255 255 255 255 255 255 255 255 255 255 255 255 255 255 
255 255 255 255 255 255 254 252 253 255 209 33 0 7 6 0 47 240 254 252 255 255 
255 255 255 255 255 255 255 255 255 255 255 255 255 255 255 255 255 255 255 
255 255 255 251 255 229 72 0 2 6 0 86 255 252 252 255 255 255 255 255 255 255 
255 255 255 255 255 255 255 255 255 255 255 255 255 255 255 255 255 252 254 
255 147 15 0 4 0 115 255 254 251 252 254 254 255 255 255 255 255 255 255 255 
255 255 255 255 255 255 255 255 255 255 255 255 255 254 252 255 222 97 8 1 0 82 
236 255 254 255 255 255 255 255 255 255 255 255 255 255 255 255 255 255 255 
255 255 255 255 255 255 255 255 254 252 254 255 212 105 24 0 13 110 203 245 
253 255 255 255 255 255 255 255 255 255 255 255 255 255 255 255 255 255 255 
255 255 255 255 255 255 253 253 255 255 239 174 100 36 15 21 136 255 253 255 
255 255 255 255 255 255 255 255 255 255 255 255 255 255 255 255 255 255 255 
255 255 255 255 253 252 255 255 255 255 237 203 223 255 254 255 255 255 255 
255 255 255 255 255 255 255 255 255 255 255 255 255 255 255 255 255 255 255 
255 255 255 254 251 252 255 255 255 255 255 255 255 255 255 255 255 255 255 
255 255 255 255 255 255 255 255 255 255 255 255 255 255 255 255 255 255 255 
255 255 255 255 254 253 254 255 255 255 255 255 255 255 255 255 255 255 255 
255 255 255 255 255 255 255 255 255 255 255 255 255 255 255 255 255 255 255 
255 255 255 255 255 255 255 255 255 255 255 255 255 255 255 255 255 255 255 
255 255 255 255 255 255 255 255 255 255 255 255 255 255 255 255 255 255 255 
255 255 255 255 255 255 255 255 255 255 255 255 255 255 255 255 255 255 255 
255 255 255 255 255 255 255 255 255 255 255 255 255 255 255 255 255 255 255 
255 255 255 255 255 255 255 255 255 255 255 255 255 255 255 255 255 255 255 
255 255 255 255 255 255 255 255 255 255 255 255 255 255 255 255 255 255 255 
255 
