P2
35 45
255
255 255 255 255 255 255 255 255 255 255 255 255 255 255 255 255 255 255 255 
255 255 255 255 255 255 255 255 255 255 255 255 255 255 255 255 255 255 255 
255 255 255 255 255 255 255 255 255 255 255 255 255 255 255 255 255 255 255 
255 255 255 255 255 255 255 255 255 255 255 255 255 255 255 255 255 255 255 
255 255 255 255 255 255 255 255 255 255 255 255 255 255 255 255 255 255 255 
255 255 255 255 255 255 255 255 255 255 255 255 255 255 255 255 255 255 255 
255 255 255 255 255 255 255 255 255 255 255 255 255 255 255 255 255 255 255 
255 255 255 255 255 255 255 255 255 255 255 255 255 255 255 255 255 255 255 
255 253 250 250 250 250 252 254 255 255 253 252 255 255 255 255 255 255 255 
255 255 255 255 255 255 255 255 255 255 255 255 255 254 255 253 253 255 255 
255 255 255 255 255 253 251 253 255 255 255 255 255 255 255 255 255 255 255 
255 255 255 255 255 255 255 255 255 255 255 253 254 255 216 152 126 125 133 
181 241 255 255 214 176 255 254 255 255 255 255 255 255 255 255 255 255 255 
255 255 255 255 255 255 255 253 255 225 86 4 0 0 0 1 0 15 104 194 76 85 255 
253 255 255 255 255 255 255 255 255 255 255 255 255 255 255 255 255 255 253 
255 211 29 0 25 145 215 226 202 133 27 0 5 0 102 255 252 255 255 255 255 255 
255 255 255 255 255 255 255 255 255 255 255 254 255 239 43 0 27 210 255 253 
255 254 255 240 86 0 0 99 255 252 255 255 255 255 255 255 255 255 255 255 255 
255 255 255 255 255 251 255 137 0 0 148 255 248 253 253 252 251 255 253 79 0 102 
255 252 255 255 255 255 255 255 255 255 255 255 255 255 255 255 255 254 255 
255 65 0 1 189 255 253 255 255 255 255 251 255 219 0 97 255 252 255 255 255 
255 255 255 255 255 255 255 255 255 255 255 255 254 255 249 41 0 0 153 255 249 
255 255 255 255 255 253 255 68 86 255 252 255 255 255 255 255 255 255 255 255 
255 255 255 255 255 255 254 255 249 42 0 0 34 224 255 251 253 255 255 255 251 
255 127 82 255 253 255 255 255 255 255 255 255 255 255 255 255 255 255 255 255 
255 254 255 79 0 5 0 31 194 255 253 252 254 255 253 255 185 123 255 253 255 
255 255 255 255 255 255 255 255 255 255 255 255 255 255 255 252 255 172 0 4 3 
0 4 115 241 255 253 252 255 255 254 252 255 255 255 255 255 255 255 255 255 
255 255 255 255 255 255 255 255 255 255 255 255 80 0 6 3 3 0 30 158 249 255 
252 253 255 255 255 255 255 255 255 255 255 255 255 255 255 255 255 255 255 
255 255 255 255 254 255 240 74 0 2 4 3 1 0 50 181 255 254 252 254 255 255 255 
255 255 255 255 255 255 255 255 255 255 255 255 255 255 255 255 255 253 254 
251 128 7 0 3 5 3 0 0 76 215 255 253 255 255 255 255 255 255 255 255 255 255 
255 255 255 255 255 255 255 255 255 255 255 254 252 255 210 71 0 0 3 5 3 0 9 144 
255 253 255 255 255 255 255 255 255 255 255 255 255 255 255 255 255 255 255 
255 255 254 255 254 252 254 255 180 50 0 1 3 4 2 0 118 255 253 255 255 255 255 
255 255 255 255 255 255 255 255 255 255 255 255 255 255 254 254 255 255 252 
253 255 249 158 30 0 2 3 4 0 169 255 252 255 255 255 255 255 255 255 255 255 
255 255 255 255 255 255 255 255 255 254 254 255 255 255 252 253 255 241 114 
0 1 3 0 51 253 255 254 255 255 255 255 255 255 255 255 255 255 255 255 255 255 
253 255 140 193 255 253 255 255 255 254 252 253 255 149 0 2 0 5 208 255 253 
255 255 255 255 255 255 255 255 255 255 255 255 255 255 253 255 81 124 255 251 
255 255 255 255 255 253 251 255 87 0 4 0 176 255 252 255 255 255 255 255 255 
255 255 255 255 255 255 255 255 252 255 88 59 255 253 255 255 255 255 255 255 
252 255 174 0 2 0 182 255 252 255 255 255 255 255 255 255 255 255 255 255 255 
255 255 252 255 97 0 222 255 252 255 255 255 255 255 253 255 194 0 0 7 213 255 
253 255 255 255 255 255 255 255 255 255 255 255 255 255 255 252 255 102 0 87 
255 254 251 253 254 254 253 248 255 137 0 0 71 255 254 254 255 255 255 255 255 
255 255 255 255 255 255 255 255 255 252 255 99 0 1 101 242 255 254 255 255 253 
255 209 24 0 6 193 255 252 255 255 255 255 255 255 255 255 255 255 255 255 255 
255 255 252 255 101 0 5 0 29 141 216 245 250 232 156 26 0 5 165 255 252 255 
255 255 255 255 255 255 255 255 255 255 255 255 255 255 255 253 255 88 68 165 
96 16 0 0 3 8 0 1 0 53 192 255 252 255 255 255 255 255 255 255 255 255 255 255 
255 255 255 255 255 255 254 255 157 202 255 254 241 184 120 94 94 95 124 191 
251 255 252 254 255 255 255 255 255 255 255 255 255 255 255 255 255 255 255 
255 255 255 255 255 253 250 253 255 255 255 255 255 255 255 255 254 252 255 
255 255 255 255 255 255 255 255 255 255 255 255 255 255 255 255 255 255 255 
255 253 254 255 255 254 252 250 252 252 252 251 252 255 255 255 255 255 255 
255 255 255 255 255 255 255 255 255 255 255 255 255 255 255 255 255 255 255 
255 255 255 255 255 255 255 255 255 255 255 255 255 255 255 255 255 255 255 
255 255 255 255 255 255 255 255 255 255 255 255 255 255 255 255 255 255 255 
255 255 255 255 255 255 255 255 255 255 255 255 255 255 255 255 255 255 255 
255 255 255 255 255 255 255 255 255 255 255 255 255 255 255 255 255 255 255 
255 255 255 255 255 255 255 255 255 255 255 255 255 255 255 255 255 255 255 
255 255 255 255 255 255 255 255 255 255 255 255 255 255 255 255 255 255 255 
255 255 255 255 255 255 255 255 255 255 255 255 255 255 255 255 255 255 255 
255 255 255 255 255 255 255 255 255 255 255 255 255 255 255 255 255 255 255 
255 255 255 255 255 255 255 255 255 255 255 255 255 255 255 255 255 255 255 
255 255 255 255 255 255 255 255 255 255 255 255 255 255 255 255 255 255 255 
255 255 255 255 255 255 255 255 255 255 255 255 255 255 255 255 255 255 255 
255 255 255 255 255 255 255 255 255 255 255 255 255 255 255 255 255 255 255 
255 255 255 255 255 255 255 255 255 255 255 255 255 255 255 255 255 255 255 
255 255 255 255 255 255 255 255 255 255 255 255 255 255 255 255 255 255 255 
255 255 255 255 255 255 255 255 255 255 255 255 255 255 255 255 255 255 255 
255 255 255 255 255 255 255 255 255 255 255 255 255 255 255 255 255 255 255 
255 255 255 255 255 255 255 255 255 255 255 255 255 255 255 255 255 255 255 
255 255 255 255 255 255 255 255 255 255 255 255 255 255 255 255 255 255 255 
255 255 255 255 255 255 255 255 255 255 255 255 255 255 255 255 255 255 255 
255 255 255 255 255 255 255 255 255 255 255 255 255 
