P2
35 45
255
255 255 255 255 255 255 255 255 255 255 255 255 255 255 255 255 255 255 255 
255 255 255 255 255 255 255 255 255 255 255 255 255 255 255 255 255 255 255 
255 255 255 255 255 255 255 255 255 255 255 255 255 255 255 255 255 255 255 
255 255 255 255 255 255 255 255 255 255 255 255 255 255 255 255 255 255 255 
255 255 255 255 255 255 255 255 255 255 255 255 255 255 255 255 255 255 255 
255 255 255 255 255 255 255 255 255 255 255 255 255 255 255 255 255 255 255 
255 255 255 255 255 255 255 255 255 255 255 255 255 255 255 255 255 255 255 
255 255 255 255 255 255 255 255 255 255 255 254 254 254 254 254 254 254 254 
254 254 254 255 255 255 255 255 255 254 254 254 254 254 254 254 254 254 255 
255 255 255 255 255 255 255 255 255 255 255 255 255 255 255 255 255 255 255 
255 255 255 255 255 255 255 255 255 255 255 255 255 255 255 255 255 255 255 
255 255 255 255 255 233 231 241 242 241 241 241 243 238 228 239 255 255 255 
255 255 254 233 231 241 242 240 243 240 229 236 255 255 255 255 255 255 255 
255 251 113 58 17 11 15 14 15 6 33 65 152 255 253 255 255 255 251 113 59 16 9 
16 8 19 63 134 255 255 255 255 255 255 255 255 255 253 255 192 9 0 3 0 57 230 
254 255 255 255 255 255 255 255 253 255 189 14 0 27 197 255 254 255 255 255 
255 255 255 255 255 255 255 254 255 76 0 6 0 163 255 251 255 255 255 255 255 
255 255 255 253 255 91 0 139 255 251 255 255 255 255 255 255 255 255 255 255 
255 250 255 112 0 5 0 185 255 251 254 255 255 255 255 255 255 254 251 255 114 
0 161 255 251 255 255 255 255 255 255 255 255 255 255 255 250 255 127 0 5 0 183 
255 252 255 255 255 255 255 255 255 255 250 255 130 0 160 255 251 255 255 255 
255 255 255 255 255 255 255 255 250 255 127 0 5 0 185 255 252 255 255 255 255 
255 255 255 255 250 255 130 0 161 255 251 255 255 255 255 255 255 255 255 255 
255 255 250 255 127 0 5 0 185 255 252 255 255 255 255 255 255 255 255 250 255 
130 0 161 255 251 255 255 255 255 255 255 255 255 255 255 255 250 255 127 0 5 
0 185 255 252 255 255 255 255 255 255 255 255 250 255 130 0 161 255 251 255 
255 255 255 255 255 255 255 255 255 255 250 255 127 0 5 0 185 255 252 255 255 
255 255 255 255 255 255 250 255 130 0 161 255 251 255 255 255 255 255 255 255 
255 255 255 255 250 255 127 0 5 0 185 255 252 255 255 255 255 255 255 255 255 
250 255 130 0 161 255 251 255 255 255 255 255 255 255 255 255 255 255 250 255 
127 0 5 0 185 255 252 255 255 255 255 255 255 255 255 250 255 130 0 161 255 
251 255 255 255 255 255 255 255 255 255 255 255 250 255 127 0 5 0 185 255 252 
255 255 255 255 255 255 255 255 250 255 130 0 161 255 251 255 255 255 255 255 
255 255 255 255 255 255 250 255 127 0 5 0 185 255 252 255 255 255 255 255 255 
255 255 250 255 130 0 161 255 251 255 255 255 255 255 255 255 255 255 255 255 
250 255 127 0 5 0 185 255 252 255 255 255 255 255 255 255 255 250 255 130 0 161 
255 251 255 255 255 255 255 255 255 255 255 255 255 250 255 128 0 6 0 184 255 
252 255 255 255 255 255 255 255 255 250 255 130 0 162 255 251 255 255 255 255 
255 255 255 255 255 255 255 250 255 127 0 5 0 186 255 252 255 255 255 255 255 
255 255 255 252 255 104 0 187 255 252 255 255 255 255 255 255 255 255 255 255 
255 250 255 129 0 6 0 177 255 252 255 255 255 255 255 255 255 255 253 255 97 
0 189 255 252 255 255 255 255 255 255 255 255 255 255 255 251 255 155 0 6 0 148 
255 251 255 255 255 255 255 255 255 255 255 255 67 0 219 255 253 255 255 255 
255 255 255 255 255 255 255 255 252 255 183 0 5 0 114 255 251 255 255 255 255 
255 255 255 254 255 245 20 17 245 255 254 255 255 255 255 255 255 255 255 255 
255 255 253 255 233 18 0 0 45 250 254 254 255 255 255 255 255 254 249 255 171 
0 88 255 253 255 255 255 255 255 255 255 255 255 255 255 255 254 252 255 112 
0 7 0 162 255 250 251 252 252 252 251 253 255 224 32 0 176 255 252 255 255 255 
255 255 255 255 255 255 255 255 255 255 254 255 230 36 0 3 16 173 255 254 255 
255 255 255 255 174 31 0 100 255 254 255 255 255 255 255 255 255 255 255 255 
255 255 255 255 255 253 255 211 28 0 1 3 83 163 192 198 180 142 58 0 0 92 251 
255 254 254 255 255 255 255 255 255 255 255 255 255 255 255 255 255 255 253 
255 228 97 11 0 0 0 0 0 0 1 0 31 154 254 253 254 255 255 255 255 255 255 255 
255 255 255 255 255 255 255 255 255 255 255 253 254 255 225 162 122 101 99 99 
101 135 184 245 255 253 254 255 255 255 255 255 255 255 255 255 255 255 255 
255 255 255 255 255 255 255 255 253 253 255 255 255 255 255 255 255 255 255 
255 252 254 255 255 255 255 255 255 255 255 255 255 255 255 255 255 255 255 
255 255 255 255 255 255 255 254 251 251 252 252 252 252 250 252 254 255 255 
255 255 255 255 255 255 255 255 255 255 255 255 255 255 255 255 255 255 255 
255 255 255 255 255 255 255 255 255 255 255 255 255 255 255 255 255 255 255 
255 255 255 255 255 255 255 255 255 255 255 255 255 255 255 255 255 255 255 
255 255 255 255 255 255 255 255 255 255 255 255 255 255 255 255 255 255 255 
255 255 255 255 255 255 255 255 255 255 255 255 255 255 255 255 255 255 255 
255 255 255 255 255 255 255 255 255 255 255 255 255 255 255 255 255 255 255 
255 255 255 255 255 255 255 255 255 255 255 255 255 255 255 255 255 255 255 
255 255 255 255 255 255 255 255 255 255 255 255 255 255 255 255 255 255 255 
255 255 255 255 255 255 255 255 255 255 255 255 255 255 255 255 255 255 255 
255 255 255 255 255 255 255 255 255 255 255 255 255 255 255 255 255 255 255 
255 255 255 255 255 255 255 255 255 255 255 255 255 255 255 255 255 255 255 
255 255 255 255 255 255 255 255 255 255 255 255 255 255 255 255 255 255 255 
255 255 255 255 255 255 255 255 255 255 255 255 255 255 255 255 255 255 255 
255 255 255 255 255 255 255 255 255 255 255 255 255 255 255 255 255 255 255 
255 255 255 255 255 255 255 255 255 255 255 255 255 255 255 255 255 255 255 
255 255 255 255 255 255 255 255 255 255 255 255 255 255 255 255 255 255 255 
255 255 255 255 255 255 255 255 255 255 255 255 255 255 255 255 255 255 255 
255 255 255 255 255 255 255 255 255 255 255 255 255 255 255 255 255 255 255 
255 255 255 255 255 255 255 255 255 255 255 255 255 255 255 255 255 255 255 
255 255 255 255 255 255 255 255 255 255 255 255 255 255 255 255 255 255 255 
255 255 255 255 255 255 255 255 255 255 255 255 255 255 255 255 
