P2
35 45
255
255 255 255 255 255 255 255 255 255 255 255 255 255 255 255 255 255 255 255 
255 255 255 255 255 255 255 255 255 255 255 255 255 255 255 255 255 255 255 
255 255 255 255 255 255 255 255 255 255 255 255 255 255 255 255 255 255 255 
255 255 255 255 255 255 255 255 255 255 255 255 255 255 255 255 255 255 255 
255 255 255 255 255 255 255 255 255 255 255 255 255 255 255 255 255 255 255 
255 255 255 255 255 255 255 255 255 255 255 255 255 255 255 255 255 255 255 
255 255 255 255 255 255 255 255 255 255 255 255 255 255 255 255 255 255 255 
255 255 255 255 255 255 255 255 255 255 255 254 254 254 254 254 254 254 254 
254 254 254 255 255 255 255 255 255 255 254 254 254 254 254 254 254 254 255 
255 255 255 255 255 255 255 255 255 255 255 255 255 255 255 255 255 255 255 
255 255 255 255 255 255 255 255 255 255 255 255 255 255 255 255 255 255 255 
255 255 255 255 255 246 234 243 243 241 241 241 241 243 235 238 255 255 255 
255 255 255 255 245 235 244 242 241 242 244 235 248 255 255 255 255 255 255 
252 255 183 34 8 10 15 14 14 13 9 27 116 255 254 255 255 255 252 255 183 29 6 
12 15 14 2 34 205 255 253 255 255 255 255 255 255 252 246 164 14 0 1 1 0 130 
244 249 255 255 255 255 255 255 255 252 242 137 0 1 0 120 239 254 255 255 255 
255 255 255 255 255 255 252 255 156 0 4 0 7 215 255 253 255 255 255 255 255 
255 255 254 255 245 31 0 98 255 253 255 255 255 255 255 255 255 255 255 254 
253 254 248 43 0 4 0 159 255 251 255 255 255 255 255 255 255 252 255 209 1 11 
220 255 252 255 255 255 255 255 255 255 255 255 255 255 251 255 140 0 6 0 71 
255 254 255 255 255 255 255 255 255 251 255 130 0 96 255 253 255 255 255 255 
255 255 255 255 255 255 255 255 254 255 229 17 0 0 3 201 255 253 255 255 255 
255 255 254 255 249 39 0 192 255 252 255 255 255 255 255 255 255 255 255 255 
255 255 255 252 255 104 0 7 0 103 255 252 255 255 255 255 255 251 255 173 0 55 
253 255 254 255 255 255 255 255 255 255 255 255 255 255 255 255 253 255 204 
4 0 0 15 225 255 254 255 255 255 255 254 255 80 0 154 255 251 255 255 255 255 
255 255 255 255 255 255 255 255 255 255 255 254 255 77 0 7 0 134 255 251 255 
255 255 253 255 210 0 22 235 255 254 255 255 255 255 255 255 255 255 255 255 
255 255 255 255 255 252 255 175 0 3 0 40 248 255 254 255 255 252 255 120 0 112 
255 252 255 255 255 255 255 255 255 255 255 255 255 255 255 255 255 255 254 
255 252 51 0 4 0 167 255 252 255 254 255 240 28 0 202 255 252 255 255 255 255 
255 255 255 255 255 255 255 255 255 255 255 255 255 251 255 147 0 6 0 65 255 
255 255 251 255 160 0 74 255 254 255 255 255 255 255 255 255 255 255 255 255 
255 255 255 255 255 255 255 254 255 235 24 0 2 0 194 255 252 255 255 63 0 167 
255 252 255 255 255 255 255 255 255 255 255 255 255 255 255 255 255 255 255 
255 255 252 255 112 0 7 0 95 255 250 255 196 0 34 245 255 254 255 255 255 255 
255 255 255 255 255 255 255 255 255 255 255 255 255 255 255 253 255 211 6 0 0 
13 220 255 255 103 0 125 255 251 255 255 255 255 255 255 255 255 255 255 255 
255 255 255 255 255 255 255 255 255 255 253 255 85 0 7 0 123 255 227 14 4 216 
255 253 255 255 255 255 255 255 255 255 255 255 255 255 255 255 255 255 255 
255 255 255 255 252 255 181 0 2 0 30 255 149 0 85 255 253 255 255 255 255 255 
255 255 255 255 255 255 255 255 255 255 255 255 255 255 255 255 255 254 255 
254 57 0 4 0 153 66 0 180 255 252 255 255 255 255 255 255 255 255 255 255 255 
255 255 255 255 255 255 255 255 255 255 255 255 251 255 157 0 3 0 23 0 43 249 
255 254 255 255 255 255 255 255 255 255 255 255 255 255 255 255 255 255 255 
255 255 255 255 255 255 254 255 241 30 0 2 5 0 139 255 251 255 255 255 255 255 
255 255 255 255 255 255 255 255 255 255 255 255 255 255 255 255 255 255 255 
255 252 255 123 0 4 0 14 225 255 254 255 255 255 255 255 255 255 255 255 255 
255 255 255 255 255 255 255 255 255 255 255 255 255 255 255 253 255 220 10 1 0 
95 255 253 255 255 255 255 255 255 255 255 255 255 255 255 255 255 255 255 255 
255 255 255 255 255 255 255 255 255 255 253 255 92 0 4 190 255 252 255 255 255 
255 255 255 255 255 255 255 255 255 255 255 255 255 255 255 255 255 255 255 
255 255 255 255 255 252 255 193 0 57 254 255 254 255 255 255 255 255 255 255 
255 255 255 255 255 255 255 255 255 255 255 255 255 255 255 255 255 255 255 
255 255 255 254 115 178 255 252 255 255 255 255 255 255 255 255 255 255 255 
255 255 255 255 255 255 255 255 255 255 255 255 255 255 255 255 255 255 255 
255 255 255 255 255 255 255 255 255 255 255 255 255 255 255 255 255 255 255 
255 255 255 255 255 255 255 255 255 255 255 255 255 255 255 255 255 252 253 
255 255 255 255 255 255 255 255 255 255 255 255 255 255 255 255 255 255 255 
255 255 255 255 255 255 255 255 255 255 255 255 255 255 255 255 255 255 255 
255 255 255 255 255 255 255 255 255 255 255 255 255 255 255 255 255 255 255 
255 255 255 255 255 255 255 255 255 255 255 255 255 255 255 255 255 255 255 
255 255 255 255 255 255 255 255 255 255 255 255 255 255 255 255 255 255 255 
255 255 255 255 255 255 255 255 255 255 255 255 255 255 255 255 255 255 255 
255 255 255 255 255 255 255 255 255 255 255 255 255 255 255 255 255 255 255 
255 255 255 255 255 255 255 255 255 255 255 255 255 255 255 255 255 255 255 
255 255 255 255 255 255 255 255 255 255 255 255 255 255 255 255 255 255 255 
255 255 255 255 255 255 255 255 255 255 255 255 255 255 255 255 255 255 255 
255 255 255 255 255 255 255 255 255 255 255 255 255 255 255 255 255 255 255 
255 255 255 255 255 255 255 255 255 255 255 255 255 255 255 255 255 255 255 
255 255 255 255 255 255 255 255 255 255 255 255 255 255 255 255 255 255 255 
255 255 255 255 255 255 255 255 255 255 255 255 255 255 255 255 255 255 255 
255 255 255 255 255 255 255 255 255 255 255 255 255 255 255 255 255 255 255 
255 255 255 255 255 255 255 255 255 255 255 255 255 255 255 255 255 255 255 
255 255 255 255 255 255 255 255 255 255 255 255 255 255 255 255 255 255 255 
255 255 255 255 255 255 255 255 255 255 255 255 255 255 255 255 255 255 255 
255 255 255 255 255 255 255 255 255 255 255 255 255 255 255 255 255 255 255 
255 255 255 255 255 255 255 255 255 255 255 255 255 255 255 255 255 255 255 
255 255 255 255 255 255 255 255 255 255 255 255 255 255 255 255 255 255 255 
255 255 
