P2
35 45
255
255 255 255 255 255 255 255 255 255 255 255 255 255 255 255 255 255 255 255 
255 255 255 255 255 255 255 255 255 255 255 255 255 255 255 255 255 255 255 
255 255 255 255 255 255 255 255 255 255 255 255 255 255 255 255 255 255 255 
255 255 255 255 255 255 255 255 255 255 255 255 255 255 255 255 255 255 255 
255 255 255 255 255 255 255 255 255 255 255 255 255 255 255 255 255 255 255 
255 255 255 255 255 255 255 255 255 255 255 255 255 255 255 255 255 255 255 
255 255 255 255 255 255 255 255 255 255 255 255 255 255 255 255 255 255 255 
255 255 255 255 255 255 255 255 254 254 254 254 254 254 254 254 254 255 255 
254 254 254 254 254 254 254 254 254 254 255 255 255 255 255 254 254 254 254 
254 254 254 254 255 255 255 255 255 255 255 255 255 255 255 255 255 255 255 
255 255 255 255 255 255 255 255 255 255 255 255 255 255 255 255 255 255 255 
255 247 232 241 242 241 241 241 243 237 231 254 254 232 239 243 241 241 241 
242 242 230 239 255 255 255 255 250 232 237 243 241 242 243 233 245 205 61 14 
9 15 14 15 7 30 88 249 249 76 17 7 16 14 15 12 15 52 152 255 253 254 255 227 
68 29 9 16 12 9 44 181 253 253 188 18 0 3 0 46 229 254 254 254 254 210 41 0 2 
1 0 147 255 253 255 255 255 255 254 249 236 63 0 0 142 251 252 255 251 255 130 
0 8 0 91 255 253 255 255 252 255 194 0 2 0 7 216 255 253 255 255 255 255 255 
250 255 130 0 89 255 254 254 254 252 255 215 7 0 0 30 245 255 254 255 254 252 
255 74 0 6 0 165 255 251 255 255 255 255 255 253 255 74 0 184 255 251 255 255 
255 255 255 67 0 3 0 188 255 252 255 255 251 255 151 0 7 0 104 255 252 255 255 
255 255 254 255 234 9 33 248 255 254 255 255 255 251 255 149 0 7 0 113 255 252 
255 255 253 255 226 13 0 0 30 244 255 254 255 255 254 251 255 163 0 115 255 
251 255 255 255 255 253 255 225 11 0 0 37 248 255 254 255 255 253 255 88 0 5 0 
177 255 252 255 255 255 254 255 78 0 192 255 252 255 255 255 255 255 254 255 
78 0 4 0 181 255 252 255 255 251 255 123 0 8 0 96 255 253 255 255 254 255 228 
3 43 251 255 254 255 255 255 255 255 251 255 159 0 7 0 104 255 252 254 254 255 
250 45 0 4 0 22 238 255 254 255 251 255 149 0 127 255 251 255 255 255 255 255 
255 254 255 232 17 0 0 31 244 255 254 253 255 199 1 0 2 2 0 163 255 252 254 
255 255 66 0 208 255 253 255 255 255 255 255 255 255 253 255 92 0 5 0 174 255 
252 251 255 124 0 50 11 0 0 85 255 253 253 255 212 0 55 254 255 254 255 255 
255 255 255 255 255 252 255 170 0 5 0 96 255 252 255 251 45 0 192 41 0 0 16 229 
255 250 255 134 0 140 255 251 255 255 255 255 255 255 255 255 254 255 240 30 
0 0 23 237 255 255 200 0 49 255 105 0 7 0 152 255 252 251 45 0 219 255 253 255 
255 255 255 255 255 255 255 255 252 255 104 0 6 0 163 255 255 117 0 134 255 
183 0 3 0 75 255 255 201 0 67 255 255 255 255 255 255 255 255 255 255 255 255 
252 255 181 0 4 0 85 255 247 36 0 210 255 246 37 0 0 9 215 255 115 0 155 255 
251 255 255 255 255 255 255 255 255 255 255 254 255 247 37 0 0 14 244 196 0 64 
255 251 255 113 0 7 0 145 255 30 5 227 255 254 255 255 255 255 255 255 255 255 
255 255 254 251 255 112 0 7 0 169 134 0 146 255 249 255 198 1 2 0 76 185 0 85 
255 254 255 255 255 255 255 255 255 255 255 255 255 255 252 255 195 0 2 0 68 
40 0 219 255 253 255 250 46 0 0 18 60 0 161 255 251 255 255 255 255 255 255 
255 255 255 255 255 255 254 255 250 46 0 2 4 0 71 255 254 254 251 255 128 0 3 
2 0 22 234 255 254 255 255 255 255 255 255 255 255 255 255 255 255 255 251 255 
124 0 4 3 0 151 255 251 255 253 255 209 5 0 4 0 96 255 253 255 255 255 255 255 
255 255 255 255 255 255 255 255 255 253 255 209 5 0 0 11 224 255 254 255 254 
255 254 57 0 4 0 174 255 252 255 255 255 255 255 255 255 255 255 255 255 255 
255 255 254 255 253 56 0 0 78 255 254 255 255 255 251 255 142 0 0 31 245 255 
254 255 255 255 255 255 255 255 255 255 255 255 255 255 255 255 251 255 139 
0 0 159 255 251 255 255 255 253 255 217 12 0 107 255 252 255 255 255 255 255 
255 255 255 255 255 255 255 255 255 255 255 253 255 219 3 13 233 255 254 255 
255 255 255 254 255 71 0 191 255 252 254 255 255 255 255 255 255 255 255 255 
255 255 255 255 255 255 255 255 255 122 136 255 255 255 255 255 255 255 252 
255 180 103 250 255 254 255 255 255 255 255 255 255 255 255 255 255 255 255 
255 255 255 255 255 254 255 255 255 255 255 255 255 255 255 255 255 255 255 
255 255 255 255 255 255 255 255 255 255 255 255 255 255 255 255 255 255 255 
255 255 255 252 253 255 255 255 255 255 255 255 255 255 253 252 255 255 255 
255 255 255 255 255 255 255 255 255 255 255 255 255 255 255 255 255 255 255 
255 255 255 255 255 255 255 255 255 255 255 255 255 255 255 255 255 255 255 
255 255 255 255 255 255 255 255 255 255 255 255 255 255 255 255 255 255 255 
255 255 255 255 255 255 255 255 255 255 255 255 255 255 255 255 255 255 255 
255 255 255 255 255 255 255 255 255 255 255 255 255 255 255 255 255 255 255 
255 255 255 255 255 255 255 255 255 255 255 255 255 255 255 255 255 255 255 
255 255 255 255 255 255 255 255 255 255 255 255 255 255 255 255 255 255 255 
255 255 255 255 255 255 255 255 255 255 255 255 255 255 255 255 255 255 255 
255 255 255 255 255 255 255 255 255 255 255 255 255 255 255 255 255 255 255 
255 255 255 255 255 255 255 255 255 255 255 255 255 255 255 255 255 255 255 
255 255 255 255 255 255 255 255 255 255 255 255 255 255 255 255 255 255 255 
255 255 255 255 255 255 255 255 255 255 255 255 255 255 255 255 255 255 255 
255 255 255 255 255 255 255 255 255 255 255 255 255 255 255 255 255 255 255 
255 255 255 255 255 255 255 255 255 255 255 255 255 255 255 255 255 255 255 
255 255 255 255 255 255 255 255 255 255 255 255 255 255 255 255 255 255 255 
255 255 255 255 255 255 255 255 255 255 255 255 255 255 255 255 255 255 255 
255 255 255 255 255 255 255 255 255 255 255 255 255 255 255 255 255 255 255 
255 255 255 255 255 255 255 255 255 255 255 255 255 255 255 255 255 255 255 
255 255 255 255 255 255 255 255 255 255 255 255 255 255 255 255 255 255 255 
255 255 255 255 255 255 255 255 255 255 255 255 255 255 255 255 255 255 255 
255 255 255 255 255 255 255 255 255 255 255 255 255 
