P2
35 45
255
255 255 255 255 255 255 255 255 255 255 255 255 255 255 255 255 255 255 255 
255 255 255 255 255 255 255 255 255 255 255 255 255 255 255 255 255 255 255 
255 255 255 255 255 255 255 255 255 255 255 255 255 255 255 255 255 255 255 
255 255 255 255 255 255 255 255 255 255 255 255 255 255 255 255 255 255 255 
255 255 255 255 255 255 255 255 255 255 255 255 255 255 255 255 255 255 255 
255 255 255 255 255 255 255 255 255 255 255 255 255 255 255 255 255 255 255 
255 255 255 255 255 255 255 255 255 255 255 255 255 255 255 255 255 255 255 
255 255 255 255 255 255 255 255 255 255 255 255 254 254 254 254 254 254 254 
254 254 254 254 255 255 255 255 255 255 254 254 254 254 254 254 254 254 254 
255 255 255 255 255 255 255 255 255 255 255 255 255 255 255 255 255 255 255 
255 255 255 255 255 255 255 255 255 255 255 255 255 255 255 255 255 255 255 
255 255 255 255 255 250 233 242 243 241 241 241 241 242 239 229 242 255 255 
255 255 255 248 232 241 242 241 241 243 242 232 244 255 255 255 255 255 255 
254 255 227 61 7 6 17 14 14 15 8 22 54 171 255 252 255 253 255 207 55 14 11 14 
17 6 10 49 190 255 252 255 255 255 255 255 255 254 249 180 35 0 2 1 0 28 203 
254 254 255 255 255 255 255 253 255 171 0 1 0 36 183 249 255 255 255 255 255 
255 255 255 255 255 253 255 220 27 0 5 0 62 255 255 254 255 255 255 255 255 
254 255 247 36 0 46 228 255 254 255 255 255 255 255 255 255 255 255 255 254 
249 255 167 0 3 0 0 196 255 252 255 255 255 255 255 252 255 193 0 5 199 255 
250 254 255 255 255 255 255 255 255 255 255 255 255 255 252 255 79 0 6 0 68 255 
253 255 255 255 255 255 253 255 77 0 126 255 251 255 255 255 255 255 255 255 
255 255 255 255 255 255 255 253 255 217 19 0 3 0 151 255 251 255 255 255 252 
255 160 0 48 243 255 254 255 255 255 255 255 255 255 255 255 255 255 255 255 
255 255 252 255 145 0 4 0 23 219 255 253 255 254 255 227 28 0 186 255 252 255 
255 255 255 255 255 255 255 255 255 255 255 255 255 255 255 255 254 255 64 0 6 
0 86 255 253 254 253 255 94 0 108 255 252 255 255 255 255 255 255 255 255 255 
255 255 255 255 255 255 255 255 255 252 255 202 6 0 3 0 173 255 247 255 177 
0 37 233 255 254 255 255 255 255 255 255 255 255 255 255 255 255 255 255 255 
255 255 255 255 252 255 123 0 5 0 37 232 255 236 39 0 174 255 252 255 255 255 
255 255 255 255 255 255 255 255 255 255 255 255 255 255 255 255 255 254 255 
244 49 0 5 0 106 255 110 0 90 255 253 255 255 255 255 255 255 255 255 255 255 
255 255 255 255 255 255 255 255 255 255 255 255 252 255 184 0 2 0 11 124 4 21 
223 255 253 255 255 255 255 255 255 255 255 255 255 255 255 255 255 255 255 
255 255 255 255 255 255 255 253 255 102 0 3 1 2 0 157 255 252 255 255 255 255 
255 255 255 255 255 255 255 255 255 255 255 255 255 255 255 255 255 255 255 
255 254 255 231 33 0 5 0 75 255 253 255 255 255 255 255 255 255 255 255 255 
255 255 255 255 255 255 255 255 255 255 255 255 255 255 255 255 251 255 156 
0 7 0 128 255 250 255 255 255 255 255 255 255 255 255 255 255 255 255 255 255 
255 255 255 255 255 255 255 255 255 255 255 252 255 188 0 5 0 127 255 250 255 
255 255 255 255 255 255 255 255 255 255 255 255 255 255 255 255 255 255 255 
255 255 255 255 255 255 252 255 183 0 5 0 128 255 250 255 255 255 255 255 255 
255 255 255 255 255 255 255 255 255 255 255 255 255 255 255 255 255 255 255 
255 252 255 185 0 5 0 128 255 250 255 255 255 255 255 255 255 255 255 255 255 
255 255 255 255 255 255 255 255 255 255 255 255 255 255 255 252 255 185 0 5 0 
128 255 250 255 255 255 255 255 255 255 255 255 255 255 255 255 255 255 255 
255 255 255 255 255 255 255 255 255 255 252 255 185 0 5 0 128 255 250 255 255 
255 255 255 255 255 255 255 255 255 255 255 255 255 255 255 255 255 255 255 
255 255 255 255 255 252 255 184 0 5 0 127 255 250 255 255 255 255 255 255 255 
255 255 255 255 255 255 255 255 255 255 255 255 255 255 255 255 255 255 254 
250 255 156 0 8 0 110 255 251 253 255 255 255 255 255 255 255 255 255 255 255 
255 255 255 255 255 255 255 255 255 255 255 255 255 254 255 250 70 0 4 0 31 219 
255 254 255 255 255 255 255 255 255 255 255 255 255 255 255 255 255 255 255 
255 255 255 255 255 253 255 164 83 42 1 6 5 7 0 24 80 129 252 255 255 255 255 
255 255 255 255 255 255 255 255 255 255 255 255 255 255 255 255 255 254 255 
219 194 207 214 212 213 212 214 210 197 206 254 255 255 255 255 255 255 255 
255 255 255 255 255 255 255 255 255 255 255 255 255 255 255 255 255 255 255 
255 255 255 255 255 255 255 255 255 255 255 255 255 255 255 255 255 255 255 
255 255 255 255 255 255 255 255 255 255 255 255 255 254 253 253 253 253 253 
253 253 253 253 254 255 255 255 255 255 255 255 255 255 255 255 255 255 255 
255 255 255 255 255 255 255 255 255 255 255 255 255 255 255 255 255 255 255 
255 255 255 255 255 255 255 255 255 255 255 255 255 255 255 255 255 255 255 
255 255 255 255 255 255 255 255 255 255 255 255 255 255 255 255 255 255 255 
255 255 255 255 255 255 255 255 255 255 255 255 255 255 255 255 255 255 255 
255 255 255 255 255 255 255 255 255 255 255 255 255 255 255 255 255 255 255 
255 255 255 255 255 255 255 255 255 255 255 255 255 255 255 255 255 255 255 
255 255 255 255 255 255 255 255 255 255 255 255 255 255 255 255 255 255 255 
255 255 255 255 255 255 255 255 255 255 255 255 255 255 255 255 255 255 255 
255 255 255 255 255 255 255 255 255 255 255 255 255 255 255 255 255 255 255 
255 255 255 255 255 255 255 255 255 255 255 255 255 255 255 255 255 255 255 
255 255 255 255 255 255 255 255 255 255 255 255 255 255 255 255 255 255 255 
255 255 255 255 255 255 255 255 255 255 255 255 255 255 255 255 255 255 255 
255 255 255 255 255 255 255 255 255 255 255 255 255 255 255 255 255 255 255 
255 255 255 255 255 255 255 255 255 255 255 255 255 255 255 255 255 255 255 
255 255 255 255 255 255 255 255 255 255 255 255 255 255 255 255 255 255 255 
255 255 255 255 255 255 255 255 255 255 255 255 255 255 255 255 255 255 255 
255 255 255 255 255 255 255 255 255 255 255 255 255 255 255 255 255 255 255 
255 255 255 255 255 255 255 255 255 255 255 255 255 255 255 255 255 255 255 
255 255 255 255 255 255 255 255 255 255 255 255 255 255 255 255 255 255 255 
255 255 255 255 255 255 255 255 255 255 255 255 255 255 255 255 255 255 255 
255 255 255 
