P2
35 45
255
255 255 255 255 255 255 255 255 255 255 255 255 255 255 255 255 255 255 255 
255 255 255 255 255 255 255 255 255 255 255 255 255 255 255 255 255 255 255 
255 255 255 255 255 255 255 255 255 255 255 255 255 255 255 255 255 255 255 
255 255 255 255 255 255 255 255 255 255 255 255 255 255 255 255 255 255 255 
255 255 255 255 255 255 255 255 255 255 255 255 255 255 255 255 255 255 255 
255 255 255 255 255 255 255 255 255 255 255 255 255 255 255 255 255 255 255 
255 255 255 255 255 255 255 255 255 255 255 255 255 255 255 255 255 255 255 
255 255 255 255 255 255 255 255 255 255 255 255 255 255 255 255 254 254 254 
254 254 254 254 254 254 254 254 254 254 254 254 254 254 254 255 255 255 255 
255 255 255 255 255 255 255 255 255 255 255 255 255 255 255 255 255 255 255 
255 255 255 255 255 255 255 255 255 255 255 255 255 255 255 255 255 255 255 
255 255 255 255 255 255 255 255 255 254 243 241 243 244 245 246 246 246 246 
246 246 246 243 241 241 241 242 238 253 255 255 255 255 255 255 255 255 255 
255 255 255 255 254 255 244 33 12 11 0 0 0 0 0 0 0 0 0 7 15 14 17 3 59 254 255 
254 255 255 255 255 255 255 255 255 255 255 255 254 255 225 9 0 17 81 102 122 
124 124 124 124 121 134 50 0 3 0 1 193 255 252 255 255 255 255 255 255 255 255 
255 255 255 255 253 255 203 0 61 236 255 254 255 255 255 255 253 255 219 25 0 
5 0 134 255 253 255 255 255 255 255 255 255 255 255 255 255 255 255 252 255 
176 0 209 255 251 252 250 250 250 249 251 246 54 0 5 0 67 255 253 255 255 255 
255 255 255 255 255 255 255 255 255 255 255 251 255 140 41 255 254 254 255 255 
255 255 252 255 118 0 4 0 18 214 255 253 255 255 255 255 255 255 255 255 255 
255 255 255 255 255 250 255 113 93 255 252 255 255 255 255 252 255 185 0 2 4 0 
159 255 251 255 255 255 255 255 255 255 255 255 255 255 255 255 255 255 254 
255 230 230 255 254 255 255 255 254 255 234 40 0 6 0 89 255 252 255 255 255 
255 255 255 255 255 255 255 255 255 255 255 255 255 255 255 255 255 255 255 
255 255 255 253 255 92 0 5 0 35 232 255 254 255 255 255 255 255 255 255 255 
255 255 255 255 255 255 255 255 255 255 254 254 255 255 255 255 252 255 163 
0 3 2 0 182 255 252 255 255 255 255 255 255 255 255 255 255 255 255 255 255 
255 255 255 255 255 255 255 255 255 255 253 255 218 22 0 5 0 116 255 252 255 
255 255 255 255 255 255 255 255 255 255 255 255 255 255 255 255 255 255 255 
255 255 255 255 255 253 255 70 0 7 0 55 246 255 254 255 255 255 255 255 255 
255 255 255 255 255 255 255 255 255 255 255 255 255 255 255 255 255 255 252 
255 136 0 4 0 10 200 255 251 255 255 255 255 255 255 255 255 255 255 255 255 
255 255 255 255 255 255 255 255 255 255 255 255 252 255 199 6 0 3 0 142 255 
252 255 255 255 255 255 255 255 255 255 255 255 255 255 255 255 255 255 255 
255 255 255 255 255 255 254 255 244 52 0 6 0 73 255 253 255 255 255 255 255 
255 255 255 255 255 255 255 255 255 255 255 255 255 255 255 255 255 255 255 
255 252 255 110 0 5 0 23 220 255 253 255 255 255 255 255 255 255 255 255 255 
255 255 255 255 255 255 255 255 255 255 255 255 255 255 252 255 179 0 2 3 0 166 
255 251 255 255 255 255 255 255 255 251 253 255 255 255 255 255 255 255 255 
255 255 255 255 255 255 255 254 255 229 35 0 6 0 99 255 252 255 255 255 255 
255 255 255 255 255 255 255 255 255 255 255 255 255 255 255 255 255 255 255 
255 255 252 255 85 0 5 0 41 237 255 254 255 255 255 255 255 255 254 255 172 
207 255 253 255 255 255 255 255 255 255 255 255 255 255 255 252 255 153 0 3 1 
1 189 255 252 255 255 255 255 255 255 254 255 246 32 182 255 252 255 255 255 
255 255 255 255 255 255 255 255 253 255 214 17 0 4 0 124 255 252 255 255 255 
255 255 255 255 250 255 167 6 235 255 254 255 255 255 255 255 255 255 255 255 
255 254 254 252 63 0 6 0 58 248 251 250 251 251 251 251 251 250 251 255 251 
45 38 253 255 254 255 255 255 255 255 255 255 255 255 255 253 255 128 0 5 0 25 
218 255 253 255 255 255 255 255 255 254 255 247 105 0 91 255 253 255 255 255 
255 255 255 255 255 255 255 253 255 190 3 0 3 0 69 166 150 155 154 154 154 154 
154 153 132 106 31 1 0 130 255 251 255 255 255 255 255 255 255 255 255 255 254 
255 81 0 9 5 6 3 0 0 0 0 0 0 0 0 0 0 0 2 9 0 172 255 252 255 255 255 255 255 
255 255 255 255 255 255 255 223 212 213 213 213 213 216 215 216 215 215 215 
215 215 215 218 217 215 212 213 245 255 255 255 255 255 255 255 255 255 255 
255 255 255 255 255 255 255 255 255 255 255 255 255 255 255 255 255 255 255 
255 255 255 255 255 255 255 255 255 255 255 255 255 255 255 255 255 255 255 
255 254 253 253 253 253 253 253 253 253 253 253 253 253 253 253 253 253 253 
253 253 254 255 255 255 255 255 255 255 255 255 255 255 255 255 255 255 255 
255 255 255 255 255 255 255 255 255 255 255 255 255 255 255 255 255 255 255 
255 255 255 255 255 255 255 255 255 255 255 255 255 255 255 255 255 255 255 
255 255 255 255 255 255 255 255 255 255 255 255 255 255 255 255 255 255 255 
255 255 255 255 255 255 255 255 255 255 255 255 255 255 255 255 255 255 255 
255 255 255 255 255 255 255 255 255 255 255 255 255 255 255 255 255 255 255 
255 255 255 255 255 255 255 255 255 255 255 255 255 255 255 255 255 255 255 
255 255 255 255 255 255 255 255 255 255 255 255 255 255 255 255 255 255 255 
255 255 255 255 255 255 255 255 255 255 255 255 255 255 255 255 255 255 255 
255 255 255 255 255 255 255 255 255 255 255 255 255 255 255 255 255 255 255 
255 255 255 255 255 255 255 255 255 255 255 255 255 255 255 255 255 255 255 
255 255 255 255 255 255 255 255 255 255 255 255 255 255 255 255 255 255 255 
255 255 255 255 255 255 255 255 255 255 255 255 255 255 255 255 255 255 255 
255 255 255 255 255 255 255 255 255 255 255 255 255 255 255 255 255 255 255 
255 255 255 255 255 255 255 255 255 255 255 255 255 255 255 255 255 255 255 
255 255 255 255 255 255 255 255 255 255 255 255 255 255 255 255 255 255 255 
255 255 255 255 255 255 255 255 255 255 255 255 255 255 255 255 255 255 255 
255 255 255 255 255 255 255 255 255 255 255 255 255 255 255 255 255 255 255 
255 255 255 255 255 255 255 255 255 255 255 255 255 255 255 255 255 255 255 
255 255 255 255 255 255 255 255 255 255 255 255 255 255 255 255 255 255 255 
255 255 255 255 255 255 255 255 255 255 255 255 255 255 255 255 
