P2
#Created with GIMP
10 12
255
255 255 255 248 168 169 247 255 255 255 255 252 255 197 0 0 197 255 253 255 
255 251 255 108 42 41 108 255 251 255 254 255 255 23 132 130 24 255 255 254 
252 255 201 0 207 205 0 201 255 252 251 255 115 15 249 248 14 115 255 251 255 
255 31 99 255 255 97 31 255 255 255 205 0 39 71 71 39 0 205 255 255 126 0 109 
102 103 109 0 126 255 255 42 66 255 252 253 255 63 43 255 202 0 148 255 247 
247 255 147 0 202 216 156 233 255 254 254 255 233 156 216 
