P2
#Created with GIMP
10 12
255
255 253 255 236 135 76 80 138 235 255 253 255 205 23 19 83 80 2 145 255 255 
247 28 54 249 255 255 239 224 255 255 167 0 197 255 249 252 255 255 255 255 
103 6 243 255 254 255 254 254 255 255 73 25 255 255 254 255 255 255 255 255 
72 25 255 255 254 255 255 255 255 255 102 6 243 255 254 255 254 254 255 255 
166 0 197 255 249 252 255 255 255 255 245 25 54 249 255 255 239 225 255 253 
255 202 20 19 84 81 2 144 255 255 253 255 235 135 76 80 138 236 255 
