P2
#Created with ANN
10 12
255
255 255 255 255 255 255 255 255 255 255 255 255 255 255 255 171 0 0 255 255
255 255 255 255 255 0 0 0 255 255 255 255 255 255 0 0 0 0 255 255
255 255 255 0 0 118 0 0 255 255 255 255 255 0 0 255 0 0 255 255
255 255 0 0 255 255 0 0 255 255 255 0 0 124 255 255 0 0 255 255
255 0 0 0 0 0 0 0 0 0 255 0 0 0 0 0 0 0 0 178
255 255 255 255 255 255 0 0 255 255 255 255 255 255 255 255 0 0 255 255
