P2
#Created with GIMP
10 12
255
255 255 255 255 255 255 255 252 255 255 251 204 207 198 197 195 225 255 254 
255 250 133 35 115 119 120 77 134 255 253 255 247 85 247 255 254 255 87 192 
255 255 244 84 247 255 251 255 109 175 255 255 250 71 159 170 168 93 109 255 
253 255 251 66 133 144 139 105 95 209 255 255 246 85 247 255 253 255 206 80 251 
255 247 87 247 255 254 255 255 89 228 255 219 72 215 223 221 225 113 110 255 
249 126 90 106 106 106 102 145 250 255 255 255 255 255 255 255 255 255 254 255 
