P2
#Created with GIMP
10 12
255
255 255 252 254 255 255 255 253 255 255 255 253 255 233 177 172 222 251 237 
255 253 255 163 77 131 137 105 80 123 255 255 189 71 249 255 252 255 117 101 
255 255 98 197 255 249 250 255 235 206 255 248 90 242 255 255 255 255 253 255 
255 246 90 245 255 255 255 255 254 251 255 255 86 231 255 254 255 254 252 255 
255 255 130 138 255 252 254 255 255 214 249 255 252 90 146 250 255 240 111 92 
255 254 255 244 133 98 102 86 135 249 255 255 254 253 255 247 232 249 255 253 
255 
