P2
#Created with GIMP
10 12
255
255 255 255 255 255 255 255 255 255 255 223 206 195 209 254 251 202 198 206 
230 179 36 107 150 255 248 138 98 40 206 255 96 228 255 205 215 255 201 109 
255 255 104 198 255 49 84 255 165 126 255 255 123 183 235 79 90 255 148 151 
255 255 145 166 176 142 124 206 135 175 255 255 171 141 126 199 168 148 121 
200 255 255 202 101 100 242 216 100 102 226 255 255 236 34 100 255 255 71 57 
254 255 255 255 99 176 255 255 148 119 255 253 255 255 255 254 255 255 254 255 
255 255 
