P2
#Created with GIMP
7 9
255
255 234 90 33 81 236 255 255 134 159 215 51 81 255 246 213 255 255 203 44 254 
255 254 249 255 184 97 255 255 254 253 255 113 206 255 255 251 255 169 169 255 
252 254 255 208 190 255 252 248 255 176 89 171 164 124 204 246 106 79 78 70 96 
246 
