P2
#Created with GIMP
7 9
255
255 237 106 42 92 248 255 255 169 188 227 42 139 255 254 247 252 255 133 151 
255 255 254 254 204 132 253 255 254 255 230 99 0 169 255 255 252 251 255 127 
53 255 255 255 253 255 199 78 255 255 184 212 255 136 179 255 255 118 78 144 
193 255 254 
