P2
#Created with GIMP
7 9
255
255 236 125 135 113 240 255 255 89 148 255 119 91 255 228 20 214 255 217 21 224 
226 6 192 255 234 17 194 255 75 58 231 168 11 215 255 245 136 168 114 47 255 
255 253 255 249 42 176 255 254 255 238 93 145 255 252 255 201 147 196 255 252 
255 
