P2
10 12
255
255 255 255 255 255 255 254 254 255 255 253 255 218 113 90 111 217 255 254 255 
252 255 173 87 153 62 17 233 255 253 255 255 255 253 255 222 0 196 255 252 255 
255 255 229 225 109 66 254 255 254 255 253 255 107 18 0 165 255 253 255 255 
255 254 244 248 157 0 191 255 252 255 255 255 254 255 255 24 117 255 251 254 
255 228 234 255 188 0 170 255 251 251 255 140 20 54 14 112 255 255 255 255 255 
252 222 204 235 255 254 255 255 255 255 255 255 255 255 252 254 255 255 
