P2
10 12
255
255 255 255 255 255 255 255 255 255 255 254 255 241 156 141 140 140 236 255 
254 253 255 217 4 50 59 58 222 255 253 253 255 216 25 234 255 254 255 255 255 
253 255 216 8 143 222 255 253 255 255 254 255 232 105 68 4 130 255 253 255 255 
255 255 252 255 173 0 208 255 252 255 255 255 252 255 233 0 166 255 251 254 
255 238 231 255 139 0 218 255 253 252 255 189 26 47 19 162 255 253 255 255 255 
255 227 206 244 255 254 255 255 255 255 255 255 255 254 252 255 255 255 
