P2
10 12
255
255 255 255 255 255 255 255 255 255 255 254 255 175 135 144 141 145 183 255 
254 252 255 105 32 45 53 0 80 255 252 255 255 255 254 255 229 31 206 255 253 
255 255 254 250 255 78 107 255 252 255 255 255 252 255 178 27 241 255 254 255 
255 254 255 253 35 138 255 251 255 255 255 252 255 140 16 244 255 254 255 255 
254 255 251 18 103 255 251 255 255 255 253 255 212 11 182 255 252 255 255 255 
255 255 252 246 253 255 255 255 255 255 255 255 255 255 255 255 255 255 255 
255 
