P2
10 12
255
255 255 254 255 255 255 255 254 255 255 255 254 255 194 98 90 171 255 255 255 
252 255 192 9 121 122 0 165 255 251 251 255 114 46 255 255 46 117 255 251 252 
255 194 4 131 162 41 226 255 253 255 254 255 71 0 0 142 255 252 255 252 255 
109 52 240 117 0 151 255 252 255 251 16 160 255 255 93 42 255 253 255 255 39 
83 255 254 59 82 255 252 253 255 199 28 38 35 59 233 255 254 255 254 255 250 
210 218 255 254 255 255 255 255 253 254 255 255 253 253 255 255 
