P2
#Created with GIMP
17 22
255
255 255 255 255 255 255 255 255 255 255 255 255 255 255 255 255 255 255 255 
254 251 251 251 251 251 251 251 254 255 255 255 255 255 255 255 255 253 255 
255 255 255 255 255 255 253 254 255 255 255 255 255 254 255 243 107 87 91 93 
109 91 124 250 255 255 255 255 255 255 254 255 241 93 67 75 64 0 52 6 193 255 
252 255 255 255 255 255 255 254 255 252 255 172 21 255 66 93 255 252 255 255 
255 255 255 255 255 251 249 255 60 93 255 157 19 245 255 254 255 255 255 255 
255 255 253 255 222 5 194 255 238 14 168 255 252 255 255 255 255 255 255 251 
255 131 37 255 252 255 88 70 255 252 255 255 255 255 255 255 255 255 36 126 
255 249 255 186 7 229 255 254 255 255 255 255 253 255 197 7 218 255 251 254 
253 28 141 255 251 255 255 255 255 251 255 98 62 255 253 255 251 255 118 46 255 
254 255 255 255 254 255 246 22 144 247 228 231 229 241 190 6 209 255 253 255 
255 252 255 175 0 10 4 4 4 5 4 11 0 126 255 251 255 255 252 255 72 75 218 200 
203 203 203 200 217 119 33 253 255 254 253 255 228 8 187 255 252 255 255 255 
253 255 230 7 186 255 252 249 255 139 28 251 250 252 253 253 253 253 246 255 
68 87 255 249 254 255 48 128 255 251 255 255 255 255 254 252 255 180 19 243 
255 176 54 0 52 66 88 243 255 254 253 255 123 59 62 1 42 131 187 93 115 102 
92 117 246 255 254 254 255 146 88 100 115 95 149 255 255 255 255 255 255 255 
255 255 255 255 255 255 255 255 255 255 253 250 250 250 250 251 255 255 255 
255 255 252 250 250 250 250 252 
