P2
#Created with GIMP
17 22
255
255 255 255 255 255 255 255 255 255 255 255 255 255 255 255 255 255 255 254 
251 251 251 251 251 251 251 251 251 253 255 255 255 255 255 253 254 255 255 
255 255 255 255 255 255 255 255 253 254 255 255 255 255 220 89 97 106 90 91 91 
91 92 122 206 255 253 255 255 255 255 215 78 44 7 74 72 72 72 71 37 0 111 255 
254 254 255 253 250 255 157 31 255 255 255 255 254 255 179 0 135 255 252 255 
255 250 255 152 25 255 251 251 251 252 251 255 147 21 247 255 254 255 251 255 
154 25 255 255 255 255 255 253 255 211 8 221 255 253 255 251 255 154 25 255 
251 250 251 251 250 255 153 17 245 255 254 255 251 255 154 26 255 255 255 255 
254 255 203 8 130 255 251 255 255 251 255 160 4 121 116 116 117 108 62 0 136 
255 251 255 255 255 251 255 162 0 56 50 51 51 49 35 11 68 206 255 253 255 255 
251 255 154 25 255 255 255 255 255 254 228 101 0 182 255 252 255 251 255 154 
25 255 252 252 252 252 254 252 255 124 22 249 255 255 251 255 154 25 255 255 
255 255 255 255 252 255 237 11 188 255 255 251 255 154 25 255 255 255 255 255 
255 254 254 246 16 177 255 255 250 255 152 25 255 251 251 251 252 252 251 255 
173 2 228 255 255 251 255 156 30 255 255 255 255 255 254 255 195 5 106 255 252 
255 214 71 40 7 69 67 67 67 67 68 42 0 98 251 254 255 255 223 97 104 113 97 96 
96 96 97 96 117 202 255 252 254 255 255 255 255 255 255 255 255 255 255 255 
255 255 255 253 254 255 255 255 254 250 250 250 250 250 250 250 250 250 251 
252 255 255 255 255 
