P2
#Created with GIMP
17 22
255
255 255 255 255 255 255 255 255 255 255 255 255 255 255 255 255 255 254 251 
251 251 251 251 253 255 255 255 252 251 251 251 251 251 255 253 255 255 255 
255 255 254 253 255 255 254 255 255 255 255 255 253 220 97 106 95 92 81 182 
255 251 255 145 82 91 99 100 116 247 219 71 0 58 77 61 175 255 248 255 133 62 
80 40 3 105 246 255 244 21 187 255 252 254 254 255 254 254 251 255 123 60 255 
251 254 255 30 146 255 246 254 233 204 245 254 247 255 79 84 255 251 253 255 
53 117 255 247 255 100 0 160 255 249 255 55 115 255 251 251 255 82 83 255 252 
252 49 0 97 255 251 255 30 149 255 251 251 255 112 58 255 255 212 23 102 39 252 
255 243 16 179 255 252 251 255 147 31 255 255 153 30 209 10 212 255 221 8 209 
255 253 252 255 176 17 242 255 87 72 255 23 152 255 194 10 231 255 254 253 255 
207 8 224 255 31 135 255 72 84 255 163 22 251 255 254 253 255 230 7 209 233 
4 198 255 140 29 255 137 38 255 254 255 254 255 250 17 186 179 16 245 255 204 
5 242 109 65 255 252 255 255 254 255 32 159 115 62 255 254 250 19 181 89 91 255 
251 255 255 252 255 62 113 58 129 255 249 255 68 107 66 125 255 251 255 255 
251 255 99 51 29 194 255 249 255 136 41 34 160 255 251 255 255 251 255 138 0 33 
243 255 252 255 202 0 0 195 255 252 255 255 253 255 204 96 152 255 254 254 255 
244 124 111 234 255 254 255 255 255 255 255 255 255 255 255 255 255 255 255 
255 255 255 255 255 255 255 255 253 250 252 255 255 255 255 255 251 250 254 
255 255 255 
