P2
35 45
255
255 255 255 255 255 255 255 255 255 255 255 255 255 255 255 255 255 255 255 
255 255 255 255 255 255 255 255 255 255 255 255 255 255 255 255 255 255 255 
255 255 255 255 255 255 255 255 255 255 255 255 255 255 255 255 255 255 255 
255 255 255 255 255 255 255 255 255 255 255 255 255 255 255 255 255 255 255 
255 255 255 255 255 253 251 252 254 255 255 255 251 251 255 255 255 255 255 
255 255 255 255 255 255 255 255 255 255 255 255 255 255 255 255 255 255 255 
253 254 255 255 255 255 255 255 255 255 255 254 253 255 255 255 255 255 255 
255 255 255 255 255 255 255 255 255 255 255 255 255 255 255 255 255 253 213 
152 108 75 71 71 74 106 171 247 255 252 255 255 255 255 255 255 255 255 255 
255 255 255 255 255 255 255 255 255 255 252 255 193 51 4 0 0 0 0 0 0 1 0 41 191 
255 253 255 255 255 255 255 255 255 255 255 255 255 255 255 255 255 255 255 
255 250 255 127 0 5 0 0 0 3 1 0 4 4 0 4 167 255 253 255 255 255 255 255 255 
255 255 255 255 255 255 255 255 255 255 255 250 255 127 0 9 66 136 177 195 186 
125 20 0 5 0 15 211 255 253 255 255 255 255 255 255 255 255 255 255 255 255 
255 255 255 255 251 255 139 78 214 255 255 255 255 253 255 209 27 0 6 0 91 255 
253 255 255 255 255 255 255 255 255 255 255 255 255 255 255 255 255 255 255 
251 254 255 254 251 252 253 252 248 255 157 0 4 0 18 237 255 254 255 255 255 
255 255 255 255 255 255 255 255 255 255 255 255 255 255 255 252 253 255 255 
255 255 255 254 255 237 17 0 0 2 202 255 252 255 255 255 255 255 255 255 255 
255 255 255 255 255 255 255 255 255 254 254 255 255 255 255 255 255 254 255 
250 42 0 2 0 183 255 252 255 255 255 255 255 255 255 255 255 255 255 255 255 
255 255 255 255 255 255 255 255 255 255 255 255 254 255 243 22 0 0 3 206 255 
252 255 255 255 255 255 255 255 255 255 255 255 255 255 255 255 255 255 255 
255 255 255 255 255 255 255 253 255 195 0 1 0 23 240 255 254 255 255 255 255 
255 255 255 255 255 255 255 255 255 255 255 255 255 255 255 255 255 255 255 
255 255 251 255 106 0 8 0 96 255 253 255 255 255 255 255 255 255 255 255 255 
255 255 255 255 255 255 255 255 255 255 255 255 255 255 255 252 255 205 6 0 1 
4 201 255 253 255 255 255 255 255 255 255 255 255 255 255 255 255 255 255 255 
255 255 255 255 255 255 255 255 253 255 242 54 0 7 0 124 255 253 255 255 255 
255 255 255 255 255 255 255 255 255 255 255 255 255 255 255 255 255 255 255 
255 255 253 254 253 88 0 7 0 85 255 254 255 255 255 255 255 255 255 255 255 
255 255 255 255 255 255 255 255 255 255 255 255 255 255 255 253 254 252 90 0 8 
0 66 242 255 254 255 255 255 255 255 255 255 255 255 255 255 255 255 255 255 
255 255 255 255 255 255 255 255 254 254 252 90 0 8 0 81 242 255 253 255 255 
255 255 255 255 255 255 255 255 255 255 255 255 255 255 255 255 255 255 255 
255 255 254 254 252 90 0 8 0 90 252 254 253 255 255 255 255 255 255 255 255 
255 255 255 255 255 255 255 255 255 255 255 255 255 255 255 255 252 255 104 
0 8 0 108 254 253 253 255 255 255 255 255 255 255 255 255 255 255 255 255 255 
255 255 255 255 255 255 255 255 255 255 251 255 131 0 7 0 91 255 253 253 255 
255 255 255 255 255 255 255 255 255 255 255 255 255 255 255 255 255 255 255 
255 255 255 255 252 255 173 0 5 0 62 251 255 253 255 255 255 255 255 255 255 
255 255 255 255 255 255 255 255 255 255 255 255 255 255 255 255 255 253 255 
218 23 0 0 22 218 255 252 255 255 255 255 255 255 255 255 255 255 255 255 255 
255 255 255 255 255 255 255 255 255 255 255 255 254 255 71 0 6 0 152 255 249 
253 253 253 253 253 253 253 255 255 255 255 255 255 255 255 255 255 255 255 
255 255 255 255 255 255 252 255 161 0 5 0 50 252 255 254 255 255 255 255 255 
255 255 255 255 255 255 255 255 255 255 255 255 255 255 255 255 255 255 255 
254 255 241 36 0 5 0 105 228 209 213 213 213 213 213 213 212 215 253 255 255 
255 255 255 255 255 255 255 255 255 255 255 255 255 255 253 255 212 6 0 2 1 5 
6 6 6 6 6 6 6 7 2 19 242 255 254 255 255 255 255 255 255 255 255 255 255 255 
255 255 255 253 255 213 5 0 1 0 0 0 0 0 0 0 0 0 1 0 14 241 255 254 255 255 255 
255 255 255 255 255 255 255 255 255 255 255 253 255 213 10 3 6 5 5 6 6 6 6 6 6 
6 7 2 19 242 255 254 255 255 255 255 255 255 255 255 255 255 255 255 255 255 
255 255 248 213 213 213 213 213 213 213 213 213 213 213 213 213 212 215 253 
255 255 255 255 255 255 255 255 255 255 255 255 255 255 255 255 255 255 255 
255 255 255 255 255 255 255 255 255 255 255 255 255 255 255 255 255 255 255 
255 255 255 255 255 255 255 255 255 255 255 255 255 255 255 255 253 253 253 
253 253 253 253 253 253 253 253 253 253 253 253 255 255 255 255 255 255 255 
255 255 255 255 255 255 255 255 255 255 255 255 255 255 255 255 255 255 255 
255 255 255 255 255 255 255 255 255 255 255 255 255 255 255 255 255 255 255 
255 255 255 255 255 255 255 255 255 255 255 255 255 255 255 255 255 255 255 
255 255 255 255 255 255 255 255 255 255 255 255 255 255 255 255 255 255 255 
255 255 255 255 255 255 255 255 255 255 255 255 255 255 255 255 255 255 255 
255 255 255 255 255 255 255 255 255 255 255 255 255 255 255 255 255 255 255 
255 255 255 255 255 255 255 255 255 255 255 255 255 255 255 255 255 255 255 
255 255 255 255 255 255 255 255 255 255 255 255 255 255 255 255 255 255 255 
255 255 255 255 255 255 255 255 255 255 255 255 255 255 255 255 255 255 255 
255 255 255 255 255 255 255 255 255 255 255 255 255 255 255 255 255 255 255 
255 255 255 255 255 255 255 255 255 255 255 255 255 255 255 255 255 255 255 
255 255 255 255 255 255 255 255 255 255 255 255 255 255 255 255 255 255 255 
255 255 255 255 255 255 255 255 255 255 255 255 255 255 255 255 255 255 255 
255 255 255 255 255 255 255 255 255 255 255 255 255 255 255 255 255 255 255 
255 255 255 255 255 255 255 255 255 255 255 255 255 255 255 255 255 255 255 
255 255 255 255 255 255 255 255 255 255 255 255 255 255 255 255 255 255 255 
255 255 255 255 255 255 255 255 255 255 255 255 255 255 255 255 255 255 255 
255 255 255 255 255 255 255 255 255 255 255 255 255 255 255 255 255 255 255 
255 255 255 255 255 255 255 255 255 255 255 255 255 255 255 255 255 255 255 
255 255 255 255 255 255 255 255 255 255 255 255 255 255 255 255 255 255 255 
255 255 255 255 255 255 255 255 255 
