P2
35 45
255
255 255 255 255 255 255 255 255 255 255 255 255 255 255 255 255 255 255 255 
255 255 255 255 255 255 255 255 255 255 255 255 255 255 255 255 255 255 255 
255 255 255 255 255 255 255 255 255 255 255 255 255 255 255 255 255 255 255 
255 255 255 255 255 255 255 255 255 255 255 255 255 255 255 255 255 255 255 
255 255 255 255 255 253 251 252 254 255 255 255 253 251 253 255 255 255 255 
255 255 255 255 255 255 255 255 255 255 255 255 255 255 255 255 255 255 255 
255 255 255 255 255 255 255 255 255 255 255 255 253 254 255 255 255 255 255 
255 255 255 255 255 255 255 255 255 255 255 255 255 255 255 255 255 252 213 
152 110 77 71 72 70 87 134 215 255 253 254 255 255 255 255 255 255 255 255 255 
255 255 255 255 255 255 255 255 255 255 252 255 124 0 2 0 0 0 0 0 1 0 6 106 
240 255 254 255 255 255 255 255 255 255 255 255 255 255 255 255 255 255 255 
255 255 252 255 98 0 4 0 0 1 3 0 1 5 3 0 76 255 255 254 255 255 255 255 255 
255 255 255 255 255 255 255 255 255 255 255 255 253 255 97 0 50 118 167 189 
195 165 69 0 2 5 0 148 255 252 255 255 255 255 255 255 255 255 255 255 255 255 
255 255 255 255 255 254 255 172 184 255 255 255 255 255 254 255 106 0 4 0 47 
251 255 254 255 255 255 255 255 255 255 255 255 255 255 255 255 255 255 255 
255 255 255 255 255 251 251 252 252 249 255 236 21 0 0 11 227 255 254 255 255 
255 255 255 255 255 255 255 255 255 255 255 255 255 255 255 255 251 252 254 
255 255 255 255 255 254 255 67 0 1 4 211 255 253 255 255 255 255 255 255 255 
255 255 255 255 255 255 255 255 255 255 255 255 255 255 255 255 255 255 255 
255 253 57 0 0 18 238 255 254 255 255 255 255 255 255 255 255 255 255 255 255 
255 255 255 255 255 255 255 255 255 255 255 255 255 252 255 223 10 1 0 79 255 
254 255 255 255 255 255 255 255 255 255 255 255 255 255 255 255 255 255 255 
255 255 255 253 251 250 250 253 253 255 104 0 6 0 185 255 252 255 255 255 255 
255 255 255 255 255 255 255 255 255 255 255 255 255 255 255 255 255 255 255 
255 254 255 245 118 0 4 0 108 255 253 255 255 255 255 255 255 255 255 255 255 
255 255 255 255 255 255 255 255 255 255 254 255 195 148 131 123 91 29 0 2 0 98 
249 255 254 255 255 255 255 255 255 255 255 255 255 255 255 255 255 255 255 
255 255 255 255 252 255 98 0 4 0 0 1 2 4 158 255 251 253 255 255 255 255 255 
255 255 255 255 255 255 255 255 255 255 255 255 255 255 255 255 253 255 97 0 4 
0 0 0 3 2 43 147 248 255 254 255 255 255 255 255 255 255 255 255 255 255 255 
255 255 255 255 255 255 255 255 254 255 177 122 115 97 69 16 0 1 2 0 71 240 
255 254 255 255 255 255 255 255 255 255 255 255 255 255 255 255 255 255 255 
255 255 255 255 255 255 255 254 255 232 125 7 2 6 0 83 255 254 255 255 255 255 
255 255 255 255 255 255 255 255 255 255 255 255 255 255 255 255 255 252 250 
251 252 254 253 255 160 0 1 3 0 184 255 252 255 255 255 255 255 255 255 255 
255 255 255 255 255 255 255 255 255 255 255 255 255 255 255 255 255 253 250 
255 83 0 7 0 96 255 253 255 255 255 255 255 255 255 255 255 255 255 255 255 
255 255 255 255 255 255 255 255 255 255 255 255 255 251 255 168 0 3 0 41 249 
255 254 255 255 255 255 255 255 255 255 255 255 255 255 255 255 255 255 255 
255 255 255 255 255 255 255 255 253 255 211 6 0 0 14 241 255 254 255 255 255 
255 255 255 255 255 255 255 255 255 255 255 255 255 255 255 255 255 255 255 
255 255 255 253 255 201 1 0 0 23 244 255 254 255 255 255 255 255 255 255 255 
255 255 255 255 255 255 255 255 254 252 253 255 255 255 255 255 255 249 255 
143 0 6 0 59 255 255 254 255 255 255 255 255 255 255 255 255 255 255 255 255 
255 255 255 255 255 255 254 251 252 252 252 250 255 242 45 0 6 0 123 255 251 
255 255 255 255 255 255 255 255 255 255 255 255 255 255 255 255 255 251 183 
230 255 254 255 255 254 255 250 88 0 4 0 13 214 255 253 255 255 255 255 255 
255 255 255 255 255 255 255 255 255 255 254 255 249 38 10 79 142 178 191 187 
149 50 0 4 5 0 133 255 252 255 255 255 255 255 255 255 255 255 255 255 255 255 
255 255 255 254 255 250 42 0 2 0 0 2 1 0 1 4 1 0 96 255 254 255 255 255 255 
255 255 255 255 255 255 255 255 255 255 255 255 255 254 255 251 46 0 2 0 0 0 0 
0 1 0 21 148 255 254 254 255 255 255 255 255 255 255 255 255 255 255 255 255 
255 255 255 255 255 254 255 219 164 119 84 69 72 70 77 109 164 238 255 253 254 
255 255 255 255 255 255 255 255 255 255 255 255 255 255 255 255 255 255 255 
255 255 255 255 255 255 255 255 255 255 255 255 255 252 254 255 255 255 255 
255 255 255 255 255 255 255 255 255 255 255 255 255 255 255 255 255 255 254 
251 251 254 255 255 255 254 251 252 254 255 255 255 255 255 255 255 255 255 
255 255 255 255 255 255 255 255 255 255 255 255 255 255 255 255 255 255 255 
255 255 255 255 255 255 255 255 255 255 255 255 255 255 255 255 255 255 255 
255 255 255 255 255 255 255 255 255 255 255 255 255 255 255 255 255 255 255 
255 255 255 255 255 255 255 255 255 255 255 255 255 255 255 255 255 255 255 
255 255 255 255 255 255 255 255 255 255 255 255 255 255 255 255 255 255 255 
255 255 255 255 255 255 255 255 255 255 255 255 255 255 255 255 255 255 255 
255 255 255 255 255 255 255 255 255 255 255 255 255 255 255 255 255 255 255 
255 255 255 255 255 255 255 255 255 255 255 255 255 255 255 255 255 255 255 
255 255 255 255 255 255 255 255 255 255 255 255 255 255 255 255 255 255 255 
255 255 255 255 255 255 255 255 255 255 255 255 255 255 255 255 255 255 255 
255 255 255 255 255 255 255 255 255 255 255 255 255 255 255 255 255 255 255 
255 255 255 255 255 255 255 255 255 255 255 255 255 255 255 255 255 255 255 
255 255 255 255 255 255 255 255 255 255 255 255 255 255 255 255 255 255 255 
255 255 255 255 255 255 255 255 255 255 255 255 255 255 255 255 255 255 255 
255 255 255 255 255 255 255 255 255 255 255 255 255 255 255 255 255 255 255 
255 255 255 255 255 255 255 255 255 255 255 255 255 255 255 255 255 255 255 
255 255 255 255 255 255 255 255 255 255 255 255 255 255 255 255 255 255 255 
255 255 255 255 255 255 255 255 255 255 255 255 255 255 255 255 255 255 255 
255 255 255 255 255 255 255 255 255 255 255 255 255 255 255 255 255 255 255 
255 255 255 255 255 255 255 255 255 255 255 255 255 255 255 255 255 255 255 
255 255 255 255 255 255 255 255 255 255 
