P2
35 45
255
255 255 255 255 255 255 255 255 255 255 255 255 255 255 255 255 255 255 255 
255 255 255 255 255 255 255 255 255 255 255 255 255 255 255 255 255 255 255 
255 255 255 255 255 255 255 255 255 255 255 255 255 255 255 255 255 255 255 
255 255 255 255 255 255 255 255 255 255 255 255 255 255 255 255 255 255 255 
255 255 255 255 255 255 255 255 255 255 255 255 254 253 253 253 254 255 255 
255 255 255 255 255 255 255 255 255 255 255 255 255 255 255 255 255 255 255 
255 255 255 255 255 255 255 255 255 254 255 255 255 255 255 255 255 255 255 
255 255 255 255 255 255 255 255 255 255 255 255 255 255 255 255 255 255 255 
255 255 255 255 255 255 247 214 214 210 234 255 254 255 255 255 255 255 255 
255 255 255 255 255 255 255 255 255 255 255 255 255 255 255 255 255 255 255 
255 252 255 118 0 13 0 130 255 250 255 255 255 255 255 255 255 255 255 255 255 
255 255 255 255 255 255 255 255 255 255 255 255 255 255 252 255 188 0 0 5 0 128 
255 250 255 255 255 255 255 255 255 255 255 255 255 255 255 255 255 255 255 
255 255 255 255 255 255 255 254 255 238 41 0 3 6 0 128 255 250 255 255 255 255 
255 255 255 255 255 255 255 255 255 255 255 255 255 255 255 255 255 255 255 
255 252 255 109 0 5 0 5 0 128 255 250 255 255 255 255 255 255 255 255 255 255 
255 255 255 255 255 255 255 255 255 255 255 255 255 252 255 182 0 3 1 0 5 0 128 
255 250 255 255 255 255 255 255 255 255 255 255 255 255 255 255 255 255 255 
255 255 255 255 255 254 255 232 36 0 0 42 12 2 0 128 255 250 255 255 255 255 
255 255 255 255 255 255 255 255 255 255 255 255 255 255 255 255 255 255 253 
255 98 0 0 34 183 13 1 0 128 255 250 255 255 255 255 255 255 255 255 255 255 
255 255 255 255 255 255 255 255 255 255 255 252 255 174 0 5 0 175 224 2 3 0 128 
255 250 255 255 255 255 255 255 255 255 255 255 255 255 255 255 255 255 255 
255 255 255 254 255 227 28 0 0 86 255 210 5 3 0 128 255 250 255 255 255 255 
255 255 255 255 255 255 255 255 255 255 255 255 255 255 255 255 252 255 88 0 0 
31 226 255 211 5 3 0 128 255 250 255 255 255 255 255 255 255 255 255 255 255 
255 255 255 255 255 255 255 255 252 255 167 0 5 0 175 255 255 213 5 3 0 128 
255 250 255 255 255 255 255 255 255 255 255 255 255 255 255 255 255 255 255 
255 253 255 220 26 0 0 98 255 251 255 213 5 3 0 128 255 250 255 255 255 255 
255 255 255 255 255 255 255 255 255 255 255 255 255 255 253 255 79 0 0 36 233 
255 252 255 213 5 3 0 128 255 250 255 255 255 255 255 255 255 255 255 255 255 
255 255 255 255 255 255 252 255 157 0 5 0 182 255 251 253 255 213 5 3 0 128 
255 250 255 255 255 255 255 255 255 255 255 255 255 255 255 255 255 255 253 
255 215 22 1 0 108 255 251 255 253 255 213 5 3 0 128 255 250 255 255 255 255 
255 255 255 255 255 255 255 255 255 255 255 255 255 255 70 0 0 43 240 255 254 
255 253 255 214 5 3 0 128 255 250 255 255 255 255 255 255 255 255 255 255 255 
255 255 255 255 254 255 241 14 0 0 39 79 70 72 72 71 74 60 2 1 0 36 78 68 82 
245 255 254 255 255 255 255 255 255 255 255 255 255 255 254 255 241 14 0 1 0 0 
0 0 0 0 0 0 0 0 0 0 1 0 14 241 255 254 255 255 255 255 255 255 255 255 255 255 
255 254 255 242 18 1 6 6 8 8 8 8 8 8 7 1 0 0 4 10 4 21 242 255 254 255 255 255 
255 255 255 255 255 255 255 255 255 255 253 215 212 213 213 213 213 213 213 
211 220 178 4 3 0 106 231 208 215 253 255 255 255 255 255 255 255 255 255 255 
255 255 255 255 255 255 255 255 255 255 255 255 255 255 253 255 215 6 3 0 128 
255 250 255 255 255 255 255 255 255 255 255 255 255 255 255 255 255 255 255 
255 253 253 253 253 253 253 253 253 251 255 211 6 3 0 127 255 248 253 255 255 
255 255 255 255 255 255 255 255 255 255 255 255 255 255 255 255 255 255 255 
255 255 255 255 253 255 213 5 3 0 128 255 250 255 255 255 255 255 255 255 255 
255 255 255 255 255 255 255 255 255 255 255 255 255 255 255 255 255 255 253 
255 213 6 4 0 128 255 250 255 255 255 255 255 255 255 255 255 255 255 255 255 
255 255 255 255 255 255 255 255 255 255 255 255 255 253 255 212 5 3 0 128 255 
250 255 255 255 255 255 255 255 255 255 255 255 255 255 255 255 255 255 255 
255 255 255 255 255 255 255 255 253 255 213 10 9 0 130 255 250 255 255 255 255 
255 255 255 255 255 255 255 255 255 255 255 255 255 255 255 255 255 255 255 
255 255 255 255 255 248 214 214 210 234 255 254 255 255 255 255 255 255 255 
255 255 255 255 255 255 255 255 255 255 255 255 255 255 255 255 255 255 255 
255 255 255 255 255 255 255 255 255 255 255 255 255 255 255 255 255 255 255 
255 255 255 255 255 255 255 255 255 255 255 255 255 255 255 255 255 255 255 
253 253 253 254 255 255 255 255 255 255 255 255 255 255 255 255 255 255 255 
255 255 255 255 255 255 255 255 255 255 255 255 255 255 255 255 255 255 255 
255 255 255 255 255 255 255 255 255 255 255 255 255 255 255 255 255 255 255 
255 255 255 255 255 255 255 255 255 255 255 255 255 255 255 255 255 255 255 
255 255 255 255 255 255 255 255 255 255 255 255 255 255 255 255 255 255 255 
255 255 255 255 255 255 255 255 255 255 255 255 255 255 255 255 255 255 255 
255 255 255 255 255 255 255 255 255 255 255 255 255 255 255 255 255 255 255 
255 255 255 255 255 255 255 255 255 255 255 255 255 255 255 255 255 255 255 
255 255 255 255 255 255 255 255 255 255 255 255 255 255 255 255 255 255 255 
255 255 255 255 255 255 255 255 255 255 255 255 255 255 255 255 255 255 255 
255 255 255 255 255 255 255 255 255 255 255 255 255 255 255 255 255 255 255 
255 255 255 255 255 255 255 255 255 255 255 255 255 255 255 255 255 255 255 
255 255 255 255 255 255 255 255 255 255 255 255 255 255 255 255 255 255 255 
255 255 255 255 255 255 255 255 255 255 255 255 255 255 255 255 255 255 255 
255 255 255 255 255 255 255 255 255 255 255 255 255 255 255 255 255 255 255 
255 255 255 255 255 255 255 255 255 255 255 255 255 255 255 255 255 255 255 
255 255 255 255 255 255 255 255 255 255 255 255 255 255 255 255 255 255 255 
255 255 255 255 255 255 255 255 255 255 255 255 255 255 255 255 255 255 255 
255 255 255 255 255 255 255 255 255 255 255 255 255 255 255 255 255 255 255 
255 255 255 255 255 255 255 255 255 255 255 255 255 255 255 255 255 255 255 
255 255 255 255 255 255 255 255 255 255 255 255 255 255 255 255 255 255 255 
255 255 
