P2
35 45
255
255 255 255 255 255 255 255 255 255 255 255 255 255 255 255 255 255 255 255 
255 255 255 255 255 255 255 255 255 255 255 255 255 255 255 255 255 255 255 
255 255 255 255 255 255 255 255 255 255 255 255 255 255 255 255 255 255 255 
255 255 255 255 255 255 255 255 255 255 255 255 255 255 255 255 255 255 255 
255 255 255 255 255 254 253 253 253 253 253 253 253 253 253 253 253 254 255 
255 255 255 255 255 255 255 255 255 255 255 255 255 255 255 255 255 255 255 
255 255 255 255 255 255 255 255 255 255 255 255 255 255 255 255 255 255 255 
255 255 255 255 255 255 255 255 255 255 255 255 255 255 255 255 254 255 229 
210 214 213 213 213 213 213 213 213 213 211 220 254 255 255 255 255 255 255 
255 255 255 255 255 255 255 255 255 255 255 255 255 252 255 102 0 9 5 6 6 6 6 
6 6 8 0 47 250 255 254 255 255 255 255 255 255 255 255 255 255 255 255 255 255 
255 255 255 252 255 99 0 4 0 0 0 0 0 0 0 2 0 41 250 255 254 255 255 255 255 
255 255 255 255 255 255 255 255 255 255 255 255 255 252 255 99 0 5 3 6 6 6 6 6 
6 8 0 47 250 255 254 255 255 255 255 255 255 255 255 255 255 255 255 255 255 
255 255 255 252 255 99 0 0 82 223 211 213 213 213 213 213 212 220 254 255 255 
255 255 255 255 255 255 255 255 255 255 255 255 255 255 255 255 255 252 255 
99 0 0 102 255 252 255 255 255 255 255 255 255 255 255 255 255 255 255 255 255 
255 255 255 255 255 255 255 255 255 255 255 255 252 255 99 0 0 99 255 250 253 
253 253 253 253 253 254 255 255 255 255 255 255 255 255 255 255 255 255 255 
255 255 255 255 255 255 255 252 255 99 0 0 99 255 252 255 255 255 255 255 255 
255 255 255 255 255 255 255 255 255 255 255 255 255 255 255 255 255 255 255 
255 255 252 255 99 0 0 99 255 251 254 254 255 255 255 255 255 255 255 255 255 
255 255 255 255 255 255 255 255 255 255 255 255 255 255 255 255 252 255 99 0 0 
102 255 252 255 252 252 255 255 255 255 255 255 255 255 255 255 255 255 255 
255 255 255 255 255 255 255 255 255 255 255 252 255 99 0 0 83 220 224 250 255 
255 253 253 255 255 255 255 255 255 255 255 255 255 255 255 255 255 255 255 
255 255 255 255 255 255 252 255 102 0 7 6 8 9 35 93 176 252 255 253 255 255 
255 255 255 255 255 255 255 255 255 255 255 255 255 255 255 255 255 255 255 
253 255 97 0 4 0 0 0 0 1 0 59 212 255 252 255 255 255 255 255 255 255 255 255 
255 255 255 255 255 255 255 255 255 255 255 254 255 177 121 112 97 67 22 0 3 5 
0 14 195 255 252 255 255 255 255 255 255 255 255 255 255 255 255 255 255 255 
255 255 255 255 255 255 255 255 255 255 255 240 159 34 0 6 0 33 229 255 254 
255 255 255 255 255 255 255 255 255 255 255 255 255 255 255 255 255 255 255 
255 252 250 251 252 255 254 255 227 44 0 6 0 105 255 253 255 255 255 255 255 
255 255 255 255 255 255 255 255 255 255 255 255 255 255 255 255 255 255 255 
255 254 249 255 194 0 1 0 17 233 255 253 255 255 255 255 255 255 255 255 255 
255 255 255 255 255 255 255 255 255 255 255 255 255 255 255 255 254 255 250 
47 0 3 0 179 255 252 255 255 255 255 255 255 255 255 255 255 255 255 255 255 
255 255 255 255 255 255 255 255 255 255 255 254 253 255 90 0 7 0 141 255 251 
255 255 255 255 255 255 255 255 255 255 255 255 255 255 255 255 255 255 255 
255 255 255 255 255 255 255 252 255 100 0 9 0 127 255 250 255 255 255 255 255 
255 255 255 255 255 255 255 255 255 255 255 255 255 255 255 255 255 255 255 
255 255 254 255 65 0 6 0 140 255 251 255 255 255 255 255 255 255 255 255 255 
255 255 255 255 255 255 255 255 254 253 255 255 255 255 255 254 255 228 17 0 2 
0 180 255 252 255 255 255 255 255 255 255 255 255 255 255 255 255 255 255 255 
255 255 255 255 254 251 251 253 251 250 255 122 0 4 0 27 239 255 254 255 255 
255 255 255 255 255 255 255 255 255 255 255 255 255 255 254 255 228 204 254 
255 255 255 253 255 164 1 0 5 0 129 255 252 255 255 255 255 255 255 255 255 
255 255 255 255 255 255 255 255 255 252 255 183 0 55 126 174 193 179 96 2 1 6 
0 53 245 255 254 255 255 255 255 255 255 255 255 255 255 255 255 255 255 255 
255 255 252 255 184 0 0 1 0 2 1 0 4 2 0 50 226 255 253 255 255 255 255 255 255 
255 255 255 255 255 255 255 255 255 255 255 255 252 255 188 0 0 1 0 0 0 1 0 8 
113 241 255 253 255 255 255 255 255 255 255 255 255 255 255 255 255 255 255 
255 255 255 255 255 255 251 201 141 100 72 71 71 87 144 222 255 253 253 255 
255 255 255 255 255 255 255 255 255 255 255 255 255 255 255 255 255 255 255 
255 255 255 255 255 255 255 255 255 255 255 255 252 254 255 255 255 255 255 
255 255 255 255 255 255 255 255 255 255 255 255 255 255 255 255 255 255 255 
253 251 252 255 255 255 253 250 254 255 255 255 255 255 255 255 255 255 255 
255 255 255 255 255 255 255 255 255 255 255 255 255 255 255 255 255 255 255 
255 255 255 255 255 255 255 255 255 255 255 255 255 255 255 255 255 255 255 
255 255 255 255 255 255 255 255 255 255 255 255 255 255 255 255 255 255 255 
255 255 255 255 255 255 255 255 255 255 255 255 255 255 255 255 255 255 255 
255 255 255 255 255 255 255 255 255 255 255 255 255 255 255 255 255 255 255 
255 255 255 255 255 255 255 255 255 255 255 255 255 255 255 255 255 255 255 
255 255 255 255 255 255 255 255 255 255 255 255 255 255 255 255 255 255 255 
255 255 255 255 255 255 255 255 255 255 255 255 255 255 255 255 255 255 255 
255 255 255 255 255 255 255 255 255 255 255 255 255 255 255 255 255 255 255 
255 255 255 255 255 255 255 255 255 255 255 255 255 255 255 255 255 255 255 
255 255 255 255 255 255 255 255 255 255 255 255 255 255 255 255 255 255 255 
255 255 255 255 255 255 255 255 255 255 255 255 255 255 255 255 255 255 255 
255 255 255 255 255 255 255 255 255 255 255 255 255 255 255 255 255 255 255 
255 255 255 255 255 255 255 255 255 255 255 255 255 255 255 255 255 255 255 
255 255 255 255 255 255 255 255 255 255 255 255 255 255 255 255 255 255 255 
255 255 255 255 255 255 255 255 255 255 255 255 255 255 255 255 255 255 255 
255 255 255 255 255 255 255 255 255 255 255 255 255 255 255 255 255 255 255 
255 255 255 255 255 255 255 255 255 255 255 255 255 255 255 255 255 255 255 
255 255 255 255 255 255 255 255 255 255 255 255 255 255 255 255 255 255 255 
255 255 255 255 255 255 255 255 255 255 255 255 255 255 255 255 255 255 255 
255 255 255 255 255 255 255 255 255 255 
