P2
35 45
255
255 255 255 255 255 255 255 255 255 255 255 255 255 255 255 255 255 255 255 
255 255 255 255 255 255 255 255 255 255 255 255 255 255 255 255 255 255 255 
255 255 255 255 255 255 255 255 255 255 255 255 255 255 255 255 255 255 255 
255 255 255 255 255 255 255 255 255 255 255 255 255 255 255 255 255 255 255 
255 255 255 255 255 255 255 255 255 254 250 253 255 255 255 251 250 253 255 
255 255 255 255 255 255 255 255 255 255 255 255 255 255 255 255 255 255 255 
255 255 255 255 254 252 255 255 255 255 255 255 255 255 255 255 255 255 255 
255 255 255 255 255 255 255 255 255 255 255 255 255 255 255 255 255 255 255 
253 253 255 223 144 87 71 72 75 105 148 207 250 255 254 255 255 255 255 255 
255 255 255 255 255 255 255 255 255 255 255 255 255 255 252 255 240 117 12 0 1 
0 0 0 0 2 0 97 255 253 255 255 255 255 255 255 255 255 255 255 255 255 255 255 
255 255 255 255 253 255 227 50 0 2 0 0 0 2 0 0 3 0 70 255 255 255 255 255 255 
255 255 255 255 255 255 255 255 255 255 255 255 255 254 255 232 46 0 8 0 35 134 
183 194 182 143 75 0 67 255 255 255 255 255 255 255 255 255 255 255 255 255 
255 255 255 255 255 255 254 255 81 0 7 0 87 243 255 254 255 255 254 255 205 
172 255 255 255 255 255 255 255 255 255 255 255 255 255 255 255 255 255 255 
252 255 170 0 6 0 74 253 255 251 252 252 252 250 254 255 255 255 255 255 255 
255 255 255 255 255 255 255 255 255 255 255 255 255 254 255 253 54 0 0 6 209 
255 251 255 255 255 255 255 255 253 251 254 255 255 255 255 255 255 255 255 
255 255 255 255 255 255 255 255 252 255 188 0 4 0 91 255 252 254 254 254 254 
255 255 255 255 255 255 255 255 255 255 255 255 255 255 255 255 255 255 255 
255 255 255 251 255 116 0 5 0 175 255 249 252 255 255 255 252 252 255 255 255 
255 255 255 255 255 255 255 255 255 255 255 255 255 255 255 255 254 255 254 
56 0 0 14 230 255 254 255 251 250 251 255 255 253 254 255 255 255 255 255 255 
255 255 255 255 255 255 255 255 255 255 255 254 255 242 20 0 0 51 253 254 176 
92 46 43 45 92 187 255 254 254 255 255 255 255 255 255 255 255 255 255 255 255 
255 255 255 255 253 255 215 6 1 0 88 236 68 0 1 0 0 0 1 0 80 233 255 253 255 
255 255 255 255 255 255 255 255 255 255 255 255 255 255 252 255 192 0 2 0 79 
59 0 1 2 9 5 0 4 5 0 47 231 255 254 255 255 255 255 255 255 255 255 255 255 
255 255 255 255 252 255 183 0 1 0 1 1 0 80 186 221 209 138 20 0 7 0 81 255 254 
255 255 255 255 255 255 255 255 255 255 255 255 255 255 252 255 185 0 0 1 2 0 
140 255 254 255 253 255 209 27 0 4 0 184 255 252 255 255 255 255 255 255 255 
255 255 255 255 255 255 252 255 184 0 1 4 0 83 255 252 251 253 253 248 255 157 
0 6 0 91 255 253 255 255 255 255 255 255 255 255 255 255 255 255 255 252 255 
189 0 0 2 0 165 255 251 255 255 255 254 255 243 26 0 0 27 245 255 254 255 255 
255 255 255 255 255 255 255 255 255 255 253 255 213 5 0 0 4 207 255 253 255 
255 255 255 253 255 85 0 1 9 224 255 253 255 255 255 255 255 255 255 255 255 
255 255 255 254 255 237 13 0 0 6 214 255 253 255 255 255 255 251 255 122 0 3 5 
209 255 253 255 255 255 255 255 255 255 255 255 255 255 255 254 255 252 51 0 1 
4 207 255 253 255 255 255 255 250 255 128 0 2 10 227 255 254 255 255 255 255 
255 255 255 255 255 255 255 255 255 252 255 101 0 5 0 168 255 251 255 255 255 
255 253 255 94 0 0 30 246 255 254 255 255 255 255 255 255 255 255 255 255 255 
255 255 252 255 170 0 6 0 98 255 251 255 255 255 254 255 248 38 0 0 90 255 253 
255 255 255 255 255 255 255 255 255 255 255 255 255 255 254 255 240 28 0 0 10 
208 255 249 252 252 248 255 172 0 4 0 164 255 251 255 255 255 255 255 255 255 
255 255 255 255 255 255 255 255 252 255 128 0 6 0 51 232 255 254 253 255 225 
35 0 0 46 248 255 254 255 255 255 255 255 255 255 255 255 255 255 255 255 255 
255 254 255 239 42 0 7 0 29 137 188 192 147 32 0 4 0 179 255 252 255 255 255 
255 255 255 255 255 255 255 255 255 255 255 255 255 255 253 255 207 20 0 4 2 0 
1 2 0 1 1 0 140 255 253 255 255 255 255 255 255 255 255 255 255 255 255 255 
255 255 255 255 255 255 252 255 212 56 0 1 0 0 0 1 0 28 167 255 252 255 255 
255 255 255 255 255 255 255 255 255 255 255 255 255 255 255 255 255 255 255 
253 255 251 182 107 71 71 71 93 154 240 255 252 254 255 255 255 255 255 255 
255 255 255 255 255 255 255 255 255 255 255 255 255 255 255 255 253 254 255 
255 255 255 255 255 255 255 253 255 255 255 255 255 255 255 255 255 255 255 
255 255 255 255 255 255 255 255 255 255 255 255 255 255 255 252 252 255 255 
255 252 251 254 255 255 255 255 255 255 255 255 255 255 255 255 255 255 255 
255 255 255 255 255 255 255 255 255 255 255 255 255 255 255 255 255 255 255 
255 255 255 255 255 255 255 255 255 255 255 255 255 255 255 255 255 255 255 
255 255 255 255 255 255 255 255 255 255 255 255 255 255 255 255 255 255 255 
255 255 255 255 255 255 255 255 255 255 255 255 255 255 255 255 255 255 255 
255 255 255 255 255 255 255 255 255 255 255 255 255 255 255 255 255 255 255 
255 255 255 255 255 255 255 255 255 255 255 255 255 255 255 255 255 255 255 
255 255 255 255 255 255 255 255 255 255 255 255 255 255 255 255 255 255 255 
255 255 255 255 255 255 255 255 255 255 255 255 255 255 255 255 255 255 255 
255 255 255 255 255 255 255 255 255 255 255 255 255 255 255 255 255 255 255 
255 255 255 255 255 255 255 255 255 255 255 255 255 255 255 255 255 255 255 
255 255 255 255 255 255 255 255 255 255 255 255 255 255 255 255 255 255 255 
255 255 255 255 255 255 255 255 255 255 255 255 255 255 255 255 255 255 255 
255 255 255 255 255 255 255 255 255 255 255 255 255 255 255 255 255 255 255 
255 255 255 255 255 255 255 255 255 255 255 255 255 255 255 255 255 255 255 
255 255 255 255 255 255 255 255 255 255 255 255 255 255 255 255 255 255 255 
255 255 255 255 255 255 255 255 255 255 255 255 255 255 255 255 255 255 255 
255 255 255 255 255 255 255 255 255 255 255 255 255 255 255 255 255 255 255 
255 255 255 255 255 255 255 255 255 255 255 255 255 255 255 255 255 255 255 
255 255 255 255 255 255 255 255 255 255 255 255 255 255 255 255 255 255 255 
255 255 255 255 255 255 255 255 255 255 255 255 255 255 255 255 255 255 255 
255 255 255 
