P2
35 45
255
255 255 255 255 255 255 255 255 255 255 255 255 255 255 255 255 255 255 255 
255 255 255 255 255 255 255 255 255 255 255 255 255 255 255 255 255 255 255 
255 255 255 255 255 255 255 255 255 255 255 255 255 255 255 255 255 255 255 
255 255 255 255 255 255 255 255 255 255 255 255 255 255 255 255 255 255 255 
255 255 255 255 255 255 255 254 251 252 255 255 255 254 251 252 255 255 255 
255 255 255 255 255 255 255 255 255 255 255 255 255 255 255 255 255 255 255 
255 255 255 253 255 255 255 255 255 255 255 255 255 253 254 255 255 255 255 
255 255 255 255 255 255 255 255 255 255 255 255 255 255 255 255 255 255 253 
255 241 161 103 72 72 70 77 111 186 253 255 254 255 255 255 255 255 255 255 
255 255 255 255 255 255 255 255 255 255 255 255 255 252 255 169 28 0 1 0 0 0 0 
1 0 69 228 255 253 255 255 255 255 255 255 255 255 255 255 255 255 255 255 255 
255 255 255 252 255 156 0 1 3 0 0 2 0 0 4 4 0 52 246 255 254 255 255 255 255 
255 255 255 255 255 255 255 255 255 255 255 255 253 255 214 14 0 2 6 111 182 
194 181 104 6 1 6 0 140 255 251 255 255 255 255 255 255 255 255 255 255 255 
255 255 255 255 255 252 255 105 0 6 0 160 255 253 255 253 255 148 0 4 0 59 254 
255 254 255 255 255 255 255 255 255 255 255 255 255 255 255 255 254 255 248 
37 0 0 65 255 252 251 253 251 253 253 50 0 0 19 243 255 254 255 255 255 255 
255 255 255 255 255 255 255 255 255 255 254 255 241 14 0 0 104 255 251 255 255 
255 252 255 103 0 0 19 243 255 254 255 255 255 255 255 255 255 255 255 255 255 
255 255 255 254 255 242 17 0 0 56 254 253 254 255 255 254 255 63 0 0 62 255 
255 254 255 255 255 255 255 255 255 255 255 255 255 255 255 255 254 255 255 
61 0 3 0 157 255 251 253 250 255 194 0 4 0 144 255 251 255 255 255 255 255 255 
255 255 255 255 255 255 255 255 255 255 251 255 144 0 4 0 4 161 255 252 255 
238 47 0 0 43 244 255 254 255 255 255 255 255 255 255 255 255 255 255 255 255 
255 255 255 254 255 245 46 0 5 2 0 96 235 226 54 0 0 15 202 255 252 255 255 
255 255 255 255 255 255 255 255 255 255 255 255 255 255 255 255 252 255 210 
26 0 2 3 0 26 24 0 0 29 198 255 253 255 255 255 255 255 255 255 255 255 255 
255 255 255 255 255 255 255 255 255 255 252 255 212 24 0 5 5 0 2 0 45 232 255 
251 255 255 255 255 255 255 255 255 255 255 255 255 255 255 255 255 255 255 
255 255 254 255 250 124 4 2 1 0 4 3 0 9 103 233 255 253 255 254 255 255 255 
255 255 255 255 255 255 255 255 255 255 255 255 255 255 254 253 90 0 2 0 76 38 
0 2 3 2 0 39 214 255 252 255 255 255 255 255 255 255 255 255 255 255 255 255 
255 255 255 255 252 255 121 0 6 0 114 255 236 119 10 0 4 5 0 27 211 255 253 
255 255 255 255 255 255 255 255 255 255 255 255 255 255 255 253 255 198 3 4 0 
95 255 252 253 255 211 55 0 3 4 0 51 250 255 254 255 255 255 255 255 255 255 
255 255 255 255 255 255 255 253 255 88 0 0 15 227 255 253 253 251 255 247 87 
0 3 3 0 164 255 251 255 255 255 255 255 255 255 255 255 255 255 255 255 254 
255 233 16 0 0 85 255 253 255 255 255 252 255 246 55 0 6 0 92 255 253 255 255 
255 255 255 255 255 255 255 255 255 255 255 252 255 195 0 5 0 127 255 250 255 
255 255 255 251 255 172 0 4 0 51 252 255 254 255 255 255 255 255 255 255 255 
255 255 255 255 252 255 181 0 6 0 127 255 250 255 255 255 255 254 255 233 12 
0 0 42 250 255 254 255 255 255 255 255 255 255 255 255 255 255 255 253 255 196 
0 3 0 81 255 252 255 255 255 255 254 255 223 8 1 0 77 255 254 255 255 255 255 
255 255 255 255 255 255 255 255 255 254 255 236 18 0 0 6 207 255 250 252 253 
251 250 255 135 0 7 0 130 255 251 255 255 255 255 255 255 255 255 255 255 255 
255 255 255 253 255 99 0 7 0 43 222 255 254 255 253 255 183 13 0 0 19 222 255 
253 255 255 255 255 255 255 255 255 255 255 255 255 255 255 253 255 215 19 0 5 
0 20 121 181 193 175 95 7 2 5 0 143 255 252 255 255 255 255 255 255 255 255 
255 255 255 255 255 255 255 255 252 255 176 7 0 4 2 0 1 2 0 0 2 2 0 115 255 
253 255 255 255 255 255 255 255 255 255 255 255 255 255 255 255 255 255 255 
252 255 200 52 0 1 0 0 0 0 1 0 30 166 255 253 255 255 255 255 255 255 255 255 
255 255 255 255 255 255 255 255 255 255 255 255 253 255 252 187 118 77 70 71 
74 107 171 242 255 253 255 255 255 255 255 255 255 255 255 255 255 255 255 255 
255 255 255 255 255 255 255 255 252 254 255 255 255 255 255 255 255 255 255 
252 255 255 255 255 255 255 255 255 255 255 255 255 255 255 255 255 255 255 
255 255 255 255 255 255 255 252 251 254 255 255 255 251 251 254 255 255 255 
255 255 255 255 255 255 255 255 255 255 255 255 255 255 255 255 255 255 255 
255 255 255 255 255 255 255 255 255 255 255 255 255 255 255 255 255 255 255 
255 255 255 255 255 255 255 255 255 255 255 255 255 255 255 255 255 255 255 
255 255 255 255 255 255 255 255 255 255 255 255 255 255 255 255 255 255 255 
255 255 255 255 255 255 255 255 255 255 255 255 255 255 255 255 255 255 255 
255 255 255 255 255 255 255 255 255 255 255 255 255 255 255 255 255 255 255 
255 255 255 255 255 255 255 255 255 255 255 255 255 255 255 255 255 255 255 
255 255 255 255 255 255 255 255 255 255 255 255 255 255 255 255 255 255 255 
255 255 255 255 255 255 255 255 255 255 255 255 255 255 255 255 255 255 255 
255 255 255 255 255 255 255 255 255 255 255 255 255 255 255 255 255 255 255 
255 255 255 255 255 255 255 255 255 255 255 255 255 255 255 255 255 255 255 
255 255 255 255 255 255 255 255 255 255 255 255 255 255 255 255 255 255 255 
255 255 255 255 255 255 255 255 255 255 255 255 255 255 255 255 255 255 255 
255 255 255 255 255 255 255 255 255 255 255 255 255 255 255 255 255 255 255 
255 255 255 255 255 255 255 255 255 255 255 255 255 255 255 255 255 255 255 
255 255 255 255 255 255 255 255 255 255 255 255 255 255 255 255 255 255 255 
255 255 255 255 255 255 255 255 255 255 255 255 255 255 255 255 255 255 255 
255 255 255 255 255 255 255 255 255 255 255 255 255 255 255 255 255 255 255 
255 255 255 255 255 255 255 255 255 255 255 255 255 255 255 255 255 255 255 
255 255 255 255 255 255 255 255 255 255 255 255 255 255 255 255 255 255 255 
255 255 255 255 255 255 255 255 255 255 255 255 255 255 255 
