P2
35 45
255
255 255 255 255 255 255 255 255 255 255 255 255 255 255 255 255 255 255 255 
255 255 255 255 255 255 255 255 255 255 255 255 255 255 255 255 255 255 255 
255 255 255 255 255 255 255 255 255 255 255 255 255 255 255 255 255 255 255 
255 255 255 255 255 255 255 255 255 255 255 255 255 255 255 255 255 255 255 
255 255 255 255 255 255 255 255 255 253 253 253 253 255 255 255 255 255 255 
255 255 255 255 255 255 255 255 255 255 255 255 255 255 255 255 255 255 255 
255 255 255 255 255 254 255 255 255 255 255 255 255 255 255 255 255 255 255 
255 255 255 255 255 255 255 255 255 255 255 255 255 255 255 255 255 255 255 
255 255 253 218 212 212 215 252 255 255 255 255 255 255 255 255 255 255 255 
255 255 255 255 255 255 255 255 255 255 255 255 255 255 255 255 253 255 218 
13 3 5 6 200 255 253 255 255 255 255 255 255 255 255 255 255 255 255 255 255 
255 255 255 255 255 255 255 255 255 255 255 251 255 142 0 3 4 0 123 255 251 
255 255 255 255 255 255 255 255 255 255 255 255 255 255 255 255 255 255 255 
255 255 255 255 255 255 255 255 66 0 4 3 0 46 250 255 254 255 255 255 255 255 
255 255 255 255 255 255 255 255 255 255 255 255 255 255 255 255 255 255 253 
255 218 8 0 2 1 0 1 199 255 253 255 255 255 255 255 255 255 255 255 255 255 
255 255 255 255 255 255 255 255 255 255 255 255 251 255 142 0 3 1 1 4 0 116 
255 251 255 255 255 255 255 255 255 255 255 255 255 255 255 255 255 255 255 
255 255 255 255 255 254 255 254 57 0 0 38 12 0 0 37 247 255 254 255 255 255 
255 255 255 255 255 255 255 255 255 255 255 255 255 255 255 255 255 255 253 
255 209 5 0 0 163 51 0 2 0 189 255 252 255 255 255 255 255 255 255 255 255 255 
255 255 255 255 255 255 255 255 255 255 255 251 255 132 0 0 20 254 115 0 8 0 113 
255 252 255 255 255 255 255 255 255 255 255 255 255 255 255 255 255 255 255 
255 255 255 254 255 254 56 0 0 93 255 192 0 2 0 37 248 255 254 255 255 255 255 
255 255 255 255 255 255 255 255 255 255 255 255 255 255 255 253 255 208 4 0 0 
173 255 247 46 0 2 0 188 255 252 255 255 255 255 255 255 255 255 255 255 255 
255 255 255 255 255 255 255 255 251 255 124 0 0 30 244 254 255 122 0 8 0 104 
255 252 255 255 255 255 255 255 255 255 255 255 255 255 255 255 255 255 255 
255 254 255 251 45 0 0 104 255 250 255 199 1 1 0 30 243 255 254 255 255 255 
255 255 255 255 255 255 255 255 255 255 255 255 255 255 253 255 199 2 1 0 180 
255 251 255 250 46 0 3 0 180 255 252 255 255 255 255 255 255 255 255 255 255 
255 255 255 255 255 255 255 251 255 123 0 0 29 241 255 252 249 255 125 0 8 0 104 
255 252 255 255 255 255 255 255 255 255 255 255 255 255 255 255 255 255 254 
255 250 46 0 0 112 255 252 255 253 255 213 5 0 0 30 243 255 254 255 255 255 
255 255 255 255 255 255 255 255 255 255 255 255 252 255 192 0 1 0 154 224 210 
213 213 214 212 41 0 3 0 170 255 252 255 255 255 255 255 255 255 255 255 255 
255 255 255 255 255 252 255 112 0 4 4 10 8 8 8 8 8 8 8 1 3 0 96 255 253 255 
255 255 255 255 255 255 255 255 255 255 255 255 255 254 255 247 37 0 3 0 0 0 0 
0 0 0 0 0 1 1 0 22 238 255 254 255 255 255 255 255 255 255 255 255 255 255 255 
255 252 255 188 0 0 3 60 74 72 72 72 72 72 71 74 25 0 3 0 170 255 252 255 255 
255 255 255 255 255 255 255 255 255 255 255 251 255 113 0 0 39 249 255 254 255 
255 255 255 251 255 140 0 7 0 95 255 253 255 255 255 255 255 255 255 255 255 
255 255 255 254 255 245 34 0 0 123 255 251 255 255 255 255 255 253 255 218 8 0 
0 18 233 255 254 255 255 255 255 255 255 255 255 255 255 255 252 255 180 0 0 2 
199 255 253 255 255 255 255 255 254 254 255 66 0 5 0 159 255 251 255 255 255 
255 255 255 255 255 255 255 255 252 255 104 0 0 46 251 255 254 255 255 255 255 
255 255 251 255 142 0 7 0 85 255 253 255 255 255 255 255 255 255 255 255 255 
254 255 245 31 0 0 123 255 251 255 255 255 255 255 255 255 253 255 218 7 0 0 17 
233 255 254 255 255 255 255 255 255 255 255 255 252 255 180 0 0 1 199 255 253 
255 255 255 255 255 255 255 255 254 255 74 0 5 0 158 255 251 255 255 255 255 
255 255 255 255 255 252 255 105 0 0 60 253 255 254 255 255 255 255 255 255 255 
255 251 255 154 0 11 0 81 255 254 255 255 255 255 255 255 255 255 255 255 254 
222 212 210 231 255 254 255 255 255 255 255 255 255 255 255 255 255 245 213 
213 212 217 253 255 255 255 255 255 255 255 255 255 255 255 255 255 255 255 
255 255 255 255 255 255 255 255 255 255 255 255 255 255 255 255 255 255 255 
255 255 255 255 255 255 255 255 255 255 255 255 255 254 253 253 254 255 255 
255 255 255 255 255 255 255 255 255 255 255 254 253 253 253 254 255 255 255 
255 255 255 255 255 255 255 255 255 255 255 255 255 255 255 255 255 255 255 
255 255 255 255 255 255 255 255 255 255 255 255 255 255 255 255 255 255 255 
255 255 255 255 255 255 255 255 255 255 255 255 255 255 255 255 255 255 255 
255 255 255 255 255 255 255 255 255 255 255 255 255 255 255 255 255 255 255 
255 255 255 255 255 255 255 255 255 255 255 255 255 255 255 255 255 255 255 
255 255 255 255 255 255 255 255 255 255 255 255 255 255 255 255 255 255 255 
255 255 255 255 255 255 255 255 255 255 255 255 255 255 255 255 255 255 255 
255 255 255 255 255 255 255 255 255 255 255 255 255 255 255 255 255 255 255 
255 255 255 255 255 255 255 255 255 255 255 255 255 255 255 255 255 255 255 
255 255 255 255 255 255 255 255 255 255 255 255 255 255 255 255 255 255 255 
255 255 255 255 255 255 255 255 255 255 255 255 255 255 255 255 255 255 255 
255 255 255 255 255 255 255 255 255 255 255 255 255 255 255 255 255 255 255 
255 255 255 255 255 255 255 255 255 255 255 255 255 255 255 255 255 255 255 
255 255 255 255 255 255 255 255 255 255 255 255 255 255 255 255 255 255 255 
255 255 255 255 255 255 255 255 255 255 255 255 255 255 255 255 255 255 255 
255 255 255 255 255 255 255 255 255 255 255 255 255 255 255 255 255 255 255 
255 255 255 255 255 255 255 255 255 255 255 255 255 255 255 255 255 255 255 
255 255 255 255 255 255 255 255 255 255 255 255 255 255 255 255 255 255 255 
255 255 255 255 255 255 255 255 255 255 255 255 255 255 255 255 255 255 255 
255 255 255 255 255 255 255 255 255 255 255 255 255 255 255 255 255 255 255 
255 255 255 255 255 255 255 255 255 
