P2
35 45
255
255 255 255 255 255 255 255 255 255 255 255 255 255 255 255 255 255 255 255 
255 255 255 255 255 255 255 255 255 255 255 255 255 255 255 255 255 255 255 
255 255 255 255 255 255 255 255 255 255 255 255 255 255 255 255 255 255 255 
255 255 255 255 255 255 255 255 255 255 255 255 255 255 255 255 255 255 255 
255 255 255 254 253 253 253 253 253 253 253 253 253 253 254 255 255 255 255 
255 255 255 255 255 255 255 255 255 255 255 255 255 255 255 255 255 255 255 
255 255 255 255 255 255 255 255 255 255 255 255 252 253 255 255 255 255 255 
255 255 255 255 255 255 255 255 255 255 255 255 255 255 255 255 225 211 213 
213 212 212 213 213 214 211 226 248 255 255 253 255 255 255 255 255 255 255 
255 255 255 255 255 255 255 255 255 255 255 255 255 74 0 8 5 8 8 7 7 7 5 7 29 
93 205 255 252 255 255 255 255 255 255 255 255 255 255 255 255 255 255 255 255 
255 255 255 70 0 3 0 0 0 0 0 0 0 1 1 0 8 168 255 253 255 255 255 255 255 255 
255 255 255 255 255 255 255 255 255 255 255 255 71 0 3 2 61 72 44 43 23 2 0 3 
5 0 11 206 255 253 255 255 255 255 255 255 255 255 255 255 255 255 255 255 255 
255 255 71 0 1 5 214 255 248 250 245 198 84 0 1 4 0 89 255 253 255 255 255 255 
255 255 255 255 255 255 255 255 255 255 255 255 255 71 0 1 5 213 255 253 255 
255 254 255 96 0 4 0 22 243 255 254 255 255 255 255 255 255 255 255 255 255 
255 255 255 255 255 255 71 0 1 5 213 255 252 254 254 250 255 218 7 0 0 5 212 
255 253 255 255 255 255 255 255 255 255 255 255 255 255 255 255 255 255 71 0 1 
5 213 255 253 255 255 254 255 247 38 0 0 9 223 255 253 255 255 255 255 255 255 
255 255 255 255 255 255 255 255 255 255 71 0 1 5 213 255 253 255 255 254 255 
237 21 0 0 42 250 255 254 255 255 255 255 255 255 255 255 255 255 255 255 255 
255 255 255 71 0 1 5 213 255 253 255 253 248 255 157 0 7 0 128 255 252 255 255 
255 255 255 255 255 255 255 255 255 255 255 255 255 255 255 71 0 1 5 210 255 
253 255 253 255 209 27 0 0 37 235 255 254 255 255 255 255 255 255 255 255 255 
255 255 255 255 255 255 255 255 71 0 1 6 217 255 253 254 233 145 21 0 0 13 195 
255 252 255 255 255 255 255 255 255 255 255 255 255 255 255 255 255 255 255 
255 71 0 2 1 87 90 71 55 13 0 1 9 63 201 255 253 255 255 255 255 255 255 255 
255 255 255 255 255 255 255 255 255 255 255 255 71 0 3 0 0 0 0 0 0 8 0 58 225 
255 251 254 255 255 255 255 255 255 255 255 255 255 255 255 255 255 255 255 
255 255 255 71 0 2 1 65 62 42 20 3 0 1 0 11 119 245 255 253 255 255 255 255 
255 255 255 255 255 255 255 255 255 255 255 255 255 255 71 0 1 5 214 255 248 
240 198 119 18 0 3 0 60 236 255 254 255 255 255 255 255 255 255 255 255 255 
255 255 255 255 255 255 255 71 0 1 5 212 255 253 255 254 255 222 44 0 7 0 76 
255 255 255 255 255 255 255 255 255 255 255 255 255 255 255 255 255 255 255 
71 0 1 5 213 255 252 254 252 250 255 225 34 0 5 0 172 255 252 255 255 255 255 
255 255 255 255 255 255 255 255 255 255 255 255 71 0 1 5 213 255 253 255 254 
255 249 255 153 0 6 0 80 255 254 255 255 255 255 255 255 255 255 255 255 255 
255 255 255 255 255 71 0 1 5 213 255 253 255 255 255 254 255 226 9 0 0 31 246 
255 254 255 255 255 255 255 255 255 255 255 255 255 255 255 255 255 71 0 1 5 213 
255 253 255 255 255 254 255 236 13 0 0 14 241 255 254 255 255 255 255 255 255 
255 255 255 255 255 255 255 255 255 71 0 1 5 213 255 253 254 254 254 250 255 
185 0 2 0 34 247 255 254 255 255 255 255 255 255 255 255 255 255 255 255 255 
255 255 71 0 1 5 213 255 253 255 255 255 254 255 76 0 7 0 90 255 253 255 255 
255 255 255 255 255 255 255 255 255 255 255 255 255 255 71 0 1 5 214 255 254 
252 250 247 217 93 0 2 3 0 185 255 252 255 255 255 255 255 255 255 255 255 255 
255 255 255 255 255 255 71 0 3 2 60 73 73 57 42 33 5 0 4 4 0 99 255 254 255 
255 255 255 255 255 255 255 255 255 255 255 255 255 255 255 255 70 0 3 0 0 0 0 
0 0 0 0 0 1 0 97 250 255 254 254 255 255 255 255 255 255 255 255 255 255 255 
255 255 255 255 255 74 0 8 5 7 8 8 7 7 6 8 24 72 176 255 253 254 255 255 255 
255 255 255 255 255 255 255 255 255 255 255 255 255 255 255 225 211 213 213 
213 212 213 213 213 211 224 246 254 255 253 254 255 255 255 255 255 255 255 
255 255 255 255 255 255 255 255 255 255 255 255 255 255 255 255 255 255 255 
255 255 255 255 255 254 252 255 255 255 255 255 255 255 255 255 255 255 255 
255 255 255 255 255 255 255 255 255 254 253 253 253 253 253 253 253 253 253 
254 254 254 255 255 255 255 255 255 255 255 255 255 255 255 255 255 255 255 
255 255 255 255 255 255 255 255 255 255 255 255 255 255 255 255 255 255 255 
255 255 255 255 255 255 255 255 255 255 255 255 255 255 255 255 255 255 255 
255 255 255 255 255 255 255 255 255 255 255 255 255 255 255 255 255 255 255 
255 255 255 255 255 255 255 255 255 255 255 255 255 255 255 255 255 255 255 
255 255 255 255 255 255 255 255 255 255 255 255 255 255 255 255 255 255 255 
255 255 255 255 255 255 255 255 255 255 255 255 255 255 255 255 255 255 255 
255 255 255 255 255 255 255 255 255 255 255 255 255 255 255 255 255 255 255 
255 255 255 255 255 255 255 255 255 255 255 255 255 255 255 255 255 255 255 
255 255 255 255 255 255 255 255 255 255 255 255 255 255 255 255 255 255 255 
255 255 255 255 255 255 255 255 255 255 255 255 255 255 255 255 255 255 255 
255 255 255 255 255 255 255 255 255 255 255 255 255 255 255 255 255 255 255 
255 255 255 255 255 255 255 255 255 255 255 255 255 255 255 255 255 255 255 
255 255 255 255 255 255 255 255 255 255 255 255 255 255 255 255 255 255 255 
255 255 255 255 255 255 255 255 255 255 255 255 255 255 255 255 255 255 255 
255 255 255 255 255 255 255 255 255 255 255 255 255 255 255 255 255 255 255 
255 255 255 255 255 255 255 255 255 255 255 255 255 255 255 255 255 255 255 
255 255 255 255 255 255 255 255 255 255 255 255 255 255 255 255 255 255 255 
255 255 255 255 255 255 255 255 255 255 255 255 255 255 255 255 255 255 255 
255 255 255 255 255 255 255 255 255 255 255 255 255 255 255 255 255 255 255 
255 255 255 255 255 255 255 255 255 255 255 255 255 255 255 255 255 255 255 
255 255 
