P2
35 45
255
255 255 255 255 255 255 255 255 255 255 255 255 255 255 255 255 255 255 255 
255 255 255 255 255 255 255 255 255 255 255 255 255 255 255 255 255 255 255 
255 255 255 255 255 255 255 255 255 255 255 255 255 255 255 255 255 255 255 
255 255 255 255 255 255 255 255 255 255 255 255 255 255 255 255 255 255 255 
255 255 254 253 253 253 253 253 253 253 253 253 254 255 255 255 255 255 255 
255 255 255 255 255 255 255 255 255 255 255 255 255 255 255 255 255 255 255 
255 255 255 255 255 255 255 255 255 255 253 251 254 255 255 255 255 255 255 
255 255 255 255 255 255 255 255 255 255 255 255 255 255 255 225 211 213 213 
213 213 213 214 211 227 249 255 255 255 252 255 255 255 255 255 255 255 255 
255 255 255 255 255 255 255 255 255 255 255 255 75 0 8 5 7 8 7 7 6 9 32 84 157 
241 255 252 255 255 255 255 255 255 255 255 255 255 255 255 255 255 255 255 
255 255 255 71 0 3 0 0 0 0 0 0 0 0 1 0 29 170 255 253 255 255 255 255 255 255 
255 255 255 255 255 255 255 255 255 255 255 255 72 0 4 3 60 76 60 42 23 3 0 2 
5 0 0 140 255 253 255 255 255 255 255 255 255 255 255 255 255 255 255 255 255 
255 255 71 0 1 5 214 255 251 250 244 209 138 28 0 4 3 0 168 255 251 255 255 
255 255 255 255 255 255 255 255 255 255 255 255 255 255 71 0 1 5 213 255 253 
255 255 254 255 233 61 0 5 0 30 232 255 253 255 255 255 255 255 255 255 255 
255 255 255 255 255 255 255 71 0 1 5 213 255 253 254 254 252 250 255 223 27 0 
6 0 136 255 251 255 255 255 255 255 255 255 255 255 255 255 255 255 255 255 
71 0 1 5 213 255 253 255 255 255 255 250 255 142 0 5 0 47 251 255 254 255 255 
255 255 255 255 255 255 255 255 255 255 255 255 71 0 1 5 213 255 253 255 255 
255 255 254 255 233 17 0 0 4 207 255 253 255 255 255 255 255 255 255 255 255 
255 255 255 255 255 71 0 1 5 213 255 253 255 255 255 255 255 254 255 77 0 6 0 
151 255 251 255 255 255 255 255 255 255 255 255 255 255 255 255 255 71 0 1 5 213 
255 253 255 255 255 255 255 251 255 123 0 9 0 117 255 251 255 255 255 255 255 
255 255 255 255 255 255 255 255 255 71 0 1 5 213 255 253 255 255 255 255 255 
251 255 153 0 7 0 97 255 253 255 255 255 255 255 255 255 255 255 255 255 255 
255 255 71 0 1 5 213 255 253 255 255 255 255 255 252 255 173 0 4 0 73 255 254 
255 255 255 255 255 255 255 255 255 255 255 255 255 255 71 0 1 5 213 255 253 
255 255 255 255 255 252 255 186 0 4 0 70 255 255 255 255 255 255 255 255 255 
255 255 255 255 255 255 255 71 0 1 5 213 255 253 255 255 255 255 255 252 255 
184 0 3 0 73 255 254 255 255 255 255 255 255 255 255 255 255 255 255 255 255 
71 0 1 5 213 255 253 255 255 255 255 255 252 255 165 0 5 0 95 255 253 255 255 
255 255 255 255 255 255 255 255 255 255 255 255 71 0 1 5 213 255 253 255 255 
255 255 255 251 255 144 0 8 0 114 255 251 255 255 255 255 255 255 255 255 255 
255 255 255 255 255 71 0 1 5 213 255 253 255 255 255 255 255 252 255 111 0 8 0 
145 255 251 255 255 255 255 255 255 255 255 255 255 255 255 255 255 71 0 1 5 213 
255 253 255 255 255 255 255 255 252 55 0 2 0 196 255 253 255 255 255 255 255 
255 255 255 255 255 255 255 255 255 71 0 1 5 213 255 253 255 255 255 255 253 
255 211 5 0 0 26 242 255 254 255 255 255 255 255 255 255 255 255 255 255 255 
255 255 71 0 1 5 213 255 253 255 255 255 255 250 255 107 0 8 0 105 255 252 255 
255 255 255 255 255 255 255 255 255 255 255 255 255 255 71 0 1 5 213 255 252 
254 254 252 250 255 188 0 1 1 6 208 255 253 255 255 255 255 255 255 255 255 
255 255 255 255 255 255 255 71 0 1 5 213 255 253 255 255 254 255 190 26 0 6 0 
119 255 253 254 255 255 255 255 255 255 255 255 255 255 255 255 255 255 255 
71 0 1 5 214 255 248 249 234 187 97 6 1 6 0 69 250 255 254 255 255 255 255 255 
255 255 255 255 255 255 255 255 255 255 255 72 0 4 2 60 72 45 38 13 1 0 3 4 0 
68 241 255 254 255 255 255 255 255 255 255 255 255 255 255 255 255 255 255 255 
255 71 0 3 0 0 0 0 0 0 0 1 0 11 122 248 255 253 255 255 255 255 255 255 255 
255 255 255 255 255 255 255 255 255 255 255 75 0 8 5 7 8 7 7 8 25 70 130 223 
255 252 254 255 255 255 255 255 255 255 255 255 255 255 255 255 255 255 255 
255 255 255 225 211 213 213 213 212 213 211 224 246 254 255 255 252 254 255 
255 255 255 255 255 255 255 255 255 255 255 255 255 255 255 255 255 255 255 
255 255 255 255 255 255 255 255 255 255 254 251 253 255 255 255 255 255 255 
255 255 255 255 255 255 255 255 255 255 255 255 255 255 255 255 254 253 253 
253 253 253 253 253 254 254 254 255 255 255 255 255 255 255 255 255 255 255 
255 255 255 255 255 255 255 255 255 255 255 255 255 255 255 255 255 255 255 
255 255 255 255 255 255 255 255 255 255 255 255 255 255 255 255 255 255 255 
255 255 255 255 255 255 255 255 255 255 255 255 255 255 255 255 255 255 255 
255 255 255 255 255 255 255 255 255 255 255 255 255 255 255 255 255 255 255 
255 255 255 255 255 255 255 255 255 255 255 255 255 255 255 255 255 255 255 
255 255 255 255 255 255 255 255 255 255 255 255 255 255 255 255 255 255 255 
255 255 255 255 255 255 255 255 255 255 255 255 255 255 255 255 255 255 255 
255 255 255 255 255 255 255 255 255 255 255 255 255 255 255 255 255 255 255 
255 255 255 255 255 255 255 255 255 255 255 255 255 255 255 255 255 255 255 
255 255 255 255 255 255 255 255 255 255 255 255 255 255 255 255 255 255 255 
255 255 255 255 255 255 255 255 255 255 255 255 255 255 255 255 255 255 255 
255 255 255 255 255 255 255 255 255 255 255 255 255 255 255 255 255 255 255 
255 255 255 255 255 255 255 255 255 255 255 255 255 255 255 255 255 255 255 
255 255 255 255 255 255 255 255 255 255 255 255 255 255 255 255 255 255 255 
255 255 255 255 255 255 255 255 255 255 255 255 255 255 255 255 255 255 255 
255 255 255 255 255 255 255 255 255 255 255 255 255 255 255 255 255 255 255 
255 255 255 255 255 255 255 255 255 255 255 255 255 255 255 255 255 255 255 
255 255 255 255 255 255 255 255 255 255 255 255 255 255 255 255 255 255 255 
255 255 255 255 255 255 255 255 255 255 255 255 255 255 255 255 255 255 255 
255 255 255 255 255 255 255 255 255 255 255 255 255 255 255 255 255 255 255 
255 255 255 255 255 255 255 255 255 255 
