P2
35 45
255
255 255 255 255 255 255 255 255 255 255 255 255 255 255 255 255 255 255 255 
255 255 255 255 255 255 255 255 255 255 255 255 255 255 255 255 255 255 255 
255 255 255 255 255 255 255 255 255 255 255 255 255 255 255 255 255 255 255 
255 255 255 255 255 255 255 255 255 255 255 255 255 255 255 255 255 255 255 
255 255 255 255 255 255 255 255 255 252 251 253 255 255 255 254 251 250 253 
254 255 255 255 255 255 255 255 255 255 255 255 255 255 255 255 255 255 255 
255 255 255 254 252 254 255 255 255 255 255 255 255 255 255 255 255 255 255 
255 255 255 255 255 255 255 255 255 255 255 255 255 255 255 255 255 255 253 
253 255 251 189 130 88 70 72 70 78 106 145 196 241 255 255 255 255 255 255 255 
255 255 255 255 255 255 255 255 255 255 255 255 253 254 253 160 46 0 0 0 0 0 0 
0 0 1 0 28 221 255 253 255 255 255 255 255 255 255 255 255 255 255 255 255 255 
255 252 255 228 69 0 2 1 0 0 0 2 0 0 0 1 0 5 212 255 253 255 255 255 255 255 
255 255 255 255 255 255 255 255 255 253 255 228 44 0 6 3 0 62 145 186 193 185 
164 115 52 2 4 211 255 253 255 255 255 255 255 255 255 255 255 255 255 255 255 
254 255 246 56 0 7 0 26 176 255 254 255 255 255 255 255 255 203 111 224 255 
254 255 255 255 255 255 255 255 255 255 255 255 255 255 252 255 124 0 6 0 23 
209 255 252 251 252 252 252 251 251 255 255 255 255 255 255 255 255 255 255 
255 255 255 255 255 255 255 255 253 255 221 15 0 2 0 167 255 249 255 255 255 
255 255 255 255 255 252 251 255 255 255 255 255 255 255 255 255 255 255 255 
255 255 255 251 255 127 0 7 0 68 255 253 255 255 255 255 255 255 255 255 255 
255 255 255 255 255 255 255 255 255 255 255 255 255 255 255 255 254 255 251 
46 0 4 0 159 255 251 255 255 255 255 255 255 255 255 255 255 255 255 255 255 
255 255 255 255 255 255 255 255 255 255 255 253 255 214 6 0 0 17 233 255 253 
255 255 255 255 255 255 255 255 255 255 255 255 255 255 255 255 255 255 255 
255 255 255 255 255 255 251 255 165 0 5 0 69 255 255 255 255 255 255 255 255 
255 255 255 255 255 255 255 255 255 255 255 255 255 255 255 255 255 255 255 
255 250 255 130 0 9 0 115 255 251 255 255 255 255 255 255 255 255 255 255 255 
255 255 255 255 255 255 255 255 255 255 255 255 255 255 255 252 255 104 0 8 0 
142 255 251 255 255 255 255 255 255 255 255 255 255 255 255 255 255 255 255 
255 255 255 255 255 255 255 255 255 255 252 255 98 0 7 0 157 255 251 255 255 
255 255 255 255 255 255 252 251 251 251 254 255 255 255 255 255 255 255 255 
255 255 255 255 255 252 255 98 0 6 0 156 255 251 255 255 255 255 255 255 255 
255 255 255 255 255 255 255 255 255 255 255 255 255 255 255 255 255 255 255 
252 255 100 0 7 0 152 255 251 255 255 255 255 255 255 254 255 194 150 158 155 
227 255 254 255 255 255 255 255 255 255 255 255 255 255 250 255 127 0 9 0 122 
255 251 254 255 255 255 255 255 252 255 98 0 4 0 182 255 252 255 255 255 255 
255 255 255 255 255 255 255 251 255 160 0 5 0 84 255 253 254 255 255 255 255 
255 252 255 101 0 7 0 185 255 252 255 255 255 255 255 255 255 255 255 255 255 
253 255 207 4 1 0 23 239 255 254 255 255 255 255 255 252 255 99 0 4 0 185 255 
252 255 255 255 255 255 255 255 255 255 255 255 254 255 250 42 0 4 0 159 255 
251 255 255 255 255 255 252 255 99 0 4 0 185 255 252 255 255 255 255 255 255 
255 255 255 255 255 255 251 255 123 0 6 0 41 238 255 253 255 255 255 255 252 
255 99 0 4 0 185 255 252 255 255 255 255 255 255 255 255 255 255 255 255 253 
255 220 14 0 3 0 100 255 253 251 254 254 255 252 255 99 0 4 0 185 255 252 255 
255 255 255 255 255 255 255 255 255 255 255 255 252 255 120 0 4 2 0 103 249 
255 254 252 250 248 255 98 0 4 0 185 255 252 255 255 255 255 255 255 255 255 
255 255 255 255 255 254 255 242 51 0 5 2 0 49 174 250 255 254 252 255 103 0 4 
0 185 255 252 255 255 255 255 255 255 255 255 255 255 255 255 255 255 253 255 
212 28 0 5 5 0 0 38 104 130 134 124 39 0 3 0 186 255 252 255 255 255 255 255 
255 255 255 255 255 255 255 255 255 255 252 255 218 53 0 1 4 6 0 0 0 0 0 3 4 1 
0 180 255 252 255 255 255 255 255 255 255 255 255 255 255 255 255 255 255 255 
253 255 247 144 34 0 1 0 0 0 0 0 0 0 6 66 218 255 253 255 255 255 255 255 255 
255 255 255 255 255 255 255 255 255 255 255 253 253 255 246 181 124 87 70 72 
71 74 108 156 221 255 255 255 255 255 255 255 255 255 255 255 255 255 255 255 
255 255 255 255 255 255 255 254 252 255 255 255 255 255 255 255 255 255 255 
255 254 254 255 255 255 255 255 255 255 255 255 255 255 255 255 255 255 255 
255 255 255 255 255 255 254 252 250 253 255 255 255 254 251 251 253 255 255 
255 255 255 255 255 255 255 255 255 255 255 255 255 255 255 255 255 255 255 
255 255 255 255 255 255 255 255 255 255 255 255 255 255 255 255 255 255 255 
255 255 255 255 255 255 255 255 255 255 255 255 255 255 255 255 255 255 255 
255 255 255 255 255 255 255 255 255 255 255 255 255 255 255 255 255 255 255 
255 255 255 255 255 255 255 255 255 255 255 255 255 255 255 255 255 255 255 
255 255 255 255 255 255 255 255 255 255 255 255 255 255 255 255 255 255 255 
255 255 255 255 255 255 255 255 255 255 255 255 255 255 255 255 255 255 255 
255 255 255 255 255 255 255 255 255 255 255 255 255 255 255 255 255 255 255 
255 255 255 255 255 255 255 255 255 255 255 255 255 255 255 255 255 255 255 
255 255 255 255 255 255 255 255 255 255 255 255 255 255 255 255 255 255 255 
255 255 255 255 255 255 255 255 255 255 255 255 255 255 255 255 255 255 255 
255 255 255 255 255 255 255 255 255 255 255 255 255 255 255 255 255 255 255 
255 255 255 255 255 255 255 255 255 255 255 255 255 255 255 255 255 255 255 
255 255 255 255 255 255 255 255 255 255 255 255 255 255 255 255 255 255 255 
255 255 255 255 255 255 255 255 255 255 255 255 255 255 255 255 255 255 255 
255 255 255 255 255 255 255 255 255 255 255 255 255 255 255 255 255 255 255 
255 255 255 255 255 255 255 255 255 255 255 255 255 255 255 255 255 255 255 
255 255 255 255 255 255 255 255 255 255 255 255 255 255 255 255 255 255 255 
255 255 255 255 255 255 255 255 255 255 255 255 255 255 255 255 255 255 255 
255 255 255 255 255 255 255 255 255 255 255 255 255 255 255 255 255 255 255 
255 255 255 255 255 255 255 255 255 255 255 255 255 
