P2
35 45
255
255 255 255 255 255 255 255 255 255 255 255 255 255 255 255 255 255 255 255 
255 255 255 255 255 255 255 255 255 255 255 255 255 255 255 255 255 255 255 
255 255 255 255 255 255 255 255 255 255 255 255 255 255 255 255 255 255 255 
255 255 255 255 255 255 255 255 255 255 255 255 255 255 255 255 255 255 255 
255 255 255 253 253 253 254 255 255 255 255 255 255 255 255 254 253 253 253 
254 255 255 255 255 255 255 255 255 255 255 255 255 255 255 255 255 255 255 
255 255 255 255 255 255 255 255 255 255 255 255 254 255 255 255 255 255 255 
255 255 255 255 255 255 255 255 255 255 255 255 255 255 255 253 215 213 211 
220 254 255 255 255 255 255 255 255 243 212 214 210 221 255 255 255 255 255 
255 255 255 255 255 255 255 255 255 255 254 255 242 18 3 0 47 250 255 254 255 
255 255 252 255 107 0 11 0 147 255 252 255 255 255 255 255 255 255 255 255 255 
255 255 255 254 255 241 14 0 0 42 250 255 254 255 255 252 255 163 0 4 0 80 255 
254 255 255 255 255 255 255 255 255 255 255 255 255 255 255 254 255 241 15 0 0 
43 250 255 254 255 253 255 215 21 0 0 36 229 255 253 255 255 255 255 255 255 
255 255 255 255 255 255 255 255 254 255 241 14 0 0 42 250 255 254 254 254 251 
60 0 5 0 185 255 252 255 255 255 255 255 255 255 255 255 255 255 255 255 255 
255 254 255 241 14 0 0 42 250 255 254 252 255 120 0 6 0 128 255 252 255 255 
255 255 255 255 255 255 255 255 255 255 255 255 255 255 254 255 241 14 0 0 42 
250 255 251 255 178 0 6 0 66 254 254 254 255 255 255 255 255 255 255 255 255 
255 255 255 255 255 255 255 254 255 241 14 0 0 42 250 255 255 224 30 0 0 26 220 
255 253 255 255 255 255 255 255 255 255 255 255 255 255 255 255 255 255 255 
254 255 241 14 0 0 42 250 255 255 74 0 6 0 171 255 251 255 255 255 255 255 255 
255 255 255 255 255 255 255 255 255 255 255 255 254 255 241 14 0 0 42 247 255 
134 0 6 0 113 255 252 255 255 255 255 255 255 255 255 255 255 255 255 255 255 
255 255 255 255 255 254 255 241 14 0 0 39 255 194 2 3 0 55 246 255 254 255 255 
255 255 255 255 255 255 255 255 255 255 255 255 255 255 255 255 255 254 255 
241 14 0 0 47 228 41 0 0 15 208 255 252 255 255 255 255 255 255 255 255 255 
255 255 255 255 255 255 255 255 255 255 255 254 255 241 14 0 0 48 84 0 3 0 159 
255 252 255 255 255 255 255 255 255 255 255 255 255 255 255 255 255 255 255 
255 255 255 255 254 255 241 14 0 1 0 1 3 0 24 234 255 253 255 255 255 255 255 
255 255 255 255 255 255 255 255 255 255 255 255 255 255 255 255 254 255 241 
14 0 0 25 30 0 4 0 88 255 252 255 255 255 255 255 255 255 255 255 255 255 255 
255 255 255 255 255 255 255 255 255 254 255 241 14 0 0 55 181 5 0 3 0 132 255 
252 255 255 255 255 255 255 255 255 255 255 255 255 255 255 255 255 255 255 
255 255 254 255 241 14 0 0 40 255 146 0 4 2 1 181 255 252 255 255 255 255 255 
255 255 255 255 255 255 255 255 255 255 255 255 255 255 254 255 241 14 0 0 42 
247 255 96 0 5 0 25 217 255 253 255 255 255 255 255 255 255 255 255 255 255 
255 255 255 255 255 255 255 254 255 241 14 0 0 42 249 255 241 54 0 6 0 55 245 
255 254 255 255 255 255 255 255 255 255 255 255 255 255 255 255 255 255 255 
254 255 241 14 0 0 42 250 254 255 216 22 0 5 0 100 255 252 255 255 255 255 255 
255 255 255 255 255 255 255 255 255 255 255 255 254 255 241 14 0 0 42 250 255 
251 255 177 0 2 4 0 144 255 252 255 255 255 255 255 255 255 255 255 255 255 
255 255 255 255 255 254 255 241 14 0 0 42 250 255 254 252 255 132 0 5 1 3 189 
255 251 255 255 255 255 255 255 255 255 255 255 255 255 255 255 255 254 255 
241 14 0 0 42 250 255 254 255 252 255 83 0 6 0 31 224 255 253 255 255 255 255 
255 255 255 255 255 255 255 255 255 255 254 255 241 14 0 0 42 250 255 254 255 
253 255 237 43 0 6 0 63 251 255 254 255 255 255 255 255 255 255 255 255 255 
255 255 255 254 255 241 15 0 0 43 250 255 254 255 255 252 255 205 15 0 5 0 111 
255 252 255 255 255 255 255 255 255 255 255 255 255 255 255 254 255 241 14 0 0 
42 250 255 254 255 255 255 252 255 166 0 1 3 0 153 255 253 255 255 255 255 255 
255 255 255 255 255 255 255 254 255 242 18 3 0 47 250 255 254 255 255 255 255 
252 255 118 0 9 4 12 201 255 253 255 255 255 255 255 255 255 255 255 255 255 
255 255 253 215 213 211 220 254 255 255 255 255 255 255 254 254 248 214 212 
215 208 231 255 254 255 255 255 255 255 255 255 255 255 255 255 255 255 255 
255 255 255 255 255 255 255 255 255 255 255 255 255 254 255 255 255 255 255 
255 255 255 255 255 255 255 255 255 255 255 255 255 255 255 255 253 253 253 
254 255 255 255 255 255 255 255 255 255 254 253 253 253 253 254 255 255 255 
255 255 255 255 255 255 255 255 255 255 255 255 255 255 255 255 255 255 255 
255 255 255 255 255 255 255 255 255 255 255 255 255 255 255 255 255 255 255 
255 255 255 255 255 255 255 255 255 255 255 255 255 255 255 255 255 255 255 
255 255 255 255 255 255 255 255 255 255 255 255 255 255 255 255 255 255 255 
255 255 255 255 255 255 255 255 255 255 255 255 255 255 255 255 255 255 255 
255 255 255 255 255 255 255 255 255 255 255 255 255 255 255 255 255 255 255 
255 255 255 255 255 255 255 255 255 255 255 255 255 255 255 255 255 255 255 
255 255 255 255 255 255 255 255 255 255 255 255 255 255 255 255 255 255 255 
255 255 255 255 255 255 255 255 255 255 255 255 255 255 255 255 255 255 255 
255 255 255 255 255 255 255 255 255 255 255 255 255 255 255 255 255 255 255 
255 255 255 255 255 255 255 255 255 255 255 255 255 255 255 255 255 255 255 
255 255 255 255 255 255 255 255 255 255 255 255 255 255 255 255 255 255 255 
255 255 255 255 255 255 255 255 255 255 255 255 255 255 255 255 255 255 255 
255 255 255 255 255 255 255 255 255 255 255 255 255 255 255 255 255 255 255 
255 255 255 255 255 255 255 255 255 255 255 255 255 255 255 255 255 255 255 
255 255 255 255 255 255 255 255 255 255 255 255 255 255 255 255 255 255 255 
255 255 255 255 255 255 255 255 255 255 255 255 255 255 255 255 255 255 255 
255 255 255 255 255 255 255 255 255 255 255 255 255 255 255 255 255 255 255 
255 255 255 255 255 255 255 255 255 255 255 255 255 255 255 255 255 255 255 
255 255 255 255 255 255 255 255 255 255 255 255 255 255 255 255 255 255 255 
255 255 255 255 255 255 255 255 255 
