P2
35 45
255
255 255 255 255 255 255 255 255 255 255 255 255 255 255 255 255 255 255 255 
255 255 255 255 255 255 255 255 255 255 255 255 255 255 255 255 255 255 255 
255 255 255 255 255 255 255 255 255 255 255 255 255 255 255 255 255 255 255 
255 255 255 255 255 255 255 255 255 255 255 255 255 255 255 255 255 255 255 
255 254 253 253 253 253 254 255 255 255 255 255 255 255 255 254 253 253 253 
253 254 255 255 255 255 255 255 255 255 255 255 255 255 255 255 255 255 255 
255 255 255 254 255 255 255 255 255 255 255 255 255 255 255 255 255 255 255 
255 255 255 255 255 255 255 255 255 255 255 255 255 255 243 212 213 214 211 
238 255 254 255 255 255 255 255 255 249 214 212 214 209 234 255 254 255 255 
255 255 255 255 255 255 255 255 255 252 255 186 2 5 9 0 120 255 252 255 255 
255 255 251 255 161 0 7 11 0 130 255 250 255 255 255 255 255 255 255 255 255 
255 255 252 255 184 0 0 2 0 45 250 255 254 255 255 255 253 255 85 0 3 5 0 128 
255 250 255 255 255 255 255 255 255 255 255 255 255 252 255 185 0 1 2 0 1 199 
255 253 255 255 254 255 232 17 0 2 6 0 128 255 250 255 255 255 255 255 255 255 
255 255 255 255 252 255 185 0 0 1 4 0 123 255 251 255 255 251 255 159 0 3 1 5 
0 128 255 250 255 255 255 255 255 255 255 255 255 255 255 252 255 185 0 0 1 3 
0 46 251 255 254 255 253 255 85 0 6 8 4 0 128 255 250 255 255 255 255 255 255 
255 255 255 255 255 252 255 185 0 0 53 17 0 2 199 255 252 253 255 233 18 0 34 
58 0 0 128 255 250 255 255 255 255 255 255 255 255 255 255 255 252 255 185 1 0 
118 51 0 0 128 255 251 251 255 159 0 0 108 85 0 0 128 255 250 255 255 255 255 
255 255 255 255 255 255 255 252 255 185 1 0 142 125 0 0 56 254 255 254 255 75 
0 0 180 84 0 0 128 255 250 255 255 255 255 255 255 255 255 255 255 255 252 255 
185 1 0 142 194 0 0 5 210 255 255 225 12 0 23 241 75 0 0 128 255 250 255 255 
255 255 255 255 255 255 255 255 255 252 255 185 1 0 132 255 18 0 0 132 255 255 
151 0 0 95 255 68 0 0 128 255 250 255 255 255 255 255 255 255 255 255 255 255 
252 255 185 1 0 126 255 91 0 0 56 253 255 75 0 0 169 255 68 0 0 128 255 250 
255 255 255 255 255 255 255 255 255 255 255 252 255 185 1 0 125 255 165 0 1 4 
216 233 11 0 18 236 255 70 0 0 128 255 250 255 255 255 255 255 255 255 255 255 
255 255 252 255 185 1 0 127 255 234 23 0 0 156 169 0 0 85 255 255 70 0 0 128 
255 250 255 255 255 255 255 255 255 255 255 255 255 252 255 185 1 0 128 255 
255 95 0 0 71 78 0 0 159 255 255 71 0 0 128 255 250 255 255 255 255 255 255 
255 255 255 255 255 252 255 185 1 0 128 255 255 163 0 2 1 4 0 17 232 255 255 
71 0 0 128 255 250 255 255 255 255 255 255 255 255 255 255 255 252 255 185 1 0 
128 255 255 232 16 0 1 3 0 76 255 254 255 71 0 0 128 255 250 255 255 255 255 
255 255 255 255 255 255 255 252 255 185 1 0 128 255 249 255 85 0 5 4 0 151 255 
251 255 71 0 0 128 255 250 255 255 255 255 255 255 255 255 255 255 255 252 255 
185 1 0 128 255 247 255 159 0 3 0 11 225 255 253 255 71 0 0 128 255 250 255 
255 255 255 255 255 255 255 255 255 255 252 255 185 1 0 128 255 249 255 233 
23 4 0 76 255 254 254 255 71 0 0 128 255 250 255 255 255 255 255 255 255 255 
255 255 255 252 255 185 1 0 128 255 250 255 254 220 212 210 232 255 254 254 
255 71 0 0 128 255 250 255 255 255 255 255 255 255 255 255 255 255 252 255 185 
1 0 128 255 250 255 255 255 255 255 255 255 255 255 255 71 0 0 128 255 250 255 
255 255 255 255 255 255 255 255 255 255 252 255 185 1 0 128 255 250 255 255 
253 253 253 253 255 255 255 255 71 0 0 128 255 250 255 255 255 255 255 255 255 
255 255 255 255 252 255 185 1 0 128 255 250 255 255 255 255 255 255 255 255 
255 255 71 0 0 128 255 250 255 255 255 255 255 255 255 255 255 255 255 252 255 
185 2 0 128 255 250 255 255 255 255 255 255 255 255 255 255 71 0 0 128 255 250 
255 255 255 255 255 255 255 255 255 255 255 252 255 184 1 0 128 255 250 255 
255 255 255 255 255 255 255 255 255 70 0 0 128 255 250 255 255 255 255 255 255 
255 255 255 255 255 252 255 186 7 0 130 255 250 255 255 255 255 255 255 255 
254 254 255 74 0 0 130 255 250 255 255 255 255 255 255 255 255 255 255 255 255 
255 243 213 210 234 255 254 255 255 255 255 255 255 255 254 255 255 225 212 
210 234 255 254 255 255 255 255 255 255 255 255 255 255 255 255 255 255 255 
255 255 255 255 255 255 255 255 255 255 255 255 255 255 255 255 255 255 255 
255 255 255 255 255 255 255 255 255 255 255 255 255 255 254 253 253 254 255 
255 255 255 255 255 255 255 255 255 255 255 254 253 253 254 255 255 255 255 
255 255 255 255 255 255 255 255 255 255 255 255 255 255 255 255 255 255 255 
255 255 255 255 255 255 255 255 255 255 255 255 255 255 255 255 255 255 255 
255 255 255 255 255 255 255 255 255 255 255 255 255 255 255 255 255 255 255 
255 255 255 255 255 255 255 255 255 255 255 255 255 255 255 255 255 255 255 
255 255 255 255 255 255 255 255 255 255 255 255 255 255 255 255 255 255 255 
255 255 255 255 255 255 255 255 255 255 255 255 255 255 255 255 255 255 255 
255 255 255 255 255 255 255 255 255 255 255 255 255 255 255 255 255 255 255 
255 255 255 255 255 255 255 255 255 255 255 255 255 255 255 255 255 255 255 
255 255 255 255 255 255 255 255 255 255 255 255 255 255 255 255 255 255 255 
255 255 255 255 255 255 255 255 255 255 255 255 255 255 255 255 255 255 255 
255 255 255 255 255 255 255 255 255 255 255 255 255 255 255 255 255 255 255 
255 255 255 255 255 255 255 255 255 255 255 255 255 255 255 255 255 255 255 
255 255 255 255 255 255 255 255 255 255 255 255 255 255 255 255 255 255 255 
255 255 255 255 255 255 255 255 255 255 255 255 255 255 255 255 255 255 255 
255 255 255 255 255 255 255 255 255 255 255 255 255 255 255 255 255 255 255 
255 255 255 255 255 255 255 255 255 255 255 255 255 255 255 255 255 255 255 
255 255 255 255 255 255 255 255 255 255 255 255 255 255 255 255 255 255 255 
255 255 255 255 255 255 255 255 255 255 255 255 255 255 255 255 255 255 255 
255 255 255 255 255 255 255 255 255 255 255 255 255 255 255 255 255 255 255 
255 255 255 255 255 255 255 255 255 255 255 255 255 255 255 255 255 255 255 
255 255 255 255 255 255 255 255 255 
