P2
35 45
255
255 255 255 255 255 255 255 255 255 255 255 255 255 255 255 255 255 255 255 
255 255 255 255 255 255 255 255 255 255 255 255 255 255 255 255 255 255 255 
255 255 255 255 255 255 255 255 255 255 255 255 255 255 255 255 255 255 255 
255 255 255 255 255 255 255 255 255 255 255 255 255 255 255 255 255 255 255 
255 255 254 253 253 253 254 255 255 255 255 255 255 255 255 255 254 253 253 
254 255 255 255 255 255 255 255 255 255 255 255 255 255 255 255 255 255 255 
255 255 255 254 255 255 255 255 255 255 255 255 255 255 255 255 255 255 255 
255 255 255 255 255 255 255 255 255 255 255 255 255 254 255 238 211 214 211 
238 255 254 255 255 255 255 255 255 255 225 212 209 234 255 254 255 255 255 
255 255 255 255 255 255 255 255 255 255 251 255 158 0 11 0 101 255 252 254 255 
255 255 255 255 255 75 0 0 130 255 250 255 255 255 255 255 255 255 255 255 255 
255 255 255 251 255 156 0 3 0 6 208 255 253 255 255 255 255 255 255 70 0 0 128 
255 250 255 255 255 255 255 255 255 255 255 255 255 255 255 251 255 156 0 4 5 
0 92 255 253 255 255 255 255 255 255 71 0 0 128 255 250 255 255 255 255 255 
255 255 255 255 255 255 255 255 251 255 156 0 3 1 0 0 197 255 253 255 255 255 
255 255 71 0 0 128 255 250 255 255 255 255 255 255 255 255 255 255 255 255 255 
251 255 156 0 3 0 3 0 84 255 253 255 255 255 255 255 71 0 0 128 255 250 255 
255 255 255 255 255 255 255 255 255 255 255 255 251 255 156 0 3 1 1 0 0 194 
255 253 255 255 255 255 71 0 0 128 255 250 255 255 255 255 255 255 255 255 255 
255 255 255 255 251 255 156 0 3 1 1 4 0 71 255 254 255 255 255 255 71 0 0 128 
255 250 255 255 255 255 255 255 255 255 255 255 255 255 255 251 255 157 0 0 35 
45 0 2 0 184 255 252 255 255 255 71 0 0 128 255 250 255 255 255 255 255 255 
255 255 255 255 255 255 255 251 255 156 0 0 58 167 0 4 0 71 255 254 254 255 
255 71 0 0 128 255 250 255 255 255 255 255 255 255 255 255 255 255 255 255 251 
255 156 0 0 43 249 60 0 4 0 171 255 251 255 255 71 0 0 128 255 250 255 255 255 
255 255 255 255 255 255 255 255 255 255 251 255 156 0 0 40 255 182 0 4 0 58 254 
254 254 255 71 0 0 128 255 250 255 255 255 255 255 255 255 255 255 255 255 255 
255 251 255 156 0 0 42 249 255 70 0 4 0 172 255 251 255 71 0 0 128 255 250 255 
255 255 255 255 255 255 255 255 255 255 255 255 251 255 156 0 0 42 247 255 183 
0 3 0 48 249 255 255 71 0 0 128 255 250 255 255 255 255 255 255 255 255 255 
255 255 255 255 251 255 156 0 0 43 249 255 255 80 0 6 0 159 255 255 71 0 0 128 
255 250 255 255 255 255 255 255 255 255 255 255 255 255 255 251 255 156 0 0 42 
250 254 255 197 0 2 0 47 249 255 70 0 0 128 255 250 255 255 255 255 255 255 
255 255 255 255 255 255 255 251 255 156 0 0 42 250 255 253 255 84 0 7 0 151 
255 68 0 0 128 255 250 255 255 255 255 255 255 255 255 255 255 255 255 255 251 
255 156 0 0 42 250 255 252 255 207 6 1 0 35 245 73 0 0 128 255 250 255 255 255 
255 255 255 255 255 255 255 255 255 255 251 255 156 0 0 42 250 255 254 253 255 
96 0 6 0 148 89 0 0 128 255 250 255 255 255 255 255 255 255 255 255 255 255 
255 255 251 255 156 0 0 42 250 255 254 253 255 209 10 0 0 36 48 0 0 128 255 
250 255 255 255 255 255 255 255 255 255 255 255 255 255 251 255 156 0 0 42 250 
255 254 255 252 255 111 0 4 1 0 5 0 128 255 250 255 255 255 255 255 255 255 
255 255 255 255 255 255 251 255 156 0 0 42 250 255 254 255 253 255 220 14 0 2 
0 5 0 128 255 250 255 255 255 255 255 255 255 255 255 255 255 255 255 251 255 
156 0 0 42 250 255 254 255 254 252 255 120 0 4 1 5 0 128 255 250 255 255 255 
255 255 255 255 255 255 255 255 255 255 251 255 156 0 0 42 250 255 254 255 255 
254 255 230 24 0 1 5 0 128 255 250 255 255 255 255 255 255 255 255 255 255 255 
255 255 251 255 157 0 0 43 250 255 254 255 255 255 252 255 128 0 4 6 0 128 255 
250 255 255 255 255 255 255 255 255 255 255 255 255 255 251 255 156 0 0 42 250 
255 254 255 255 255 254 255 236 33 0 6 0 128 255 250 255 255 255 255 255 255 
255 255 255 255 255 255 255 251 255 158 0 0 47 250 255 254 255 255 255 255 251 
255 145 0 13 0 130 255 250 255 255 255 255 255 255 255 255 255 255 255 255 255 
254 255 238 211 212 220 254 255 255 255 255 255 255 255 255 249 214 213 209 
234 255 254 255 255 255 255 255 255 255 255 255 255 255 255 255 255 255 255 
255 255 255 255 255 255 255 255 255 255 255 255 255 255 255 255 255 255 255 
255 255 255 255 255 255 255 255 255 255 255 255 255 255 255 254 253 253 254 
255 255 255 255 255 255 255 255 255 254 253 253 253 254 255 255 255 255 255 
255 255 255 255 255 255 255 255 255 255 255 255 255 255 255 255 255 255 255 
255 255 255 255 255 255 255 255 255 255 255 255 255 255 255 255 255 255 255 
255 255 255 255 255 255 255 255 255 255 255 255 255 255 255 255 255 255 255 
255 255 255 255 255 255 255 255 255 255 255 255 255 255 255 255 255 255 255 
255 255 255 255 255 255 255 255 255 255 255 255 255 255 255 255 255 255 255 
255 255 255 255 255 255 255 255 255 255 255 255 255 255 255 255 255 255 255 
255 255 255 255 255 255 255 255 255 255 255 255 255 255 255 255 255 255 255 
255 255 255 255 255 255 255 255 255 255 255 255 255 255 255 255 255 255 255 
255 255 255 255 255 255 255 255 255 255 255 255 255 255 255 255 255 255 255 
255 255 255 255 255 255 255 255 255 255 255 255 255 255 255 255 255 255 255 
255 255 255 255 255 255 255 255 255 255 255 255 255 255 255 255 255 255 255 
255 255 255 255 255 255 255 255 255 255 255 255 255 255 255 255 255 255 255 
255 255 255 255 255 255 255 255 255 255 255 255 255 255 255 255 255 255 255 
255 255 255 255 255 255 255 255 255 255 255 255 255 255 255 255 255 255 255 
255 255 255 255 255 255 255 255 255 255 255 255 255 255 255 255 255 255 255 
255 255 255 255 255 255 255 255 255 255 255 255 255 255 255 255 255 255 255 
255 255 255 255 255 255 255 255 255 255 255 255 255 255 255 255 255 255 255 
255 255 255 255 255 255 255 255 255 255 255 255 255 255 255 255 255 255 255 
255 255 255 255 255 255 255 255 255 255 255 255 255 255 255 255 255 255 255 
255 255 255 255 255 255 255 255 255 255 255 255 255 255 255 255 255 255 255 
255 255 255 255 255 255 255 255 255 
