P2
35 45
255
255 255 255 255 255 255 255 255 255 255 255 255 255 255 255 255 255 255 255 
255 255 255 255 255 255 255 255 255 255 255 255 255 255 255 255 255 255 255 
255 255 255 255 255 255 255 255 255 255 255 255 255 255 255 255 255 255 255 
255 255 255 255 255 255 255 255 255 255 255 255 255 255 255 255 255 255 255 
255 255 255 255 255 255 255 252 251 254 255 255 255 253 251 251 253 254 255 
255 255 255 255 255 255 255 255 255 255 255 255 255 255 255 255 255 255 255 
255 255 252 254 255 255 255 255 255 255 255 255 255 255 255 255 255 255 255 
255 255 255 255 255 255 255 255 255 255 255 255 255 255 255 255 255 252 255 
250 183 112 77 70 72 70 87 118 158 207 249 255 255 255 255 255 255 255 255 255 
255 255 255 255 255 255 255 255 255 255 255 253 255 201 48 0 1 0 0 0 0 0 0 0 2 
34 205 255 253 255 255 255 255 255 255 255 255 255 255 255 255 255 255 255 255 
252 255 199 14 0 2 0 0 1 4 0 0 0 0 1 0 183 255 252 255 255 255 255 255 255 255 
255 255 255 255 255 255 255 255 254 255 244 43 0 6 0 69 156 189 197 183 152 
111 53 5 0 181 255 252 255 255 255 255 255 255 255 255 255 255 255 255 255 255 
255 251 255 151 0 6 0 119 255 253 255 255 255 255 255 253 215 132 213 255 253 
255 255 255 255 255 255 255 255 255 255 255 255 255 255 255 254 255 81 0 0 31 
242 255 250 252 252 252 251 251 255 255 255 255 255 255 255 255 255 255 255 
255 255 255 255 255 255 255 255 255 254 255 250 43 0 0 75 255 253 255 255 255 
255 255 255 254 253 251 254 255 255 255 255 255 255 255 255 255 255 255 255 
255 255 255 255 254 255 250 42 0 0 42 250 254 254 255 255 255 255 255 255 255 
255 255 255 255 255 255 255 255 255 255 255 255 255 255 255 255 255 255 254 
255 255 66 0 4 0 151 255 251 252 254 255 255 255 255 255 255 255 255 255 255 
255 255 255 255 255 255 255 255 255 255 255 255 255 255 251 255 127 0 5 0 6 151 
255 255 252 252 255 255 255 255 255 255 255 255 255 255 255 255 255 255 255 
255 255 255 255 255 255 255 255 253 255 224 24 0 4 2 0 70 202 255 254 252 253 
255 255 255 255 255 255 255 255 255 255 255 255 255 255 255 255 255 255 255 
255 255 255 252 255 172 2 0 4 3 0 3 82 209 255 254 252 253 255 255 255 255 255 
255 255 255 255 255 255 255 255 255 255 255 255 255 255 255 255 252 255 182 
24 0 2 6 2 0 8 96 213 255 254 252 255 255 255 255 255 255 255 255 255 255 255 
255 255 255 255 255 255 255 255 255 255 252 255 231 102 7 0 2 7 2 0 7 108 236 
255 252 255 255 255 255 255 255 255 255 255 255 255 255 255 255 255 255 255 
255 255 255 255 253 254 255 209 81 3 0 3 7 2 0 32 185 255 252 255 255 255 255 
255 255 255 255 255 255 255 255 255 255 255 255 255 255 255 255 255 253 253 
255 255 203 74 0 0 3 5 0 3 167 255 253 255 255 255 255 255 255 255 255 255 255 
255 255 255 255 255 255 255 255 255 255 255 255 253 253 255 255 189 63 0 2 4 0 
17 215 255 253 255 255 255 255 255 255 255 255 255 255 255 255 255 255 255 255 
255 255 255 255 255 255 255 253 253 255 255 130 0 1 6 0 112 255 252 255 255 
255 255 255 255 255 255 255 255 255 255 255 255 255 255 255 255 255 255 255 
255 255 255 254 252 251 255 113 0 5 0 51 253 255 254 255 255 255 255 255 255 
255 255 255 255 255 255 255 255 255 255 255 255 255 255 255 255 255 255 255 
253 255 223 10 0 0 17 242 255 254 255 255 255 255 255 255 255 255 255 255 255 
255 255 255 255 253 254 255 255 255 255 255 255 255 255 254 255 247 39 0 0 17 
242 255 254 255 255 255 255 255 255 255 255 255 255 255 255 255 255 255 255 
253 251 254 255 255 255 255 255 255 253 255 231 12 0 0 50 252 255 254 255 255 
255 255 255 255 255 255 255 255 255 255 255 255 248 220 255 255 255 253 250 
252 252 252 251 250 255 137 0 8 0 104 255 252 255 255 255 255 255 255 255 255 
255 255 255 255 255 254 255 241 19 74 170 239 255 255 255 255 255 254 255 179 
13 0 3 3 199 255 253 255 255 255 255 255 255 255 255 255 255 255 255 255 254 
255 242 15 0 0 21 85 139 177 192 190 159 79 2 3 5 0 121 255 252 255 255 255 
255 255 255 255 255 255 255 255 255 255 255 254 255 241 14 0 2 0 0 0 0 2 1 0 0 
2 2 0 97 252 254 254 255 255 255 255 255 255 255 255 255 255 255 255 255 255 
254 255 249 100 25 1 0 0 0 0 0 0 0 1 0 30 159 255 253 254 255 255 255 255 255 
255 255 255 255 255 255 255 255 255 255 255 255 255 255 246 200 151 111 80 71 
72 70 81 117 177 244 255 253 254 255 255 255 255 255 255 255 255 255 255 255 
255 255 255 255 255 255 255 255 253 255 255 255 255 255 255 255 255 255 255 
255 255 252 254 255 255 255 255 255 255 255 255 255 255 255 255 255 255 255 
255 255 255 255 255 255 254 253 251 251 254 255 255 255 254 251 251 254 255 
255 255 255 255 255 255 255 255 255 255 255 255 255 255 255 255 255 255 255 
255 255 255 255 255 255 255 255 255 255 255 255 255 255 255 255 255 255 255 
255 255 255 255 255 255 255 255 255 255 255 255 255 255 255 255 255 255 255 
255 255 255 255 255 255 255 255 255 255 255 255 255 255 255 255 255 255 255 
255 255 255 255 255 255 255 255 255 255 255 255 255 255 255 255 255 255 255 
255 255 255 255 255 255 255 255 255 255 255 255 255 255 255 255 255 255 255 
255 255 255 255 255 255 255 255 255 255 255 255 255 255 255 255 255 255 255 
255 255 255 255 255 255 255 255 255 255 255 255 255 255 255 255 255 255 255 
255 255 255 255 255 255 255 255 255 255 255 255 255 255 255 255 255 255 255 
255 255 255 255 255 255 255 255 255 255 255 255 255 255 255 255 255 255 255 
255 255 255 255 255 255 255 255 255 255 255 255 255 255 255 255 255 255 255 
255 255 255 255 255 255 255 255 255 255 255 255 255 255 255 255 255 255 255 
255 255 255 255 255 255 255 255 255 255 255 255 255 255 255 255 255 255 255 
255 255 255 255 255 255 255 255 255 255 255 255 255 255 255 255 255 255 255 
255 255 255 255 255 255 255 255 255 255 255 255 255 255 255 255 255 255 255 
255 255 255 255 255 255 255 255 255 255 255 255 255 255 255 255 255 255 255 
255 255 255 255 255 255 255 255 255 255 255 255 255 255 255 255 255 255 255 
255 255 255 255 255 255 255 255 255 255 255 255 255 255 255 255 255 255 255 
255 255 255 255 255 255 255 255 255 255 255 255 255 255 255 255 255 255 255 
255 255 255 255 255 255 255 255 255 255 255 255 255 255 255 255 255 255 255 
255 255 255 255 255 255 255 255 255 255 255 255 255 255 255 255 255 
