P2
35 45
255
255 255 255 255 255 255 255 255 255 255 255 255 255 255 255 255 255 255 255 
255 255 255 255 255 255 255 255 255 255 255 255 255 255 255 255 255 255 255 
255 255 255 255 255 255 255 255 255 255 255 255 255 255 255 255 255 255 255 
255 255 255 255 255 255 255 255 255 255 255 255 255 255 255 255 255 255 255 
254 253 253 253 254 255 255 255 255 255 255 255 255 255 255 255 255 255 254 
253 253 254 255 255 255 255 255 255 255 255 255 255 255 255 255 255 255 255 
255 255 255 255 255 255 255 255 255 255 255 255 255 255 255 255 255 255 255 
255 255 255 255 255 255 255 255 255 255 255 255 254 222 211 213 212 243 255 
255 255 255 255 255 255 255 255 255 255 254 255 234 210 213 217 253 255 255 
255 255 255 255 255 255 255 255 252 255 105 0 12 0 137 255 251 255 255 255 255 
255 255 255 255 254 254 255 77 0 0 80 255 254 255 255 255 255 255 255 255 255 
255 252 255 180 0 3 0 53 253 255 254 255 255 255 255 255 255 255 253 255 218 
9 0 0 159 255 251 255 255 255 255 255 255 255 255 255 254 255 245 31 0 2 2 199 
255 253 255 255 255 255 255 255 255 251 255 141 0 1 18 233 255 254 255 255 255 
255 255 255 255 255 255 255 252 255 104 0 8 0 123 255 251 255 255 255 255 255 
255 255 255 255 67 0 0 85 255 253 255 255 255 255 255 255 255 255 255 255 255 
252 255 180 0 3 0 46 250 255 254 255 255 255 255 255 253 255 217 8 1 0 159 255 
251 255 255 255 255 255 255 255 255 255 255 255 254 255 245 34 0 1 1 199 255 
253 255 255 255 255 255 251 255 143 0 0 18 233 255 254 255 255 255 255 255 255 
255 255 255 255 255 255 251 255 114 0 8 0 119 255 251 255 255 255 255 254 255 
255 60 0 0 95 255 253 255 255 255 255 255 255 255 255 255 255 255 255 255 252 
255 188 0 2 0 38 248 255 254 255 255 255 253 255 209 5 0 0 170 255 252 255 255 
255 255 255 255 255 255 255 255 255 255 255 254 255 247 37 0 2 0 188 255 252 
255 255 255 251 255 132 0 0 22 238 255 254 255 255 255 255 255 255 255 255 255 
255 255 255 255 255 252 255 112 0 8 0 113 255 252 255 255 254 255 254 56 0 0 96 
255 253 255 255 255 255 255 255 255 255 255 255 255 255 255 255 255 252 255 
192 0 2 0 37 248 255 254 255 253 255 210 5 0 0 170 255 252 255 255 255 255 255 
255 255 255 255 255 255 255 255 255 255 254 255 250 46 0 2 0 188 255 252 255 
251 255 131 0 0 30 243 255 254 255 255 255 255 255 255 255 255 255 255 255 255 
255 255 255 255 251 255 123 0 8 0 104 255 252 254 255 250 47 0 0 104 255 252 
255 255 255 255 255 255 255 255 255 255 255 255 255 255 255 255 255 253 255 
199 1 1 0 30 243 255 252 255 199 2 0 0 180 255 252 255 255 255 255 255 255 255 
255 255 255 255 255 255 255 255 255 255 254 255 251 45 0 3 0 180 255 248 255 
123 0 0 30 243 255 254 255 255 255 255 255 255 255 255 255 255 255 255 255 255 
255 255 255 255 251 255 124 0 8 0 104 255 253 250 46 0 0 104 255 252 255 255 
255 255 255 255 255 255 255 255 255 255 255 255 255 255 255 255 255 253 255 
208 5 0 0 30 241 255 197 1 0 0 188 255 252 255 255 255 255 255 255 255 255 255 
255 255 255 255 255 255 255 255 255 255 254 255 254 56 0 4 0 167 255 110 0 0 38 
248 255 254 255 255 255 255 255 255 255 255 255 255 255 255 255 255 255 255 
255 255 255 255 251 255 132 0 7 0 98 255 35 0 0 113 255 252 255 255 255 255 
255 255 255 255 255 255 255 255 255 255 255 255 255 255 255 255 255 253 255 
210 5 0 0 34 174 2 0 0 189 255 252 255 255 255 255 255 255 255 255 255 255 255 
255 255 255 255 255 255 255 255 255 255 254 255 254 57 0 0 10 35 0 0 37 247 
255 254 255 255 255 255 255 255 255 255 255 255 255 255 255 255 255 255 255 
255 255 255 255 255 251 255 142 0 3 1 0 4 0 116 255 251 255 255 255 255 255 
255 255 255 255 255 255 255 255 255 255 255 255 255 255 255 255 255 255 253 
255 218 8 0 1 2 0 1 199 255 253 255 255 255 255 255 255 255 255 255 255 255 
255 255 255 255 255 255 255 255 255 255 255 255 255 255 255 66 0 4 3 0 46 250 
255 254 255 255 255 255 255 255 255 255 255 255 255 255 255 255 255 255 255 
255 255 255 255 255 255 255 251 255 142 0 3 4 0 123 255 251 255 255 255 255 
255 255 255 255 255 255 255 255 255 255 255 255 255 255 255 255 255 255 255 
255 255 253 255 218 13 3 5 6 200 255 253 255 255 255 255 255 255 255 255 255 
255 255 255 255 255 255 255 255 255 255 255 255 255 255 255 255 255 255 253 
218 212 212 215 252 255 255 255 255 255 255 255 255 255 255 255 255 255 255 
255 255 255 255 255 255 255 255 255 255 255 255 255 255 255 254 255 255 255 
255 255 255 255 255 255 255 255 255 255 255 255 255 255 255 255 255 255 255 
255 255 255 255 255 255 255 255 255 255 255 255 255 253 253 253 253 255 255 
255 255 255 255 255 255 255 255 255 255 255 255 255 255 255 255 255 255 255 
255 255 255 255 255 255 255 255 255 255 255 255 255 255 255 255 255 255 255 
255 255 255 255 255 255 255 255 255 255 255 255 255 255 255 255 255 255 255 
255 255 255 255 255 255 255 255 255 255 255 255 255 255 255 255 255 255 255 
255 255 255 255 255 255 255 255 255 255 255 255 255 255 255 255 255 255 255 
255 255 255 255 255 255 255 255 255 255 255 255 255 255 255 255 255 255 255 
255 255 255 255 255 255 255 255 255 255 255 255 255 255 255 255 255 255 255 
255 255 255 255 255 255 255 255 255 255 255 255 255 255 255 255 255 255 255 
255 255 255 255 255 255 255 255 255 255 255 255 255 255 255 255 255 255 255 
255 255 255 255 255 255 255 255 255 255 255 255 255 255 255 255 255 255 255 
255 255 255 255 255 255 255 255 255 255 255 255 255 255 255 255 255 255 255 
255 255 255 255 255 255 255 255 255 255 255 255 255 255 255 255 255 255 255 
255 255 255 255 255 255 255 255 255 255 255 255 255 255 255 255 255 255 255 
255 255 255 255 255 255 255 255 255 255 255 255 255 255 255 255 255 255 255 
255 255 255 255 255 255 255 255 255 255 255 255 255 255 255 255 255 255 255 
255 255 255 255 255 255 255 255 255 255 255 255 255 255 255 255 255 255 255 
255 255 255 255 255 255 255 255 255 255 255 255 255 255 255 255 255 255 255 
255 255 255 255 255 255 255 255 255 255 255 255 255 255 255 255 255 255 255 
255 255 255 255 255 255 255 255 255 255 255 255 255 255 255 255 255 255 255 
255 255 255 255 255 255 255 255 255 255 255 255 255 255 255 255 255 255 255 
255 255 255 255 255 255 255 255 255 255 255 255 255 255 255 255 255 255 255 
