P2
#Created with GIMP
10 12
255
255 253 255 166 103 103 176 255 253 255 252 255 137 49 239 232 42 161 255 252 
255 219 0 177 255 255 151 7 237 255 255 126 0 229 255 255 212 0 156 255 255 
68 13 247 255 255 234 0 99 255 255 41 29 255 254 255 241 2 75 255 255 41 32 255 
254 255 238 0 80 255 255 69 18 250 255 255 225 0 110 255 255 132 0 230 255 255 
200 0 171 255 255 228 2 168 255 255 131 21 249 255 252 255 153 45 223 196 39 
187 255 253 255 253 255 183 112 121 211 255 253 255 
