P2
#Created with GIMP
10 12
255
255 255 255 255 252 170 227 255 254 255 255 255 253 189 63 0 213 255 253 255 
255 255 248 242 144 0 216 255 253 255 255 255 252 255 182 0 215 255 253 255 
255 255 252 255 180 0 215 255 253 255 255 255 252 255 181 0 215 255 253 255 
255 255 252 255 181 0 215 255 253 255 255 255 252 255 181 0 215 255 253 255 
255 255 252 255 181 0 215 255 253 255 255 255 252 255 181 0 215 255 253 255 
255 255 251 255 170 0 205 255 252 255 255 254 255 206 103 46 119 217 255 254 
