P2
#Created with GIMP
10 12
255
254 255 247 125 42 46 133 243 255 254 254 255 86 59 128 78 0 68 250 255 255 
181 131 255 250 255 146 0 172 255 255 224 242 255 249 255 235 0 153 255 255 
255 253 255 254 255 221 13 214 255 255 254 254 255 250 255 126 93 255 252 255 
255 255 252 255 211 72 241 255 254 255 255 253 255 234 99 218 255 251 255 255 
252 255 234 113 213 255 251 255 255 254 255 238 144 228 255 253 255 189 232 
255 213 33 37 66 51 59 25 80 255 255 168 110 119 110 113 114 106 202 255 
