P2
#Created with GIMP
10 12
255
255 254 255 245 95 72 78 70 207 255 255 252 255 156 33 59 51 76 241 255 254 
255 234 120 255 255 255 255 255 255 251 255 129 42 148 219 255 251 254 255 255 
253 106 34 1 0 116 251 255 254 255 254 254 255 231 102 0 104 255 253 255 255 
253 254 253 255 123 0 218 255 255 255 254 255 252 255 239 11 179 255 255 255 
255 252 252 253 252 42 206 255 255 253 247 255 252 255 174 88 255 253 255 207 
5 91 183 153 111 236 255 254 255 248 140 74 101 171 248 255 254 255 
