P2
#Created with GIMP
10 12
255
255 255 254 252 255 189 125 143 210 255 255 254 254 252 100 73 212 254 255 255 
254 255 252 64 59 253 255 254 255 255 252 255 104 11 239 255 254 254 254 255 
255 214 0 104 197 120 151 238 255 254 255 133 0 107 183 157 16 32 227 255 255 
85 0 228 255 255 182 0 102 255 255 78 2 239 255 254 242 15 46 255 255 122 0 222 
255 252 255 32 57 255 255 213 0 150 255 255 240 5 146 255 252 255 149 19 190 
238 91 82 255 255 255 253 255 185 105 120 157 253 254 255 
