P2
#Created with GIMP
10 12
255
253 255 137 68 78 76 76 78 126 255 255 220 16 46 57 54 64 5 104 255 255 158 
195 255 253 255 255 50 191 255 255 241 255 253 250 255 182 45 255 255 255 254 
253 255 251 255 90 120 255 251 255 254 255 254 255 239 36 212 255 253 255 255 
255 252 255 158 61 255 253 255 255 255 255 253 255 69 147 255 252 255 255 255 
253 255 221 34 232 255 254 255 255 255 251 255 134 81 255 252 255 255 255 255 
255 255 46 175 255 252 255 255 255 254 255 230 109 243 255 254 255 255 
