P2
#Created with GIMP
10 12
255
255 255 250 135 109 94 137 253 254 255 255 255 78 88 250 234 49 88 255 254 255 
164 0 223 255 255 200 0 169 255 255 87 3 238 255 255 247 14 75 255 255 83 0 218 
255 250 255 33 41 255 255 149 0 138 255 255 244 15 53 255 255 250 82 0 117 166 
121 0 105 255 255 254 254 197 148 212 133 0 196 255 255 254 253 254 255 240 
16 91 255 253 255 255 254 255 253 58 60 250 255 254 255 253 247 207 82 111 254 
254 254 255 255 223 157 143 205 255 252 254 255 255 
