P2
35 45
255
255 255 255 255 255 255 255 255 255 255 255 255 255 255 255 255 255 255 255 
255 255 255 255 255 255 255 255 255 255 255 255 255 255 255 255 255 255 255 
255 255 255 255 255 255 255 255 255 255 255 255 255 255 255 255 255 255 255 
255 255 255 255 255 255 255 255 255 255 255 255 255 255 255 255 255 255 255 
255 255 255 255 255 255 255 255 255 255 255 255 255 255 255 255 255 255 255 
255 255 255 255 255 255 255 255 255 255 255 255 255 255 255 255 255 255 255 
255 255 255 255 255 255 255 255 255 255 255 255 255 255 255 255 255 255 255 
255 255 255 255 255 255 255 255 255 255 255 255 255 255 255 255 255 255 255 
255 255 255 255 255 255 255 255 255 255 255 255 255 255 255 255 255 255 255 
255 255 255 255 255 255 255 255 255 255 255 255 255 255 255 255 254 252 250 
251 252 250 252 254 255 255 255 255 255 255 255 255 255 255 255 255 255 255 
255 255 255 255 255 255 255 255 255 255 255 254 252 255 255 255 255 255 255 
255 255 252 254 255 255 255 255 255 255 255 255 255 255 255 255 255 255 255 
255 255 255 255 255 255 255 254 253 255 245 181 134 106 102 129 173 240 255 
253 254 255 255 255 255 255 255 255 255 255 255 255 255 255 255 255 255 255 
255 255 255 254 254 255 153 30 0 1 0 0 1 0 23 129 243 255 253 255 255 255 255 
255 255 255 255 255 255 255 255 255 255 255 255 255 255 255 255 251 94 0 2 4 5 
5 8 7 1 1 0 51 227 255 253 255 255 255 255 255 255 255 255 255 255 255 255 255 
255 255 255 255 254 255 101 0 4 0 0 0 0 0 0 3 2 5 0 46 232 255 254 255 255 255 
255 255 255 255 255 255 255 255 255 255 255 255 252 255 178 0 1 8 88 163 186 
181 134 39 0 3 0 5 0 91 255 253 255 255 255 255 255 255 255 255 255 255 255 
255 255 255 254 255 255 63 0 43 203 255 254 255 254 255 245 95 0 2 1 1 2 202 
255 253 255 255 255 255 255 255 255 255 255 255 255 255 255 253 255 212 0 37 
226 255 251 251 252 252 251 254 255 78 0 3 4 0 127 255 251 255 255 255 255 255 
255 255 255 255 255 255 255 255 250 255 142 0 185 255 249 255 255 255 255 255 
251 255 215 8 0 4 0 85 255 253 255 255 255 255 255 255 255 255 255 255 255 255 
255 252 255 89 47 255 254 255 255 255 255 255 255 255 253 255 80 0 6 0 68 255 
254 255 255 255 255 255 255 255 255 255 255 255 255 255 254 255 205 215 255 
254 255 255 255 255 255 255 255 251 255 125 0 8 0 88 255 253 254 255 255 255 
255 255 255 255 255 255 255 255 255 255 255 255 255 255 255 255 255 255 255 
255 255 255 250 255 127 0 9 0 123 255 251 255 255 255 255 255 255 255 255 255 
255 255 255 255 255 255 253 253 255 255 255 255 255 255 255 255 255 251 255 
122 0 6 0 181 255 252 255 255 255 255 255 255 255 255 255 255 255 255 255 255 
255 255 255 255 255 255 255 255 255 255 255 255 254 255 84 0 0 40 247 255 254 
255 255 255 255 255 255 255 255 255 255 255 255 255 255 255 255 255 255 255 
255 255 255 255 255 255 254 255 238 23 0 0 143 255 252 255 255 255 255 255 255 
255 255 255 255 255 255 255 255 255 255 255 255 255 255 255 255 255 255 255 
255 251 255 164 0 0 43 244 255 254 255 255 255 255 255 255 255 255 255 255 255 
255 255 255 255 255 255 255 255 255 255 255 255 255 255 255 255 254 58 0 0 173 
255 252 255 255 255 255 255 255 255 255 255 255 255 255 255 255 255 255 255 
255 255 255 255 255 255 255 255 255 252 255 169 0 0 89 255 253 255 255 255 255 
255 255 255 255 255 255 255 255 255 255 255 255 255 255 255 255 255 255 255 
255 255 255 254 255 237 40 0 41 233 255 254 255 255 255 255 255 255 255 255 
255 255 255 255 255 255 255 255 255 255 255 255 255 255 255 255 255 255 252 
255 104 0 16 201 255 252 255 255 255 255 255 255 255 255 255 255 255 255 255 
255 255 255 255 255 255 255 255 255 255 255 255 255 251 255 159 0 1 167 255 
252 255 255 255 255 255 255 255 255 255 255 255 255 255 255 255 255 255 255 
255 255 255 255 255 255 255 255 252 255 201 15 0 143 255 252 255 255 255 255 
255 255 255 255 255 255 255 255 255 255 255 255 255 255 255 255 255 255 255 
255 255 255 252 255 225 34 0 133 255 251 255 255 255 255 255 255 255 255 255 
255 255 255 255 255 255 255 255 255 255 255 255 255 255 255 255 255 253 255 
235 50 0 118 255 252 255 255 255 255 255 255 254 254 255 255 255 255 255 255 
255 255 255 255 255 255 255 255 255 255 255 255 252 255 242 69 0 111 255 253 
254 255 255 255 255 255 254 255 255 255 255 255 255 255 255 255 255 255 255 
255 255 255 255 255 255 255 253 255 241 70 0 93 253 254 253 255 254 255 255 
255 252 255 244 246 255 255 255 255 255 255 255 255 255 255 255 255 255 255 
255 255 253 255 241 68 0 91 251 253 251 252 252 252 252 253 253 255 216 14 158 
255 251 255 255 255 255 255 255 255 255 255 255 255 255 255 252 255 241 67 0 107 
255 254 255 255 255 255 255 255 254 255 198 35 5 225 255 253 255 255 255 255 
255 255 255 255 255 255 255 255 252 255 241 67 0 9 96 104 96 99 99 99 99 99 99 
94 52 7 0 86 255 253 255 255 255 255 255 255 255 255 255 255 255 255 254 255 
228 54 0 4 0 0 0 0 0 0 0 0 0 0 0 0 4 0 166 255 252 255 255 255 255 255 255 255 
255 255 255 255 253 255 220 43 0 4 0 1 3 4 4 4 4 4 4 4 4 4 4 0 26 240 255 254 
255 255 255 255 255 255 255 255 255 255 255 252 255 101 0 4 0 0 0 0 0 0 0 0 0 
0 0 0 0 4 0 103 255 252 255 255 255 255 255 255 255 255 255 255 255 255 254 
255 215 182 186 185 185 185 185 185 185 185 185 185 185 185 185 185 186 181 
226 255 254 255 255 255 255 255 255 255 255 255 255 255 255 255 255 255 255 
255 255 255 255 255 255 255 255 255 255 255 255 255 255 255 255 254 255 255 
255 255 255 255 255 255 255 255 255 255 255 255 255 255 253 252 252 252 252 
252 252 252 252 252 252 252 252 252 252 252 252 252 254 255 255 255 255 255 
255 255 255 255 255 255 255 255 255 255 255 255 255 255 255 255 255 255 255 
255 255 255 255 255 255 255 255 255 255 255 255 255 255 255 255 255 255 255 
255 255 255 255 255 255 255 255 255 255 255 255 255 255 255 255 255 255 255 
255 255 255 255 255 255 255 255 255 255 255 255 255 255 255 255 255 255 255 
255 255 255 255 255 255 255 255 255 255 255 255 255 255 255 255 255 255 255 
255 255 255 255 255 255 255 255 255 255 255 255 255 255 255 255 255 255 255 
255 255 255 255 255 255 255 255 255 255 255 255 255 255 255 255 255 255 255 
255 255 255 255 255 255 255 255 255 255 255 255 
