P2
35 45
255
255 255 255 255 255 255 255 255 255 255 255 255 255 255 255 255 255 255 255 
255 255 255 255 255 255 255 255 255 255 255 255 255 255 255 255 255 255 255 
255 255 255 255 255 255 255 255 255 255 255 255 255 255 255 255 255 255 255 
255 255 255 255 255 255 255 255 255 255 255 255 255 255 255 255 255 255 255 
255 255 255 255 255 255 255 255 255 255 255 255 255 255 255 255 255 255 255 
255 255 255 255 255 255 255 255 255 255 255 255 255 255 255 255 255 255 255 
255 255 255 255 255 255 255 255 255 255 255 255 255 255 255 255 255 255 255 
255 255 255 255 255 255 255 255 255 255 255 255 255 255 255 255 255 255 255 
255 255 255 255 255 255 255 255 255 255 255 255 255 255 255 255 255 255 255 
255 255 255 255 255 255 255 255 255 255 255 255 255 255 255 255 254 252 250 
252 252 250 252 254 255 255 255 255 255 255 255 255 255 255 255 255 255 255 
255 255 255 255 255 255 255 255 255 255 255 254 252 255 255 255 255 255 255 
255 254 252 255 255 255 255 255 255 255 255 255 255 255 255 255 255 255 255 
255 255 255 255 255 255 255 254 252 255 241 176 130 102 105 134 186 249 255 
252 255 255 255 255 255 255 255 255 255 255 255 255 255 255 255 255 255 255 
255 255 255 254 253 255 154 29 0 1 0 0 1 0 43 188 255 253 255 255 255 255 255 
255 255 255 255 255 255 255 255 255 255 255 255 255 255 255 253 255 109 0 1 0 
0 0 7 6 1 0 3 166 255 253 255 255 255 255 255 255 255 255 255 255 255 255 255 
255 255 255 255 255 253 255 125 0 1 5 35 45 18 0 2 2 3 0 11 207 255 253 255 
255 255 255 255 255 255 255 255 255 255 255 255 255 255 255 252 255 185 0 7 108 
213 249 250 239 157 24 0 1 4 0 88 255 253 255 255 255 255 255 255 255 255 255 
255 255 255 255 255 255 254 255 255 56 5 183 255 254 255 255 253 255 208 22 0 
2 0 18 238 255 254 255 255 255 255 255 255 255 255 255 255 255 255 255 255 252 
255 175 0 167 255 250 253 254 254 254 248 255 144 0 3 0 5 212 255 253 255 255 
255 255 255 255 255 255 255 255 255 255 255 255 254 255 224 170 252 253 254 
255 255 255 255 254 255 224 9 0 0 12 230 255 254 255 255 255 255 255 255 255 
255 255 255 255 255 255 255 255 255 255 255 254 255 255 255 255 255 255 254 
255 241 14 0 0 57 254 255 254 255 255 255 255 255 255 255 255 255 255 255 255 
255 255 255 255 254 252 255 255 255 255 255 255 255 254 255 238 14 0 0 153 255 
251 255 255 255 255 255 255 255 255 255 255 255 255 255 255 255 255 255 255 
255 255 255 255 255 255 255 255 253 255 194 4 0 57 252 255 254 255 255 255 255 
255 255 255 255 255 255 255 255 255 255 255 255 255 255 255 255 255 255 255 
255 255 254 250 255 104 0 24 212 255 253 255 255 255 255 255 255 255 255 255 
255 255 255 255 255 255 255 255 255 255 255 255 255 255 255 255 252 251 255 
183 0 24 200 255 251 255 255 255 255 255 255 255 255 255 255 255 255 255 255 
255 255 255 255 255 255 255 255 255 255 253 255 254 255 174 17 0 62 226 255 
252 254 255 255 255 255 255 255 255 255 255 255 255 255 255 255 255 255 255 
255 255 255 255 255 255 254 255 211 94 1 2 2 0 8 138 255 253 255 255 255 255 
255 255 255 255 255 255 255 255 255 255 255 255 255 255 255 255 255 255 255 
130 24 0 0 3 5 0 1 2 0 119 255 254 255 255 255 255 255 255 255 255 255 255 255 
255 255 255 255 255 255 255 255 255 255 255 153 111 112 49 1 0 2 1 2 4 0 169 
255 252 255 255 255 255 255 255 255 255 255 255 255 255 255 255 255 255 255 
255 255 255 255 255 255 255 253 188 66 0 2 1 3 0 47 252 255 254 255 255 255 
255 255 255 255 255 255 255 255 255 255 255 255 255 255 255 255 255 252 250 
252 255 254 255 143 1 1 1 1 0 186 255 252 255 255 255 255 255 255 255 255 255 
255 255 255 255 255 255 255 255 255 255 255 255 255 255 254 252 251 255 120 
0 3 4 0 133 255 250 255 255 255 255 255 255 255 255 255 255 255 255 255 255 
255 255 255 255 255 255 255 255 255 255 255 253 255 238 29 0 5 0 104 255 252 
255 255 255 255 255 255 255 255 255 255 255 255 255 255 255 255 255 255 255 
255 255 255 255 255 255 255 251 255 110 0 8 0 98 255 253 255 255 255 255 255 
255 255 255 255 255 255 255 255 255 255 255 255 255 255 255 255 255 255 255 
255 255 252 255 168 0 6 0 120 255 250 255 255 255 255 255 255 255 255 255 255 
255 255 255 255 255 255 255 255 255 255 255 255 255 255 255 255 252 255 187 
0 3 0 158 255 251 255 255 255 255 255 255 255 255 255 255 255 255 255 255 255 
255 255 255 255 255 255 255 255 255 255 255 252 255 181 0 0 8 217 255 253 255 
255 255 255 255 255 255 255 255 255 255 255 255 255 255 254 252 254 251 253 
255 255 255 255 255 255 250 255 134 0 0 83 255 254 255 255 255 255 255 255 255 
255 255 255 255 255 255 255 255 255 255 255 255 255 255 251 253 255 255 255 
252 255 242 45 0 6 198 255 253 255 255 255 255 255 255 255 255 255 255 255 255 
255 255 254 255 226 100 77 136 232 255 254 253 252 254 254 255 104 0 0 129 255 
253 255 255 255 255 255 255 255 255 255 255 255 255 255 255 255 254 255 81 0 4 
0 22 142 240 255 254 255 228 92 0 0 115 255 252 255 255 255 255 255 255 255 
255 255 255 255 255 255 255 255 254 255 255 64 0 9 7 2 0 28 90 108 79 13 0 10 
141 255 253 254 255 255 255 255 255 255 255 255 255 255 255 255 255 255 255 
255 253 255 197 18 0 1 0 0 0 0 1 0 18 104 214 255 253 254 255 255 255 255 255 
255 255 255 255 255 255 255 255 255 255 255 255 255 254 255 224 146 108 84 68 
81 104 136 181 239 255 254 252 254 255 255 255 255 255 255 255 255 255 255 255 
255 255 255 255 255 255 255 255 255 254 255 255 255 255 255 255 255 255 255 
255 252 253 255 255 255 255 255 255 255 255 255 255 255 255 255 255 255 255 
255 255 255 255 255 255 255 254 251 251 254 255 254 252 251 252 254 255 255 
255 255 255 255 255 255 255 255 255 255 255 255 255 255 255 255 255 255 255 
255 255 255 255 255 255 255 255 255 255 255 255 255 255 255 255 255 255 255 
255 255 255 255 255 255 255 255 255 255 255 255 255 255 255 255 255 255 255 
255 255 255 255 255 255 255 255 255 255 255 255 255 255 255 255 255 255 255 
255 255 255 255 255 255 255 255 255 255 255 255 255 255 255 255 255 255 255 
255 255 255 255 255 255 255 255 255 255 255 255 255 255 255 255 255 255 255 
255 255 255 255 255 255 255 255 255 255 255 255 255 255 255 255 255 255 255 
255 255 255 255 255 255 255 255 255 255 255 255 255 255 255 255 255 255 255 
255 255 255 
