P2
35 45
255
255 255 255 255 255 255 255 255 255 255 255 255 255 255 255 255 255 255 255 
255 255 255 255 255 255 255 255 255 255 255 255 255 255 255 255 255 255 255 
255 255 255 255 255 255 255 255 255 255 255 255 255 255 255 255 255 255 255 
255 255 255 255 255 255 255 255 255 255 255 255 255 255 255 255 255 255 255 
255 255 255 255 255 255 255 255 255 255 255 255 255 255 255 255 255 255 255 
255 255 255 255 255 255 255 255 255 255 255 255 255 255 255 255 255 255 255 
255 255 255 255 255 255 255 255 255 255 255 255 255 255 255 255 255 255 255 
255 255 255 255 255 255 255 255 255 255 255 255 255 255 255 255 255 255 255 
255 255 255 255 255 255 255 255 255 255 255 255 255 255 255 255 255 255 255 
255 255 255 255 255 255 255 255 255 255 255 255 255 255 255 255 255 255 254 
254 254 254 254 254 254 254 254 254 254 255 255 255 255 255 255 255 255 255 
255 255 255 255 255 255 255 255 255 255 255 255 255 255 255 255 255 255 255 
255 255 255 255 255 255 255 255 255 255 255 255 255 255 255 255 255 255 255 
255 255 255 255 255 255 255 255 255 255 255 255 248 240 241 241 241 241 241 
241 241 241 241 249 255 255 255 255 255 255 255 255 255 255 255 255 255 255 
255 255 255 255 255 255 254 255 241 44 8 15 14 14 14 14 14 15 13 17 215 255 
253 255 255 255 255 255 255 255 255 255 255 255 255 255 255 255 255 255 255 
251 255 144 0 3 0 0 0 0 0 0 3 0 78 255 254 255 255 255 255 255 255 255 255 255 
255 255 255 255 255 255 255 255 255 254 255 241 35 0 3 1 1 1 1 1 2 2 0 185 255 
252 255 255 255 255 255 255 255 255 255 255 255 255 255 255 255 255 255 255 
251 255 144 0 3 0 0 0 0 0 0 2 0 58 254 255 254 255 255 255 255 255 255 255 255 
255 255 255 255 255 255 255 255 255 254 255 243 38 0 117 196 182 185 185 185 
185 186 179 220 255 254 255 255 255 255 255 255 255 255 255 255 255 255 255 
255 255 255 255 255 251 255 160 0 36 241 255 254 255 255 255 255 255 255 255 
255 255 255 255 255 255 255 255 255 255 255 255 255 255 255 255 255 255 255 
254 255 250 50 0 155 255 247 248 252 252 252 252 252 251 253 255 255 255 255 
255 255 255 255 255 255 255 255 255 255 255 255 255 255 255 251 255 160 0 15 
189 248 254 255 255 252 254 255 255 255 255 255 255 255 255 255 255 255 255 
255 255 255 255 255 255 255 255 255 255 254 255 250 48 0 4 2 24 87 161 241 255 
253 252 255 255 255 255 255 255 255 255 255 255 255 255 255 255 255 255 255 
255 255 255 255 252 255 160 0 3 0 0 0 1 0 29 137 244 255 252 255 255 255 255 
255 255 255 255 255 255 255 255 255 255 255 255 255 255 255 254 255 245 44 0 2 
3 5 3 5 3 1 0 43 200 255 251 255 255 255 255 255 255 255 255 255 255 255 255 
255 255 255 255 255 255 252 255 179 5 11 2 0 0 0 2 3 2 4 0 8 167 255 252 255 
255 255 255 255 255 255 255 255 255 255 255 255 255 255 255 255 255 255 248 
242 226 197 163 116 45 1 0 2 1 3 1 2 171 255 252 255 255 255 255 255 255 255 
255 255 255 255 255 255 255 255 255 255 255 255 255 255 255 255 255 253 187 
66 0 2 1 2 0 18 214 255 253 255 255 255 255 255 255 255 255 255 255 255 255 
255 255 255 255 255 254 253 254 252 251 251 255 255 255 156 14 0 2 4 0 83 255 
254 254 255 255 255 255 255 255 255 255 255 255 255 255 255 255 255 255 255 
255 255 255 255 255 254 252 251 255 189 14 0 2 0 2 202 255 253 255 255 255 255 
255 255 255 255 255 255 255 255 255 255 255 255 255 255 255 255 255 255 255 
255 254 250 255 178 0 0 5 0 125 255 251 255 255 255 255 255 255 255 255 255 
255 255 255 255 255 255 255 255 255 255 255 255 255 255 255 255 255 250 255 
107 0 6 0 78 255 254 255 255 255 255 255 255 255 255 255 255 255 255 255 255 
255 255 255 255 255 255 255 255 255 255 255 255 253 255 219 13 0 0 50 252 255 
254 255 255 255 255 255 255 255 255 255 255 255 255 255 255 255 255 255 255 
255 255 255 255 255 255 255 255 253 255 81 0 0 41 249 255 254 255 255 255 255 
255 255 255 255 255 255 255 255 255 255 255 255 255 255 255 255 255 255 255 
255 255 255 251 255 127 0 0 59 255 255 254 255 255 255 255 255 255 255 255 255 
255 255 255 255 255 255 255 255 255 255 255 255 255 255 255 255 255 251 255 
153 0 0 98 255 253 255 255 255 255 255 255 255 255 255 255 255 255 255 255 255 
255 255 255 255 255 255 255 255 255 255 255 255 251 255 133 0 0 156 255 251 
255 255 255 255 255 255 255 255 255 255 255 255 255 255 255 255 254 253 254 
255 255 255 255 255 255 255 255 253 255 82 0 29 235 255 254 255 255 255 255 
255 255 255 255 255 255 255 255 255 255 255 254 255 255 255 252 254 255 255 
255 255 255 251 255 209 10 0 130 255 252 255 255 255 255 255 255 255 255 255 
255 255 255 255 254 255 254 255 241 209 230 255 254 252 253 254 253 251 255 
252 74 0 51 244 255 254 255 255 255 255 255 255 255 255 255 255 255 255 255 
255 253 255 221 39 0 15 125 247 255 254 255 254 255 243 91 0 19 208 255 253 
255 255 255 255 255 255 255 255 255 255 255 255 255 255 255 251 255 136 0 4 1 
0 47 160 227 245 222 157 41 0 28 195 255 253 255 255 255 255 255 255 255 255 
255 255 255 255 255 255 255 255 252 255 187 0 1 6 7 0 0 13 19 6 0 0 70 225 255 
252 255 255 255 255 255 255 255 255 255 255 255 255 255 255 255 255 255 255 
254 255 130 2 0 1 0 0 0 0 2 60 176 253 254 252 255 255 255 255 255 255 255 255 
255 255 255 255 255 255 255 255 255 255 255 255 254 255 205 128 95 70 78 102 
141 211 253 255 253 253 255 254 255 255 255 255 255 255 255 255 255 255 255 
255 255 255 255 255 255 255 255 255 253 255 255 255 255 255 255 255 255 254 
252 255 255 255 255 255 255 255 255 255 255 255 255 255 255 255 255 255 255 
255 255 255 255 255 255 255 253 251 253 255 254 252 251 253 255 255 255 255 
255 255 255 255 255 255 255 255 255 255 255 255 255 255 255 255 255 255 255 
255 255 255 255 255 255 255 255 255 255 255 255 255 255 255 255 255 255 255 
255 255 255 255 255 255 255 255 255 255 255 255 255 255 255 255 255 255 255 
255 255 255 255 255 255 255 255 255 255 255 255 255 255 255 255 255 255 255 
255 255 255 255 255 255 255 255 255 255 255 255 255 255 255 255 255 255 255 
255 255 255 255 255 255 255 255 255 255 255 255 255 255 255 255 255 255 255 
255 255 255 255 255 255 255 255 255 255 255 255 255 255 255 255 255 255 255 
255 255 255 255 255 255 255 255 255 255 255 255 255 255 255 255 255 255 255 
255 255 
