P2
35 45
255
255 255 255 255 255 255 255 255 255 255 255 255 255 255 255 255 255 255 255 
255 255 255 255 255 255 255 255 255 255 255 255 255 255 255 255 255 255 255 
255 255 255 255 255 255 255 255 255 255 255 255 255 255 255 255 255 255 255 
255 255 255 255 255 255 255 255 255 255 255 255 255 255 255 255 255 255 255 
255 255 255 255 255 255 255 255 255 255 255 255 255 255 255 255 255 255 255 
255 255 255 255 255 255 255 255 255 255 255 255 255 255 255 255 255 255 255 
255 255 255 255 255 255 255 255 255 255 255 255 255 255 255 255 255 255 255 
255 255 255 255 255 255 255 255 255 255 255 255 255 255 255 255 255 255 255 
255 255 255 255 255 254 255 255 255 255 255 255 255 255 255 255 255 255 255 
255 255 255 255 255 255 255 255 255 255 255 255 255 255 255 255 255 253 251 
250 252 252 250 251 254 255 255 255 255 255 255 255 255 255 255 255 255 255 
255 255 255 255 255 255 255 255 255 255 255 255 253 253 255 255 255 255 255 
255 255 255 252 253 255 255 255 255 255 255 255 255 255 255 255 255 255 255 
255 255 255 255 255 255 255 255 253 254 255 226 167 127 98 101 131 172 234 255 
254 253 255 255 255 255 255 255 255 255 255 255 255 255 255 255 255 255 255 
255 255 255 252 255 227 98 10 0 1 0 0 0 0 16 117 240 255 253 255 255 255 255 
255 255 255 255 255 255 255 255 255 255 255 255 255 255 253 255 198 26 0 3 98 
190 216 217 177 76 0 0 47 227 255 253 255 255 255 255 255 255 255 255 255 255 
255 255 255 255 255 255 253 255 217 29 0 2 164 255 253 255 255 254 255 111 0 0 
49 241 255 254 255 255 255 255 255 255 255 255 255 255 255 255 255 255 255 254 
255 83 0 0 107 255 251 251 253 253 250 255 245 38 0 0 126 255 252 255 255 255 
255 255 255 255 255 255 255 255 255 255 255 253 255 216 7 0 1 197 255 252 255 
255 255 255 251 255 111 0 0 34 247 255 254 255 255 255 255 255 255 255 255 255 
255 255 255 255 251 255 162 0 0 7 216 255 253 255 255 255 255 250 255 128 0 3 
8 219 255 253 255 255 255 255 255 255 255 255 255 255 255 255 255 250 255 136 
0 6 0 163 255 251 255 255 255 255 250 255 127 0 3 8 219 255 253 255 255 255 
255 255 255 255 255 255 255 255 255 255 251 255 149 0 6 0 68 255 253 254 255 
255 255 253 255 89 0 0 39 249 255 254 255 255 255 255 255 255 255 255 255 255 
255 255 255 252 255 193 1 1 2 0 138 255 251 254 255 253 255 227 16 1 0 130 255 
252 255 255 255 255 255 255 255 255 255 255 255 255 255 255 254 255 250 43 0 2 
1 2 151 255 252 253 252 255 96 0 0 44 240 255 254 255 255 255 255 255 255 255 
255 255 255 255 255 255 255 255 252 255 155 0 4 1 2 0 113 253 253 255 135 0 0 
27 211 255 253 255 255 255 255 255 255 255 255 255 255 255 255 255 255 255 255 
255 254 255 93 0 5 1 3 0 75 246 142 0 0 48 217 255 253 255 255 255 255 255 255 
255 255 255 255 255 255 255 255 255 255 255 255 254 255 243 66 0 4 1 3 0 25 7 
5 108 241 255 252 255 255 255 255 255 255 255 255 255 255 255 255 255 255 255 
255 255 255 255 255 253 255 242 79 0 2 0 3 3 0 114 255 250 251 255 255 255 255 
255 255 255 255 255 255 255 255 255 255 255 255 255 255 255 255 255 255 253 
253 255 106 0 4 2 2 0 6 135 255 252 254 255 255 255 255 255 255 255 255 255 
255 255 255 255 255 255 255 255 255 255 255 255 253 255 232 79 0 2 1 2 0 1 0 103 
252 254 254 255 255 255 255 255 255 255 255 255 255 255 255 255 255 255 255 
255 255 255 252 255 212 33 0 54 164 26 0 3 1 3 0 90 252 255 254 255 255 255 
255 255 255 255 255 255 255 255 255 255 255 255 255 255 253 255 208 28 0 36 223 
255 215 42 0 4 0 4 0 98 255 254 254 255 255 255 255 255 255 255 255 255 255 
255 255 255 255 255 253 255 220 31 0 0 181 255 247 255 233 63 0 4 0 4 0 159 
255 252 255 255 255 255 255 255 255 255 255 255 255 255 255 255 255 254 255 
74 0 0 77 255 253 255 252 255 241 66 0 4 2 0 35 242 255 254 255 255 255 255 
255 255 255 255 255 255 255 255 255 252 255 188 0 4 0 159 255 251 255 255 253 
255 242 63 0 3 3 0 160 255 251 255 255 255 255 255 255 255 255 255 255 255 255 
255 252 255 107 0 2 6 215 255 253 255 255 255 252 255 226 34 0 6 0 106 255 252 
255 255 255 255 255 255 255 255 255 255 255 255 254 255 255 61 0 0 14 241 255 
254 255 255 255 255 251 255 165 0 4 0 71 255 255 255 255 255 255 255 255 255 
255 255 255 255 255 254 255 253 52 0 0 14 241 255 254 255 255 255 255 254 255 
242 23 0 0 77 255 254 255 255 255 255 255 255 255 255 255 255 255 255 255 254 
255 84 0 1 7 219 255 253 255 255 255 255 254 255 250 45 0 0 111 255 252 255 
255 255 255 255 255 255 255 255 255 255 255 255 251 255 145 0 7 0 155 255 250 
255 255 255 255 254 255 246 31 0 0 175 255 252 255 255 255 255 255 255 255 255 
255 255 255 255 255 254 255 236 34 0 0 53 250 255 251 254 254 253 249 255 181 
0 0 58 254 255 254 255 255 255 255 255 255 255 255 255 255 255 255 255 255 252 
255 172 0 5 0 110 255 254 255 255 254 255 226 43 0 17 201 255 253 255 255 255 
255 255 255 255 255 255 255 255 255 255 255 255 255 253 255 142 1 1 0 72 191 
238 246 226 152 26 0 16 189 255 253 255 255 255 255 255 255 255 255 255 255 
255 255 255 255 255 255 255 255 252 255 189 53 0 1 0 1 1 0 0 3 83 218 255 252 
255 255 255 255 255 255 255 255 255 255 255 255 255 255 255 255 255 255 255 
254 252 255 251 190 131 99 68 74 100 143 213 255 254 253 255 255 255 255 255 
255 255 255 255 255 255 255 255 255 255 255 255 255 255 255 255 255 252 254 
255 255 255 255 255 255 255 255 253 253 255 255 255 255 255 255 255 255 255 
255 255 255 255 255 255 255 255 255 255 255 255 255 255 255 255 252 251 252 
255 254 252 251 253 255 255 255 255 255 255 255 255 255 255 255 255 255 255 
255 255 255 255 255 255 255 255 255 255 255 255 255 255 255 255 255 255 255 
255 255 255 255 255 255 255 255 255 255 255 255 255 255 255 255 255 255 255 
255 255 255 255 255 255 255 255 255 255 255 255 255 255 255 255 255 255 255 
255 255 255 255 255 255 255 255 255 255 255 255 255 255 255 255 255 255 255 
255 255 255 255 255 255 255 255 255 255 255 255 255 255 255 255 255 255 255 
255 255 255 255 255 255 255 255 255 255 255 255 255 255 255 255 255 255 255 
255 255 255 255 255 255 255 255 255 255 255 255 255 255 255 255 255 255 255 
255 255 255 255 255 255 255 
