P2
35 45
255
255 255 255 255 255 255 255 255 255 255 255 255 255 255 255 255 255 255 255 
255 255 255 255 255 255 255 255 255 255 255 255 255 255 255 255 255 255 255 
255 255 255 255 255 255 255 255 255 255 255 255 255 255 255 255 255 255 255 
255 255 255 255 255 255 255 255 255 255 255 255 255 255 255 255 255 255 255 
255 255 255 255 255 255 255 255 255 255 255 255 255 255 255 255 255 255 255 
255 255 255 255 255 255 255 255 255 255 255 255 255 255 255 255 255 255 255 
255 255 255 255 255 255 255 255 255 255 255 255 255 255 255 255 255 255 255 
255 255 255 255 255 255 255 255 255 255 255 255 255 255 255 255 255 255 255 
255 255 255 255 255 255 255 255 255 255 255 255 255 255 255 255 255 255 255 
255 255 255 255 255 255 255 255 255 255 255 255 255 255 255 255 255 254 251 
250 252 251 251 253 255 255 255 255 255 255 255 255 255 255 255 255 255 255 
255 255 255 255 255 255 255 255 255 255 255 255 254 252 255 255 255 255 255 
255 255 253 253 255 255 255 255 255 255 255 255 255 255 255 255 255 255 255 
255 255 255 255 255 255 255 255 253 254 255 230 169 125 97 115 148 210 255 254 
252 255 255 255 255 255 255 255 255 255 255 255 255 255 255 255 255 255 255 
255 255 255 253 255 235 113 15 0 1 0 0 0 4 82 217 255 252 255 255 255 255 255 
255 255 255 255 255 255 255 255 255 255 255 255 255 255 252 255 212 36 0 3 98 
181 191 141 27 0 0 14 174 255 252 254 254 255 255 255 255 255 255 255 255 255 
255 255 255 255 255 255 253 255 221 31 0 5 165 255 253 254 255 227 44 0 2 4 185 
255 252 255 255 255 255 255 255 255 255 255 255 255 255 255 255 255 254 255 
255 64 0 0 121 255 250 251 252 249 255 205 9 1 0 26 220 255 253 255 255 255 
255 255 255 255 255 255 255 255 255 255 255 252 255 151 0 0 17 229 255 254 255 
255 255 251 255 110 0 8 0 89 255 253 255 255 255 255 255 255 255 255 255 255 
255 255 255 254 255 247 40 0 0 72 255 253 255 255 255 255 253 255 205 3 0 1 1 
198 255 252 255 255 255 255 255 255 255 255 255 255 255 255 252 255 181 0 5 0 
114 255 251 255 255 255 255 254 255 250 47 0 7 0 104 255 252 255 255 255 255 
255 255 255 255 255 255 255 255 251 255 118 0 9 0 128 255 250 255 255 255 255 
255 252 255 107 0 6 0 34 247 255 254 255 255 255 255 255 255 255 255 255 255 
255 254 255 79 0 8 0 128 255 250 255 255 255 255 255 251 255 149 0 4 0 2 204 
255 253 255 255 255 255 255 255 255 255 255 255 254 255 255 58 0 7 0 120 255 
251 255 255 255 255 255 252 255 184 0 1 2 0 168 255 252 255 255 255 255 255 
255 255 255 255 255 254 255 252 49 0 6 0 93 255 253 255 255 255 255 255 252 
255 185 0 1 4 0 140 255 251 255 255 255 255 255 255 255 255 255 255 255 255 
255 71 0 5 0 48 251 255 254 255 255 255 255 252 255 185 0 1 5 0 128 255 250 
255 255 255 255 255 255 255 255 255 255 255 252 255 102 0 5 0 6 216 255 253 
255 255 255 255 252 255 180 0 1 5 0 128 255 250 255 255 255 255 255 255 255 
255 255 255 255 251 255 152 0 3 3 0 127 255 250 255 255 255 255 251 255 155 
0 3 4 0 146 255 251 255 255 255 255 255 255 255 255 255 255 255 254 255 232 
25 0 3 0 21 222 255 250 253 253 251 249 255 132 0 5 2 0 170 255 252 255 255 
255 255 255 255 255 255 255 255 255 255 252 255 133 0 6 3 0 63 241 255 254 255 
254 255 197 37 0 2 0 5 212 255 253 255 255 255 255 255 255 255 255 255 255 255 
255 254 255 252 73 0 4 5 0 49 174 216 207 162 73 0 0 1 1 0 28 245 255 254 255 
255 255 255 255 255 255 255 255 255 255 255 255 254 255 242 81 0 1 1 0 0 2 0 0 
8 68 7 0 4 0 97 255 253 255 255 255 255 255 255 255 255 255 255 255 255 255 
255 255 254 254 253 164 55 6 1 0 5 39 114 232 161 0 3 2 0 174 255 252 255 255 
255 255 255 255 255 255 255 255 255 255 255 255 255 255 254 253 255 252 224 
190 190 225 251 255 255 63 0 4 0 43 248 255 254 255 255 255 255 255 255 255 
255 255 255 255 255 255 255 255 255 255 254 252 254 255 255 255 255 253 255 
192 0 0 3 0 152 255 252 255 255 255 255 255 255 255 255 255 255 255 255 255 
255 255 255 255 255 255 255 255 254 252 252 253 252 255 80 0 6 0 51 251 255 
254 255 255 255 255 255 255 255 255 255 255 255 255 255 255 255 255 255 255 
255 255 255 255 255 255 252 255 181 0 2 2 2 192 255 252 255 255 255 255 255 
255 255 255 255 255 255 255 255 255 255 255 255 255 255 255 255 255 255 255 
254 255 238 42 0 6 0 129 255 252 255 255 255 255 255 255 255 255 255 255 255 
255 255 255 255 255 255 255 255 255 255 255 255 255 254 252 255 99 0 7 0 92 255 
253 255 255 255 255 255 255 255 255 255 255 255 255 255 255 255 255 255 255 
255 255 255 255 255 255 253 251 255 137 0 7 0 90 252 255 254 255 255 255 255 
255 255 255 255 255 255 255 255 255 255 255 255 255 255 255 255 255 255 254 
251 252 255 144 0 3 0 97 251 254 253 255 255 255 255 255 255 255 255 255 255 
255 255 255 255 255 255 255 255 255 254 251 250 253 255 255 250 122 0 0 9 143 
255 252 254 255 255 255 255 255 255 255 255 255 255 255 255 255 255 255 255 
255 255 255 255 255 255 255 255 248 172 47 0 0 61 211 255 252 254 255 255 255 
255 255 255 255 255 255 255 255 255 255 255 255 255 255 255 255 254 255 223 
143 127 77 16 0 4 69 173 252 255 252 254 255 255 255 255 255 255 255 255 255 
255 255 255 255 255 255 255 255 255 255 255 253 255 204 57 53 73 108 161 219 
255 255 253 253 255 255 255 255 255 255 255 255 255 255 255 255 255 255 255 
255 255 255 255 255 255 255 255 255 255 255 255 255 255 255 255 254 252 255 
255 255 255 255 255 255 255 255 255 255 255 255 255 255 255 255 255 255 255 
255 255 255 255 255 255 255 255 255 253 251 251 253 255 255 255 255 255 255 
255 255 255 255 255 255 255 255 255 255 255 255 255 255 255 255 255 255 255 
255 255 255 255 255 255 255 255 255 255 255 255 255 255 255 255 255 255 255 
255 255 255 255 255 255 255 255 255 255 255 255 255 255 255 255 255 255 255 
255 255 255 255 255 255 255 255 255 255 255 255 255 255 255 255 255 255 255 
255 255 255 255 255 255 255 255 255 255 255 255 255 255 255 255 255 255 255 
255 255 255 255 255 255 255 255 255 255 255 255 255 255 255 255 255 255 255 
255 255 255 255 255 255 255 255 255 255 255 255 255 255 255 255 255 255 255 
255 255 255 255 255 255 255 255 255 255 255 255 255 255 255 255 255 255 255 
255 255 255 
