P2
#Created with ANN
10 12
255
255 255 255 255 255 255 255 255 255 255 255 255 255 0 0 0 0 0 0 255
255 255 0 0 0 27 1 0 0 255 255 0 0 255 255 255 255 168 0 255
255 0 0 255 255 255 255 0 0 255 255 255 255 255 255 255 255 0 0 255
255 255 255 255 255 255 0 0 255 255 255 255 255 255 255 0 0 0 255 255
255 255 255 255 0 0 0 255 255 255 255 255 0 0 0 255 255 255 255 255
255 255 0 0 0 0 0 0 0 0 255 255 0 25 0 0 0 0 0 0
