P2
#Created with ANN
10 12
255
255 255 255 255 255 255 255 255 255 255 255 255 255 255 255 0 0 0 255 255
255 255 255 255 0 0 0 1 255 255 255 255 255 0 0 255 255 255 255 255
255 255 255 0 0 255 255 255 255 255 255 255 4 0 3 0 255 255 255 255
255 255 0 0 0 0 0 0 255 255 255 255 0 0 255 255 0 0 0 255
255 255 0 0 255 255 255 0 0 255 255 255 0 0 255 255 255 255 0 255
255 255 0 0 0 0 0 0 0 255 255 255 255 249 0 0 0 0 0 255
