P2
35 45
255
255 255 255 255 255 255 255 255 255 255 255 255 255 255 255 255 255 255 255 
255 255 255 255 255 255 255 255 255 255 255 255 255 255 255 255 255 255 255 
255 255 255 255 255 255 255 255 255 255 255 255 255 255 255 255 255 255 255 
255 255 255 255 255 255 255 255 255 255 255 255 255 255 255 255 255 255 255 
255 255 255 255 255 255 255 255 255 255 255 255 255 255 255 255 255 255 255 
255 255 255 255 255 255 255 255 255 255 255 255 255 255 255 255 255 255 255 
255 255 255 255 253 251 252 254 254 251 251 254 255 255 255 255 255 255 255 
255 255 255 255 255 255 255 255 255 255 255 255 255 255 255 255 255 255 253 
253 255 255 255 255 255 255 255 255 253 253 255 255 255 255 255 255 255 255 
255 255 255 255 255 255 255 255 255 255 255 255 255 255 253 254 255 214 139 
103 77 80 107 146 222 255 253 253 255 255 255 255 255 255 255 255 255 255 255 
255 255 255 255 255 255 255 255 255 252 255 224 86 3 0 0 0 0 1 0 8 105 236 255 
253 255 255 255 255 255 255 255 255 255 255 255 255 255 255 255 255 255 255 
252 255 193 25 0 2 7 2 0 0 3 6 2 0 42 215 255 253 255 255 255 255 255 255 255 
255 255 255 255 255 255 255 255 255 253 255 212 21 0 5 2 0 9 42 39 6 0 3 5 0 42 
231 255 254 255 255 255 255 255 255 255 255 255 255 255 255 255 255 254 255 
254 64 0 5 1 0 105 225 251 251 214 84 0 2 5 0 91 255 253 255 255 255 255 255 
255 255 255 255 255 255 255 255 255 251 255 159 0 4 2 0 134 255 253 255 255 
254 255 103 0 3 2 0 184 255 252 255 255 255 255 255 255 255 255 255 255 255 
255 254 255 250 47 0 5 0 67 255 252 252 254 254 252 255 243 45 0 5 0 74 255 
254 255 255 255 255 255 255 255 255 255 255 255 255 252 255 174 0 2 1 0 181 
255 251 255 255 255 255 251 255 154 0 3 0 4 205 255 253 255 255 255 255 255 
255 255 255 255 255 254 253 255 96 0 5 0 39 248 255 254 255 255 255 255 254 
255 234 18 0 5 0 123 255 251 255 255 255 255 255 255 255 255 255 255 254 255 
241 24 0 5 0 104 255 252 255 255 255 255 255 255 255 255 70 0 5 0 52 253 255 
254 255 255 255 255 255 255 255 255 255 253 255 196 1 0 4 0 145 255 251 255 
255 255 255 255 255 251 255 118 0 5 0 10 227 255 254 255 255 255 255 255 255 
255 255 255 251 255 145 0 4 1 0 183 255 252 255 255 255 255 255 255 251 255 
152 0 3 1 0 178 255 252 255 255 255 255 255 255 255 255 255 251 255 116 0 5 0 
4 211 255 253 255 255 255 255 255 255 252 255 177 0 1 4 0 142 255 251 255 255 
255 255 255 255 255 255 255 254 255 83 0 4 0 10 230 255 254 255 255 255 255 
255 255 253 255 199 1 0 5 0 116 255 251 255 255 255 255 255 255 255 255 255 
255 255 70 0 4 0 14 241 255 254 255 255 255 255 255 255 253 255 215 6 0 5 0 100 
255 252 255 255 255 255 255 255 255 255 254 255 254 54 0 3 0 14 241 255 254 
255 255 255 255 255 255 253 255 212 5 0 5 0 86 255 253 255 255 255 255 255 255 
255 255 254 255 249 40 0 3 0 14 241 255 254 255 255 255 255 255 255 253 255 
213 5 0 3 0 67 255 255 254 255 255 255 255 255 255 255 254 255 252 48 0 3 0 14 
241 255 254 255 255 255 255 255 255 253 255 212 5 0 4 0 82 255 254 255 255 255 
255 255 255 255 255 255 255 255 69 0 4 0 14 241 255 254 255 255 255 255 255 
255 253 255 214 5 0 4 0 99 255 252 255 255 255 255 255 255 255 255 255 254 255 
78 0 4 0 12 236 255 254 255 255 255 255 255 255 253 255 205 3 0 5 0 110 255 
252 255 255 255 255 255 255 255 255 255 252 255 107 0 5 0 5 214 255 253 255 
255 255 255 255 255 252 255 183 0 1 5 0 134 255 250 255 255 255 255 255 255 
255 255 255 251 255 141 0 4 0 0 191 255 252 255 255 255 255 255 255 251 255 
161 0 3 2 0 169 255 252 255 255 255 255 255 255 255 255 255 252 255 186 0 1 3 
0 155 255 251 255 255 255 255 255 255 250 255 129 0 5 0 6 215 255 253 255 255 
255 255 255 255 255 255 255 254 255 233 17 0 5 0 115 255 251 255 255 255 255 
255 255 253 255 86 0 5 0 40 249 255 254 255 255 255 255 255 255 255 255 255 
255 254 255 76 0 5 0 51 252 255 255 255 255 255 255 254 255 243 27 0 5 0 104 
255 252 255 255 255 255 255 255 255 255 255 255 255 251 255 157 0 4 0 2 204 
255 253 255 255 255 255 252 255 177 0 1 1 0 184 255 252 255 255 255 255 255 
255 255 255 255 255 255 254 255 239 27 0 5 0 95 255 250 254 255 255 254 252 
255 71 0 5 0 54 253 255 254 255 255 255 255 255 255 255 255 255 255 255 255 
252 255 129 0 4 1 0 178 255 252 252 252 253 255 148 0 2 3 0 160 255 252 255 
255 255 255 255 255 255 255 255 255 255 255 255 254 255 241 39 0 4 0 15 166 
255 254 255 250 143 6 0 4 0 64 255 255 254 255 255 255 255 255 255 255 255 255 
255 255 255 255 255 252 255 184 3 1 4 2 0 50 102 97 41 0 2 5 0 17 208 255 252 
255 255 255 255 255 255 255 255 255 255 255 255 255 255 255 255 253 255 166 
4 0 5 6 0 0 0 0 6 4 0 14 189 255 253 255 255 255 255 255 255 255 255 255 255 
255 255 255 255 255 255 255 255 252 255 188 40 0 1 0 0 0 0 1 0 55 205 255 252 
255 255 255 255 255 255 255 255 255 255 255 255 255 255 255 255 255 255 255 
255 252 255 243 164 86 45 20 23 50 93 175 248 255 252 255 255 255 255 255 255 
255 255 255 255 255 255 255 255 255 255 255 255 255 255 255 255 252 254 255 
255 251 243 244 253 255 255 254 252 255 255 255 255 255 255 255 255 255 255 
255 255 255 255 255 255 255 255 255 255 255 255 255 255 254 251 253 255 255 
255 255 252 252 255 255 255 255 255 255 255 255 255 255 255 255 255 255 255 
255 255 255 255 255 255 255 255 255 255 255 255 255 255 254 254 254 254 255 
255 255 255 255 255 255 255 255 255 255 255 255 255 255 255 255 255 255 255 
255 255 255 255 255 255 255 255 255 255 255 255 255 255 255 255 255 255 255 
255 255 255 255 255 255 255 255 255 255 255 255 255 255 255 255 255 255 255 
255 255 255 255 255 255 255 255 255 255 255 255 255 255 255 255 255 255 255 
255 255 255 255 255 255 255 255 255 255 255 255 255 255 255 255 255 255 255 
255 255 255 255 255 255 255 255 255 255 255 255 255 255 255 255 255 255 255 
255 255 255 255 255 255 255 255 255 255 255 255 255 255 255 255 255 255 255 
255 255 255 255 255 255 255 255 255 255 255 255 255 255 255 255 255 255 255 
255 255 255 
