P2
35 45
255
255 255 255 255 255 255 255 255 255 255 255 255 255 255 255 255 255 255 255 
255 255 255 255 255 255 255 255 255 255 255 255 255 255 255 255 255 255 255 
255 255 255 255 255 255 255 255 255 255 255 255 255 255 255 255 255 255 255 
255 255 255 255 255 255 255 255 255 255 255 255 255 255 255 255 255 255 255 
255 255 255 255 255 255 255 255 255 255 255 255 255 255 255 255 255 255 255 
255 255 255 255 255 255 255 255 255 255 255 255 255 255 255 255 255 255 255 
255 255 255 255 255 255 255 255 255 255 254 254 254 254 254 255 255 255 255 
255 255 255 255 255 255 255 255 255 255 255 255 255 255 255 255 255 255 255 
255 255 255 255 255 255 254 255 255 255 255 255 255 255 255 255 255 255 255 
255 255 255 255 255 255 255 255 255 255 255 255 255 255 255 255 255 255 255 
255 255 254 254 243 241 241 241 251 255 255 255 255 255 255 255 255 255 255 
255 255 255 255 255 255 255 255 255 255 255 255 255 255 255 255 255 252 255 
193 15 14 17 3 164 255 251 255 255 255 255 255 255 255 255 255 255 255 255 255 
255 255 255 255 255 255 255 255 255 255 255 254 255 244 49 0 2 3 0 154 255 251 
255 255 255 255 255 255 255 255 255 255 255 255 255 255 255 255 255 255 255 
255 255 255 255 255 252 255 117 0 4 1 4 0 157 255 251 255 255 255 255 255 255 
255 255 255 255 255 255 255 255 255 255 255 255 255 255 255 255 255 251 255 
186 0 2 1 0 3 0 156 255 251 255 255 255 255 255 255 255 255 255 255 255 255 
255 255 255 255 255 255 255 255 255 255 254 255 238 41 0 3 0 0 3 0 156 255 251 
255 255 255 255 255 255 255 255 255 255 255 255 255 255 255 255 255 255 255 
255 255 255 252 255 109 0 4 1 0 0 3 0 156 255 251 255 255 255 255 255 255 255 
255 255 255 255 255 255 255 255 255 255 255 255 255 255 252 255 184 0 2 0 17 
5 0 3 0 156 255 251 255 255 255 255 255 255 255 255 255 255 255 255 255 255 
255 255 255 255 255 255 254 255 233 37 0 3 0 143 26 0 3 0 156 255 251 255 255 
255 255 255 255 255 255 255 255 255 255 255 255 255 255 255 255 255 255 253 
255 98 0 6 0 91 248 13 0 4 0 156 255 251 255 255 255 255 255 255 255 255 255 
255 255 255 255 255 255 255 255 255 255 252 255 175 0 4 0 28 231 246 12 0 4 0 
156 255 251 255 255 255 255 255 255 255 255 255 255 255 255 255 255 255 255 
255 255 254 255 228 35 0 4 0 166 255 238 14 0 4 0 156 255 251 255 255 255 255 
255 255 255 255 255 255 255 255 255 255 255 255 255 255 253 255 88 0 7 0 92 255 
255 241 14 0 4 0 156 255 251 255 255 255 255 255 255 255 255 255 255 255 255 
255 255 255 255 255 251 255 167 0 5 0 36 233 255 255 241 14 0 4 0 156 255 251 
255 255 255 255 255 255 255 255 255 255 255 255 255 255 255 255 253 255 226 
28 0 4 0 176 255 251 255 241 14 0 4 0 156 255 251 255 255 255 255 255 255 255 
255 255 255 255 255 255 255 255 255 252 255 85 0 7 0 98 255 253 254 255 241 
14 0 4 0 156 255 251 255 255 255 255 255 255 255 255 255 255 255 255 255 255 
255 251 255 157 0 5 0 40 234 255 254 254 255 241 14 0 4 0 156 255 251 255 255 
255 255 255 255 255 255 255 255 255 255 255 255 253 255 219 22 0 4 0 184 255 
251 255 254 255 241 14 0 4 0 156 255 251 255 255 255 255 255 255 255 255 255 
255 255 255 255 255 254 255 80 0 6 0 107 255 249 252 252 251 255 238 14 0 4 0 
154 255 248 252 253 255 255 255 255 255 255 255 255 255 255 255 252 255 148 
0 5 0 50 245 255 254 255 255 254 255 241 14 0 3 0 157 255 251 255 255 255 255 
255 255 255 255 255 255 255 255 254 255 251 47 0 3 0 59 108 96 99 99 99 98 100 
94 5 0 2 0 61 106 100 87 180 255 252 255 255 255 255 255 255 255 255 254 255 
250 44 0 3 1 0 0 0 0 0 0 0 0 0 0 0 0 0 0 0 5 0 128 255 250 255 255 255 255 255 
255 255 255 254 255 250 41 0 2 0 0 0 0 0 0 0 0 0 0 0 0 0 0 0 0 5 0 128 255 250 
255 255 255 255 255 255 255 255 254 255 251 57 6 16 14 14 14 14 14 14 14 14 14 
13 1 0 1 0 8 15 18 0 138 255 251 255 255 255 255 255 255 255 255 255 255 255 
244 240 241 241 241 241 241 241 241 241 240 245 228 13 0 3 0 148 255 238 240 
249 255 255 255 255 255 255 255 255 255 255 255 255 255 255 255 255 255 255 
255 255 255 255 255 254 255 241 14 0 4 0 157 255 251 255 255 255 255 255 255 
255 255 255 255 255 255 255 255 255 254 254 254 254 254 254 254 254 254 254 
253 255 240 14 0 4 0 156 255 250 254 254 255 255 255 255 255 255 255 255 255 
255 255 255 255 255 255 255 255 255 255 255 255 255 255 254 255 241 14 0 4 0 156 
255 251 255 255 255 255 255 255 255 255 255 255 255 255 255 255 255 255 255 
255 255 255 255 255 255 255 255 254 255 241 14 0 4 0 156 255 251 255 255 255 
255 255 255 255 255 255 255 255 255 255 255 255 255 255 255 255 255 255 255 
255 255 255 254 255 241 14 0 4 0 156 255 251 255 255 255 255 255 255 255 255 
255 255 255 255 255 255 255 255 255 255 255 255 255 255 255 255 255 254 255 
241 14 0 4 0 156 255 251 255 255 255 255 255 255 255 255 255 255 255 255 255 
255 255 255 255 255 255 255 255 255 255 255 255 254 255 241 14 0 4 0 156 255 
251 255 255 255 255 255 255 255 255 255 255 255 255 255 255 255 255 255 255 
255 255 255 255 255 255 255 255 255 252 191 183 186 182 231 255 254 255 255 
255 255 255 255 255 255 255 255 255 255 255 255 255 255 255 255 255 255 255 
255 255 255 255 255 255 255 255 255 255 255 255 255 255 255 255 255 255 255 
255 255 255 255 255 255 255 255 255 255 255 255 255 255 255 255 255 255 255 
255 255 255 255 252 252 252 252 254 255 255 255 255 255 255 255 255 255 255 
255 255 255 255 255 255 255 255 255 255 255 255 255 255 255 255 255 255 255 
255 255 255 255 255 255 255 255 255 255 255 255 255 255 255 255 255 255 255 
255 255 255 255 255 255 255 255 255 255 255 255 255 255 255 255 255 255 255 
255 255 255 255 255 255 255 255 255 255 255 255 255 255 255 255 255 255 255 
255 255 255 255 255 255 255 255 255 255 255 255 255 255 255 255 255 255 255 
255 255 255 255 255 255 255 255 255 255 255 255 255 255 255 255 255 255 255 
255 255 255 255 255 255 255 255 255 255 255 255 255 255 255 255 255 255 255 
255 255 255 255 255 255 255 255 255 255 255 255 255 255 255 255 255 255 255 
255 255 255 255 255 255 255 255 255 255 255 255 255 255 255 255 255 255 255 
255 255 255 255 255 
