P2
35 45
255
255 255 255 255 255 255 255 255 255 255 255 255 255 255 255 255 255 255 255 
255 255 255 255 255 255 255 255 255 255 255 255 255 255 255 255 255 255 255 
255 255 255 255 255 255 255 255 255 255 255 255 255 255 255 255 255 255 255 
255 255 255 255 255 255 255 255 255 255 255 255 255 255 255 255 255 255 255 
255 255 255 255 255 255 255 255 255 255 255 255 255 255 255 255 255 255 255 
255 255 255 255 255 255 255 255 255 255 255 255 255 255 255 255 255 255 255 
255 255 255 255 255 255 254 251 251 253 255 253 251 250 253 254 254 255 255 
255 255 255 255 255 255 255 255 255 255 255 255 255 255 255 255 255 255 255 
255 254 252 255 255 255 255 255 255 255 255 255 255 253 254 255 255 255 255 
255 255 255 255 255 255 255 255 255 255 255 255 255 255 255 255 253 254 255 
241 173 116 93 72 89 114 146 198 242 255 255 255 255 255 255 255 255 255 255 
255 255 255 255 255 255 255 255 255 255 255 252 255 242 130 26 0 1 0 0 0 0 0 2 
21 92 236 255 254 255 255 255 255 255 255 255 255 255 255 255 255 255 255 255 
255 252 255 200 37 0 1 5 5 0 0 0 1 3 4 0 4 211 255 253 255 255 255 255 255 255 
255 255 255 255 255 255 255 255 255 252 255 189 14 0 5 3 0 0 25 44 43 25 1 1 0 
9 214 255 253 255 255 255 255 255 255 255 255 255 255 255 255 255 255 252 255 
202 15 0 4 1 0 92 192 245 250 250 245 199 126 39 3 213 255 253 255 255 255 255 
255 255 255 255 255 255 255 255 255 254 255 244 49 0 4 0 4 161 255 253 255 255 
255 255 255 255 249 184 239 255 254 255 255 255 255 255 255 255 255 255 255 
255 255 255 252 255 129 0 4 2 0 147 255 250 252 254 254 254 254 252 252 255 
255 255 255 255 255 255 255 255 255 255 255 255 255 255 255 255 254 255 231 
24 0 4 0 71 255 252 254 255 255 255 255 255 255 255 254 252 254 255 255 255 
255 255 255 255 255 255 255 255 255 255 255 251 255 140 0 4 1 0 181 255 252 
255 255 255 255 255 255 255 255 255 255 255 255 255 255 255 255 255 255 255 
255 255 255 255 255 254 255 254 56 0 4 0 46 250 255 254 255 254 254 254 254 
255 255 255 255 255 255 255 255 255 255 255 255 255 255 255 255 255 255 255 
253 255 221 9 0 5 0 121 255 251 252 252 255 255 255 255 251 253 255 255 255 
255 255 255 255 255 255 255 255 255 255 255 255 255 255 252 255 169 0 2 2 0 174 
255 250 255 255 251 242 246 254 255 255 252 254 255 255 255 255 255 255 255 
255 255 255 255 255 255 255 255 250 255 126 0 5 0 7 215 255 250 176 92 45 17 
30 64 126 224 255 252 254 255 255 255 255 255 255 255 255 255 255 255 255 255 
255 252 255 98 0 5 0 17 248 208 55 0 1 0 0 0 1 0 11 132 251 254 254 255 255 
255 255 255 255 255 255 255 255 255 255 255 254 255 73 0 5 0 53 186 15 0 1 0 0 
0 0 4 5 2 0 90 252 255 255 255 255 255 255 255 255 255 255 255 255 255 254 255 
255 66 0 3 0 21 25 0 0 5 63 101 96 39 0 2 2 5 0 101 255 254 255 255 255 255 
255 255 255 255 255 255 255 254 255 250 44 0 2 1 0 3 0 68 213 255 254 255 253 
162 15 0 2 3 0 175 255 252 255 255 255 255 255 255 255 255 255 255 254 255 249 
40 0 2 0 3 0 89 253 255 254 252 253 253 255 185 3 0 4 0 55 254 255 254 255 255 
255 255 255 255 255 255 255 254 255 254 54 0 2 1 0 23 230 255 251 255 255 255 
254 250 255 110 0 4 0 0 193 255 252 255 255 255 255 255 255 255 255 255 255 
254 255 71 0 3 4 0 100 255 251 255 255 255 255 255 253 255 208 4 0 4 0 136 255 
251 255 255 255 255 255 255 255 255 255 255 254 255 81 0 3 3 0 145 255 251 255 
255 255 255 255 254 255 250 47 0 6 0 100 255 252 255 255 255 255 255 255 255 
255 255 255 251 255 108 0 4 2 0 156 255 251 255 255 255 255 255 254 253 255 
90 0 6 0 74 255 254 255 255 255 255 255 255 255 255 255 255 251 255 141 0 4 3 
0 157 255 251 255 255 255 255 255 255 252 255 100 0 7 0 81 255 254 255 255 255 
255 255 255 255 255 255 255 252 255 185 0 1 4 0 142 255 251 255 255 255 255 
255 255 252 255 99 0 8 0 105 255 252 255 255 255 255 255 255 255 255 255 255 
253 255 233 17 0 5 0 101 255 252 255 255 255 255 255 255 255 255 68 0 7 0 136 
255 251 255 255 255 255 255 255 255 255 255 255 255 254 255 76 0 5 0 31 244 
255 254 255 255 255 255 254 255 233 17 0 1 1 193 255 252 255 255 255 255 255 
255 255 255 255 255 255 251 255 160 0 3 2 0 153 255 249 254 255 255 254 249 
255 142 0 4 0 41 249 255 254 255 255 255 255 255 255 255 255 255 255 255 254 
255 243 36 0 3 0 19 208 255 253 253 252 252 255 222 26 0 5 0 143 255 252 255 
255 255 255 255 255 255 255 255 255 255 255 255 252 255 156 0 5 2 0 26 178 254 
255 254 255 213 44 0 5 0 43 244 255 254 255 255 255 255 255 255 255 255 255 
255 255 255 255 255 254 255 80 0 5 2 1 0 46 97 102 74 9 0 4 1 3 189 255 252 
255 255 255 255 255 255 255 255 255 255 255 255 255 255 255 254 255 241 67 0 2 
6 4 0 0 0 0 3 4 0 5 166 255 253 255 255 255 255 255 255 255 255 255 255 255 
255 255 255 255 255 255 253 255 245 111 5 0 1 0 0 0 0 1 0 52 198 255 252 255 
255 255 255 255 255 255 255 255 255 255 255 255 255 255 255 255 255 255 254 
253 255 215 126 70 41 14 26 55 96 176 252 255 252 255 255 255 255 255 255 255 
255 255 255 255 255 255 255 255 255 255 255 255 255 255 254 252 255 255 255 
250 241 245 253 255 255 254 253 255 255 255 255 255 255 255 255 255 255 255 
255 255 255 255 255 255 255 255 255 255 255 255 255 253 251 254 255 255 255 
255 252 251 254 255 255 255 255 255 255 255 255 255 255 255 255 255 255 255 
255 255 255 255 255 255 255 255 255 255 255 255 254 254 254 254 254 255 255 
255 255 255 255 255 255 255 255 255 255 255 255 255 255 255 255 255 255 255 
255 255 255 255 255 255 255 255 255 255 255 255 255 255 255 255 255 255 255 
255 255 255 255 255 255 255 255 255 255 255 255 255 255 255 255 255 255 255 
255 255 255 255 255 255 255 255 255 255 255 255 255 255 255 255 255 255 255 
255 255 255 255 255 255 255 255 255 255 255 255 255 255 255 255 255 255 255 
255 255 255 255 255 255 255 255 255 255 255 255 255 255 255 255 255 255 255 
255 255 255 255 255 255 255 255 255 255 255 255 255 255 255 255 255 255 255 
255 255 255 255 255 255 255 255 255 255 255 255 255 255 255 255 255 255 255 
255 
