P2
35 45
255
255 255 255 255 255 255 255 255 255 255 255 255 255 255 255 255 255 255 255 
255 255 255 255 255 255 255 255 255 255 255 255 255 255 255 255 255 255 255 
255 255 255 255 255 255 255 255 255 255 255 255 255 255 255 255 255 255 255 
255 255 255 255 255 255 255 255 255 255 255 255 255 255 255 255 255 255 255 
255 255 255 255 255 255 255 255 255 255 255 255 255 255 255 255 255 255 255 
255 255 255 255 255 255 255 255 255 255 255 255 255 255 255 255 255 255 255 
255 255 255 255 254 251 250 252 255 254 252 251 251 254 255 255 255 255 255 
255 255 255 255 255 255 255 255 255 255 255 255 255 255 255 255 255 255 254 
252 255 255 255 255 255 255 255 255 255 255 252 254 255 255 255 255 255 255 
255 255 255 255 255 255 255 255 255 255 255 255 255 255 253 253 255 234 170 
119 97 71 75 98 126 177 241 255 253 254 255 255 255 255 255 255 255 255 255 
255 255 255 255 255 255 255 255 255 253 255 245 122 17 0 1 0 0 0 0 1 0 29 156 
255 253 254 255 255 255 255 255 255 255 255 255 255 255 255 255 255 255 255 
253 255 229 55 0 1 5 3 0 0 0 3 8 2 1 0 115 255 254 255 255 255 255 255 255 255 
255 255 255 255 255 255 255 255 254 255 254 70 0 6 3 0 4 34 45 35 5 0 2 2 4 0 
170 255 252 255 255 255 255 255 255 255 255 255 255 255 255 255 255 252 255 
149 0 5 1 0 85 210 249 249 249 211 78 0 1 3 0 51 252 255 254 255 255 255 255 
255 255 255 255 255 255 255 255 254 255 250 44 0 5 0 86 255 254 255 255 254 
255 252 69 0 3 0 5 209 255 253 255 255 255 255 255 255 255 255 255 255 255 255 
253 255 209 5 0 0 2 204 255 250 254 254 254 250 255 191 0 0 2 0 167 255 252 
255 255 255 255 255 255 255 255 255 255 255 255 252 255 167 0 3 0 14 239 255 
254 255 255 255 254 255 240 14 0 3 0 164 255 251 255 255 255 255 255 255 255 
255 255 255 255 255 251 255 158 0 3 0 10 228 255 254 255 255 255 254 255 236 
13 0 1 1 197 255 253 255 255 255 255 255 255 255 255 255 255 255 255 252 255 
192 0 0 3 0 140 255 249 255 255 255 251 255 167 0 3 0 31 243 255 254 255 255 
255 255 255 255 255 255 255 255 255 255 254 255 237 22 0 2 0 16 208 255 250 
253 253 255 249 53 0 6 0 130 255 252 255 255 255 255 255 255 255 255 255 255 
255 255 255 255 252 255 112 0 5 2 0 25 187 255 253 253 255 107 0 6 0 45 240 
255 254 255 255 255 255 255 255 255 255 255 255 255 255 255 255 254 255 228 
31 0 3 1 1 4 115 241 252 105 0 6 0 17 208 255 253 255 255 255 255 255 255 255 
255 255 255 255 255 255 255 255 255 252 255 192 14 0 1 2 3 0 39 54 0 4 0 26 199 
255 252 255 255 255 255 255 255 255 255 255 255 255 255 255 255 255 255 255 
255 252 255 195 28 0 1 2 3 0 0 4 0 89 234 255 252 255 255 255 255 255 255 255 
255 255 255 255 255 255 255 255 255 255 255 255 253 255 249 75 0 4 3 2 2 3 1 0 
113 248 255 252 254 255 255 255 255 255 255 255 255 255 255 255 255 255 255 
255 255 255 252 255 214 41 0 4 0 0 0 3 2 0 1 0 35 198 255 252 255 255 255 255 
255 255 255 255 255 255 255 255 255 255 255 255 253 255 218 29 0 6 0 48 161 
53 0 2 3 0 3 0 6 162 255 252 255 255 255 255 255 255 255 255 255 255 255 255 
255 255 254 255 246 55 0 7 0 44 227 255 247 146 20 0 3 1 3 2 0 159 255 253 255 
255 255 255 255 255 255 255 255 255 255 255 255 252 255 129 0 5 0 31 224 255 
249 253 255 231 83 0 2 1 2 0 13 211 255 253 255 255 255 255 255 255 255 255 
255 255 255 254 255 231 22 0 3 0 164 255 250 255 254 251 254 255 130 0 2 0 4 0 
97 255 253 255 255 255 255 255 255 255 255 255 255 255 251 255 152 0 5 0 27 243 
255 254 255 255 255 252 251 255 126 0 2 1 0 17 235 255 254 255 255 255 255 255 
255 255 255 255 255 253 255 92 0 7 0 85 255 253 255 255 255 255 255 254 254 
251 57 0 3 0 0 192 255 252 255 255 255 255 255 255 255 255 255 254 255 254 58 
0 6 0 101 255 252 255 255 255 255 255 255 251 255 150 0 3 2 0 161 255 251 255 
255 255 255 255 255 255 255 255 254 255 250 43 0 6 0 96 255 253 255 255 255 
255 255 255 252 255 186 0 0 2 0 167 255 252 255 255 255 255 255 255 255 255 
255 255 254 255 72 0 5 0 53 252 254 254 254 255 255 255 255 252 255 173 0 2 0 
3 202 255 253 255 255 255 255 255 255 255 255 255 255 251 255 115 0 5 0 0 188 
255 249 254 255 255 255 253 250 255 97 0 5 0 29 243 255 254 255 255 255 255 
255 255 255 255 255 255 252 255 192 0 1 2 0 44 227 255 253 253 252 253 253 255 
173 0 0 5 0 114 255 252 255 255 255 255 255 255 255 255 255 255 255 254 254 
255 71 0 5 2 0 38 187 253 255 254 255 248 144 7 0 3 0 25 227 255 254 255 255 
255 255 255 255 255 255 255 255 255 255 253 255 211 18 0 4 2 0 0 46 97 102 87 
28 0 2 5 1 1 175 255 252 255 255 255 255 255 255 255 255 255 255 255 255 255 
255 252 255 190 15 0 1 6 4 0 0 0 0 0 7 3 0 8 167 255 252 255 255 255 255 255 
255 255 255 255 255 255 255 255 255 255 255 252 255 218 72 1 0 0 0 0 0 0 0 0 2 
67 203 255 252 255 255 255 255 255 255 255 255 255 255 255 255 255 255 255 255 
255 255 253 254 255 204 121 68 43 21 17 42 70 118 197 254 255 253 255 255 255 
255 255 255 255 255 255 255 255 255 255 255 255 255 255 255 255 255 253 253 
255 255 255 251 243 242 250 255 255 255 253 252 255 255 255 255 255 255 255 
255 255 255 255 255 255 255 255 255 255 255 255 255 255 255 255 252 251 255 
255 255 255 255 255 251 252 254 255 255 255 255 255 255 255 255 255 255 255 
255 255 255 255 255 255 255 255 255 255 255 255 255 255 255 255 254 254 254 
254 255 255 255 255 255 255 255 255 255 255 255 255 255 255 255 255 255 255 
255 255 255 255 255 255 255 255 255 255 255 255 255 255 255 255 255 255 255 
255 255 255 255 255 255 255 255 255 255 255 255 255 255 255 255 255 255 255 
255 255 255 255 255 255 255 255 255 255 255 255 255 255 255 255 255 255 255 
255 255 255 255 255 255 255 255 255 255 255 255 255 255 255 255 255 255 255 
255 255 255 255 255 255 255 255 255 255 255 255 255 255 255 255 255 255 255 
255 255 255 255 255 255 255 255 255 255 255 255 255 255 255 255 255 255 255 
255 255 255 255 255 255 255 255 255 255 255 255 255 255 255 255 255 255 255 
255 255 255 255 255 
