P2
10 12
255
255 255 255 253 255 255 253 255 255 255 255 255 255 252 190 203 255 254 255 
255 255 253 255 112 157 126 151 255 252 255 253 255 206 44 255 216 45 249 255 
254 251 255 154 56 255 239 32 213 255 253 251 255 151 59 255 238 29 212 255 
253 252 255 194 49 255 220 42 245 255 254 255 254 255 88 186 139 131 255 252 
255 255 254 255 241 168 187 254 255 255 255 255 255 255 253 255 255 253 255 
255 255 255 255 255 254 252 252 255 255 255 255 255 255 255 255 255 255 255 
255 255 255 
