P2
10 12
255
255 255 254 254 255 255 253 255 255 255 255 254 255 226 165 214 255 254 255 
255 253 255 221 84 94 15 170 255 252 255 253 255 205 218 255 140 78 255 252 
255 255 255 255 249 255 131 143 255 252 255 255 255 250 255 212 106 252 255 
255 255 255 254 255 236 154 244 250 249 255 255 253 255 221 45 99 115 96 248 
255 254 253 255 210 162 165 151 194 255 254 255 255 255 255 255 255 255 255 
255 255 255 255 255 253 252 252 252 253 255 255 255 255 255 255 255 255 255 
255 255 255 255 
