P2
10 12
255
255 255 254 254 255 254 254 255 255 255 255 254 255 228 165 217 255 254 255 
255 254 255 234 120 108 19 206 255 253 255 254 255 238 236 255 87 185 255 253 
255 255 255 255 254 148 73 254 255 254 255 255 255 254 244 186 29 125 255 251 
255 255 255 255 251 255 155 90 255 251 255 253 255 209 131 208 111 198 255 253 
255 254 255 228 139 160 219 255 254 255 255 255 255 255 255 255 254 253 255 
255 255 255 255 254 251 252 254 255 255 255 255 255 255 255 255 255 255 255 
255 255 255 
