P2
10 12
255
255 255 255 254 252 255 255 255 255 255 255 255 255 254 255 206 200 254 255 
255 255 254 255 248 107 141 223 254 255 255 255 253 255 89 117 255 252 255 255 
255 253 255 208 11 148 82 161 255 253 255 251 255 153 49 255 190 19 236 255 
254 252 255 169 53 255 243 41 221 255 253 254 255 251 65 180 177 108 255 254 
255 255 254 255 235 165 180 246 255 255 255 255 255 254 254 255 255 253 255 
255 255 255 255 255 254 252 252 255 255 255 255 255 255 255 255 255 255 255 
255 255 255 
