P2
10 12
255
255 255 254 254 255 255 255 255 255 255 255 255 255 215 198 200 214 251 255 
255 253 255 223 52 77 67 53 252 255 254 254 255 219 226 255 191 126 255 252 
255 255 255 255 251 255 119 191 255 253 255 255 255 253 255 238 96 250 255 255 
255 255 255 252 255 173 133 255 252 255 255 255 255 253 255 102 204 255 253 
255 255 255 255 255 252 187 251 255 255 255 255 255 255 255 255 255 254 255 
255 255 255 255 255 255 255 252 255 255 255 255 255 255 255 255 255 255 255 
255 255 255 255 
