P2
10 12
255
255 255 254 254 255 255 253 255 255 255 255 254 255 240 186 195 251 255 255 
255 254 255 249 100 199 152 118 255 253 255 254 255 231 41 245 197 79 255 253 
255 255 252 255 142 14 96 237 255 254 255 255 253 255 166 102 22 172 255 253 
255 253 255 210 60 255 190 44 253 255 254 254 255 235 63 203 197 104 255 254 
255 255 254 255 221 164 177 240 255 254 255 255 255 254 254 255 255 254 255 
255 255 255 255 255 254 252 252 254 255 255 255 255 255 255 255 255 255 255 
255 255 255 
