P2
10 12
255
255 255 254 253 255 255 253 255 255 255 255 254 255 241 185 204 255 254 255 
255 254 255 244 95 201 103 140 255 252 255 251 255 159 74 255 208 37 245 255 
254 251 255 163 38 255 227 26 226 255 253 254 255 251 83 116 117 33 254 255 
254 255 255 254 255 254 63 138 255 252 255 255 255 251 236 132 123 255 254 255 
255 254 255 245 184 202 255 253 255 255 255 255 255 255 255 255 252 255 255 
255 255 255 255 255 253 253 255 255 255 255 255 255 255 255 255 255 255 255 
255 255 255 
