P2
10 12
255
255 255 255 255 255 255 253 254 255 255 255 240 211 210 199 208 251 255 255 
255 254 255 84 50 195 107 61 237 255 254 251 255 120 85 255 255 28 147 255 251 
251 255 123 50 205 129 35 225 255 253 251 255 123 52 204 132 33 179 255 253 
251 255 122 87 255 255 104 51 255 253 253 255 94 56 216 175 35 152 255 252 255 
237 180 174 178 168 209 255 254 255 255 255 255 255 255 255 255 253 255 255 
255 254 252 252 252 252 253 255 255 255 255 255 255 255 255 255 255 255 255 
255 
