P2
10 12
255
255 255 253 253 255 255 255 255 255 255 255 254 255 244 188 181 213 235 254 
255 253 255 213 71 161 206 128 84 255 253 255 255 45 149 255 252 253 158 249 
255 255 207 7 226 255 251 253 251 254 255 255 197 7 231 255 252 252 254 255 
255 255 243 16 175 255 251 255 218 247 255 252 255 163 34 172 216 173 170 255 
254 255 253 255 212 142 154 197 254 255 255 255 255 253 255 255 255 255 254 
255 255 255 255 255 253 251 252 253 255 255 255 255 255 255 255 255 255 255 
255 255 255 
