P2
10 12
255
255 255 255 255 255 255 255 255 255 255 255 255 222 211 206 202 199 244 255 
254 254 255 212 17 146 199 103 170 255 252 254 255 252 35 204 255 235 231 255 
254 254 255 250 34 155 156 157 255 252 255 254 255 251 34 162 175 168 255 252 
255 254 255 253 38 205 255 247 255 255 255 254 255 227 16 173 255 252 255 255 
255 255 255 210 171 195 251 255 255 255 255 255 255 255 255 255 255 255 255 
255 255 255 255 253 252 253 255 255 255 255 255 255 255 255 255 255 255 255 
255 255 255 
