P2
10 12
255
255 255 255 255 255 255 255 255 255 255 255 255 255 250 214 210 223 255 255 
255 255 255 254 255 155 14 219 255 254 255 255 255 253 255 197 34 253 255 254 
255 255 255 253 255 195 32 252 255 254 255 255 255 252 255 194 33 252 255 254 
255 255 255 253 255 197 39 255 255 255 255 254 255 248 83 116 109 255 252 255 
255 255 255 255 165 153 247 255 254 255 255 255 255 255 255 255 254 255 255 
255 255 255 255 255 252 252 254 255 255 255 255 255 255 255 255 255 255 255 
255 255 255 
