P2
10 12
255
255 255 255 255 255 255 255 255 255 255 255 229 210 212 245 236 200 219 255 
255 255 236 27 120 255 138 59 223 255 254 253 255 50 172 202 108 250 255 254 
255 253 255 64 57 109 255 252 253 255 255 253 255 64 48 32 193 255 250 254 255 
253 255 53 175 177 0 183 255 253 255 255 247 32 132 255 155 0 133 241 255 255 
220 173 186 245 229 173 162 214 255 255 255 255 255 255 255 255 255 255 255 
255 254 252 252 255 254 252 252 253 255 255 255 255 255 255 255 255 255 255 
255 
