P2
10 12
255
255 255 255 255 255 255 255 255 255 255 255 255 220 211 212 247 255 255 255 
255 254 255 204 8 167 255 255 255 255 255 254 255 242 27 213 255 253 255 255 
255 254 255 240 26 211 255 253 254 255 255 254 255 240 26 211 255 250 254 255 
255 254 255 242 30 214 255 255 209 241 255 254 255 217 11 149 205 154 106 255 
254 255 255 206 173 171 175 159 210 255 253 255 255 255 255 255 255 255 254 
255 255 255 255 253 252 252 252 252 253 255 255 255 255 255 255 255 255 255 
255 255 255 
