P2
10 12
255
255 255 254 255 255 255 254 254 255 255 230 207 237 255 254 255 255 224 210 
246 242 46 60 255 252 255 226 0 133 255 255 120 5 188 255 255 137 1 173 255 
255 149 107 63 255 205 133 64 157 255 255 133 219 27 199 137 211 61 158 255 
255 130 254 136 25 132 255 53 163 255 247 95 221 240 31 209 255 30 139 255 224 
175 211 255 222 255 220 172 189 244 255 255 255 254 254 254 255 255 255 255 
254 252 254 255 253 255 254 252 253 255 255 255 255 255 255 255 255 255 255 
255 
