P2
10 12
255
255 255 255 253 255 255 255 255 255 255 252 208 211 253 254 254 220 207 239 
255 254 198 19 125 255 255 182 91 251 255 253 255 106 2 158 255 217 136 255 
252 254 255 135 181 8 195 230 131 255 252 254 255 120 253 170 18 178 143 255 
252 254 255 127 238 255 141 0 134 255 251 255 244 91 223 255 255 96 103 255 
251 255 225 173 213 255 255 242 209 255 254 255 255 255 255 255 255 253 255 
255 255 255 254 252 254 255 255 254 253 255 255 255 255 255 255 255 255 255 
255 255 255 
