P2
10 12
255
255 255 252 255 255 255 254 253 255 255 255 253 255 224 182 184 238 255 254 
255 253 255 154 90 199 175 71 202 255 253 255 207 21 228 255 255 163 35 253 
255 255 127 45 255 249 255 229 6 199 255 255 121 47 255 251 255 234 9 195 255 
255 189 17 239 255 255 186 27 246 255 253 255 112 92 226 205 70 177 255 252 
255 254 255 192 157 159 218 255 253 255 255 255 253 255 255 255 254 253 255 
255 255 255 255 253 252 252 254 255 255 255 255 255 255 255 255 255 255 255 
255 255 
