P2
10 12
255
255 255 252 255 255 255 254 253 255 255 255 253 255 224 182 184 238 255 254 
255 253 255 155 90 199 172 68 205 255 253 255 208 22 228 255 255 157 35 255 
255 255 127 44 255 249 255 228 5 201 255 255 121 47 255 251 255 235 9 195 255 
255 187 18 242 255 255 188 27 246 255 253 255 112 103 244 239 80 172 255 252 
255 253 255 195 73 6 196 255 253 255 255 255 252 255 244 129 108 199 250 255 
255 255 255 252 253 255 238 208 247 255 255 255 255 255 254 251 254 255 255 
255 
