P2
10 12
255
255 255 254 254 255 255 255 255 255 255 255 254 255 224 176 201 231 254 255 
255 253 255 209 92 202 140 84 255 254 255 251 255 145 69 255 255 172 249 255 
255 254 255 236 39 22 170 255 254 255 255 255 254 255 246 132 1 82 255 255 254 
253 255 202 225 255 238 24 194 255 252 251 255 163 94 226 196 66 232 255 254 
254 255 230 186 166 154 224 255 254 255 255 255 255 255 255 255 254 254 255 
255 255 255 254 252 252 252 254 255 255 255 255 255 255 255 255 255 255 255 
255 255 
