P2
10 12
255
255 255 255 255 255 255 255 255 255 255 255 255 214 195 210 209 195 214 255 
255 255 245 89 175 61 73 175 85 243 255 255 245 219 255 90 109 255 219 244 255 
255 255 249 255 90 108 255 249 255 255 255 255 250 255 90 108 255 250 255 255 
255 255 251 255 93 112 255 251 255 255 255 255 253 255 72 86 255 253 255 255 
255 254 255 231 178 179 235 255 254 255 255 255 255 255 255 255 255 255 255 
255 255 255 255 254 252 252 254 255 255 255 255 255 255 255 255 255 255 255 
255 255 
