P2
10 12
255
255 255 255 255 255 255 255 255 255 255 255 228 201 215 234 251 218 200 241 
255 255 237 99 6 221 255 94 120 252 255 254 255 255 58 119 197 132 255 254 255 
255 252 255 231 23 87 255 252 254 255 255 253 255 242 69 35 235 255 253 255 
254 255 253 109 223 100 70 255 254 255 255 239 80 154 255 228 9 115 254 255 
255 208 161 221 255 231 181 166 228 255 255 255 255 255 255 255 255 255 255 
255 255 253 252 253 255 254 252 252 254 255 255 255 255 255 255 255 255 255 
255 255 
