P2
#Created with GIMP
5 7
255
254 255 232 84 243 251 255 88 22 250 255 144 70 87 234 204 65 235 79 236 82 32 
82 13 110 227 207 194 57 199 255 255 250 110 240 
