P2
#Created with GIMP
5 7
255
254 70 34 43 203 216 80 249 242 248 174 53 105 140 255 190 124 211 75 145 243 
247 255 176 94 142 93 255 97 144 248 99 43 109 253 
