P2
#Created with GIMP
5 7
255
249 87 40 109 253 141 93 255 119 154 108 155 255 169 99 183 51 172 69 95 255 
178 135 137 116 162 119 255 88 176 244 87 37 132 255 
