P2
#Created with ANN
10 12
255
255 255 255 255 255 255 255 255 255 255 255 255 255 255 255 255 255 0 0 255
255 255 255 255 255 255 255 0 0 255 255 255 255 255 255 255 0 0 0 255
255 255 255 255 255 0 0 0 0 255 255 255 255 255 249 0 0 0 0 255
255 255 255 0 0 0 255 0 0 255 255 255 0 0 0 255 255 0 0 255
255 48 0 252 255 255 255 0 0 255 255 0 0 0 0 0 0 0 0 0
255 255 255 255 255 255 255 13 0 255 255 255 255 255 255 255 255 9 0 255
