P2
#Created with ANN
10 12
255
255 255 255 255 255 255 255 255 255 255 255 255 255 255 255 0 0 0 0 255
255 255 255 255 0 0 0 255 255 255 255 255 255 0 0 255 255 255 255 255
255 255 40 0 255 255 255 255 255 255 255 255 0 0 1 9 255 255 255 255
255 255 0 0 0 0 0 0 255 255 255 9 0 255 255 255 11 0 0 255
255 24 0 255 255 255 255 255 0 0 255 25 0 255 255 255 255 255 0 0
255 169 0 252 255 255 255 0 0 0 255 255 0 0 0 0 0 0 0 255
