P2
10 12
255
255 255 255 252 255 254 252 255 255 255 255 255 254 255 225 234 255 254 255 
255 255 254 255 126 112 96 172 255 253 255 252 255 158 43 255 216 26 224 255 
253 253 255 52 107 255 255 41 129 255 251 255 253 15 140 255 255 57 84 255 251 
255 249 11 148 255 255 57 81 255 251 254 255 34 129 255 255 44 115 255 251 251 
255 113 71 255 239 24 195 255 252 254 255 240 64 175 121 114 255 253 255 255 
254 255 241 170 195 255 254 255 255 255 255 254 254 255 255 253 255 255 255 
