P2
10 12
255
255 255 253 253 255 254 252 255 255 255 255 255 255 251 232 251 255 254 255 
255 253 255 211 55 22 25 186 255 253 255 255 255 103 181 245 84 18 245 255 254 
255 247 219 255 255 207 13 232 255 254 255 255 254 248 255 157 77 255 253 255 
255 255 252 255 240 73 216 255 254 255 255 254 254 251 111 191 255 253 255 255 
254 255 252 128 193 255 231 203 255 253 255 250 74 10 55 41 16 183 255 252 255 
242 190 198 188 189 198 252 255 255 255 255 255 255 255 255 255 254 255 255 
