P2
10 12
255
255 255 255 254 254 255 255 255 255 255 255 255 255 254 255 255 252 252 255 
255 255 253 255 210 26 22 46 235 255 254 255 253 255 118 170 189 189 255 255 
255 252 255 194 10 98 216 255 253 255 255 253 255 210 141 58 0 154 255 252 255 
255 255 255 253 255 137 15 242 255 254 255 255 255 248 250 252 47 214 255 253 
255 255 247 252 255 215 82 254 255 255 253 255 76 57 148 105 210 255 253 255 
254 255 222 156 176 241 255 254 255 255 255 255 255 255 255 254 253 255 255 
255 
