P2
10 12
255
255 255 255 255 252 253 255 255 255 255 255 255 255 252 255 251 219 238 255 
254 255 255 252 255 175 91 149 224 255 254 255 252 255 135 42 233 255 254 255 
255 252 255 189 7 213 255 253 254 255 255 252 255 72 25 142 53 101 253 255 254 
255 252 16 116 255 221 0 147 255 251 255 252 14 146 255 255 70 89 255 251 252 
255 74 86 255 255 67 139 255 251 253 255 223 42 163 166 86 249 255 254 255 254 
255 235 168 184 247 255 255 255 255 255 254 254 255 255 253 254 255 255 
