P2
10 12
255
255 255 254 255 255 255 255 255 255 255 255 255 254 255 255 255 255 253 255 
255 252 255 173 15 34 34 24 158 255 251 255 255 112 157 187 189 45 198 255 253 
255 249 234 255 255 215 75 255 255 255 255 255 254 248 255 126 130 255 251 255 
255 255 254 255 255 71 212 255 253 255 255 255 253 255 194 79 255 253 255 255 
255 255 251 255 114 147 255 252 255 255 255 254 255 245 60 227 255 254 255 255 
255 254 255 239 191 255 255 255 255 255 255 255 255 255 254 254 255 255 255 
255 
