P2
10 12
255
255 255 254 253 255 255 252 255 255 255 255 255 255 251 218 228 255 255 255 
255 254 255 235 99 150 118 132 255 254 255 251 255 111 101 255 248 38 206 255 
253 251 255 135 16 239 205 46 240 255 254 254 255 253 83 8 76 225 255 254 255 
255 254 255 138 73 4 147 255 253 255 251 255 131 84 255 150 0 202 255 252 251 
255 75 122 255 255 58 158 255 251 252 255 192 48 189 172 88 241 255 254 255 
254 255 222 167 180 241 255 254 255 255 255 253 254 255 255 253 254 255 255 
