P2
17 22
255
255 255 255 255 255 255 255 255 255 255 255 255 255 255 255 255 255 255 255 
255 255 255 255 253 253 255 252 254 255 255 255 255 255 255 255 255 255 255 
255 253 254 255 253 255 253 254 255 255 255 255 255 255 255 255 255 253 255 
203 76 72 109 243 255 254 255 255 255 255 255 255 255 253 255 209 8 152 255 
73 62 255 255 255 255 255 255 255 255 255 254 255 59 50 255 255 215 0 156 255 
252 255 255 255 255 255 253 255 215 0 119 255 251 252 27 55 255 254 255 255 
255 255 255 251 255 161 0 155 255 250 255 58 9 241 255 254 255 255 255 255 251 
255 132 0 177 255 249 255 79 0 223 255 253 255 255 255 255 251 255 128 0 178 
255 249 255 77 0 219 255 253 255 255 255 255 251 255 140 0 178 255 250 255 61 
0 231 255 253 255 255 255 255 252 255 179 0 155 255 251 255 41 28 253 255 254 
255 255 255 255 254 255 238 2 104 255 251 242 7 98 255 252 255 255 255 255 255 
255 252 255 109 22 249 255 175 0 212 255 253 255 255 255 255 255 255 254 255 
248 60 89 165 31 152 255 253 255 255 255 255 255 255 255 255 254 255 248 161 
135 212 255 253 255 255 255 255 255 255 255 255 255 255 254 253 255 255 255 
253 255 255 255 255 255 255 255 255 255 255 255 255 254 252 251 253 255 255 
255 255 255 255 255 255 255 255 255 255 255 255 255 255 255 255 255 255 255 
255 255 255 255 255 255 255 255 255 255 255 255 255 255 255 255 255 255 255 
255 255 255 255 255 255 255 255 255 255 255 255 255 255 255 255 255 255 255 
255 255 255 255 255 255 255 255 255 255 255 255 255 255 255 255 
