P2
17 22
255
255 255 255 255 255 255 255 255 255 255 255 255 255 255 255 255 255 255 255 
255 255 255 254 252 254 254 252 255 255 255 255 255 255 255 255 255 255 255 
255 254 255 255 255 255 254 255 255 255 255 255 255 255 255 255 254 255 243 
103 29 45 145 255 255 255 255 255 255 255 255 255 255 255 255 76 62 118 31 0 153 
255 252 255 255 255 255 255 255 253 255 192 138 255 255 221 0 74 255 252 255 
255 255 255 255 255 255 255 252 254 252 248 255 26 113 255 251 255 255 255 255 
255 255 255 255 255 253 253 255 196 65 245 255 254 255 255 255 255 255 255 255 
255 254 255 236 162 19 79 246 255 254 255 255 255 255 255 255 255 255 253 255 
205 103 25 0 71 255 255 255 255 255 255 255 255 255 255 255 255 254 255 239 
48 0 206 255 253 255 255 255 255 255 255 255 254 252 253 248 255 160 0 189 255 
252 255 255 255 255 255 255 255 255 255 254 247 255 185 0 224 255 253 255 255 
255 255 255 254 255 232 196 250 255 255 74 86 255 253 255 255 255 255 255 255 
251 255 145 0 38 114 74 86 245 255 254 255 255 255 255 255 255 254 255 245 172 
139 141 199 255 253 255 255 255 255 255 255 255 255 255 255 255 255 255 255 
255 252 254 255 255 255 255 255 255 255 255 255 255 255 251 251 251 253 255 
255 255 255 255 255 255 255 255 255 255 255 255 255 255 255 255 255 255 255 
255 255 255 255 255 255 255 255 255 255 255 255 255 255 255 255 255 255 255 
255 255 255 255 255 255 255 255 255 255 255 255 255 255 255 255 255 255 255 
255 255 255 255 255 255 255 255 255 255 255 255 255 255 255 255 255 255 
