P2
17 22
255
255 255 255 255 255 255 255 255 255 255 255 255 255 255 255 255 255 255 255 
255 255 255 255 252 251 251 254 255 255 255 255 255 255 255 255 255 255 255 
254 253 255 255 255 254 253 255 255 255 255 255 255 255 255 255 254 254 254 
203 160 173 233 255 254 255 255 255 255 255 255 255 254 255 244 66 0 3 0 19 190 
255 253 255 255 255 255 255 255 253 255 78 48 174 164 47 0 34 242 255 254 255 
255 255 255 253 255 194 96 255 252 255 222 19 0 198 255 252 255 255 255 255 
255 255 245 247 255 251 249 255 60 0 222 255 253 255 255 255 255 255 255 255 
253 254 252 253 255 28 87 255 253 255 255 255 255 255 255 255 255 255 255 252 
255 147 48 250 255 254 255 255 255 255 255 255 255 255 255 251 196 97 0 22 155 
255 254 255 255 255 255 255 255 255 254 255 244 138 71 10 0 0 169 255 252 255 
255 255 255 255 255 255 255 255 254 255 217 44 0 63 255 254 255 255 255 255 
255 255 255 255 255 251 249 255 187 0 30 245 255 254 255 255 255 255 255 254 
252 254 255 254 255 243 20 29 251 255 254 255 255 255 255 255 255 255 254 251 
251 255 247 14 83 255 252 255 255 255 255 255 255 246 198 240 255 251 255 163 
0 204 255 253 255 255 255 255 251 255 141 0 29 141 192 122 9 162 255 253 255 
255 255 255 255 253 255 215 70 24 15 44 93 212 255 252 255 255 255 255 255 255 
255 255 255 255 251 250 255 255 255 253 255 255 255 255 255 255 255 255 255 
253 253 255 255 254 251 253 255 255 255 255 255 255 255 255 255 255 255 255 
254 254 255 255 255 255 255 255 255 255 255 255 
