P2
17 22
255
255 255 255 255 255 255 255 255 255 255 255 255 255 255 255 255 255 255 255 
255 255 255 255 255 255 255 253 251 254 255 255 255 255 255 255 255 255 255 
255 255 255 255 254 254 255 255 255 255 255 255 255 255 255 255 255 255 255 
255 253 255 215 150 242 255 254 255 255 255 255 255 255 255 255 255 254 255 
248 50 0 218 255 253 255 255 255 255 255 255 255 255 255 251 255 114 0 11 218 
255 253 255 255 255 255 255 255 255 255 252 255 177 22 24 0 218 255 253 255 
255 255 255 255 255 255 254 255 237 26 167 52 0 219 255 253 255 255 255 255 
255 255 255 252 255 77 95 255 33 0 219 255 253 255 255 255 255 255 255 251 255 
154 35 248 252 35 0 219 255 253 255 255 255 255 255 253 255 222 20 192 255 248 
36 0 219 255 253 255 255 255 255 255 255 255 57 121 255 253 251 37 0 220 255 
253 255 255 255 255 252 255 132 48 254 248 250 245 36 0 214 255 253 255 255 
255 254 255 238 18 14 27 21 22 22 3 0 16 33 230 255 254 255 254 255 235 59 37 
37 38 38 37 6 0 30 49 232 255 254 255 255 255 255 255 255 255 254 255 251 37 
0 220 255 253 255 255 255 255 255 255 255 255 255 254 255 251 39 0 220 255 253 
255 255 255 255 255 255 255 255 255 254 255 250 35 0 217 255 253 255 255 255 
255 255 255 255 255 255 255 255 253 105 76 231 255 254 255 255 255 255 255 255 
255 255 255 255 255 255 255 255 255 255 255 255 255 255 255 255 255 255 255 
255 255 255 255 253 252 255 255 255 255 255 255 255 255 255 255 255 255 255 
255 255 255 255 255 255 255 255 255 255 
