P2
17 22
255
255 255 255 255 255 255 255 255 255 255 255 255 255 255 255 255 255 255 255 
255 255 255 255 255 253 253 253 253 253 254 255 255 255 255 255 255 255 255 
255 255 254 255 255 255 255 255 255 255 255 255 255 255 255 255 255 255 255 
250 226 225 225 226 221 244 255 255 255 255 255 255 255 255 252 255 166 0 2 1 
0 13 225 255 253 255 255 255 255 255 254 255 252 51 6 22 22 6 106 255 252 255 
255 255 255 255 255 252 255 160 51 250 235 236 237 248 255 255 255 255 255 255 
255 255 255 255 47 107 252 254 254 255 254 255 255 255 255 255 255 255 252 255 
167 0 1 15 88 213 255 252 255 255 255 255 255 255 255 253 255 115 33 15 0 0 8 
169 255 253 255 255 255 255 255 255 255 255 254 253 232 159 36 0 5 197 255 253 
255 255 255 255 255 255 255 254 255 254 255 238 60 0 75 255 253 255 255 255 
255 255 255 255 255 255 254 250 255 220 9 17 236 255 254 255 255 255 255 255 
255 255 255 255 255 250 255 88 0 226 255 253 255 255 255 255 255 254 251 252 
255 255 251 255 115 12 248 255 254 255 255 255 255 255 255 255 255 252 250 250 
255 63 89 255 252 255 255 255 255 254 255 241 148 201 255 251 255 159 19 226 
255 253 255 255 255 255 252 255 182 0 4 92 148 81 29 201 255 253 255 255 255 
255 255 254 255 250 117 33 15 37 120 238 255 253 255 255 255 255 255 255 255 
255 255 255 251 250 255 255 254 253 255 255 255 255 255 255 255 255 255 254 
252 255 255 253 251 254 255 255 255 255 255 255 255 255 255 255 255 255 254 
254 255 255 255 255 255 255 255 255 255 255 
