P2
17 22
255
255 255 255 255 255 255 255 255 255 255 255 255 255 255 255 255 255 255 255 
255 255 255 255 255 255 255 254 252 251 252 255 255 255 255 255 255 255 255 
255 255 255 254 252 255 255 255 255 255 255 255 255 255 255 255 255 255 255 
253 253 255 243 183 135 185 255 253 255 255 255 255 255 255 255 253 255 247 
122 17 66 128 198 255 253 255 255 255 255 255 255 253 255 224 48 4 176 255 254 
255 255 255 255 255 255 255 255 253 255 225 28 7 206 255 251 251 253 255 255 
255 255 255 255 254 255 252 62 0 157 255 246 251 254 255 255 255 255 255 255 
255 252 255 148 0 60 255 255 254 255 253 254 255 255 255 255 255 254 255 249 
43 0 125 147 63 73 152 248 255 254 255 255 255 255 252 255 195 0 0 38 103 118 
26 0 75 251 255 254 255 255 255 251 255 152 0 28 225 255 255 222 23 0 143 255 
251 255 255 255 251 255 126 0 57 255 250 247 255 114 0 62 255 254 255 255 255 
251 255 133 0 67 255 253 252 255 181 0 35 248 255 254 255 255 251 255 167 0 50 
255 255 252 255 203 0 43 255 255 254 255 255 253 255 226 10 8 223 255 250 255 
198 0 100 255 252 255 255 255 255 252 255 113 0 143 255 248 255 135 0 207 255 
253 255 255 255 255 254 255 245 58 0 178 255 175 2 139 255 252 255 255 255 255 
255 255 254 255 242 108 36 65 62 172 255 253 255 255 255 255 255 255 255 255 
254 253 255 250 241 255 255 253 255 255 255 255 255 255 255 255 255 255 254 
252 255 255 253 252 255 255 255 255 255 255 255 255 255 255 255 255 255 254 
254 255 255 255 255 255 255 255 255 
