P2
17 22
255
255 255 255 255 255 255 255 255 255 255 255 255 255 255 255 255 255 255 255 
255 255 255 255 252 254 255 253 253 255 255 255 255 255 255 255 255 255 255 
255 253 255 253 251 255 254 254 255 255 255 255 255 255 255 255 255 255 255 
140 77 96 78 199 255 253 255 255 255 255 255 255 255 252 255 119 35 228 255 
154 9 214 255 253 255 255 255 255 255 254 255 251 14 133 255 252 254 21 123 
255 251 255 255 255 255 255 254 255 248 19 58 253 255 230 2 158 255 252 255 
255 255 255 255 255 252 255 113 0 88 249 75 68 255 255 254 255 255 255 255 255 
255 254 255 246 86 0 12 101 255 252 255 255 255 255 255 255 255 255 255 252 
255 166 19 3 35 199 255 253 255 255 255 255 255 255 255 252 255 166 22 234 148 
0 15 214 255 253 255 255 255 255 255 254 255 246 14 120 255 255 155 0 102 255 
252 255 255 255 255 255 253 255 216 0 163 255 245 255 58 57 255 253 255 255 
255 255 255 254 255 246 16 100 255 250 255 54 112 255 251 255 255 255 255 255 
255 252 255 177 9 113 180 98 66 244 255 254 255 255 255 255 255 255 255 254 
255 225 146 138 172 250 255 255 255 255 255 255 255 255 255 255 255 253 254 
255 255 255 253 254 255 255 255 255 255 255 255 255 255 255 255 254 251 251 
252 255 255 255 255 255 255 255 255 255 255 255 255 255 255 255 255 255 255 
255 255 255 255 255 255 255 255 255 255 255 255 255 255 255 255 255 255 255 
255 255 255 255 255 255 255 255 255 255 255 255 255 255 255 255 255 255 255 
255 255 255 255 255 255 255 255 255 255 255 255 255 255 255 255 255 255 255 
