P2
17 22
255
255 255 255 255 255 255 255 255 255 255 255 255 255 255 255 255 255 255 255 
255 255 255 255 253 251 251 253 255 255 255 255 255 255 255 255 255 255 255 
255 252 255 255 255 255 252 254 255 255 255 255 255 255 255 255 255 252 255 
221 148 144 213 255 253 255 255 255 255 255 255 255 255 253 255 127 17 101 76 
0 109 253 254 254 255 255 255 255 255 252 255 144 0 194 255 255 140 0 115 255 
253 255 255 255 255 254 255 235 6 69 255 248 254 247 35 0 204 255 253 255 255 
255 251 255 170 0 109 255 251 251 255 99 0 118 255 251 255 255 255 251 255 131 
0 106 255 251 251 255 140 0 66 255 254 255 255 255 251 255 135 0 71 255 252 
251 255 146 0 44 255 255 255 255 255 252 255 180 0 16 221 255 249 255 131 0 51 
255 255 255 255 255 254 255 251 55 0 80 248 254 200 51 0 83 255 252 255 255 
255 255 253 255 220 52 0 19 43 67 18 0 142 255 251 255 255 255 255 255 254 255 
249 197 165 214 206 0 13 224 255 253 255 255 255 255 255 255 253 254 255 253 
255 90 0 123 255 252 255 255 255 255 255 255 255 255 254 246 255 178 0 56 247 
255 254 255 255 255 255 255 255 254 253 253 255 210 9 44 232 255 253 255 255 
255 255 255 255 255 255 255 248 160 8 82 242 255 253 255 255 255 255 255 255 
254 255 225 119 87 79 184 255 253 253 255 255 255 255 255 255 255 255 255 248 
226 245 255 255 252 254 255 255 255 255 255 255 255 255 255 255 255 255 255 
252 252 255 255 255 255 255 255 255 255 255 255 255 255 255 254 254 255 255 
255 255 255 255 255 255 255 255 255 
