P2
17 22
255
255 255 255 255 255 255 255 255 255 255 255 255 255 255 255 255 255 255 255 
255 253 251 251 251 251 251 251 252 255 255 255 255 255 255 255 255 255 255 
255 255 255 255 255 255 255 253 254 255 255 255 255 254 255 228 138 105 107 
99 102 94 116 197 254 254 255 255 255 255 255 255 252 232 38 0 140 189 163 61 
0 96 254 255 254 255 255 255 255 252 255 81 0 221 255 253 255 68 0 162 255 251 
255 255 255 255 252 255 80 0 212 255 242 255 136 0 107 255 251 255 255 255 255 
252 255 80 0 220 255 250 255 94 0 146 255 251 255 255 255 255 252 255 81 0 140 
179 168 108 0 80 248 255 254 255 255 255 255 252 255 81 0 81 106 82 19 0 109 
242 255 254 255 255 255 255 252 255 80 0 220 255 253 253 100 0 69 255 255 255 
255 255 255 252 255 80 0 213 255 248 255 231 19 0 207 255 253 255 255 255 252 
255 81 0 215 255 248 255 242 28 0 210 255 253 255 255 255 253 255 72 0 218 255 
251 255 129 0 72 255 254 255 255 254 255 241 173 19 0 66 105 101 51 0 80 233 
255 254 255 255 254 255 236 183 193 197 183 178 177 188 231 255 254 254 255 
255 255 255 255 255 255 255 255 255 255 255 255 255 253 253 255 255 255 255 
255 255 254 253 252 252 252 252 252 252 254 255 255 255 255 255 255 255 255 
255 255 255 255 255 255 255 255 255 255 255 255 255 255 255 255 255 255 255 
255 255 255 255 255 255 255 255 255 255 255 255 255 255 255 255 255 255 255 
255 255 255 255 255 255 255 255 255 255 255 255 255 255 255 255 255 255 255 
255 255 255 255 255 255 255 255 255 
