P2
17 22
255
255 255 255 255 255 255 255 255 255 255 255 255 255 255 255 255 255 255 255 
255 255 255 255 252 252 255 255 252 252 253 255 255 255 255 255 255 255 255 
254 253 255 255 255 255 255 255 255 255 255 255 255 255 255 255 254 253 255 
166 69 70 75 84 186 144 220 255 254 255 255 255 254 255 241 69 12 160 229 231 
182 45 0 220 255 253 255 255 255 254 255 74 0 209 255 253 254 255 237 31 201 
255 253 255 255 252 255 171 0 102 255 248 254 254 248 255 141 177 255 252 255 
255 253 255 78 0 173 255 252 255 255 255 255 237 235 255 254 255 254 255 248 
34 0 204 255 253 255 255 255 255 254 255 255 255 255 254 255 240 24 0 210 255 
253 255 255 255 255 254 254 255 255 255 254 255 248 34 0 201 255 253 255 255 
255 255 254 254 255 255 255 255 253 255 81 0 157 255 250 255 255 255 253 253 
252 255 255 255 255 252 255 176 0 66 255 253 250 251 250 255 187 165 255 252 
255 255 255 254 255 95 0 119 255 254 253 255 199 82 236 255 254 255 255 255 
254 255 249 111 0 32 108 129 95 83 223 255 254 255 255 255 255 255 254 252 255 
221 145 118 126 179 249 255 254 255 255 255 255 255 255 255 254 252 255 255 
255 255 255 253 253 255 255 255 255 255 255 255 255 255 255 253 251 251 251 
252 255 255 255 255 255 255 255 255 255 255 255 255 255 255 255 255 255 255 
255 255 255 255 255 255 255 255 255 255 255 255 255 255 255 255 255 255 255 
255 255 255 255 255 255 255 255 255 255 255 255 255 255 255 255 255 255 255 
255 255 255 255 255 255 255 255 255 255 255 255 255 255 255 255 255 255 
