P2
17 22
255
255 255 255 255 255 255 255 255 255 255 255 255 255 255 255 255 255 255 255 
254 251 251 251 251 251 251 251 253 255 255 255 255 255 255 255 255 255 255 
255 255 255 255 255 255 255 253 253 255 255 255 255 254 255 182 115 106 102 
97 101 100 133 207 255 254 254 255 255 255 255 253 255 151 0 51 176 181 153 
55 0 78 234 255 254 255 255 255 253 255 209 0 98 255 251 253 255 130 0 60 250 
255 254 255 255 253 255 208 0 90 255 249 251 252 255 69 0 151 255 251 255 255 
253 255 208 0 92 255 252 255 251 255 163 0 65 255 254 255 255 253 255 208 0 92 
255 252 255 253 255 206 0 28 242 255 254 255 253 255 208 0 92 255 252 255 253 
255 218 0 18 236 255 254 255 253 255 208 0 92 255 252 255 252 255 194 0 39 251 
255 254 255 253 255 208 0 92 255 252 255 249 255 135 0 98 255 252 255 255 253 
255 207 0 91 255 247 251 255 234 28 0 204 255 253 255 255 252 255 201 0 95 255 
250 255 218 48 0 150 255 252 255 255 255 255 220 100 0 24 93 106 76 18 53 192 
255 253 255 255 255 255 255 205 184 198 191 178 176 184 228 255 254 253 255 
255 255 255 255 255 255 255 255 255 255 255 255 255 253 252 255 255 255 255 
255 255 255 253 252 252 252 252 252 252 254 255 255 255 255 255 255 255 255 
255 255 255 255 255 255 255 255 255 255 255 255 255 255 255 255 255 255 255 
255 255 255 255 255 255 255 255 255 255 255 255 255 255 255 255 255 255 255 
255 255 255 255 255 255 255 255 255 255 255 255 255 255 255 255 255 255 255 
255 255 255 255 255 255 255 255 255 255 
