P2
17 22
255
255 255 255 255 255 255 255 255 255 255 255 255 255 255 255 255 255 255 255 
255 255 253 251 251 251 251 251 251 251 253 255 255 255 255 255 255 255 255 
255 255 255 255 255 255 255 255 255 255 255 255 255 255 254 255 226 134 105 
108 104 104 103 97 90 200 255 253 255 255 255 255 255 252 228 33 0 175 196 187 
168 18 145 255 251 255 255 255 255 255 253 255 73 0 235 255 251 255 171 135 
255 251 255 255 255 255 255 253 255 71 0 230 255 248 253 246 240 255 255 255 
255 255 255 255 253 255 71 0 235 255 255 157 233 255 254 255 255 255 255 255 
255 253 255 72 0 156 175 137 51 244 255 254 255 255 255 255 255 255 253 255 
73 0 115 131 91 39 246 255 254 255 255 255 255 255 255 253 255 71 0 235 255 
255 146 232 255 254 255 255 255 255 255 255 253 255 71 0 231 255 251 242 251 
255 255 255 255 255 255 255 255 252 255 72 0 232 255 254 255 255 255 255 255 
255 255 255 255 255 253 255 64 0 225 255 253 254 255 255 255 255 255 255 255 
254 255 240 171 18 0 122 226 255 254 255 255 255 255 255 255 255 254 255 234 
183 193 197 181 213 255 254 255 255 255 255 255 255 255 255 255 255 255 255 
255 255 255 255 255 255 255 255 255 255 255 255 255 255 254 252 252 252 252 
254 255 255 255 255 255 255 255 255 255 255 255 255 255 255 255 255 255 255 
255 255 255 255 255 255 255 255 255 255 255 255 255 255 255 255 255 255 255 
255 255 255 255 255 255 255 255 255 255 255 255 255 255 255 255 255 255 255 
255 255 255 255 255 255 255 255 255 255 255 255 255 255 255 255 255 255 255 
255 
