P2
17 22
255
255 255 255 255 255 255 255 255 255 255 255 255 255 255 255 255 255 255 255 
255 255 255 254 251 253 255 255 252 251 253 255 255 255 255 255 255 255 255 
252 254 255 255 255 255 255 255 255 255 255 255 255 255 255 255 253 255 237 
121 63 73 72 84 163 144 249 255 255 255 255 255 252 255 200 18 59 197 231 228 
166 16 35 255 255 255 255 255 253 255 217 5 69 255 255 254 253 255 210 43 242 
255 254 255 255 254 255 76 0 208 255 250 254 254 247 255 135 219 255 254 255 
253 255 211 0 49 255 254 255 255 255 255 255 255 255 255 255 255 251 255 159 
0 86 255 252 254 255 243 179 181 188 174 220 255 254 251 255 141 0 89 255 252 
254 255 247 186 29 0 118 240 255 254 251 255 156 0 64 255 254 255 255 252 255 
87 0 210 255 253 255 253 255 210 0 14 226 255 253 255 251 255 92 0 206 255 253 
255 255 253 255 86 0 130 255 249 251 248 255 91 0 209 255 253 255 255 254 255 
229 34 0 176 255 253 252 255 92 0 208 255 253 255 255 255 253 255 229 78 0 76 
150 153 99 14 61 233 255 254 255 255 255 255 253 253 255 216 142 121 121 139 
207 255 255 255 255 255 255 255 255 255 253 253 255 255 255 255 255 255 253 
254 255 255 255 255 255 255 255 255 255 253 251 251 251 251 253 255 255 255 
255 255 255 255 255 255 255 255 255 255 255 255 255 255 255 255 255 255 255 
255 255 255 255 255 255 255 255 255 255 255 255 255 255 255 255 255 255 255 
255 255 255 255 255 255 255 255 255 255 255 255 255 255 255 255 255 255 255 
255 255 255 255 255 255 255 255 255 255 255 255 255 
