P2
17 22
255
255 255 255 255 255 255 255 255 255 255 255 255 255 255 255 255 255 255 255 
255 255 255 255 253 251 251 252 254 255 255 255 255 255 255 255 255 255 255 
255 255 255 255 255 255 255 255 255 255 255 255 255 255 255 255 254 255 231 
140 106 105 116 184 255 255 255 255 255 255 255 255 255 255 255 251 237 51 0 162 
255 253 255 255 255 255 255 255 255 255 255 255 252 255 90 0 211 255 253 255 
255 255 255 255 255 255 255 255 255 252 255 89 0 208 255 253 255 255 255 255 
255 255 255 255 255 255 252 255 89 0 210 255 253 255 255 255 255 255 255 255 
255 255 255 252 255 89 0 210 255 253 255 255 255 255 255 255 255 255 255 255 
252 255 89 0 210 255 253 255 255 255 255 255 255 255 255 255 255 252 255 89 0 
210 255 253 255 255 255 255 255 255 255 255 255 255 252 255 89 0 210 255 253 
255 255 255 255 255 255 255 255 255 255 251 255 90 0 207 255 253 255 255 255 
255 255 255 255 255 255 255 252 255 83 0 209 255 253 255 255 255 255 255 255 
255 255 254 255 242 181 29 0 110 220 254 255 255 255 255 255 255 255 255 254 
255 238 185 192 198 182 206 255 255 255 255 255 255 255 255 255 255 255 255 
255 255 255 255 255 255 255 255 255 255 255 255 255 255 255 255 254 252 252 
252 252 253 255 255 255 255 255 255 255 255 255 255 255 255 255 255 255 255 
255 255 255 255 255 255 255 255 255 255 255 255 255 255 255 255 255 255 255 
255 255 255 255 255 255 255 255 255 255 255 255 255 255 255 255 255 255 255 
255 255 255 255 255 255 255 255 255 255 255 255 255 255 255 255 255 255 255 
255 
