P2
17 22
255
255 255 255 255 255 255 255 255 255 255 255 255 255 255 255 255 255 255 255 
255 254 252 251 251 252 253 255 255 255 255 255 255 255 255 255 255 255 255 
255 255 255 255 255 255 255 255 255 255 255 255 255 255 254 255 215 131 105 
105 117 170 253 255 255 255 255 255 255 255 255 255 255 253 217 18 0 185 250 
253 255 255 255 255 255 255 255 255 255 255 255 255 46 15 242 255 254 255 255 
255 255 255 255 255 255 255 255 255 255 42 11 240 255 254 255 255 255 255 255 
255 255 255 255 255 255 255 42 11 242 255 254 255 255 255 255 255 255 255 255 
255 255 255 255 42 11 242 255 254 255 255 255 255 255 255 255 255 255 255 255 
255 42 11 242 255 254 255 255 255 254 255 255 255 255 255 255 255 255 42 11 242 
255 254 255 255 254 255 255 255 255 255 255 255 255 255 42 11 241 255 254 255 
254 249 232 255 255 255 255 255 255 254 255 42 13 241 255 251 251 255 184 139 
255 252 255 255 255 255 255 255 42 8 237 255 253 255 240 58 199 255 253 255 
255 254 255 235 158 8 0 52 84 82 70 11 47 255 255 255 255 255 254 255 227 182 
194 197 185 179 180 182 187 220 255 254 255 255 255 255 255 255 255 255 255 
255 255 255 255 255 255 255 255 255 255 255 255 255 254 252 252 252 252 252 
252 252 252 253 255 255 255 255 255 255 255 255 255 255 255 255 255 255 255 
255 255 255 255 255 255 255 255 255 255 255 255 255 255 255 255 255 255 255 
255 255 255 255 255 255 255 255 255 255 255 255 255 255 255 255 255 255 255 
255 255 255 255 255 255 255 255 255 255 255 255 255 255 255 255 255 255 255 
