P2
17 22
255
255 255 255 255 255 255 255 255 255 255 255 255 255 255 255 255 255 255 254 
251 251 251 254 255 255 255 255 254 252 251 252 254 255 255 255 255 255 255 
255 254 254 255 255 255 255 255 255 255 255 255 255 255 214 111 97 106 221 255 
253 254 255 190 119 102 134 217 255 253 255 246 215 85 0 61 247 255 254 253 
255 161 17 225 253 255 255 255 253 255 227 16 0 100 255 252 253 255 211 60 255 
255 255 255 255 253 255 218 43 47 0 143 255 249 255 209 55 255 255 255 255 255 
253 255 216 61 211 16 0 184 255 255 210 56 255 255 255 255 255 253 255 218 49 
255 177 0 22 218 255 207 56 255 255 255 255 255 253 255 218 53 250 255 135 0 53 
255 210 55 255 255 255 255 255 253 255 218 53 254 253 255 95 0 104 215 55 255 
255 255 255 255 253 255 218 53 254 255 255 245 54 0 91 68 255 255 255 255 255 
254 255 217 54 251 255 252 255 220 26 0 55 255 254 255 255 255 253 255 214 49 
255 255 255 251 255 189 0 55 255 254 255 255 254 255 227 119 3 163 234 255 254 
251 255 136 42 255 255 255 255 254 255 213 183 194 182 226 255 254 255 255 248 
185 253 255 255 255 255 255 255 255 255 255 255 255 255 255 255 253 255 255 
255 255 255 255 255 254 252 252 252 254 255 255 255 255 255 252 255 255 255 
255 255 255 255 255 255 255 255 255 255 255 255 255 255 255 255 255 255 255 
255 255 255 255 255 255 255 255 255 255 255 255 255 255 255 255 255 255 255 
255 255 255 255 255 255 255 255 255 255 255 255 255 255 255 255 255 255 255 
255 255 255 255 255 255 255 255 255 255 255 255 
