P2
17 22
255
255 255 255 255 255 255 255 255 255 255 255 255 255 255 255 255 255 255 255 
255 255 253 251 251 251 251 251 252 254 255 255 255 255 255 255 255 255 255 
255 255 255 255 255 255 255 254 254 255 255 255 255 255 254 255 247 161 109 
107 100 95 100 168 246 255 254 255 255 255 255 255 255 251 253 103 0 90 181 
100 0 52 234 255 254 255 255 255 255 255 251 255 155 0 159 255 255 112 0 106 
255 252 255 255 255 255 255 251 255 152 0 153 255 255 183 0 45 255 255 255 255 
255 255 255 251 255 153 0 156 255 255 170 0 63 255 254 255 255 255 255 255 251 
255 153 0 149 255 235 53 0 156 255 252 255 255 255 255 255 251 255 151 0 54 91 
37 22 144 255 254 255 255 255 255 255 255 251 255 153 0 147 240 224 250 255 
254 255 255 255 255 255 255 255 251 255 153 0 155 255 251 254 252 255 255 255 
255 255 255 255 255 251 255 152 0 153 255 250 254 255 255 255 255 255 255 255 
255 255 251 255 152 0 153 255 251 255 255 255 255 255 255 255 255 255 255 249 
204 65 0 68 207 249 255 255 255 255 255 255 255 255 255 255 249 192 187 199 
187 193 250 255 255 255 255 255 255 255 255 255 255 255 255 255 255 255 255 
255 255 255 255 255 255 255 255 255 255 255 255 253 252 252 252 253 255 255 
255 255 255 255 255 255 255 255 255 255 255 255 255 255 255 255 255 255 255 
255 255 255 255 255 255 255 255 255 255 255 255 255 255 255 255 255 255 255 
255 255 255 255 255 255 255 255 255 255 255 255 255 255 255 255 255 255 255 
255 255 255 255 255 255 255 255 255 255 255 255 255 255 255 255 255 
