P2
17 22
255
255 255 255 255 255 255 255 255 255 255 255 255 255 255 255 255 255 255 255 
255 253 251 251 251 251 251 251 254 255 255 255 255 255 255 255 255 255 255 
255 255 255 255 255 255 254 253 255 255 255 255 255 254 255 228 138 105 107 
98 100 99 153 236 255 254 255 255 255 255 255 255 252 232 39 0 133 190 118 0 30 
218 255 253 255 255 255 255 255 252 255 82 0 221 255 255 132 0 88 255 253 255 
255 255 255 255 252 255 80 0 214 255 255 186 0 45 254 255 254 255 255 255 255 
252 255 80 0 217 255 255 142 0 86 255 253 255 255 255 255 255 252 255 80 0 203 
247 160 7 23 214 255 253 255 255 255 255 255 252 255 80 0 76 30 0 115 241 255 
254 255 255 255 255 255 255 252 255 80 0 224 174 0 87 255 251 255 255 255 255 
255 255 255 252 255 80 0 215 255 103 0 134 255 251 255 255 255 255 255 255 252 
255 81 0 213 255 242 45 0 194 255 249 254 255 255 255 255 253 255 73 0 217 255 
255 203 0 36 235 255 254 255 255 254 255 241 175 22 0 118 223 251 255 143 0 40 
157 236 255 254 254 255 236 184 193 197 183 208 255 254 249 202 188 177 234 
255 254 255 255 255 255 255 255 255 255 255 255 254 255 255 255 255 255 255 
255 255 254 253 252 252 252 254 255 255 255 252 252 252 254 255 255 255 255 
255 255 255 255 255 255 255 255 255 255 255 255 255 255 255 255 255 255 255 
255 255 255 255 255 255 255 255 255 255 255 255 255 255 255 255 255 255 255 
255 255 255 255 255 255 255 255 255 255 255 255 255 255 255 255 255 255 255 
255 255 255 255 255 255 255 255 255 
