P2
17 22
255
255 255 255 255 255 255 255 255 255 255 255 255 255 255 255 255 255 255 255 
255 255 255 253 251 255 255 251 252 254 255 255 255 255 255 255 255 255 255 
254 254 255 255 255 255 255 255 255 255 255 255 255 255 255 255 254 255 224 
88 67 70 107 162 169 255 252 255 255 255 255 255 254 255 232 24 98 234 226 132 
0 133 255 251 255 255 255 255 255 251 255 128 7 244 255 251 255 123 121 255 
251 255 255 255 255 255 251 255 109 0 181 255 249 255 207 143 255 252 255 255 
255 255 255 252 255 172 0 11 137 249 255 244 229 255 254 255 255 255 255 255 
255 254 255 110 0 0 43 175 255 254 254 255 255 255 255 255 255 255 255 252 255 
175 38 0 0 74 232 255 254 255 255 255 255 255 255 255 254 251 255 246 142 22 
0 64 255 255 254 255 255 255 255 253 255 194 229 255 252 255 220 32 0 199 255 
252 255 255 255 255 251 255 133 177 255 247 244 255 141 0 188 255 252 255 255 
255 255 251 255 133 51 254 255 251 255 101 10 240 255 254 255 255 255 255 251 
255 143 6 57 134 162 92 11 182 255 253 255 255 255 255 255 254 255 211 239 210 
135 118 138 229 255 253 255 255 255 255 255 255 255 255 255 255 255 255 255 
255 254 253 255 255 255 255 255 255 255 255 255 253 254 253 251 251 251 254 
255 255 255 255 255 255 255 255 255 255 255 255 255 255 255 255 255 255 255 
255 255 255 255 255 255 255 255 255 255 255 255 255 255 255 255 255 255 255 
255 255 255 255 255 255 255 255 255 255 255 255 255 255 255 255 255 255 255 
255 255 255 255 255 255 255 255 255 255 255 255 255 255 255 255 255 
