P2
17 22
255
255 255 255 255 255 255 255 255 255 255 255 255 255 255 255 255 255 255 255 
253 251 251 251 253 255 255 255 254 252 251 253 255 255 255 255 255 255 255 
255 255 255 255 255 255 255 255 255 255 255 255 255 255 250 165 110 105 108 
158 244 255 255 190 118 101 131 218 255 254 255 252 255 109 0 95 252 251 255 
253 255 160 14 219 254 255 255 255 251 255 169 0 144 255 251 255 253 255 210 
60 255 255 255 255 255 251 255 167 0 139 255 251 255 253 255 209 55 255 255 
255 255 255 251 255 168 0 140 255 251 255 253 255 210 56 255 255 255 255 255 
251 255 168 0 140 255 251 255 253 255 210 56 255 255 255 255 255 251 255 168 
0 140 255 251 255 253 255 210 56 255 255 255 255 255 251 255 168 0 141 255 251 
255 253 255 207 58 255 255 255 255 255 251 255 170 0 133 255 251 255 253 255 
190 70 255 253 255 255 255 252 255 198 0 96 255 248 251 248 255 148 91 255 251 
255 255 255 254 255 251 43 6 220 255 252 255 227 32 183 255 252 255 255 255 
255 253 255 209 31 11 103 128 93 20 140 255 253 255 255 255 255 255 255 254 
255 244 169 120 119 137 217 255 253 255 255 255 255 255 255 255 255 253 254 
255 255 255 255 255 252 255 255 255 255 255 255 255 255 255 255 254 252 251 
251 251 253 255 255 255 255 255 255 255 255 255 255 255 255 255 255 255 255 
255 255 255 255 255 255 255 255 255 255 255 255 255 255 255 255 255 255 255 
255 255 255 255 255 255 255 255 255 255 255 255 255 255 255 255 255 255 255 
255 255 255 255 255 255 255 255 255 255 255 255 255 255 255 255 255 255 255 
255 
