P2
17 22
255
255 255 255 255 255 255 255 255 255 255 255 255 255 255 255 255 255 254 251 
251 251 253 255 252 251 251 252 254 255 255 253 251 251 254 255 255 255 255 
255 255 255 255 255 255 255 255 255 255 255 255 255 189 108 107 106 173 244 
129 101 107 120 211 255 251 161 107 104 178 255 139 0 58 247 255 217 32 0 154 
255 253 253 251 49 101 255 255 240 18 26 244 254 255 143 0 139 255 251 255 249 
57 219 255 252 255 95 0 181 255 255 220 0 50 255 252 255 178 69 255 252 252 
255 181 0 96 255 255 216 6 0 205 255 255 96 144 255 251 254 255 244 25 17 236 
255 135 17 0 122 255 235 51 225 255 254 255 252 255 108 0 173 255 58 160 15 37 
255 165 76 255 252 255 255 252 255 192 0 99 213 45 255 76 0 215 95 154 255 252 
255 255 254 255 249 30 31 95 114 255 156 0 91 63 232 255 254 255 255 255 251 
255 116 0 9 206 255 227 20 0 102 255 252 255 255 255 255 252 255 200 0 57 255 
252 255 85 0 188 255 252 255 255 255 255 254 255 255 30 127 255 248 255 159 
22 248 255 254 255 255 255 255 255 253 255 180 218 255 253 255 232 181 255 254 
255 255 255 255 255 255 255 255 254 254 255 255 255 254 255 255 255 255 255 
255 255 255 255 255 255 252 254 255 255 255 254 252 255 255 255 255 255 255 
255 255 255 255 255 255 255 255 255 255 255 255 255 255 255 255 255 255 255 
255 255 255 255 255 255 255 255 255 255 255 255 255 255 255 255 255 255 255 
255 255 255 255 255 255 255 255 255 255 255 255 255 255 255 255 255 255 255 
255 255 255 255 255 255 255 255 255 255 
