P2
17 22
255
255 255 255 255 255 255 255 255 255 255 255 255 255 255 255 255 255 255 255 
254 251 251 251 252 254 255 255 254 251 251 251 254 255 255 255 255 255 255 
255 255 255 255 255 255 255 255 255 255 255 255 255 253 255 190 98 107 107 121 
208 255 255 214 116 104 100 180 255 254 255 255 251 151 0 0 170 255 253 252 
255 147 0 159 250 254 255 255 255 252 255 120 0 110 255 252 252 255 87 121 255 
252 255 255 255 255 254 255 241 37 0 188 255 255 173 44 251 254 254 255 255 
255 255 255 252 255 177 0 47 250 246 39 186 255 252 255 255 255 255 255 255 
255 252 255 93 0 146 116 94 255 251 255 255 255 255 255 255 255 255 253 255 
225 20 0 45 240 255 254 255 255 255 255 255 255 255 255 255 251 255 142 0 135 
255 251 255 255 255 255 255 255 255 255 255 255 252 255 170 0 138 255 251 255 
255 255 255 255 255 255 255 255 255 252 255 167 0 137 255 251 255 255 255 255 
255 255 255 255 255 255 251 255 166 0 138 255 251 255 255 255 255 255 255 255 
255 255 255 251 209 74 0 58 200 247 255 255 255 255 255 255 255 255 255 255 
252 196 186 199 188 190 247 255 255 255 255 255 255 255 255 255 255 255 255 
255 255 255 255 255 255 255 255 255 255 255 255 255 255 255 255 253 252 252 
252 253 255 255 255 255 255 255 255 255 255 255 255 255 255 255 255 255 255 
255 255 255 255 255 255 255 255 255 255 255 255 255 255 255 255 255 255 255 
255 255 255 255 255 255 255 255 255 255 255 255 255 255 255 255 255 255 255 
255 255 255 255 255 255 255 255 255 255 255 255 255 255 255 255 255 255 255 
