P2
#Created with GIMP
7 9
255
255 209 42 15 54 222 255 254 45 109 230 83 65 255 184 33 250 255 235 28 211 
142 56 255 250 255 41 171 130 63 255 251 255 45 160 145 56 255 250 255 40 174 
192 33 246 255 230 26 215 255 54 82 203 63 76 255 255 221 67 26 80 234 255 
