P2
#Created with GIMP
7 9
255
255 253 255 216 78 249 255 253 255 213 30 28 253 255 255 193 28 98 39 250 255 
255 222 236 198 26 253 255 255 253 255 189 27 253 255 255 251 255 192 26 253 
255 255 252 255 192 28 253 255 255 252 255 192 27 253 255 255 253 255 202 63 
253 255 
