P2
#Created with GIMP
7 9
255
255 255 251 255 106 138 255 255 251 255 171 0 131 255 252 255 203 29 20 126 
255 255 240 20 147 98 107 255 255 75 90 255 81 113 255 138 0 102 123 36 41 171 
167 94 85 88 31 30 151 255 255 251 255 83 112 255 253 251 248 255 125 147 255 
