P2
#Created with GIMP
7 9
255
255 174 18 28 17 60 251 255 101 60 189 163 177 253 255 54 159 255 251 255 254 
236 24 54 38 20 165 255 226 86 171 242 162 14 212 255 255 255 253 255 59 136 
202 98 252 255 255 46 157 235 25 101 203 96 46 247 255 213 61 29 70 223 255 
