P2
#Created with GIMP
7 9
255
255 222 67 27 71 225 255 255 59 80 201 77 62 255 241 25 202 255 202 25 240 255 
131 52 140 53 130 255 255 133 27 87 23 138 255 194 23 229 255 226 23 198 165 
41 255 254 255 42 166 236 29 122 227 125 28 236 255 197 39 18 39 197 255 
