P2
#Created with GIMP
5 7
255
255 171 139 178 255 207 101 255 98 218 141 115 255 107 156 121 126 255 111 140 
143 118 255 101 162 211 103 255 97 225 255 177 137 189 255 
