P2
#Created with GIMP
5 7
255
255 242 131 228 255 255 246 70 214 255 252 255 99 210 255 252 255 96 210 255 
252 255 97 209 255 252 255 97 210 255 255 248 79 183 255 
