P2
#Created with GIMP
5 7
255
255 143 51 119 255 220 186 252 68 192 251 250 255 126 197 254 255 231 144 255 
255 255 181 232 255 255 171 189 220 208 215 80 90 73 192 
