P2
#Created with GIMP
5 7
255
253 255 211 111 255 254 255 139 87 255 255 196 172 104 255 228 186 228 94 255 
157 75 88 26 171 246 235 198 83 248 254 255 231 137 255 
