P2
#Created with GIMP
5 7
255
254 255 160 172 245 255 147 157 255 252 222 63 183 197 255 155 82 229 53 191 
143 108 255 118 124 207 83 255 120 175 255 167 139 167 255 
