P2
#Created with GIMP
5 7
255
255 159 143 149 255 182 109 255 94 184 143 101 255 124 124 214 53 213 92 140 
255 216 194 64 214 252 255 159 145 255 248 180 168 255 254 
