P2
17 22
255
255 255 255 255 255 255 255 255 254 252 255 255 255 255 255 255 255 255 255 
255 255 255 254 251 252 255 255 255 255 255 255 255 255 255 255 255 255 254 
253 255 254 255 237 183 244 255 254 255 255 255 255 255 255 255 254 255 235 
167 86 16 14 234 255 254 255 255 255 255 255 253 255 222 57 2 0 1 0 18 234 255 
254 255 255 255 255 255 252 255 195 38 112 189 171 0 17 234 255 254 255 255 
255 255 255 255 255 255 255 252 255 196 0 18 234 255 254 255 255 255 255 255 
255 255 255 254 248 255 194 0 18 234 255 254 255 255 255 255 255 255 255 255 
255 252 255 196 0 18 234 255 254 255 255 255 255 255 255 255 255 255 252 255 
196 0 18 234 255 254 255 255 255 255 255 255 255 255 255 252 255 196 0 18 234 
255 254 255 255 255 255 255 255 255 255 255 252 255 196 0 18 234 255 254 255 
255 255 255 255 255 255 255 255 252 255 196 0 18 234 255 254 255 255 255 255 
255 255 255 255 255 252 255 196 0 18 234 255 254 255 255 255 255 255 255 255 
254 251 248 255 193 0 17 230 255 250 251 255 255 255 255 255 255 255 255 252 
255 196 0 19 236 255 254 255 255 255 255 255 253 255 220 109 113 119 87 0 9 104 
116 110 122 243 255 254 255 252 255 189 0 2 0 0 0 0 0 1 0 12 230 255 253 255 
254 255 242 200 201 201 200 197 197 201 201 200 205 250 255 255 255 255 255 
255 255 255 255 255 255 255 255 255 255 255 255 255 255 255 255 255 254 252 
252 252 252 252 252 252 252 252 252 255 255 255 255 255 255 255 255 255 255 
255 255 255 255 255 255 255 255 255 255 
