P2
17 22
255
255 255 255 255 253 251 254 255 255 252 253 255 255 255 255 255 255 255 255 
255 255 255 255 255 251 252 255 254 254 255 255 255 255 255 255 255 254 255 
224 98 32 13 18 78 210 255 253 255 255 255 255 255 255 251 255 156 0 77 119 
72 0 17 215 255 253 255 255 255 255 255 254 255 221 224 255 252 255 116 0 106 
255 251 255 255 255 255 255 255 255 255 255 252 248 255 191 0 68 255 254 255 
255 255 255 255 255 255 254 253 255 251 255 165 0 93 255 252 255 255 255 255 
255 255 255 255 255 254 253 255 62 0 182 255 252 255 255 255 255 255 255 255 
255 254 251 255 120 0 111 255 253 255 255 255 255 255 255 255 255 255 252 255 
125 0 104 255 254 255 255 255 255 255 255 255 255 255 252 255 134 0 115 255 
253 254 255 255 255 255 255 255 255 255 252 255 171 0 89 255 249 250 253 255 
255 255 255 255 255 255 253 255 226 13 32 242 255 254 255 255 255 255 255 255 
255 255 255 252 255 110 0 72 173 157 163 155 193 255 254 255 255 255 255 255 
252 255 79 0 3 0 0 4 0 88 255 251 255 255 255 255 255 254 255 216 192 198 199 
199 200 195 218 255 254 255 255 255 255 255 255 255 255 255 255 255 255 255 
255 255 255 255 255 255 255 255 255 255 255 253 252 252 252 252 252 252 253 
255 255 255 255 255 255 255 255 255 255 255 255 255 255 255 255 255 255 255 
255 255 255 255 255 255 255 255 255 255 255 255 255 255 255 255 255 255 255 
255 255 255 255 255 255 255 255 255 255 255 255 255 255 255 255 255 255 255 
255 255 255 255 255 255 255 255 255 255 255 255 255 255 255 255 
