P2
17 22
255
255 255 255 255 255 253 251 251 251 253 255 255 255 255 255 255 255 255 255 
255 254 254 255 255 255 255 255 253 254 255 255 255 255 255 255 255 255 255 
254 219 175 150 162 207 254 254 254 255 255 255 255 255 254 255 242 62 0 1 0 1 
0 80 238 255 254 255 255 255 255 253 255 224 9 71 152 176 132 17 0 82 255 254 
255 255 255 255 255 255 242 213 255 255 252 255 166 0 1 205 255 253 255 255 
255 255 255 255 255 253 251 250 255 237 23 0 162 255 251 255 255 255 255 255 
254 253 255 255 254 255 231 17 0 177 255 252 255 255 255 255 255 255 255 255 
255 251 255 166 0 21 232 255 254 255 255 255 255 255 255 255 255 253 255 239 
42 0 130 255 252 255 255 255 255 255 255 255 255 253 254 249 76 0 86 255 254 
255 255 255 255 255 255 255 255 254 255 249 78 0 88 250 254 254 255 255 255 
255 255 255 255 254 253 255 84 0 95 255 253 254 255 255 255 255 255 255 255 
255 252 255 116 0 78 254 253 253 255 255 255 255 255 255 255 255 252 255 173 
0 27 230 255 252 254 254 255 255 255 255 255 255 254 255 237 34 0 146 255 251 
255 255 255 255 255 255 255 255 255 251 255 156 0 4 46 57 55 55 57 48 201 255 
253 255 255 255 251 255 147 0 4 0 0 0 0 2 0 183 255 252 255 255 255 254 255 
232 193 198 198 199 199 199 199 197 240 255 254 255 255 255 255 255 255 255 
255 255 255 255 255 255 255 255 255 255 255 255 255 255 255 254 252 252 252 
252 252 252 252 252 254 255 255 255 255 255 255 255 255 255 255 255 255 255 
255 255 255 255 255 255 255 255 
