P2
17 22
255
255 255 255 255 255 253 251 251 251 252 254 255 255 255 255 255 255 255 255 
255 255 255 255 255 255 255 255 254 253 255 255 255 255 255 255 255 255 255 
253 219 177 152 155 191 246 255 254 255 255 255 255 255 255 251 255 127 0 3 0 
1 0 37 204 255 253 255 255 255 255 255 251 255 110 47 144 173 156 42 0 41 245 
255 254 255 255 255 255 255 255 242 252 255 253 255 210 10 0 188 255 252 255 
255 255 255 255 255 255 253 250 250 251 244 35 0 182 255 252 255 255 255 255 
255 255 254 255 255 253 255 208 0 18 233 255 254 255 255 255 255 255 255 255 
254 253 251 209 53 0 142 255 252 255 255 255 255 255 255 251 255 161 13 26 3 0 
152 255 251 255 255 255 255 255 255 255 251 255 163 17 32 4 0 54 190 255 253 
255 255 255 255 255 255 255 255 255 254 252 221 82 0 14 214 255 253 255 255 
255 255 255 255 255 255 255 254 255 245 45 0 115 255 251 255 255 255 255 255 
255 255 255 254 254 248 255 112 0 67 255 254 255 255 255 255 255 255 254 251 
252 252 248 255 103 0 73 255 253 255 255 255 255 255 255 255 255 255 254 255 
229 28 0 128 255 251 255 255 255 255 254 255 107 113 191 208 180 53 0 25 229 
255 253 255 255 255 255 253 255 66 0 3 0 1 0 32 198 255 253 255 255 255 255 
255 254 255 219 162 128 110 129 174 242 255 253 255 255 255 255 255 255 255 
255 255 255 255 255 255 255 254 253 255 255 255 255 255 255 255 255 255 253 
251 251 251 251 252 254 255 255 255 255 255 255 255 255 255 255 255 255 255 
255 255 255 255 255 255 255 255 255 255 
