P2
17 22
255
255 255 255 255 255 255 255 255 254 251 251 255 255 255 255 255 255 255 255 
255 255 255 255 255 255 253 255 255 255 255 255 255 255 255 255 255 255 255 
255 255 254 255 238 102 113 252 255 255 255 255 255 255 255 255 255 255 255 
252 255 110 0 32 249 255 254 255 255 255 255 255 255 255 255 252 255 182 0 0 33 
249 255 254 255 255 255 255 255 255 255 254 255 240 27 52 39 19 250 255 254 
255 255 255 255 255 255 255 252 255 101 0 211 53 15 251 255 254 255 255 255 
255 255 255 252 255 180 0 133 255 38 18 251 255 254 255 255 255 255 255 254 
255 237 21 51 251 255 41 18 247 254 255 255 255 255 255 255 253 255 95 5 221 
255 255 45 17 251 255 254 255 255 255 255 253 255 221 0 28 97 86 90 14 9 75 151 
255 252 255 255 255 253 255 226 60 51 39 40 41 7 6 25 120 255 252 255 255 255 
255 255 255 255 255 255 255 255 44 18 251 255 254 255 255 255 255 255 255 255 
254 254 254 254 255 43 20 250 255 254 255 255 255 255 255 255 255 255 255 255 
255 255 42 18 251 255 254 255 255 255 255 255 255 255 255 255 255 255 255 206 
200 254 255 255 255 255 255 255 255 255 255 255 255 255 255 255 255 255 255 
255 255 255 255 255 255 255 255 255 255 255 255 255 255 252 252 255 255 255 
255 255 255 255 255 255 255 255 255 255 255 255 255 255 255 255 255 255 255 
255 255 255 255 255 255 255 255 255 255 255 255 255 255 255 255 255 255 255 
255 255 255 255 255 255 255 255 255 255 255 255 255 255 255 255 255 255 255 
255 255 255 255 255 255 255 255 255 255 255 255 255 255 
