P2
17 22
255
255 255 255 255 255 253 251 251 251 251 251 253 255 255 255 255 255 255 255 
255 255 255 255 255 255 255 255 255 255 255 255 255 255 255 255 255 255 253 
255 181 87 95 92 95 81 158 255 253 255 255 255 255 255 255 251 255 133 0 8 6 10 
0 107 255 251 255 255 255 255 255 255 251 255 135 0 214 253 243 243 249 255 
255 255 255 255 255 255 255 251 255 132 0 223 255 253 255 255 255 255 255 255 
255 255 255 255 251 255 134 0 225 255 253 252 254 255 255 255 255 255 255 255 
255 251 255 133 0 51 93 180 254 254 255 255 255 255 255 255 255 255 253 255 
188 97 72 13 0 91 254 255 254 255 255 255 255 255 255 255 255 255 254 255 243 
71 0 147 255 252 255 255 255 255 255 255 255 255 253 251 249 255 195 0 62 255 
254 255 255 255 255 255 255 255 255 252 253 252 255 216 0 35 253 255 254 255 
255 255 255 255 255 255 255 255 252 255 171 0 65 255 254 255 255 255 255 255 
255 255 255 183 218 255 213 38 0 160 255 252 255 255 255 255 255 255 254 255 
58 0 14 2 0 120 255 254 255 255 255 255 255 255 255 254 255 207 136 112 132 
208 255 253 255 255 255 255 255 255 255 255 255 255 255 255 255 255 255 253 
255 255 255 255 255 255 255 255 255 255 255 253 251 251 251 253 255 255 255 
255 255 255 255 255 255 255 255 255 255 255 255 255 255 255 255 255 255 255 
255 255 255 255 255 255 255 255 255 255 255 255 255 255 255 255 255 255 255 
255 255 255 255 255 255 255 255 255 255 255 255 255 255 255 255 255 255 255 
255 255 255 255 255 255 255 255 255 255 255 255 255 255 255 
