P2
17 22
255
255 255 255 255 255 253 253 253 253 253 253 253 255 255 255 255 255 255 255 
255 255 255 255 255 255 255 255 255 255 255 255 255 255 255 255 255 255 255 
252 228 227 229 229 229 229 229 251 255 255 255 255 255 255 253 255 224 14 4 1 
1 1 1 0 213 255 253 255 255 255 255 253 255 223 6 2 26 25 25 25 23 217 255 253 
255 255 255 255 253 255 225 0 40 245 245 245 245 245 254 255 255 255 255 255 
255 253 255 225 0 41 255 255 254 255 255 255 255 255 255 255 255 255 253 255 
225 0 43 255 255 254 251 254 255 255 255 255 255 255 255 253 255 224 5 25 157 
190 241 255 253 255 255 255 255 255 255 255 253 255 221 5 0 2 0 24 153 255 253 
255 255 255 255 255 255 254 255 245 186 186 161 74 1 0 143 255 252 255 255 255 
255 255 255 255 255 255 255 253 255 131 0 18 228 255 253 255 255 255 255 255 
255 255 252 252 250 255 238 26 0 163 255 251 255 255 255 255 255 255 255 255 
255 255 254 254 50 0 133 255 251 255 255 255 255 255 255 255 251 252 251 255 
241 30 0 147 255 251 255 255 255 255 255 255 255 255 255 252 255 159 0 4 206 
255 253 255 255 255 255 252 255 175 93 186 210 147 14 0 102 255 253 255 255 
255 255 255 251 255 157 0 4 0 0 0 101 248 255 254 255 255 255 255 255 254 255 
241 180 134 111 136 206 255 253 254 255 255 255 255 255 255 255 255 255 255 
255 255 255 255 252 254 255 255 255 255 255 255 255 255 255 254 252 251 251 
251 253 255 255 255 255 255 255 255 255 255 255 255 255 255 255 255 255 255 
255 255 255 255 255 255 255 
