P2
17 22
255
255 255 255 255 255 255 253 251 254 255 255 253 251 255 255 255 255 255 255 
255 255 255 253 255 255 254 251 252 255 255 255 255 255 255 255 255 255 255 
253 255 219 107 30 13 17 42 126 254 255 255 255 255 255 255 253 255 175 10 0 65 
116 100 33 27 246 255 254 255 255 255 253 255 214 8 9 189 255 253 255 254 220 
250 255 255 255 255 255 252 255 104 0 138 255 249 251 251 254 255 255 255 255 
255 255 254 255 245 27 7 227 255 253 255 255 255 253 255 255 255 255 255 253 
255 214 0 53 255 254 255 255 255 255 255 255 255 255 255 255 252 255 194 0 79 
255 253 255 255 255 255 255 255 255 255 255 255 252 255 197 0 73 255 253 255 
255 255 255 255 255 255 255 255 255 253 255 221 0 38 251 255 255 255 255 255 
255 255 255 255 255 255 254 255 254 46 0 193 255 249 253 253 252 251 255 255 
255 255 255 255 251 255 138 0 57 242 255 254 255 255 255 255 255 255 255 255 
255 254 255 248 56 0 45 174 229 233 195 133 240 255 254 255 255 255 255 254 
255 232 77 0 1 0 1 0 21 238 255 254 255 255 255 255 255 254 254 255 204 140 
118 124 165 228 255 255 255 255 255 255 255 255 255 253 253 255 255 255 255 
255 255 255 255 255 255 255 255 255 255 255 255 255 252 251 251 251 251 253 
255 255 255 255 255 255 255 255 255 255 255 255 255 255 255 255 255 255 255 
255 255 255 255 255 255 255 255 255 255 255 255 255 255 255 255 255 255 255 
255 255 255 255 255 255 255 255 255 255 255 255 255 255 255 255 255 255 255 
255 255 255 255 255 255 255 255 255 255 255 255 255 255 255 
