P2
17 22
255
255 255 255 255 251 251 251 251 251 251 254 255 255 255 255 255 255 255 255 
255 255 255 255 255 255 255 255 254 253 255 255 255 255 255 255 254 255 244 
111 93 87 87 100 156 234 255 253 255 255 255 255 255 254 255 236 18 1 42 29 7 
0 20 188 255 253 255 255 255 255 254 255 239 15 37 253 255 248 145 0 19 225 
255 253 255 255 255 254 255 239 12 32 252 255 252 255 108 0 129 255 251 255 
255 255 254 255 239 12 33 253 255 250 255 200 0 60 255 254 255 255 255 254 255 
239 12 33 253 255 253 255 233 7 27 247 255 254 255 255 254 255 239 12 33 253 
255 253 255 244 23 13 238 255 254 255 255 254 255 239 12 33 253 255 253 255 
239 14 23 246 255 254 255 255 254 255 239 12 33 253 255 253 255 218 0 50 255 
255 255 255 255 254 255 239 12 32 250 253 247 255 158 0 109 255 251 255 255 
255 254 255 239 11 34 254 255 255 236 37 0 203 255 253 255 255 255 254 255 239 
15 27 199 189 143 32 0 132 255 253 255 255 255 255 254 255 237 20 0 1 1 0 28 
160 255 253 255 255 255 255 255 255 255 251 201 195 197 198 218 250 255 253 
255 255 255 255 255 255 255 255 255 255 255 255 255 255 254 252 255 255 255 
255 255 255 255 255 255 255 252 252 252 252 253 254 255 255 255 255 255 255 
255 255 255 255 255 255 255 255 255 255 255 255 255 255 255 255 255 255 255 
255 255 255 255 255 255 255 255 255 255 255 255 255 255 255 255 255 255 255 
255 255 255 255 255 255 255 255 255 255 255 255 255 255 255 255 255 255 255 
255 255 255 255 255 255 255 255 255 255 255 255 
