P2
17 22
255
255 255 255 255 255 251 251 251 251 251 251 251 251 255 255 255 255 255 255 
255 255 255 255 255 255 255 255 255 255 255 255 255 255 255 255 255 254 255 
247 114 93 87 86 86 87 84 93 237 255 254 255 255 255 254 255 242 23 0 41 43 42 
43 40 51 232 255 254 255 255 255 254 255 244 21 31 249 255 254 255 255 255 255 
255 255 255 255 255 254 255 244 17 26 248 255 253 254 254 254 255 255 255 255 
255 255 254 255 244 17 26 247 255 252 253 253 254 255 255 255 255 255 255 254 
255 244 17 27 249 255 254 255 255 255 255 255 255 255 255 255 254 255 243 23 
1 51 51 51 52 46 210 255 253 255 255 255 255 254 255 243 23 4 75 77 76 77 72 
215 255 253 255 255 255 255 254 255 244 17 28 250 255 254 255 255 255 255 255 
255 255 255 255 254 255 244 17 26 246 254 251 252 252 254 255 255 255 255 255 
255 254 255 244 17 26 249 255 254 255 255 255 255 255 255 255 255 255 254 255 
244 18 27 249 255 254 255 255 255 255 255 255 255 255 255 254 255 244 17 26 248 
255 254 255 255 255 255 255 255 255 255 255 255 255 252 200 202 254 255 255 
255 255 255 255 255 255 255 255 255 255 255 255 255 255 255 255 255 255 255 
255 255 255 255 255 255 255 255 255 255 252 252 255 255 255 255 255 255 255 
255 255 255 255 255 255 255 255 255 255 255 255 255 255 255 255 255 255 255 
255 255 255 255 255 255 255 255 255 255 255 255 255 255 255 255 255 255 255 
255 255 255 255 255 255 255 255 255 255 255 255 255 255 255 255 255 255 255 
255 255 255 255 255 255 255 255 255 255 255 255 255 255 
