P2
17 22
255
255 255 255 255 252 251 255 255 255 255 253 250 254 255 255 255 255 255 255 
255 255 255 255 255 255 255 255 255 255 255 255 255 255 255 255 255 255 255 
129 95 239 255 251 255 169 78 206 255 253 255 255 255 255 254 255 48 0 229 255 
249 255 116 0 172 255 251 255 255 255 255 254 255 54 0 229 255 249 255 118 0 176 
255 252 255 255 255 255 254 255 51 0 226 255 246 255 114 0 175 255 251 255 255 
255 255 254 255 51 0 229 255 249 255 116 0 175 255 251 255 255 255 255 254 255 
52 0 172 196 187 205 88 0 174 255 251 255 255 255 255 254 255 53 0 3 0 0 0 3 0 
171 255 251 255 255 255 255 254 255 52 0 187 214 203 223 95 0 174 255 251 255 
255 255 255 254 255 51 0 229 255 249 255 116 0 175 255 251 255 255 255 255 254 
255 51 0 227 255 247 255 115 0 175 255 251 255 255 255 255 254 255 51 0 229 
255 249 255 116 0 175 255 251 255 255 255 255 254 255 52 0 229 255 249 255 117 
0 175 255 251 255 255 255 255 254 255 50 0 229 255 249 255 116 0 174 255 251 
255 255 255 255 255 255 208 195 249 255 254 255 223 188 237 255 254 255 255 
255 255 255 255 255 255 255 255 255 255 255 255 255 255 255 255 255 255 255 
255 255 253 252 255 255 255 255 253 252 254 255 255 255 255 255 255 255 255 
255 255 255 255 255 255 255 255 255 255 255 255 255 255 255 255 255 255 255 
255 255 255 255 255 255 255 255 255 255 255 255 255 255 255 255 255 255 255 
255 255 255 255 255 255 255 255 255 255 255 255 255 255 255 255 255 255 255 
255 255 255 255 255 255 255 
