P2
17 22
255
255 255 255 255 252 251 251 251 251 251 251 251 254 255 255 255 255 255 255 
255 255 255 255 255 255 255 255 255 255 255 255 255 255 255 255 255 252 255 
149 75 88 94 99 89 86 82 218 255 253 255 255 255 255 252 255 121 27 47 12 0 33 
45 36 208 255 253 255 255 255 255 255 255 255 252 255 94 0 199 255 252 255 255 
255 255 255 255 255 255 255 254 251 255 91 0 197 255 251 255 255 255 255 255 
255 255 255 255 255 252 255 91 0 198 255 252 255 255 255 255 255 255 255 255 
255 255 252 255 91 0 198 255 252 255 255 255 255 255 255 255 255 255 255 252 
255 91 0 198 255 252 255 255 255 255 255 255 255 255 255 255 252 255 91 0 198 
255 252 255 255 255 255 255 255 255 255 255 255 252 255 91 0 198 255 252 255 
255 255 255 255 255 255 255 255 253 249 255 90 0 196 255 249 254 255 255 255 
255 255 255 255 255 255 252 255 92 0 198 255 252 255 255 255 255 255 255 255 
254 255 222 197 216 73 0 158 213 199 244 255 254 255 255 255 255 251 255 95 0 
4 0 0 0 1 0 198 255 252 255 255 255 255 254 255 218 192 197 196 196 196 196 
195 242 255 254 255 255 255 255 255 255 255 255 255 255 255 255 255 255 255 
255 255 255 255 255 255 255 255 253 252 252 252 252 252 252 252 254 255 255 
255 255 255 255 255 255 255 255 255 255 255 255 255 255 255 255 255 255 255 
255 255 255 255 255 255 255 255 255 255 255 255 255 255 255 255 255 255 255 
255 255 255 255 255 255 255 255 255 255 255 255 255 255 255 255 255 255 255 
255 255 255 255 255 255 255 255 255 255 255 255 255 
