P2
17 22
255
255 255 255 255 255 253 251 251 251 251 251 255 255 255 255 255 255 255 255 
255 255 255 255 255 255 255 255 255 255 255 255 255 255 255 255 255 255 252 
255 165 74 89 86 94 106 238 255 254 255 255 255 255 255 255 252 255 141 27 45 
43 4 9 227 255 253 255 255 255 255 255 255 255 255 255 255 255 255 50 5 231 
255 253 255 255 255 255 255 255 255 255 254 254 254 255 46 1 230 255 253 255 
255 255 255 255 255 255 255 255 255 255 255 46 1 230 255 253 255 255 255 255 
255 255 255 255 255 255 255 255 46 1 230 255 253 255 255 255 255 255 255 255 
255 255 255 255 255 46 1 230 255 253 255 255 255 255 255 255 255 255 255 255 
255 255 46 1 230 255 253 255 255 255 255 255 255 255 255 255 255 255 255 46 1 
230 255 253 255 255 255 255 255 255 255 253 252 254 253 255 45 7 237 255 254 
255 255 255 255 255 255 255 255 255 254 255 248 25 28 251 255 254 255 255 255 
255 255 253 255 209 184 245 255 152 0 92 255 252 255 255 255 255 255 255 251 
255 157 0 11 11 0 37 223 255 253 255 255 255 255 255 255 254 255 239 167 122 
113 159 241 255 254 255 255 255 255 255 255 255 255 255 255 255 255 255 255 
254 254 255 255 255 255 255 255 255 255 255 255 254 251 251 251 251 254 255 
255 255 255 255 255 255 255 255 255 255 255 255 255 255 255 255 255 255 255 
255 255 255 255 255 255 255 255 255 255 255 255 255 255 255 255 255 255 255 
255 255 255 255 255 255 255 255 255 255 255 255 255 255 255 255 255 255 255 
255 255 255 255 255 255 255 255 255 255 255 255 255 255 255 255 255 
