P2
17 22
255
255 255 255 255 254 251 253 255 255 255 255 255 255 255 255 255 255 255 255 
255 255 255 255 255 255 255 255 255 255 255 255 255 255 255 255 255 253 255 
214 81 160 255 253 255 255 255 255 255 255 255 255 255 255 252 255 187 0 99 255 
251 255 255 255 255 255 255 255 255 255 255 252 255 190 0 103 255 251 255 255 
255 255 255 255 255 255 255 255 252 255 189 0 100 255 251 255 255 255 255 255 
255 255 255 255 255 252 255 189 0 100 255 251 255 255 255 255 255 255 255 255 
255 255 252 255 189 0 100 255 251 255 255 255 255 255 255 255 255 255 255 252 
255 189 0 100 255 251 255 255 255 255 255 255 255 255 255 255 252 255 189 0 100 
255 251 255 255 255 255 255 255 255 255 255 255 252 255 189 0 100 255 251 255 
255 255 255 255 255 255 255 255 255 252 255 189 0 99 255 248 252 252 252 253 
255 255 255 255 255 255 252 255 189 0 102 255 251 255 255 255 255 255 255 255 
255 255 255 252 255 188 0 81 216 200 203 204 199 225 255 254 255 255 255 255 
252 255 184 0 2 0 0 0 4 0 108 255 251 255 255 255 255 254 255 239 194 197 196 
196 196 197 192 222 255 254 255 255 255 255 255 255 255 255 255 255 255 255 
255 255 255 255 255 255 255 255 255 255 255 254 252 252 252 252 252 252 252 
253 255 255 255 255 255 255 255 255 255 255 255 255 255 255 255 255 255 255 
255 255 255 255 255 255 255 255 255 255 255 255 255 255 255 255 255 255 255 
255 255 255 255 255 255 255 255 255 255 255 255 255 255 255 255 255 255 255 
255 255 255 255 255 255 255 255 255 255 255 255 255 255 255 255 
