P2
17 22
255
255 255 255 255 252 251 254 255 255 255 254 251 253 255 255 255 255 255 255 
255 255 255 255 254 255 255 255 255 255 255 255 255 255 255 255 255 255 255 
130 92 228 255 252 255 224 84 195 255 253 255 255 255 255 254 255 54 0 119 255 
249 255 203 0 158 255 251 255 255 255 255 254 255 57 0 17 223 255 255 205 0 159 
255 251 255 255 255 255 254 255 53 0 0 109 255 255 205 0 157 255 251 255 255 
255 255 254 255 43 43 48 2 216 255 203 0 157 255 251 255 255 255 255 254 255 
37 66 171 0 100 255 201 0 157 255 251 255 255 255 255 254 255 40 52 255 45 0 222 
213 0 157 255 251 255 255 255 255 254 255 41 48 255 168 0 108 216 0 157 255 
251 255 255 255 255 254 255 41 51 255 253 54 3 157 0 155 255 251 255 255 255 
255 254 255 41 51 255 255 176 0 41 0 155 255 251 255 255 255 255 254 255 41 51 
255 252 255 62 0 0 157 255 251 255 255 255 255 254 255 41 52 255 250 255 183 
0 0 157 255 251 255 255 255 255 254 255 40 50 255 253 253 255 75 0 160 255 251 
255 255 255 255 255 255 205 208 255 255 254 255 229 188 233 255 254 255 255 
255 255 255 255 255 255 255 255 255 255 254 255 255 255 255 255 255 255 255 
255 255 253 253 255 255 255 255 254 252 254 255 255 255 255 255 255 255 255 
255 255 255 255 255 255 255 255 255 255 255 255 255 255 255 255 255 255 255 
255 255 255 255 255 255 255 255 255 255 255 255 255 255 255 255 255 255 255 
255 255 255 255 255 255 255 255 255 255 255 255 255 255 255 255 255 255 255 
255 255 255 255 255 255 255 
