P2
17 22
255
255 255 255 255 255 253 252 255 255 253 251 255 255 255 255 255 255 255 255 
255 255 254 254 255 253 251 255 255 253 255 255 255 255 255 255 255 255 253 
255 226 94 18 12 44 163 255 253 255 255 255 255 255 255 253 255 225 29 0 84 115 
37 0 130 255 253 255 255 255 255 255 253 255 88 0 171 255 254 247 55 0 204 255 
253 255 255 255 253 255 218 0 59 255 251 247 255 180 0 104 255 252 255 255 255 
251 255 161 0 125 255 251 254 255 234 7 37 253 255 254 255 255 251 255 120 0 161 
255 251 254 255 252 34 5 232 255 254 255 255 251 255 106 0 171 255 251 255 254 
255 47 0 221 255 253 255 255 251 255 108 0 171 255 251 255 255 255 44 0 224 
255 253 255 255 251 255 135 0 148 255 251 254 255 245 24 16 240 255 254 255 
255 252 255 183 0 102 255 250 252 255 217 0 60 255 254 255 255 255 254 255 243 
23 23 240 255 250 255 138 0 142 255 251 255 255 255 255 252 255 143 0 91 239 
255 180 4 31 239 255 254 255 255 255 255 255 254 255 104 0 6 12 0 26 203 255 
253 255 255 255 255 255 255 255 253 255 197 124 113 154 236 255 253 255 255 
255 255 255 255 255 255 254 253 255 255 255 255 254 253 255 255 255 255 255 
255 255 255 255 255 255 252 251 251 251 254 255 255 255 255 255 255 255 255 
255 255 255 255 255 255 255 255 255 255 255 255 255 255 255 255 255 255 255 
255 255 255 255 255 255 255 255 255 255 255 255 255 255 255 255 255 255 255 
255 255 255 255 255 255 255 255 255 255 255 255 255 255 255 255 255 255 255 
255 255 255 255 255 255 255 255 255 
