P2
17 22
255
255 255 255 255 255 253 252 255 255 253 251 255 255 255 255 255 255 255 255 
255 255 253 254 255 253 251 255 255 253 255 255 255 255 255 255 255 255 253 
255 225 94 18 12 44 164 255 253 255 255 255 255 255 255 253 255 224 28 0 84 115 
37 0 130 255 253 255 255 255 255 255 253 255 88 0 171 255 254 247 55 0 204 255 
253 255 255 255 253 255 218 0 59 255 251 247 255 180 0 104 255 252 255 255 255 
251 255 161 0 125 255 251 254 255 234 7 37 253 255 254 255 255 251 255 120 0 161 
255 251 254 255 252 34 5 232 255 254 255 255 251 255 106 0 171 255 251 255 254 
255 47 0 221 255 253 255 255 251 255 108 0 171 255 251 255 255 255 44 0 224 
255 253 255 255 251 255 135 0 148 255 251 254 255 245 23 17 241 255 254 255 
255 252 255 184 0 102 255 250 252 255 217 0 59 255 254 255 255 255 254 255 243 
23 23 240 255 250 255 137 0 136 255 251 255 255 255 255 252 255 144 0 90 240 
254 177 5 25 233 255 254 255 255 255 255 255 254 255 106 0 6 12 0 22 208 255 
252 255 255 255 255 255 255 255 253 255 197 127 107 10 20 156 239 255 254 255 
255 255 255 255 255 254 253 255 253 255 197 31 0 5 124 255 253 255 255 255 255 
255 255 255 252 251 251 255 242 132 32 196 255 253 255 255 255 255 255 255 255 
255 255 255 252 254 255 251 254 255 255 255 255 255 255 255 255 255 255 255 
255 255 254 252 254 254 255 255 255 255 255 255 255 255 255 255 255 255 255 
255 255 255 255 255 255 255 255 255 255 255 255 255 255 255 255 255 255 255 
255 255 255 255 255 
