P2
17 22
255
255 255 255 252 251 251 251 251 251 251 251 251 251 254 255 255 255 255 255 
255 255 255 255 255 255 255 255 255 255 255 255 255 255 255 255 255 252 109 
81 87 85 95 99 88 86 89 75 195 255 253 255 254 255 251 71 35 43 44 12 0 33 44 
45 28 179 255 252 255 255 255 255 255 255 252 255 77 0 210 255 253 255 255 255 
255 255 255 255 255 254 254 251 255 74 0 209 255 252 254 255 255 255 255 255 
255 255 255 255 252 255 74 0 209 255 253 255 255 255 255 255 255 255 255 255 
255 252 255 74 0 209 255 253 255 255 255 255 255 255 255 255 255 255 252 255 
74 0 209 255 253 255 255 255 255 255 255 255 255 255 255 252 255 74 0 209 255 
253 255 255 255 255 255 255 255 255 255 255 252 255 74 0 209 255 253 255 255 
255 255 255 255 255 255 255 255 252 255 74 0 209 255 253 255 255 255 255 255 
255 255 255 255 255 252 255 74 0 209 255 253 255 255 255 255 255 255 255 255 
255 255 252 255 75 0 210 255 253 255 255 255 255 255 255 255 255 255 255 252 
255 74 0 208 255 253 255 255 255 255 255 255 255 255 255 255 254 255 213 192 
244 255 254 255 255 255 255 255 255 255 255 255 255 255 255 255 255 255 255 
255 255 255 255 255 255 255 255 255 255 255 255 255 253 252 255 255 255 255 
255 255 255 255 255 255 255 255 255 255 255 255 255 255 255 255 255 255 255 
255 255 255 255 255 255 255 255 255 255 255 255 255 255 255 255 255 255 255 
255 255 255 255 255 255 255 255 255 255 255 255 255 255 255 255 255 255 255 
255 255 255 255 255 255 255 255 255 255 255 255 255 255 255 
