P2
17 22
255
255 255 255 254 251 252 255 255 255 255 255 252 251 255 255 255 255 255 255 
255 255 255 255 254 255 255 255 253 255 255 255 255 255 255 255 253 255 169 
76 150 255 253 255 253 255 145 83 225 255 254 255 255 253 255 214 11 0 195 255 
249 255 185 0 79 255 254 255 255 255 255 252 255 154 0 56 250 255 241 32 23 235 
255 254 255 255 255 255 255 254 255 69 0 135 255 101 0 174 255 252 255 255 255 
255 255 255 253 255 207 2 22 143 0 95 255 252 255 255 255 255 255 255 255 255 
251 255 124 0 0 34 233 255 254 255 255 255 255 255 255 255 255 254 255 241 36 
0 125 255 251 255 255 255 255 255 255 255 255 255 252 255 176 0 0 26 228 255 
254 255 255 255 255 255 255 255 254 255 236 22 42 96 0 98 255 252 255 255 255 
255 255 255 255 252 255 97 0 186 248 28 0 181 255 252 255 255 255 255 255 252 
255 176 0 105 255 255 166 0 42 243 255 254 255 255 255 254 255 234 21 30 240 
255 252 255 84 0 122 255 252 255 255 255 253 255 88 0 185 255 252 253 255 220 
15 0 197 255 253 255 255 255 250 192 206 254 254 255 255 254 255 216 187 220 
255 254 255 255 255 255 255 255 253 255 255 255 255 254 254 255 255 255 255 
255 255 255 255 252 252 255 255 255 255 255 255 253 252 254 255 255 255 255 
255 255 255 255 255 255 255 255 255 255 255 255 255 255 255 255 255 255 255 
255 255 255 255 255 255 255 255 255 255 255 255 255 255 255 255 255 255 255 
255 255 255 255 255 255 255 255 255 255 255 255 255 255 255 255 255 255 255 
255 255 255 255 255 255 255 255 255 255 
