P2
17 22
255
255 255 255 253 250 253 255 255 255 255 255 253 251 254 255 255 255 255 255 
255 255 255 254 254 255 255 255 254 254 255 255 255 255 255 255 253 255 147 
77 182 255 253 255 253 255 192 75 187 255 253 255 255 252 255 175 0 38 241 255 
253 255 247 38 13 230 255 254 255 255 255 253 255 90 0 132 255 248 255 135 0 165 
255 252 255 255 255 255 253 255 213 5 13 221 255 222 3 60 255 254 255 255 255 
255 255 255 252 255 119 0 99 255 88 0 200 255 253 255 255 255 255 255 255 254 
255 233 23 8 133 0 102 255 252 255 255 255 255 255 255 255 255 251 255 146 0 0 
23 229 255 254 255 255 255 255 255 255 255 255 254 255 249 50 0 146 255 251 
255 255 255 255 255 255 255 255 255 255 252 255 92 0 197 255 252 255 255 255 
255 255 255 255 255 255 255 252 255 90 0 197 255 252 255 255 255 255 255 255 
255 255 255 255 252 255 91 0 198 255 252 255 255 255 255 255 255 255 255 255 
255 252 255 92 0 198 255 252 255 255 255 255 255 255 255 255 255 255 252 255 
90 0 198 255 252 255 255 255 255 255 255 255 255 255 255 254 255 217 190 242 
255 254 255 255 255 255 255 255 255 255 255 255 255 255 255 255 255 255 255 
255 255 255 255 255 255 255 255 255 255 255 255 253 252 254 255 255 255 255 
255 255 255 255 255 255 255 255 255 255 255 255 255 255 255 255 255 255 255 
255 255 255 255 255 255 255 255 255 255 255 255 255 255 255 255 255 255 255 
255 255 255 255 255 255 255 255 255 255 255 255 255 255 255 255 255 255 255 
255 255 255 255 255 255 255 255 255 255 255 255 255 255 
