P2
17 22
255
255 255 255 255 252 251 251 251 251 251 251 251 252 255 255 255 255 255 255 
255 255 255 255 255 255 255 255 255 255 255 255 255 255 255 255 255 255 255 
121 78 88 86 86 84 94 90 147 255 253 255 255 255 255 254 255 86 33 44 42 40 47 
24 0 84 255 252 255 255 255 255 255 255 255 255 255 254 255 239 39 0 199 255 
253 255 255 255 255 255 255 254 254 254 251 255 98 0 127 255 252 255 255 255 
255 255 255 255 255 255 252 255 172 0 54 249 255 254 255 255 255 255 255 255 
255 255 254 255 232 28 0 202 255 252 255 255 255 255 255 255 255 255 255 252 
255 95 0 131 255 251 255 255 255 255 255 255 255 255 255 252 255 168 0 57 251 
255 254 255 255 255 255 255 255 255 255 254 255 230 23 2 206 255 253 255 255 
255 255 255 255 255 255 255 253 255 89 0 134 255 248 252 252 253 255 255 255 
255 255 255 252 255 165 0 71 255 255 254 255 255 255 255 255 255 255 255 254 
255 230 24 0 161 213 200 203 204 200 217 255 255 255 255 255 252 255 189 0 2 1 
0 0 0 3 0 66 255 253 255 255 255 254 255 241 195 196 195 197 196 196 197 193 
212 255 255 255 255 255 255 255 255 255 255 255 255 255 255 255 255 255 255 
255 255 255 255 255 255 254 252 252 252 252 252 252 252 252 253 255 255 255 
255 255 255 255 255 255 255 255 255 255 255 255 255 255 255 255 255 255 255 
255 255 255 255 255 255 255 255 255 255 255 255 255 255 255 255 255 255 255 
255 255 255 255 255 255 255 255 255 255 255 255 255 255 255 255 255 255 255 
255 255 255 255 255 255 255 255 255 255 255 255 
